<svg width="65" height="64" viewBox="0 0 65 64" fill="none" xmlns="http://www.w3.org/2000/svg">
<circle cx="33" cy="32" r="32" fill="#3EC2CF"/>
<g clip-path="url(#clip0_6267_5611)">
<path d="M46.7179 40.6849C46.3223 39.7984 45.5995 39.3483 44.5629 39.3483C44.215 39.3483 43.8263 39.4028 43.4103 39.4983C42.8443 39.6347 42.1487 39.8256 41.4053 40.0234C40.6415 40.228 39.7618 40.4667 38.9502 40.6645C38.9229 40.6645 38.9025 40.6645 38.8752 40.6645C38.7388 40.6645 38.616 40.5758 38.5751 40.4462C38.2069 39.2869 36.9179 38.0525 34.4151 38.0525C34.0809 38.0525 33.7331 38.073 33.3717 38.1139C33.0375 38.1548 32.7306 38.1753 32.451 38.1753C31.0189 38.1753 30.5278 37.6365 30.0777 37.1523C29.805 36.8522 29.5185 36.5385 29.0821 36.3476C28.6047 36.1362 28.025 36.0339 27.3499 36.0339C25.8836 36.0339 24.4174 36.5181 23.674 36.8113C23.6399 36.825 23.599 36.8318 23.5581 36.8318C23.4967 36.8318 23.4353 36.8113 23.3808 36.7772C23.2921 36.7158 23.2444 36.6204 23.2444 36.5181V32.9514C23.2444 32.5967 22.9579 32.3103 22.6033 32.3103H18.6411C18.2864 32.3103 18 32.5967 18 32.9514V46.3521C18 46.7068 18.2864 46.9932 18.6411 46.9932H22.6033C22.9579 46.9932 23.2444 46.7068 23.2444 46.3521V44.7495C23.2444 44.6472 23.2921 44.5585 23.3739 44.4972C23.4285 44.4562 23.4967 44.4358 23.5581 44.4358C23.5854 44.4358 23.6195 44.4358 23.6467 44.4494C26.1564 45.2132 32.2055 46.9932 34.2514 46.9932C36.4406 46.9932 44.2764 44.2994 46.5269 42.9354C47.1475 42.5604 47.2089 41.7965 46.7043 40.6645L46.7179 40.6781V40.6849ZM21.9691 45.411C21.9691 45.5815 21.8259 45.7247 21.6554 45.7247H19.6095C19.439 45.7247 19.2957 45.5815 19.2957 45.411V33.9198C19.2957 33.7493 19.439 33.6061 19.6095 33.6061H21.6554C21.8259 33.6061 21.9691 33.7493 21.9691 33.9198V45.411ZM45.5654 42.0284C43.2125 43.3037 36.0655 45.7247 34.2651 45.7247C32.2055 45.7247 24.9152 43.5083 23.4762 43.065C23.3467 43.0241 23.258 42.9013 23.258 42.7649V38.6186C23.258 38.4958 23.3262 38.3867 23.4353 38.3389C24.6765 37.732 26.2246 37.3364 27.3703 37.3364C27.8545 37.3364 28.2637 37.4046 28.5774 37.5479C28.7684 37.6297 28.9388 37.8206 29.1434 38.0389C29.8118 38.7686 30.6165 39.4778 32.4715 39.4778C32.7988 39.4778 33.1534 39.4574 33.5285 39.4096C33.8286 39.3755 34.1218 39.3551 34.3946 39.3551C35.8541 39.3551 36.5906 39.8597 36.9043 40.1598C37.0748 40.3235 37.2112 40.5076 37.293 40.6986C37.3271 40.7804 37.3339 40.8759 37.293 40.9577C37.2589 41.0396 37.1839 41.1009 37.1021 41.1282C36.4065 41.3464 35.82 41.5169 35.3426 41.6261L35.1584 41.667C35.0971 41.6806 35.0425 41.6943 34.988 41.7011C34.9334 41.7147 34.8857 41.7215 34.8379 41.7283C34.7902 41.7352 34.7424 41.742 34.7015 41.7488H34.6811C34.6401 41.7488 34.606 41.7625 34.5651 41.7625H34.5378C34.5378 41.7625 34.4765 41.7693 34.4424 41.7761H34.19C34.0877 41.7761 33.9991 41.7693 33.9173 41.7488C33.1398 41.5715 30.0436 40.8486 28.591 40.5076C28.3387 40.4462 28.0864 40.6031 28.0318 40.8554L27.95 41.1964C27.8886 41.4487 28.0455 41.7011 28.2978 41.7625C29.7572 42.1034 32.867 42.8331 33.6376 43.0105C33.7945 43.0446 33.9786 43.065 34.1832 43.065H34.2719C34.3605 43.065 34.456 43.065 34.5515 43.0514C34.647 43.0446 34.7424 43.0309 34.8379 43.0173C34.872 43.0173 34.9061 43.0105 34.9402 43.0036C35.0698 42.9832 35.1994 42.9627 35.3289 42.9354H35.3494C36.0655 42.7922 36.8634 42.5467 37.6476 42.3012L37.9886 42.1921C37.9886 42.1921 38.0159 42.1853 38.0227 42.1853C39.1071 41.9875 40.587 41.5851 41.7804 41.2578C42.5033 41.06 43.1853 40.8759 43.7513 40.7395C44.0923 40.6577 44.3719 40.6167 44.6106 40.6167C45.3267 40.6167 45.4972 41.0055 45.5858 41.1964C45.6608 41.3737 45.7222 41.5238 45.7631 41.6465C45.804 41.7897 45.7427 41.9398 45.6131 42.0148L45.579 42.0284H45.5654Z" fill="white"/>
<path d="M34.9331 35.5224C31.9392 35.5224 29.5046 33.0877 29.5046 30.0939C29.5046 28.9686 29.8524 27.8775 30.5139 26.95C30.6026 26.8272 30.5889 26.6567 30.4798 26.5476L28.4748 24.5426C28.4134 24.4812 28.3316 24.4471 28.2498 24.4471C28.1952 24.4471 28.1406 24.4608 28.0929 24.4881C27.5337 24.8222 26.9336 24.9859 26.3198 24.9859C24.383 24.9859 22.8076 23.4105 22.8076 21.4737C22.8076 19.5369 24.383 17.9616 26.3198 17.9616C28.2566 17.9616 29.8319 19.5369 29.8319 21.4737C29.8319 22.0875 29.6614 22.6877 29.3341 23.2469C29.2591 23.3696 29.2795 23.5265 29.3818 23.6288L31.3868 25.6338C31.4482 25.6952 31.5301 25.7293 31.6119 25.7293C31.6733 25.7293 31.7415 25.7088 31.796 25.6679C32.7235 25.0064 33.8078 24.6586 34.9399 24.6586C36.072 24.6586 37.1563 25.0064 38.0838 25.6679C38.1384 25.7088 38.1997 25.7293 38.2679 25.7293C38.3498 25.7293 38.4316 25.6952 38.493 25.6338L39.7956 24.3312C39.8979 24.2221 39.9183 24.0584 39.8365 23.9357C39.3523 23.1991 39.0931 22.3467 39.0931 21.4737C39.0931 19.005 41.0981 17 43.5669 17C46.0356 17 48.0406 19.005 48.0406 21.4737C48.0406 23.9425 46.0356 25.9475 43.5669 25.9475C42.694 25.9475 41.8415 25.6883 41.105 25.2041C41.0504 25.17 40.989 25.1496 40.9345 25.1496C40.8526 25.1496 40.7708 25.1837 40.7094 25.2451L39.4068 26.5476C39.2977 26.6567 39.2841 26.8272 39.3727 26.95C40.0343 27.8775 40.3821 28.9618 40.3821 30.0939C40.3821 33.0877 37.9474 35.5224 34.9536 35.5224H34.9331ZM34.9331 25.9475C32.6485 25.9475 30.7867 27.8093 30.7867 30.0939C30.7867 32.3785 32.6485 34.2403 34.9331 34.2403C37.2177 34.2403 39.0795 32.3785 39.0795 30.0939C39.0795 29.0641 38.684 28.0684 37.9747 27.2978C37.9611 27.2842 37.9406 27.2637 37.927 27.2569C37.8997 27.2364 37.8724 27.2228 37.8519 27.2091C37.8519 27.2091 37.8451 27.2091 37.8383 27.2023C37.8383 27.2023 37.8383 27.2023 37.8315 27.1887C37.8178 27.1614 37.8042 27.1341 37.7837 27.1137C37.7701 27.0932 37.7565 27.0796 37.7428 27.0659C36.9722 26.3499 35.9765 25.9611 34.9467 25.9611L34.9331 25.9475ZM43.5464 18.2889C41.7869 18.2889 40.3616 19.7211 40.3616 21.4737C40.3616 23.2264 41.7938 24.6586 43.5464 24.6586C45.2991 24.6586 46.7312 23.2264 46.7312 21.4737C46.7312 19.7211 45.2991 18.2889 43.5464 18.2889ZM26.313 19.2437C25.0854 19.2437 24.0829 20.2462 24.0829 21.4737C24.0829 22.7013 25.0854 23.7038 26.313 23.7038C27.5405 23.7038 28.543 22.7013 28.543 21.4737C28.543 20.2462 27.5405 19.2437 26.313 19.2437Z" fill="white"/>
</g>
<defs>
<clipPath id="clip0_6267_5611">
<rect width="30.0409" height="30" fill="white" transform="translate(18 17)"/>
</clipPath>
</defs>
</svg>
