<svg width="64" height="64" viewBox="0 0 64 64" fill="none" xmlns="http://www.w3.org/2000/svg">
<circle cx="32" cy="32" r="32" fill="#3EC2CF"/>
<g clip-path="url(#clip0_6267_5598)">
<path d="M31.0383 38.3887C28.0451 38.3887 25.611 35.9546 25.611 32.9614C25.611 31.6182 26.1156 30.3228 27.0224 29.3205C27.1383 29.1978 27.1315 29.0069 27.0087 28.8841L25.5292 27.4046C25.4678 27.3432 25.386 27.316 25.3042 27.316C25.2496 27.316 25.1951 27.3296 25.1474 27.3569C24.5883 27.691 23.9883 27.8546 23.3746 27.8546C21.4383 27.8546 19.8633 26.2796 19.8633 24.3432C19.8633 22.4069 21.4383 20.8319 23.3746 20.8319C25.311 20.8319 26.886 22.4069 26.886 24.3432C26.886 24.9569 26.7156 25.5569 26.3883 26.116C26.3133 26.2387 26.3337 26.3955 26.436 26.4978L28.0724 28.1341C28.1337 28.1955 28.2156 28.2228 28.2974 28.2228C28.3519 28.2228 28.3996 28.2091 28.4474 28.1819C29.2383 27.7523 30.1315 27.5273 31.0315 27.5273C32.1565 27.5273 33.2474 27.875 34.1746 28.5364C34.2292 28.5773 34.2906 28.5978 34.3587 28.5978C34.4406 28.5978 34.5224 28.5637 34.5837 28.5091L35.886 27.2069C35.9883 27.0978 36.0087 26.9341 35.9269 26.8114C35.4428 26.075 35.1837 25.2228 35.1837 24.35C35.1837 21.8819 37.1883 19.8773 39.6565 19.8773C42.1246 19.8773 44.1292 21.8819 44.1292 24.35C44.1292 26.8182 42.1246 28.8228 39.6565 28.8228C38.7837 28.8228 37.9315 28.5637 37.1951 28.0796C37.1406 28.0455 37.0792 28.025 37.0246 28.025C36.9428 28.025 36.861 28.0591 36.7996 28.1205L35.4974 29.4228C35.3883 29.5319 35.3746 29.7023 35.4633 29.825C36.1246 30.7523 36.4724 31.8364 36.4724 32.9682C36.4724 35.9614 34.0383 38.3955 31.0451 38.3955H31.0383V38.3887ZM31.0383 28.816C28.7542 28.816 26.8928 30.6773 26.8928 32.9614C26.8928 35.2455 28.7542 37.1069 31.0383 37.1069C33.3224 37.1069 35.1837 35.2455 35.1837 32.9614C35.1837 30.6773 33.3224 28.816 31.0383 28.816ZM39.6496 21.1591C37.8906 21.1591 36.4656 22.591 36.4656 24.3432C36.4656 26.0955 37.8974 27.5273 39.6496 27.5273C41.4019 27.5273 42.8337 26.0955 42.8337 24.3432C42.8337 22.591 41.4019 21.1591 39.6496 21.1591ZM23.3815 22.1137C22.1542 22.1137 21.1519 23.116 21.1519 24.3432C21.1519 25.5705 22.1542 26.5728 23.3815 26.5728C24.6087 26.5728 25.611 25.5705 25.611 24.3432C25.611 23.116 24.6087 22.1137 23.3815 22.1137Z" fill="white"/>
<path d="M23.3818 47C23.0273 47 22.7409 46.7136 22.7409 46.3591C22.7409 46.0045 23.0273 45.7182 23.3818 45.7182H25.9864C26.0545 45.7182 26.1227 45.6977 26.1773 45.65C26.5795 45.3364 27.5273 44.3 27.5273 41.5727C27.5273 41.4023 27.3841 41.2591 27.2136 41.2591H19.2977C18.0295 41.2591 17 40.2295 17 38.9614V19.2977C17 18.0295 18.0295 17 19.2977 17H44.7023C45.9705 17 47 18.0295 47 19.2977V38.9614C47 40.2295 45.9705 41.2591 44.7023 41.2591H36.7864C36.6159 41.2591 36.4727 41.4023 36.4727 41.5727C36.4727 44.3068 37.4068 45.3364 37.8091 45.65C37.8636 45.6909 37.9318 45.7182 38 45.7182H40.6114C40.9659 45.7182 41.2523 46.0045 41.2523 46.3591C41.2523 46.7136 40.9659 47 40.6114 47H23.3818ZM29.1227 41.2591C28.9523 41.2591 28.8091 41.4023 28.8091 41.5727C28.8091 43.0455 28.5636 44.2864 28.0727 45.2614C28.025 45.3568 28.0318 45.4727 28.0864 45.5682C28.1409 45.6636 28.2432 45.7182 28.3523 45.7182H35.6273C35.7364 45.7182 35.8386 45.6636 35.8932 45.5682C35.9477 45.4727 35.9545 45.3568 35.9068 45.2614C35.4227 44.2932 35.1705 43.0523 35.1705 41.5727C35.1705 41.4023 35.0273 41.2591 34.8568 41.2591H29.1159H29.1227ZM19.2909 18.2886C18.7455 18.2886 18.2818 18.7523 18.2818 19.2977V38.9614C18.2818 39.5136 18.7455 39.9705 19.2909 39.9705H44.6955C45.2409 39.9705 45.7045 39.5068 45.7045 38.9614V19.2977C45.7045 18.7523 45.2409 18.2886 44.6955 18.2886H19.2909Z" fill="white"/>
<path d="M40.6116 31.6864C40.2571 31.6864 39.9707 31.4 39.9707 31.0455C39.9707 30.6909 40.2571 30.4045 40.6116 30.4045H42.5275C42.8821 30.4045 43.1684 30.6909 43.1684 31.0455C43.1684 31.4 42.8821 31.6864 42.5275 31.6864H40.6116Z" fill="white"/>
<path d="M38.6956 34.5568C38.3411 34.5568 38.0547 34.2705 38.0547 33.9159C38.0547 33.5614 38.3411 33.275 38.6956 33.275H42.5274C42.882 33.275 43.1683 33.5614 43.1683 33.9159C43.1683 34.2705 42.882 34.5568 42.5274 34.5568H38.6956Z" fill="white"/>
<path d="M38.6956 37.4273C38.3411 37.4273 38.0547 37.141 38.0547 36.7864C38.0547 36.4319 38.3411 36.1455 38.6956 36.1455H42.5274C42.882 36.1455 43.1683 36.4319 43.1683 36.7864C43.1683 37.141 42.882 37.4273 42.5274 37.4273H38.6956Z" fill="white"/>
</g>
<defs>
<clipPath id="clip0_6267_5598">
<rect width="30" height="30" fill="white" transform="translate(17 17)"/>
</clipPath>
</defs>
</svg>
