<svg width="65" height="64" viewBox="0 0 65 64" fill="none" xmlns="http://www.w3.org/2000/svg">
<circle cx="32.333" cy="32" r="32" fill="#3EC2CF"/>
<g clip-path="url(#clip0_6267_5436)">
<path d="M40.4411 31.1583C39.2133 31.1583 38.1787 30.2315 38.0384 29.004L37.9246 28.0219C37.8473 27.3325 38.0628 26.6389 38.5222 26.1213C38.9796 25.6036 39.6382 25.3049 40.3272 25.3049H40.5529C41.242 25.3049 41.9006 25.6016 42.3579 26.1213C42.8173 26.6389 43.0348 27.3325 42.9555 28.0219L42.8417 29.006C42.7014 30.2336 41.6668 31.1583 40.439 31.1583H40.4411ZM40.3293 26.5448C39.9857 26.5448 39.6707 26.688 39.443 26.9458C39.2153 27.2036 39.1117 27.535 39.1503 27.8787L39.2641 28.8608C39.3332 29.4643 39.8394 29.9185 40.4411 29.9185C41.0428 29.9185 41.5509 29.4643 41.618 28.8628L41.7318 27.8787C41.7725 27.535 41.6688 27.2056 41.4391 26.9478C41.2115 26.69 40.8944 26.5468 40.5529 26.5468H40.3272L40.3293 26.5448Z" fill="white"/>
<path d="M45.7061 34.8634H44.4743C44.4743 34.0982 43.8096 33.4149 42.8562 33.2042C41.2768 32.8543 39.608 32.8543 38.0286 33.2042C37.0752 33.4149 36.4105 34.0982 36.4105 34.8634H35.1787C35.1787 33.511 36.2418 32.3305 37.7643 31.993C39.5165 31.6042 41.3683 31.6042 43.1205 31.993C44.643 32.3305 45.7061 33.511 45.7061 34.8634Z" fill="white"/>
<path d="M40.4409 37.74C36.2942 37.74 32.9199 34.3438 32.9199 30.1701C32.9199 25.9963 36.2942 22.6001 40.4409 22.6001C44.5877 22.6001 47.9619 25.9963 47.9619 30.1701C47.9619 34.3438 44.5877 37.74 40.4409 37.74ZM40.4409 23.8399C36.9731 23.8399 34.1517 26.6797 34.1517 30.1701C34.1517 33.6604 36.9731 36.5002 40.4409 36.5002C43.9087 36.5002 46.7301 33.6604 46.7301 30.1701C46.7301 26.6797 43.9087 23.8399 40.4409 23.8399Z" fill="white"/>
<path d="M41.1417 46.9999H18.2819C17.9425 46.9999 17.666 46.7216 17.666 46.38V17.9087C17.666 17.5671 17.9425 17.2888 18.2819 17.2888H25.2704V18.5287H18.8978V45.76H40.5258V37.0853H41.7577V46.38C41.7577 46.7237 41.4812 46.9999 41.1417 46.9999Z" fill="white"/>
<path d="M41.7577 23.22H40.5259V18.5287H34.1533V17.2888H41.1418C41.4833 17.2888 41.7577 17.5671 41.7577 17.9087V23.22Z" fill="white"/>
<path d="M33.0514 20.9757H26.3638C25.3251 20.9757 24.4795 20.1246 24.4795 19.0791V16.6199C24.4795 16.2762 24.7559 16 25.0954 16H34.3178C34.6573 16 34.9337 16.2782 34.9337 16.6199V19.0791C34.9337 20.1246 34.0881 20.9757 33.0494 20.9757H33.0514ZM25.7133 17.2398V19.0791C25.7133 19.4413 26.0061 19.7359 26.3658 19.7359H33.0534C33.4132 19.7359 33.7059 19.4413 33.7059 19.0791V17.2398H25.7154H25.7133Z" fill="white"/>
<path d="M31.5516 30.1086H26.3418V31.3485H31.5516V30.1086Z" fill="white"/>
<path d="M22.4633 32.3941C22.3047 32.3941 22.1482 32.3327 22.0283 32.212L20.7822 30.9599L21.6543 30.0843L22.4633 30.8985L24.1037 29.2495L24.9757 30.1272L22.9003 32.2161C22.7804 32.3368 22.6218 32.3982 22.4653 32.3982L22.4633 32.3941Z" fill="white"/>
<path d="M22.4633 37.8014C22.3047 37.8014 22.1482 37.74 22.0283 37.6193L20.7822 36.3651L21.6543 35.4874L22.4633 36.3017L24.1037 34.6506L24.9757 35.5263L22.9003 37.6152C22.7804 37.7359 22.6218 37.7973 22.4653 37.7973L22.4633 37.8014Z" fill="white"/>
<path d="M22.4633 43.2089C22.3047 43.2089 22.1482 43.1475 22.0283 43.0268L20.7822 41.7727L21.6543 40.897L22.4633 41.7113L24.1037 40.0623L24.9757 40.94L22.9003 43.0289C22.7804 43.1496 22.6218 43.2109 22.4653 43.2109L22.4633 43.2089Z" fill="white"/>
<path d="M33.4298 35.5183H26.3418V36.7581H33.4298V35.5183Z" fill="white"/>
<path d="M32.757 24.7014H26.3418V25.9413H32.757V24.7014Z" fill="white"/>
<path d="M22.3978 26.9846C22.2393 26.9846 22.0828 26.9233 21.9628 26.8025L20.7168 25.5484L21.5888 24.6707L22.3978 25.485L24.0382 23.8359L24.9082 24.7116L22.8328 26.8005C22.7129 26.9212 22.5544 26.9826 22.3978 26.9826V26.9846Z" fill="white"/>
<path d="M37.6477 40.9255H26.3418V42.1654H37.6477V40.9255Z" fill="white"/>
</g>
<defs>
<clipPath id="clip0_6267_5436">
<rect width="30.2955" height="31" fill="white" transform="translate(17.666 16)"/>
</clipPath>
</defs>
</svg>
