<svg width="65" height="64" viewBox="0 0 65 64" fill="none" xmlns="http://www.w3.org/2000/svg">
<circle cx="32.333" cy="32" r="32" fill="#3EC2CF"/>
<g clip-path="url(#clip0_6267_5359)">
<path d="M23.9977 23.7069C22.6197 23.7069 21.4614 22.654 21.303 21.2577L21.1704 20.0897C21.0813 19.3057 21.3248 18.5176 21.8396 17.9275C22.3524 17.3375 23.0909 17 23.8651 17H24.1304C24.9046 17 25.6411 17.3375 26.1559 17.9275C26.6707 18.5176 26.9142 19.3057 26.8251 20.0897L26.6924 21.2577C26.534 22.654 25.3758 23.7069 23.9977 23.7069ZM23.8651 18.2246C23.4275 18.2246 23.0256 18.4085 22.7345 18.7419C22.4435 19.0753 22.3108 19.5037 22.3603 19.9483L22.493 21.1163C22.5821 21.8963 23.2275 22.4823 23.9958 22.4823C24.764 22.4823 25.4114 21.8942 25.4985 21.1163L25.6312 19.9483C25.6807 19.5037 25.55 19.0753 25.259 18.7419C24.9679 18.4085 24.566 18.2246 24.1284 18.2246H23.8631H23.8651Z" fill="white"/>
<path d="M21.778 34.8411H20.5781V46.9999H21.778V34.8411Z" fill="white"/>
<path d="M27.4166 34.8411H26.2168V39.5878H27.4166V34.8411Z" fill="white"/>
<path d="M21.1784 35.4535H19.8796C18.654 35.4535 17.668 33.944 17.668 32.6952V28.4314C17.668 26.74 18.8995 25.2588 20.6616 24.8264C21.4516 24.6344 22.602 24.5597 24.081 24.6021C25.0135 24.6304 25.9342 24.6627 26.8509 24.693C29.4387 24.7819 31.8859 24.8668 34.4578 24.8668C34.7905 24.8668 35.0578 25.1416 35.0578 25.4791C35.0578 27.2958 33.6104 28.8012 31.8305 28.8376L27.6845 28.9689C27.5419 28.977 27.4211 29.1063 27.4211 29.266V34.8412H26.2213V29.266C26.2213 28.4557 26.841 27.7888 27.635 27.7444L31.8008 27.611C32.7293 27.5928 33.5134 26.9502 33.7688 26.0873C31.4265 26.0732 29.1773 25.9964 26.8113 25.9156C25.8946 25.8833 24.9759 25.8529 24.0453 25.8247C22.6891 25.7822 21.6179 25.8489 20.9408 26.0146C19.7212 26.3137 18.8678 27.3059 18.8678 28.4274V32.6911C18.8678 33.3661 19.4361 34.2249 19.8796 34.2249H20.5785V29.6418H21.7783V34.8372C21.7783 35.1746 21.509 35.4495 21.1784 35.4495V35.4535Z" fill="white"/>
<path d="M31.7495 42.0268C30.419 42.0268 29.2983 41.0084 29.1459 39.6585L29.0191 38.541C28.934 37.7833 29.1676 37.0214 29.6646 36.4536C30.1616 35.8838 30.8743 35.5564 31.6228 35.5564H31.8762C32.6246 35.5564 33.3374 35.8838 33.8343 36.4536C34.3313 37.0235 34.5669 37.7833 34.4818 38.541L34.3531 39.6585C34.1987 41.0084 33.08 42.0268 31.7495 42.0268ZM31.6228 36.783C31.2109 36.783 30.8347 36.9568 30.5595 37.27C30.2863 37.5832 30.1616 37.9853 30.2091 38.4016L30.3358 39.5191C30.419 40.2506 31.0268 40.8023 31.7475 40.8023C32.4682 40.8023 33.076 40.2506 33.1592 39.5191L33.2859 38.4016C33.3334 37.9853 33.2087 37.5832 32.9355 37.27C32.6622 36.9568 32.2841 36.783 31.8722 36.783H31.6188H31.6228Z" fill="white"/>
<path d="M37.4553 46.9999H36.2555V45.749C36.2555 44.5447 35.2952 43.5666 34.1171 43.5666H29.3831C28.2031 43.5666 27.2448 44.5447 27.2448 45.749V46.9999H26.0449V45.749C26.0449 43.8697 27.5418 42.342 29.3831 42.342H34.1171C35.9585 42.342 37.4553 43.8697 37.4553 45.749V46.9999Z" fill="white"/>
<path d="M41.9594 42.0268C40.6269 42.0268 39.5062 41.0084 39.3538 39.6585L39.2271 38.541C39.1419 37.7833 39.3775 37.0214 39.8745 36.4536C40.3715 35.8838 41.0842 35.5564 41.8326 35.5564H42.0861C42.8345 35.5564 43.5473 35.8838 44.0442 36.4536C44.5412 37.0235 44.7768 37.7833 44.6917 38.541L44.565 39.6585C44.4105 41.0084 43.2919 42.0268 41.9594 42.0268ZM41.8326 36.783C41.4208 36.783 41.0446 36.9568 40.7714 37.27C40.4962 37.5832 40.3734 37.9853 40.421 38.4016L40.5477 39.5191C40.6308 40.2506 41.2387 40.8023 41.9613 40.8023C42.684 40.8023 43.2899 40.2506 43.373 39.5191L43.4998 38.4016C43.5473 37.9853 43.4245 37.5832 43.1493 37.27C42.8761 36.9568 42.4999 36.783 42.0881 36.783H41.8346H41.8326Z" fill="white"/>
<path d="M47.6662 46.9999H46.4664V45.749C46.4664 44.5447 45.5061 43.5666 44.3281 43.5666H39.594C38.416 43.5666 37.4557 44.5447 37.4557 45.749V46.9999H36.2559V45.749C36.2559 43.8697 37.7527 42.342 39.594 42.342H44.3281C46.1694 42.342 47.6662 43.8697 47.6662 45.749V46.9999Z" fill="white"/>
<path d="M39.3067 31.4361C39.1819 31.4361 39.0572 31.3977 38.9542 31.325C38.7384 31.1694 38.6434 30.8744 38.7265 30.6177L39.3819 27.4997L37.0872 25.5457C36.901 25.388 36.8218 25.1173 36.8931 24.8808C36.9723 24.6242 37.2158 24.4423 37.4772 24.4423L40.3323 24.0786L41.7123 21.2051C41.9142 20.7848 42.6349 20.7868 42.8329 21.2051L44.203 24.0786L47.1235 24.4444C47.3571 24.4727 47.567 24.6485 47.6363 24.8788C47.7155 25.1334 47.6184 25.4285 47.4026 25.58L45.1475 27.4957L45.8246 30.6784C45.8761 30.9188 45.7771 31.1795 45.5791 31.321C45.3613 31.4766 45.0584 31.4685 44.8505 31.3028L42.2647 29.6801L39.6254 31.3432C39.5284 31.4038 39.4175 31.4341 39.3047 31.4341L39.3067 31.4361ZM38.8948 25.4931L40.4293 26.7965C40.5996 26.942 40.6788 27.1724 40.6312 27.3967L40.1739 29.567L41.9538 28.4434C42.1459 28.3222 42.3894 28.3222 42.5835 28.4434L44.3634 29.5649L43.9001 27.3987C43.8526 27.1764 43.9298 26.944 44.1021 26.7985L45.6385 25.4951L43.7338 25.2587C43.5318 25.2345 43.3556 25.1051 43.2665 24.9192L42.2706 22.8278L41.2668 24.9172C41.1777 25.1031 41.0015 25.2304 40.8015 25.2547L38.8948 25.4951V25.4931Z" fill="white"/>
</g>
<defs>
<clipPath id="clip0_6267_5359">
<rect width="30" height="30" fill="white" transform="translate(17.666 17)"/>
</clipPath>
</defs>
</svg>
