<svg width="100" height="80" viewBox="0 0 100 80" fill="none" xmlns="http://www.w3.org/2000/svg">
<path d="M68.5203 18.4278C68.5677 19.06 69.0466 19.5683 69.6619 19.7211C70.8769 20.0228 72.0203 20.5052 73.0628 21.1375C73.603 21.4651 74.2983 21.4469 74.7796 21.0377L75.397 20.5129C75.9388 20.0523 76.7434 20.0849 77.2461 20.5878L78.0226 21.3646C78.5254 21.8676 78.5576 22.6724 78.0967 23.214L77.5144 23.8981C77.114 24.3685 77.0866 25.0454 77.3932 25.5816C77.9464 26.5494 78.3725 27.599 78.648 28.7082C78.8008 29.3234 79.3091 29.8023 79.9413 29.8498L80.7371 29.9094C81.4492 29.9629 81.9997 30.5562 81.9997 31.2703V32.1003C81.9997 32.8144 81.4492 33.4077 80.7371 33.4612L79.9413 33.5208C79.3091 33.5683 78.8008 34.0472 78.6479 34.6624C78.3576 35.8308 77.8999 36.9329 77.3027 37.9429C76.9827 38.4841 77.0069 39.1753 77.417 39.6519L77.837 40.1401C78.3027 40.6814 78.2724 41.4902 77.7675 41.9952L77.1812 42.5815C76.6762 43.0864 75.8674 43.1167 75.3261 42.6509L74.8906 42.2762C74.4055 41.8588 73.6996 41.8418 73.1551 42.178C72.6119 42.5134 72.0407 42.8077 71.4458 43.0567C70.6227 43.4013 69.777 42.7485 69.777 41.8562V38.9284C69.777 38.4055 70.0824 37.938 70.522 37.655C72.4828 36.3924 73.7817 34.1913 73.7819 31.6858C73.7819 27.7663 70.6047 24.5884 66.6852 24.5881C64.4647 24.5881 62.4834 25.6086 61.1821 27.2056C60.8915 27.5622 60.4697 27.8 60.0097 27.8H56.8761C55.945 27.8 55.291 26.8857 55.7169 26.0577C55.844 25.8108 55.9791 25.5687 56.1219 25.3318C56.4492 24.789 56.4281 24.0912 56.0148 23.6108L55.4933 23.0047C55.0276 22.4635 55.0578 21.6548 55.5626 21.1499L56.1491 20.5631C56.6541 20.0579 57.4633 20.0276 58.0046 20.4936L58.6102 21.0149C59.0906 21.4285 59.7886 21.4496 60.3314 21.1222C61.3676 20.497 62.5029 20.0195 63.7085 19.7201C64.3238 19.5673 64.8028 19.059 64.8502 18.4267L64.9098 17.6329C64.9633 16.9208 65.5566 16.3704 66.2707 16.3704H67.0998C67.8139 16.3704 68.4072 16.9209 68.4606 17.633L68.5203 18.4278Z" fill="#E1E1E1"/>
<rect x="46" y="29" width="22" height="39" rx="2" fill="#C9C0F2"/>
<rect x="18" y="13" width="25" height="55" rx="2" fill="#6242E2"/>
<rect x="21" y="28" width="5" height="5" rx="1" fill="white"/>
<rect x="52" y="58" width="5" height="5" rx="1" fill="white"/>
<rect x="21" y="35" width="5" height="5" rx="1" fill="white"/>
<rect x="28" y="48" width="5" height="5" rx="1" fill="white"/>
<rect x="28" y="28" width="5" height="5" rx="1" fill="white"/>
<rect x="59" y="58" width="5" height="5" rx="1" fill="white"/>
<rect x="28" y="21" width="5" height="5" rx="1" fill="white"/>
<rect x="59" y="51" width="5" height="5" rx="1" fill="white"/>
<rect x="28" y="41" width="5" height="5" rx="1" fill="white"/>
</svg>
