<svg width="161" height="140" viewBox="0 0 161 140" fill="none" xmlns="http://www.w3.org/2000/svg">
<rect x="19.083" y="33" width="85.2568" height="61.4967" rx="2" fill="white" stroke="#C9C0F2" stroke-width="4"/>
<path d="M17.083 79.8624H106.34V92.4965C106.34 94.7056 104.549 96.4965 102.34 96.4965H21.083C18.8739 96.4965 17.083 94.7056 17.083 92.4965V79.8624Z" fill="#6242E2"/>
<rect x="37.8408" y="100.655" width="47.742" height="8.31704" rx="4.15852" fill="#6242E2"/>
<circle cx="43.5406" cy="57.8341" r="4.23694" fill="#554596"/>
<path d="M43.5401 63.7655C39.7086 63.7655 36.5371 66.2769 35.9953 69.5488C35.905 70.0937 36.3613 70.5446 36.9136 70.5446H50.1666C50.7188 70.5446 51.1751 70.0937 51.0849 69.5488C50.543 66.2769 47.3715 63.7655 43.5401 63.7655Z" fill="#554596"/>
<circle cx="62.1827" cy="57.8341" r="4.23694" fill="#554596"/>
<path d="M62.1826 63.7655C58.3512 63.7655 55.1797 66.2769 54.6378 69.5488C54.5476 70.0937 55.0039 70.5446 55.5562 70.5446H68.8091C69.3614 70.5446 69.8177 70.0937 69.7274 69.5488C69.1856 66.2769 66.0141 63.7655 62.1826 63.7655Z" fill="#554596"/>
<circle cx="80.8258" cy="57.8341" r="4.23694" fill="#554596"/>
<path d="M80.8257 63.7655C76.9943 63.7655 73.8228 66.2769 73.2809 69.5488C73.1907 70.0937 73.6469 70.5446 74.1992 70.5446H87.4522C88.0045 70.5446 88.4607 70.0937 88.3705 69.5488C87.8287 66.2769 84.6571 63.7655 80.8257 63.7655Z" fill="#554596"/>
<rect x="95.083" y="44" width="49.8333" height="65" rx="5" fill="#C9BFF2"/>
<path d="M98.333 52.5C98.333 51.3954 99.2284 50.5 100.333 50.5H139.666C140.771 50.5 141.666 51.3954 141.666 52.5V102.667C141.666 103.771 140.771 104.667 139.666 104.667H100.333C99.2284 104.667 98.333 103.771 98.333 102.667V52.5Z" fill="white"/>
<rect x="107" y="47" width="8" height="4" rx="2" transform="rotate(90 107 47)" fill="#554596"/>
<rect x="137" y="47" width="8" height="4" rx="2" transform="rotate(90 137 47)" fill="#554596"/>
<rect x="105.917" y="66.7498" width="13" height="2.16667" rx="1.08333" fill="#C9BFF2"/>
<rect x="105.917" y="74.333" width="9.75" height="2.16667" rx="1.08333" fill="#C9BFF2"/>
<rect x="105.917" y="81.9164" width="22.75" height="2.16667" rx="1.08333" fill="#C9BFF2"/>
<rect x="105.917" y="89.4998" width="18.4167" height="2.16667" rx="1.08333" fill="#C9BFF2"/>
<path d="M111.51 63.0672C111.628 62.9711 111.802 62.9781 111.912 63.0879L111.933 63.1106C112.022 63.2205 112.022 63.3795 111.933 63.4895L111.912 63.5121L107.512 67.9121C107.402 68.0219 107.228 68.0289 107.11 67.9328L107.088 67.9121L105.088 65.9121C104.971 65.795 104.971 65.605 105.088 65.4879L105.11 65.4672C105.228 65.3711 105.402 65.3781 105.512 65.4879L107.229 67.2051C107.248 67.2238 107.273 67.2344 107.3 67.2344C107.326 67.2344 107.352 67.2238 107.371 67.2051L111.488 63.0879L111.51 63.0672Z" fill="#554596"/>
<path d="M111.51 71.0672C111.628 70.9711 111.802 70.9781 111.912 71.0879L111.933 71.1106C112.022 71.2205 112.022 71.3795 111.933 71.4895L111.912 71.5121L107.512 75.9121C107.402 76.0219 107.228 76.0289 107.11 75.9328L107.088 75.9121L105.088 73.9121C104.971 73.795 104.971 73.605 105.088 73.4879L105.11 73.4672C105.228 73.3711 105.402 73.3781 105.512 73.4879L107.229 75.2051C107.248 75.2238 107.273 75.2344 107.3 75.2344C107.326 75.2344 107.352 75.2238 107.371 75.2051L111.488 71.0879L111.51 71.0672Z" fill="#554596"/>
<path d="M111.51 79.0672C111.628 78.9711 111.802 78.9781 111.912 79.0879L111.933 79.1106C112.022 79.2205 112.022 79.3795 111.933 79.4895L111.912 79.5121L107.512 83.9121C107.402 84.0219 107.228 84.0289 107.11 83.9328L107.088 83.9121L105.088 81.9121C104.971 81.795 104.971 81.605 105.088 81.4879L105.11 81.4672C105.228 81.3711 105.402 81.3781 105.512 81.4879L107.229 83.2051C107.248 83.2238 107.273 83.2344 107.3 83.2344C107.326 83.2344 107.352 83.2238 107.371 83.2051L111.488 79.0879L111.51 79.0672Z" fill="#554596"/>
<path d="M111.51 63.0672C111.628 62.9711 111.802 62.9781 111.912 63.0879L111.933 63.1106C112.022 63.2205 112.022 63.3795 111.933 63.4895L111.912 63.5121L107.512 67.9121C107.402 68.0219 107.228 68.0289 107.11 67.9328L107.088 67.9121L105.088 65.9121C104.971 65.795 104.971 65.605 105.088 65.4879L105.11 65.4672C105.228 65.3711 105.402 65.3781 105.512 65.4879L107.229 67.2051C107.248 67.2238 107.273 67.2344 107.3 67.2344C107.326 67.2344 107.352 67.2238 107.371 67.2051L111.488 63.0879L111.51 63.0672Z" stroke="#554596" stroke-width="2" stroke-linecap="round" stroke-linejoin="round"/>
<path d="M111.51 71.0672C111.628 70.9711 111.802 70.9781 111.912 71.0879L111.933 71.1106C112.022 71.2205 112.022 71.3795 111.933 71.4895L111.912 71.5121L107.512 75.9121C107.402 76.0219 107.228 76.0289 107.11 75.9328L107.088 75.9121L105.088 73.9121C104.971 73.795 104.971 73.605 105.088 73.4879L105.11 73.4672C105.228 73.3711 105.402 73.3781 105.512 73.4879L107.229 75.2051C107.248 75.2238 107.273 75.2344 107.3 75.2344C107.326 75.2344 107.352 75.2238 107.371 75.2051L111.488 71.0879L111.51 71.0672Z" stroke="#554596" stroke-width="2" stroke-linecap="round" stroke-linejoin="round"/>
<path d="M111.51 79.0672C111.628 78.9711 111.802 78.9781 111.912 79.0879L111.933 79.1106C112.022 79.2205 112.022 79.3795 111.933 79.4895L111.912 79.5121L107.512 83.9121C107.402 84.0219 107.228 84.0289 107.11 83.9328L107.088 83.9121L105.088 81.9121C104.971 81.795 104.971 81.605 105.088 81.4879L105.11 81.4672C105.228 81.3711 105.402 81.3781 105.512 81.4879L107.229 83.2051C107.248 83.2238 107.273 83.2344 107.3 83.2344C107.326 83.2344 107.352 83.2238 107.371 83.2051L111.488 79.0879L111.51 79.0672Z" stroke="#554596" stroke-width="2" stroke-linecap="round" stroke-linejoin="round"/>
</svg>
