<svg width="170" height="118" viewBox="0 0 170 118" fill="none" xmlns="http://www.w3.org/2000/svg">
<rect x="35.166" y="16" width="100" height="72" rx="2" stroke="#C9C0F2" stroke-width="4"/>
<path d="M108.805 33.6425C108.84 34.1058 109.19 34.4804 109.644 34.579C111.248 34.9274 112.746 35.5612 114.081 36.4243C114.47 36.6756 114.98 36.6604 115.333 36.3605L116.651 35.2401C117.048 34.9026 117.637 34.9264 118.006 35.2948L119.501 36.79C119.869 37.1585 119.893 37.7482 119.555 38.1451L118.378 39.529C118.085 39.8736 118.063 40.3703 118.298 40.7568C119.064 42.0138 119.63 43.4057 119.952 44.8887C120.051 45.3425 120.425 45.6926 120.888 45.7275L122.607 45.8571C123.129 45.8964 123.532 46.3311 123.532 46.8542V48.6784C123.532 49.2018 123.129 49.6366 122.607 49.6756L120.889 49.8041C120.425 49.8388 120.051 50.189 119.952 50.6431C119.615 52.1953 119.012 53.6477 118.191 54.9501C117.946 55.3399 117.965 55.8472 118.266 56.1965L119.275 57.369C119.616 57.7656 119.594 58.3583 119.224 58.7283L117.933 60.0187C117.563 60.3888 116.971 60.4109 116.574 60.0696L115.45 59.1027C115.095 58.7968 114.577 58.7825 114.185 59.0405C112.824 59.938 111.29 60.595 109.644 60.9523C109.19 61.0509 108.84 61.4254 108.805 61.8888L108.677 63.6068C108.638 64.1287 108.203 64.5322 107.679 64.5322H105.855C105.331 64.5322 104.896 64.1289 104.857 63.6071L104.728 61.8885C104.694 61.4253 104.343 61.0509 103.889 60.9523C102.295 60.6062 100.806 59.9787 99.4773 59.124C99.0866 58.8728 98.5743 58.8901 98.2223 59.1931L96.9152 60.3184C96.5186 60.6598 95.9258 60.6377 95.5557 60.2676L94.2653 58.9772C93.8954 58.6073 93.8731 58.0147 94.2143 57.618L95.3395 56.3099C95.6423 55.9579 95.6596 55.4458 95.4084 55.0552C94.5534 53.7261 93.9252 52.2372 93.579 50.6431C93.4803 50.189 93.1058 49.8388 92.6424 49.8041L90.9254 49.6757C90.4035 49.6366 90 49.2018 90 48.6785V46.8535C90 46.3303 90.4034 45.8955 90.9251 45.8563L92.6428 45.7273C93.106 45.6926 93.4804 45.3424 93.579 44.8885C93.9253 43.2947 94.5535 41.8061 95.4083 40.4771C95.6595 40.0865 95.6422 39.5743 95.3393 39.2223L94.2146 37.9152C93.8732 37.5186 93.8954 36.9259 94.2655 36.5558L95.5558 35.2655C95.9259 34.8954 96.5186 34.8732 96.9152 35.2146L98.2223 36.3393C98.5743 36.6422 99.0865 36.6595 99.4771 36.4083C100.806 35.5533 102.295 34.9252 103.889 34.5789C104.343 34.4803 104.694 34.106 104.728 33.6427L104.857 31.9251C104.896 31.4034 105.331 31 105.854 31H107.679C108.203 31 108.638 31.4035 108.677 31.9254L108.805 33.6425ZM106.766 39.9971C102.475 39.9972 98.9961 43.4756 98.9961 47.7666C98.9962 52.0575 102.475 55.536 106.766 55.5361C111.057 55.5361 114.535 52.0576 114.535 47.7666C114.535 43.4755 111.057 39.9971 106.766 39.9971Z" fill="#6242E2"/>
<path d="M62 65L62 40.5C62 39.6716 62.6716 39 63.5 39C64.3284 39 65 39.6716 65 40.5L65 65L62 65Z" fill="#D9D9D9"/>
<path d="M55 65L55 49.5C55 48.6716 55.6716 48 56.5 48C57.3284 48 58 48.6716 58 49.5L58 65L55 65Z" fill="#D9D9D9"/>
<path d="M48 65L48 52.5C48 51.6716 48.6716 51 49.5 51C50.3284 51 51 51.6716 51 52.5L51 65L48 65Z" fill="#D9D9D9"/>
<path d="M69 65L69 46.5C69 45.6716 69.6716 45 70.5 45C71.3284 45 72 45.6716 72 46.5L72 65L69 65Z" fill="#D9D9D9"/>
<path d="M76 65L76 43.5C76 42.6716 76.6716 42 77.5 42C78.3284 42 79 42.6716 79 43.5L79 65L76 65Z" fill="#D9D9D9"/>
<path d="M46.5 46.5L61.9543 31.9548C62.8805 31.083 64.2559 30.8902 65.3863 31.4736L79 38.5" stroke="#6242E2" stroke-width="2" stroke-linecap="round"/>
<path d="M33.499 77H137.499V86C137.499 88.2091 135.708 90 133.499 90H37.499C35.2899 90 33.499 88.2091 33.499 86V77Z" fill="#6242E2"/>
<rect x="57.9707" y="95.1162" width="55.4284" height="9.63972" rx="4.81986" fill="#6242E2"/>
</svg>
