<svg width="65" height="64" viewBox="0 0 65 64" fill="none" xmlns="http://www.w3.org/2000/svg">
<circle cx="33" cy="32" r="32" fill="#3EC2CF"/>
<g clip-path="url(#clip0_6267_5546)">
<path d="M34.2053 46.9932C34.1016 46.9932 33.991 46.9659 33.9011 46.9182C33.6867 46.8091 33.5554 46.5909 33.5554 46.3523V42.5205C33.5554 42.35 33.4101 42.2068 33.2373 42.2068H22.077C21.0951 42.2068 20.3 42.9909 20.3 43.9591C20.3 44.9273 21.0951 45.7114 22.077 45.7114H31.3012C31.6607 45.7114 31.9512 45.9977 31.9512 46.3523C31.9512 46.7068 31.6607 46.9932 31.3012 46.9932H22.077C20.376 46.9932 19 45.6295 19 43.9591C19 43.9114 19 43.8568 19.0138 43.7955C19.0138 43.7545 19.0277 43.7136 19.0277 43.6727V43.5909C19.0277 43.5568 19.0138 43.5295 19.0069 43.5023C19.0069 43.5023 19.0069 43.4818 19.0069 43.475V17.6409C19 17.2864 19.2904 17 19.65 17H44.8885C45.248 17 45.5385 17.2864 45.5385 17.6409V46.3523C45.5385 46.7068 45.248 46.9932 44.8885 46.9932H42.9455C42.5859 46.9932 42.2955 46.7068 42.2955 46.3523C42.2955 45.9977 42.5859 45.7114 42.9455 45.7114H43.9204C44.0933 45.7114 44.2385 45.5682 44.2385 45.3977V42.5273C44.2385 42.3568 44.0933 42.2136 43.9204 42.2136H41.0094C40.8365 42.2136 40.6913 42.3568 40.6913 42.5273V46.3591C40.6913 46.5977 40.5599 46.8159 40.3456 46.925C40.2487 46.9727 40.145 47 40.0413 47C39.9099 47 39.7855 46.9659 39.6817 46.8909L37.31 45.3295C37.2547 45.2955 37.1925 45.275 37.1302 45.275C37.068 45.275 37.0058 45.2955 36.9505 45.3295L34.5787 46.8909C34.4681 46.9591 34.3436 47 34.2192 47H34.2053V46.9932ZM37.1164 43.7955C37.2478 43.7955 37.3722 43.8295 37.476 43.9045L38.8796 44.825C38.935 44.8591 38.9972 44.8795 39.0594 44.8795C39.1078 44.8795 39.1631 44.8659 39.2115 44.8455C39.3153 44.7909 39.3775 44.6818 39.3775 44.5659V42.5273C39.3775 42.3568 39.2323 42.2136 39.0594 42.2136H35.1734C35.0005 42.2136 34.8553 42.3568 34.8553 42.5273V44.5659C34.8553 44.6818 34.9175 44.7909 35.0213 44.8455C35.0697 44.8727 35.1181 44.8795 35.1734 44.8795C35.2356 44.8795 35.2979 44.8591 35.3532 44.825L36.7568 43.9045C36.8675 43.8364 36.9919 43.7955 37.1164 43.7955ZM20.618 18.2818C20.4452 18.2818 20.3 18.425 20.3 18.5955V40.9455C20.3 41.0545 20.3553 41.1568 20.4521 41.2114C20.5005 41.2455 20.5627 41.2591 20.6249 41.2591C20.6733 41.2591 20.7218 41.2523 20.7632 41.225C21.1919 41.0205 21.6345 40.9182 22.0839 40.9182H43.9204C44.0933 40.9182 44.2385 40.775 44.2385 40.6045V18.5886C44.2385 18.4182 44.0933 18.275 43.9204 18.275H20.618V18.2818Z" fill="white"/>
<path d="M31.2943 37.8977C28.7912 37.8977 26.7583 35.8932 26.7583 33.425C26.7583 32.3477 27.1732 31.2977 27.92 30.4659C28.0306 30.3432 28.0237 30.1522 27.9061 30.0363L26.9934 29.1363C26.9312 29.075 26.8482 29.0409 26.7652 29.0409C26.7306 29.0409 26.6961 29.0409 26.6615 29.0613C26.2466 29.2113 25.8525 29.2795 25.4722 29.2795C23.5084 29.2795 21.9111 27.7045 21.9111 25.7682C21.9111 23.8318 23.5084 22.2568 25.4722 22.2568C27.4359 22.2568 29.0332 23.8318 29.0332 25.7682C29.0332 26.6068 28.729 27.3977 28.1551 28.0522C28.0444 28.175 28.0514 28.3659 28.1689 28.4818L28.8396 29.1432C28.8396 29.1432 28.8811 29.1977 28.9019 29.2386L28.9295 29.2863C28.9917 29.3886 29.0955 29.4432 29.2061 29.4432C29.2545 29.4432 29.3029 29.4363 29.3444 29.4091C29.9805 29.1091 30.6374 28.9591 31.2943 28.9591C31.9512 28.9591 32.6081 29.1091 33.2443 29.4091C33.2857 29.4295 33.3341 29.4432 33.3826 29.4432C33.4932 29.4432 33.5969 29.3886 33.6591 29.2863L33.6868 29.2386C33.7075 29.1977 33.7283 29.1636 33.749 29.1432L35.1112 27.8C35.2149 27.6977 35.2357 27.5341 35.1527 27.4113C34.7378 26.7636 34.5235 26.0341 34.5235 25.2977C34.5235 23.0954 36.342 21.3022 38.5755 21.3022C40.8089 21.3022 42.6275 23.0954 42.6275 25.2977C42.6275 27.5 40.8089 29.2932 38.5755 29.2932C37.8287 29.2932 37.0819 29.075 36.4319 28.6727C36.3766 28.6386 36.3213 28.625 36.2591 28.625C36.1761 28.625 36.0931 28.6591 36.0309 28.7204L34.6825 30.05C34.565 30.1659 34.558 30.3568 34.6687 30.4795C35.4155 31.3113 35.8303 32.3613 35.8303 33.4386C35.8303 35.9068 33.7974 37.9113 31.2943 37.9113V37.8977ZM31.2943 30.2409C29.5103 30.2409 28.0652 31.6727 28.0652 33.425C28.0652 35.1772 29.5173 36.6091 31.2943 36.6091C33.0714 36.6091 34.5235 35.1772 34.5235 33.425C34.5235 31.6727 33.0714 30.2409 31.2943 30.2409ZM38.5755 22.5841C37.0611 22.5841 35.8303 23.7977 35.8303 25.2909C35.8303 26.7841 37.0611 27.9977 38.5755 27.9977C40.0898 27.9977 41.3206 26.7841 41.3206 25.2909C41.3206 23.7977 40.0898 22.5841 38.5755 22.5841ZM25.4722 23.5386C24.2275 23.5386 23.2111 24.5409 23.2111 25.7682C23.2111 26.9954 24.2275 27.9977 25.4722 27.9977C26.7168 27.9977 27.7333 26.9954 27.7333 25.7682C27.7333 24.5409 26.7168 23.5386 25.4722 23.5386Z" fill="white"/>
</g>
<defs>
<clipPath id="clip0_6267_5546">
<rect width="26.5385" height="30" fill="white" transform="translate(19 17)"/>
</clipPath>
</defs>
</svg>
