<svg width="64" height="64" viewBox="0 0 64 64" fill="none" xmlns="http://www.w3.org/2000/svg">
<circle cx="32" cy="32" r="32" fill="#3EC2CF"/>
<g clip-path="url(#clip0_6267_5479)">
<path d="M39.8999 47H17.5999C17.2693 47 17 46.7307 17 46.4001V17.5999C17 17.2693 17.2693 17 17.5999 17H35.158C35.3204 17 35.4748 17.0653 35.5876 17.1822L40.3296 22.0469C40.4385 22.1577 40.4999 22.3082 40.4999 22.4646V28.1748H39.3V22.7082L34.9065 18.1998H18.1998V45.7982H39.3V42.7412H40.4999V46.3981C40.4999 46.7287 40.2306 46.998 39.8999 46.998V47Z" fill="white"/>
<path d="M39.8995 22.9417H35.1575C34.8269 22.9417 34.5576 22.6725 34.5576 22.3418V17.5999H35.7575V21.7419H39.8995V22.9417Z" fill="white"/>
<path d="M35.467 40.4168C35.1343 40.4168 34.7978 40.393 34.4612 40.3475C32.5149 40.0842 30.7884 39.0764 29.6004 37.5142C27.1453 34.2889 27.7749 29.6657 31.0002 27.2126C34.2256 24.7575 38.8467 25.3851 41.3018 28.6124C43.757 31.8377 43.1293 36.4609 39.902 38.914C38.6091 39.898 37.0628 40.4168 35.467 40.4168ZM35.4432 26.9136C34.1444 26.9136 32.8376 27.3235 31.7269 28.1669C29.0282 30.2201 28.5016 34.0889 30.5548 36.7876C31.5487 38.0963 32.994 38.9378 34.6235 39.1595C36.2471 39.3734 37.8686 38.9536 39.1754 37.9597C41.8741 35.9045 42.3987 32.0377 40.3455 29.339C39.1378 27.7492 37.3004 26.9136 35.4432 26.9136Z" fill="white"/>
<path d="M39.6489 38.3664L38.6943 39.0928L39.8656 40.6319L40.8201 39.9055L39.6489 38.3664Z" fill="white"/>
<path d="M43.7156 46.998C43.0207 46.998 42.3336 46.6871 41.8822 46.0911L38.7104 41.9214C38.6133 41.7947 38.5718 41.6363 38.5935 41.4779C38.6153 41.3215 38.6985 41.1769 38.8252 41.0819L41.5318 39.0228C41.6585 38.9238 41.8189 38.8842 41.9753 38.906C42.1337 38.9277 42.2762 39.0109 42.3713 39.1376L45.5431 43.3074C46.3113 44.3171 46.1153 45.7625 45.1056 46.5307C44.6898 46.8475 44.1987 46.9999 43.7137 46.9999L43.7156 46.998ZM40.027 41.6739L42.8366 45.3665C43.2048 45.8476 43.8958 45.9426 44.3789 45.5744C44.862 45.2081 44.9551 44.5151 44.5888 44.032L41.7793 40.3414L40.027 41.6739Z" fill="white"/>
<path d="M34.1228 30.9507H31.4043V32.1505H34.1228V30.9507Z" fill="white"/>
<path d="M35.0114 34.0789H30.5645V35.2787H35.0114V34.0789Z" fill="white"/>
<path d="M21.4005 23.803H20.2012V42.3253H21.4005V23.803Z" fill="white"/>
<path d="M24.4046 24.696H20.2012V25.8959H24.4046V24.696Z" fill="white"/>
<path d="M27.2834 30.9507H20.2012V32.1505H27.2834V30.9507Z" fill="white"/>
<path d="M25.8816 27.8223H20.2012V29.0221H25.8816V27.8223Z" fill="white"/>
<path d="M27.0339 37.2073H20.2012V38.4071H27.0339V37.2073Z" fill="white"/>
<path d="M26.44 34.0789H20.2012V35.2787H26.44V34.0789Z" fill="white"/>
<path d="M28.406 40.3354H20.2012V41.5353H28.406V40.3354Z" fill="white"/>
</g>
<defs>
<clipPath id="clip0_6267_5479">
<rect width="29.012" height="30" fill="white" transform="translate(17 17)"/>
</clipPath>
</defs>
</svg>
