<svg width="170" height="118" viewBox="0 0 170 118" fill="none" xmlns="http://www.w3.org/2000/svg">
<rect x="35.833" y="16" width="100" height="72" rx="2" stroke="#C9C0F2" stroke-width="4"/>
<path d="M33.833 77H137.833V86C137.833 88.2091 136.042 90 133.833 90H37.833C35.6239 90 33.833 88.2091 33.833 86V77Z" fill="#6242E2"/>
<rect x="58.3047" y="95.1162" width="55.4284" height="9.63972" rx="4.81986" fill="#6242E2"/>
<path d="M85.833 18H133.833V77H85.833V18Z" fill="#EEEEEE"/>
<path d="M103 65C101.895 65 101 64.1046 101 63L101 33C101 30.7909 102.791 29 105 29L114 29C116.209 29 118 30.7909 118 33L118 63C118 64.1046 117.105 65 116 65L103 65Z" fill="#C9BFF2"/>
<path d="M105 61C103.895 61 103 60.1046 103 59L103 57C103 55.8954 103.895 55 105 55L114 55C115.105 55 116 55.8954 116 57L116 59C116 60.1046 115.105 61 114 61L105 61Z" fill="#2D1A79"/>
<path d="M105 54C103.895 54 103 53.1046 103 52L103 50C103 48.8954 103.895 48 105 48L114 48C115.105 48 116 48.8954 116 50L116 52C116 53.1046 115.105 54 114 54L105 54Z" fill="#6242E2"/>
<path d="M104 47C103.448 47 103 46.5523 103 46L103 44C103 43.4477 103.448 43 104 43L115 43C115.552 43 116 43.4477 116 44L116 46C116 46.5523 115.552 47 115 47L104 47Z" fill="white"/>
<g style="mix-blend-mode:multiply">
<path d="M107 27C106.448 27 106 26.5523 106 26C106 25.4477 106.448 25 107 25L112 25C112.552 25 113 25.4477 113 26C113 26.5523 112.552 27 112 27L107 27Z" fill="#6242E2"/>
</g>
<path d="M71.44 47H49.3408C48.5067 47 47.833 47.6808 47.833 48.5236C47.833 49.3665 48.5067 50.0473 49.3408 50.0473H71.44C72.2741 50.0473 72.9478 49.3665 72.9478 48.5236C72.9478 47.6808 72.2741 47 71.44 47Z" fill="#E1E1E1"/>
<path d="M67.9938 32.121C68.1958 31.948 68.4939 31.9606 68.6822 32.1582L68.7177 32.199C68.8714 32.397 68.8715 32.6831 68.7177 32.8811L68.6822 32.9218L61.1394 40.8418C60.9511 41.0394 60.6529 41.052 60.451 40.879L60.4121 40.8418L56.9836 37.2418C56.7828 37.0309 56.7828 36.6891 56.9836 36.4782L57.0224 36.4409C57.2244 36.268 57.5225 36.2806 57.7108 36.4782L60.6546 39.5691C60.6867 39.6028 60.7304 39.6218 60.7758 39.6219C60.8212 39.6218 60.8648 39.6028 60.897 39.5691L67.955 32.1582L67.9938 32.121Z" fill="#6242E2" stroke="#6242E2" stroke-width="2" stroke-linecap="round" stroke-linejoin="round"/>
<path d="M76.973 55.7808H49.3408C48.5067 55.7808 47.833 56.4615 47.833 57.3044C47.833 58.1473 48.5067 58.828 49.3408 58.828H76.973C77.8071 58.828 78.4808 58.1473 78.4808 57.3044C78.4808 56.4615 77.8071 55.7808 76.973 55.7808Z" fill="#E1E1E1"/>
<path d="M67.7513 65.1863H49.3408C48.5067 65.1863 47.833 65.867 47.833 66.7099C47.833 67.5528 48.5067 68.2335 49.3408 68.2335H67.7513C68.5854 68.2335 69.2591 67.5528 69.2591 66.7099C69.2591 65.867 68.5854 65.1863 67.7513 65.1863Z" fill="#E1E1E1"/>
</svg>
