<svg width="65" height="64" viewBox="0 0 65 64" fill="none" xmlns="http://www.w3.org/2000/svg">
<circle cx="32.666" cy="32" r="32" fill="#3EC2CF"/>
<g clip-path="url(#clip0_6267_5463)">
<path d="M29.698 43.9999H25.952C25.6237 43.9999 25.3564 43.7327 25.3564 43.4044V37.1996H26.5475V42.8089H29.1025V32.7971H30.2936V43.4044C30.2936 43.7327 30.0263 43.9999 29.698 43.9999Z" fill="white"/>
<path d="M36.9891 44H33.243C32.9148 44 32.6475 43.7327 32.6475 43.4045V32.7972H33.8385V42.809H36.3935V28.2925H37.5846V43.4045C37.5846 43.7327 37.3173 44 36.9891 44Z" fill="white"/>
<path d="M22.408 44H18.6619C18.3317 44 18.0664 43.7327 18.0664 43.4044V34.5974C18.0664 34.2692 18.3337 34.0019 18.6619 34.0019H25.3561V30.0947C25.3561 29.7665 25.6234 29.4992 25.9516 29.4992H32.6478V25.5919C32.6478 25.2637 32.9151 24.9964 33.2433 24.9964H39.9394V21.0872C39.9394 20.759 40.2067 20.4917 40.535 20.4917H46.5177V21.6827H41.1305V25.5919C41.1305 25.9202 40.8632 26.1875 40.535 26.1875H33.8388V30.0947C33.8388 30.4249 33.5715 30.6902 33.2433 30.6902H26.5471V34.5974C26.5471 34.9257 26.2799 35.193 25.9516 35.193H19.2574V42.8089H21.8125V37.2999H23.0035V43.4044C23.0035 43.7327 22.7362 44 22.408 44Z" fill="white"/>
<path d="M44.281 44H40.535C40.2048 44 39.9395 43.7327 39.9395 43.4045V28.2924H41.1305V42.809H43.6855V24.9788H44.8766V43.4045C44.8766 43.7327 44.6093 44 44.281 44Z" fill="white"/>
<path d="M45.2699 23.1765L44.4268 22.3333L45.6728 21.0873L44.4268 19.8412L45.2699 19L46.9386 20.6667C47.0506 20.7787 47.1135 20.93 47.1135 21.0873C47.1135 21.2445 47.0506 21.3958 46.9386 21.5079L45.2699 23.1765Z" fill="white"/>
<path d="M46.4446 42.8091H17.333V44.0001H46.4446V42.8091Z" fill="white"/>
</g>
<defs>
<clipPath id="clip0_6267_5463">
<rect width="29.7799" height="25" fill="white" transform="translate(17.333 19)"/>
</clipPath>
</defs>
</svg>
