<svg width="100" height="80" viewBox="0 0 100 80" fill="none" xmlns="http://www.w3.org/2000/svg">
<rect x="19.373" y="13.3837" width="61.6267" height="44.0753" rx="2" stroke="#C9C0F2" stroke-width="4"/>
<g clip-path="url(#clip0_6267_5205)">
<path d="M51.9916 37.9918C51.6654 37.9918 51.3643 37.7878 51.2556 37.494L49.1812 32.0835C49.1227 31.9366 48.9805 31.8387 48.8216 31.8387C48.8132 31.8387 48.8048 31.8387 48.7881 31.8387C48.6208 31.855 48.4786 31.9774 48.4452 32.1406L48.0771 33.936C48.0019 34.295 47.6757 34.5562 47.3076 34.5562H43.7862C43.3513 34.5562 43 34.2134 43 33.7891C43 33.3647 43.3513 33.022 43.7862 33.022H46.3457C46.5297 33.022 46.6887 32.8914 46.7221 32.72L47.7091 27.9134C47.776 27.5788 48.0688 27.3258 48.4201 27.2932C48.4368 27.2932 48.4535 27.2932 48.4703 27.2932C48.8048 27.2932 49.1059 27.489 49.223 27.791L51.2974 33.2015C51.3559 33.3484 51.4981 33.4463 51.6571 33.4463C51.6654 33.4463 51.6738 33.4463 51.6905 33.4463C51.8578 33.43 52 33.3076 52.0335 33.1444L53.5725 25.6202C53.6478 25.2693 53.9489 25.0163 54.3169 25C54.342 25 54.3587 25 54.3755 25C54.7268 25 55.0028 25.2122 55.1032 25.5631L57.211 32.7527C57.2612 32.9159 57.4117 33.022 57.579 33.022H60.2138C60.6487 33.022 61 33.3647 61 33.7891C61 34.2134 60.6487 34.5562 60.2138 34.5562H56.6924C56.3411 34.5562 56.0316 34.3277 55.9312 34.0013L54.9108 30.5248C54.8606 30.3616 54.71 30.2555 54.5428 30.2555C54.5428 30.2555 54.5344 30.2555 54.526 30.2555C54.3504 30.2555 54.1998 30.3861 54.1664 30.5574L52.7695 37.3798C52.7026 37.7144 52.4099 37.9674 52.0585 38C52.0418 38 52.0167 38 51.9916 38V37.9918Z" fill="#C9BFF2"/>
</g>
<path d="M17.373 47.2494H82.9997V55.459C82.9997 57.6681 81.2088 59.459 78.9997 59.459H21.373C19.1639 59.459 17.373 57.6681 17.373 55.459V47.2494Z" fill="#6242E2"/>
<rect x="32.6348" y="62.5115" width="35.1026" height="6.1048" rx="3.0524" fill="#6242E2"/>
<path d="M37.1929 26.2632H30.1639C29.6356 26.2632 29.209 26.6943 29.209 27.2281C29.209 27.7619 29.6356 28.193 30.1639 28.193H37.1929C37.7212 28.193 38.1478 27.7619 38.1478 27.2281C38.1478 26.6943 37.7212 26.2632 37.1929 26.2632Z" fill="#E1E1E1"/>
<path d="M40.697 31.824H30.1639C29.6356 31.824 29.209 32.2551 29.209 32.7889C29.209 33.3227 29.6356 33.7538 30.1639 33.7538H40.697C41.2252 33.7538 41.6518 33.3227 41.6518 32.7889C41.6518 32.2551 41.2252 31.824 40.697 31.824Z" fill="#E1E1E1"/>
<path d="M34.8569 37.7805H30.1639C29.6356 37.7805 29.209 38.2116 29.209 38.7454C29.209 39.2792 29.6356 39.7103 30.1639 39.7103H34.8569C35.3852 39.7103 35.8118 39.2792 35.8118 38.7454C35.8118 38.2116 35.3852 37.7805 34.8569 37.7805Z" fill="#E1E1E1"/>
<defs>
<clipPath id="clip0_6267_5205">
<rect width="28" height="20" fill="white" transform="translate(44 21)"/>
</clipPath>
</defs>
</svg>
