<svg width="170" height="118" viewBox="0 0 170 118" fill="none" xmlns="http://www.w3.org/2000/svg">
<rect x="35.5" y="16" width="100" height="72" rx="2" stroke="#C9C0F2" stroke-width="4"/>
<path d="M33.833 77H137.833V86C137.833 88.2091 136.042 90 133.833 90H37.833C35.6239 90 33.833 88.2091 33.833 86V77Z" fill="#6242E2"/>
<rect x="58.3047" y="95.1162" width="55.4284" height="9.63972" rx="4.81986" fill="#6242E2"/>
<path d="M64 34C56.5442 34 50.5 40.0442 50.5 47.5C50.5 54.9558 56.5442 61 64 61C71.4558 61 77.5 54.9558 77.5 47.5L64 47.5L64 34Z" fill="#6242E2"/>
<path d="M79.5 48C79.5 39.1634 72.3366 32 63.5 32L63.5 48L79.5 48Z" fill="#C9BFF2"/>
<rect x="85.5" y="36" width="36" height="3" rx="1.5" fill="#D9D9D9"/>
<rect x="85.5" y="44" width="28" height="3" rx="1.5" fill="#D9D9D9"/>
<rect x="85.5" y="53" width="32" height="3" rx="1.5" fill="#D9D9D9"/>
<circle cx="95" cy="37.5" r="2" fill="white" stroke="#BABABA"/>
<circle cx="108" cy="45.5" r="2" fill="white" stroke="#BABABA"/>
<circle cx="99" cy="54.5" r="2" fill="white" stroke="#BABABA"/>
</svg>
