<svg width="64" height="64" viewBox="0 0 64 64" fill="none" xmlns="http://www.w3.org/2000/svg">
<circle cx="32" cy="32" r="32" fill="#3EC2CF"/>
<g clip-path="url(#clip0_6267_5408)">
<path d="M25.4977 31.6417C24.0671 31.6417 22.6892 30.8234 22.0228 29.4187C21.5733 28.4703 21.5107 27.3998 21.8488 26.4034C22.185 25.407 22.8807 24.6046 23.8071 24.1424C24.7335 23.6802 25.7791 23.6182 26.7524 23.9623C27.7257 24.3065 28.5094 25.0208 28.9608 25.9692C29.8892 27.9261 29.0898 30.2931 27.1765 31.2456C26.6351 31.5137 26.0605 31.6417 25.4977 31.6417ZM25.4899 24.9568C25.0912 24.9568 24.6944 25.0488 24.325 25.2329C23.684 25.553 23.2013 26.1073 22.9667 26.7976C22.7342 27.4879 22.7772 28.2302 23.0899 28.8865C23.7329 30.2431 25.3335 30.8114 26.6586 30.1511C27.9837 29.4908 28.5387 27.852 27.8938 26.4954C27.583 25.8372 27.0397 25.3449 26.3654 25.1048C26.0801 25.0028 25.783 24.9528 25.4899 24.9528V24.9568Z" fill="white"/>
<path d="M24.292 36.3878C24.2275 36.3878 24.163 36.3778 24.0985 36.3538L21.3565 35.3834C21.0614 35.2793 20.8953 34.9592 20.9774 34.6491L21.3331 33.3225C21.0438 33.0984 20.7722 32.8543 20.522 32.5861L19.281 33.1044C18.9937 33.2244 18.6614 33.0964 18.5246 32.8082L17.2562 30.137C17.1214 29.8489 17.2249 29.5028 17.4966 29.3447L18.6614 28.6664C18.6126 28.3002 18.5911 27.9301 18.5969 27.5579L17.3598 27.0237C17.0725 26.8996 16.9279 26.5675 17.0295 26.2673L17.9774 23.4621C18.079 23.1599 18.3956 22.9939 18.6927 23.0759L19.9884 23.4401C20.2073 23.1419 20.4477 22.8638 20.7077 22.6097L20.2015 21.3391C20.0842 21.043 20.2112 20.7049 20.4907 20.5648L23.1037 19.2642C23.3813 19.1242 23.7213 19.2302 23.8777 19.5103L24.5422 20.7029C24.8979 20.6528 25.2497 20.6288 25.6249 20.6388L26.1448 19.3723C26.2659 19.0781 26.5943 18.9321 26.8835 19.0341L29.6255 20.0045C29.9207 20.1086 30.0868 20.4287 30.0047 20.7389L29.649 22.0655C29.9402 22.2896 30.2119 22.5357 30.4601 22.7998L31.7011 22.2836C31.9864 22.1635 32.3206 22.2916 32.4574 22.5797L33.7258 25.2509C33.8607 25.539 33.7571 25.8852 33.4855 26.0432L32.3226 26.7215C32.3715 27.0877 32.393 27.4579 32.3851 27.83L33.6223 28.3643C33.9096 28.4883 34.0542 28.8205 33.9526 29.1206L33.0047 31.9258C32.9011 32.228 32.5864 32.3941 32.2894 32.312L30.9936 31.9479C30.7747 32.246 30.5343 32.5241 30.2744 32.7782L30.7806 34.0488C30.8978 34.3449 30.7708 34.6831 30.4913 34.8231L27.8822 36.1217C27.6027 36.2578 27.2627 36.1557 27.1083 35.8756L26.4438 34.6831C26.0881 34.7331 25.7226 34.7491 25.3611 34.7471L24.8412 36.0137C24.7454 36.2438 24.5285 36.3858 24.2959 36.3858L24.292 36.3878ZM22.2692 34.423L23.9617 35.0232L24.4288 33.8867C24.5285 33.6446 24.7513 33.4865 25.0249 33.5186C25.5643 33.5646 26.1096 33.5326 26.6334 33.4225C26.8816 33.3685 27.1396 33.4885 27.2666 33.7166L27.8607 34.7851L29.4711 33.9828L29.0177 32.8443C28.92 32.6001 28.9884 32.322 29.1838 32.1519C29.5904 31.7998 29.95 31.3836 30.2509 30.9174C30.3917 30.6993 30.6535 30.5973 30.9018 30.6673L32.0627 30.9934L32.647 29.2607L31.5369 28.7824C31.3004 28.6804 31.1558 28.4343 31.1773 28.1742C31.2203 27.6179 31.191 27.0637 31.0835 26.5254C31.0327 26.2693 31.148 26.0072 31.3708 25.8772L32.4125 25.2689L31.6288 23.6202L30.5167 24.0824C30.2803 24.1804 30.0086 24.1124 29.8405 23.9123C29.4965 23.4941 29.09 23.1279 28.6347 22.8198C28.4216 22.6757 28.322 22.4056 28.3904 22.1535L28.7089 20.965L27.0164 20.3647L26.5493 21.5012C26.4497 21.7413 26.2014 21.8814 25.9552 21.8694C25.4138 21.8234 24.8705 21.8554 24.3448 21.9654C24.0966 22.0154 23.8386 21.8994 23.7116 21.6713L23.1174 20.6028L21.507 21.4052L21.9585 22.5437C22.0562 22.7858 21.9878 23.0659 21.7923 23.234C21.3858 23.5881 21.0262 24.0043 20.7253 24.4705C20.5845 24.6906 20.3207 24.7887 20.0744 24.7206L18.9135 24.3945L18.3292 26.1273L19.4373 26.6055C19.6738 26.7075 19.8184 26.9516 19.7969 27.2138C19.752 27.77 19.7832 28.3242 19.8927 28.8605C19.9435 29.1186 19.8282 29.3807 19.6054 29.5088L18.5617 30.117L19.3455 31.7658L20.4575 31.3036C20.694 31.2055 20.9656 31.2716 21.1318 31.4716C21.4796 31.8918 21.8862 32.26 22.3396 32.5641C22.5546 32.7082 22.6523 32.9783 22.5839 33.2304L22.2653 34.419L22.2692 34.423Z" fill="white"/>
<path d="M39.5121 41.9342C39.1681 41.9342 38.8222 41.8742 38.4861 41.7562C37.6965 41.476 37.0594 40.8998 36.6958 40.1294C36.3284 39.3591 36.2776 38.4907 36.5532 37.6824C36.8268 36.874 37.3916 36.2217 38.1421 35.8475C39.6958 35.0752 41.5701 35.7395 42.3245 37.3282C43.0789 38.9169 42.4281 40.8378 40.8782 41.6101C40.4463 41.8262 39.9812 41.9342 39.5141 41.9342H39.5121ZM39.5063 36.7379C39.2209 36.7379 38.9317 36.802 38.66 36.938C38.1929 37.1701 37.8411 37.5743 37.6711 38.0765C37.503 38.5808 37.5343 39.119 37.761 39.5992C37.9877 40.0774 38.3825 40.4376 38.873 40.6117C39.3636 40.7837 39.8913 40.7517 40.3584 40.5196C41.3238 40.0394 41.7264 38.8469 41.2574 37.8584C40.9212 37.1501 40.2274 36.7379 39.5043 36.7379H39.5063Z" fill="white"/>
<path d="M38.5217 46C38.4572 46 38.3927 45.99 38.3282 45.966L36.069 45.1657C35.7738 45.0616 35.6077 44.7415 35.6898 44.4333L35.9634 43.4109C35.7582 43.2488 35.5667 43.0747 35.3869 42.8887L34.4273 43.2868C34.14 43.4069 33.8077 43.2788 33.6709 42.9907L32.6273 40.7897C32.4924 40.5016 32.596 40.1554 32.8677 39.9974L33.7667 39.4731C33.7335 39.213 33.7198 38.9529 33.7217 38.6888L32.768 38.2766C32.4807 38.1525 32.3361 37.8204 32.4377 37.5183L33.2195 35.2072C33.3211 34.9051 33.6357 34.737 33.9348 34.8211L34.9335 35.1012C35.0898 34.8931 35.2598 34.695 35.4416 34.5109L35.0527 33.5305C34.9354 33.2344 35.0624 32.8962 35.3419 32.7562L37.4918 31.6877C37.7673 31.5476 38.1113 31.6537 38.2657 31.9338L38.7777 32.8542C39.0318 32.8222 39.3015 32.8022 39.5439 32.8102L39.9465 31.8317C40.0676 31.5376 40.396 31.3915 40.6852 31.4936L42.9445 32.2939C43.2396 32.398 43.4057 32.7181 43.3237 33.0283L43.05 34.0507C43.2533 34.2108 43.4448 34.3849 43.6266 34.571L44.5842 34.1728C44.8696 34.0507 45.2038 34.1808 45.3406 34.4689L46.3842 36.6699C46.5191 36.958 46.4155 37.3022 46.1438 37.4622L45.2448 37.9865C45.2761 38.2466 45.2917 38.5067 45.2878 38.7708L46.2435 39.183C46.5308 39.3071 46.6754 39.6392 46.5738 39.9413L45.792 42.2524C45.6885 42.5545 45.3738 42.7186 45.0767 42.6405L44.0761 42.3604C43.9197 42.5685 43.7497 42.7646 43.568 42.9507L43.9569 43.9311C44.0741 44.2272 43.9471 44.5654 43.6676 44.7055L41.5178 45.7739C41.2383 45.908 40.8983 45.8039 40.7439 45.5278L40.2318 44.6074C39.9797 44.6394 39.7393 44.6554 39.4657 44.6514L39.065 45.6299C38.9693 45.86 38.7523 46 38.5198 46H38.5217ZM36.9797 44.2052L38.1914 44.6334L38.5393 43.7891C38.637 43.5469 38.8637 43.3969 39.1354 43.4209C39.5732 43.4589 40.009 43.4349 40.4312 43.3449C40.6813 43.2948 40.9373 43.4129 41.0644 43.639L41.5061 44.4333L42.6592 43.8611L42.323 43.0147C42.2253 42.7726 42.2937 42.4945 42.4891 42.3244C42.8175 42.0403 43.1048 41.7041 43.3491 41.328C43.4917 41.1119 43.7517 41.0098 43.9999 41.0778L44.8637 41.32L45.282 40.0794L44.4572 39.7232C44.2207 39.6212 44.0761 39.3751 44.0976 39.113C44.1328 38.6648 44.1093 38.2186 44.0233 37.7864C43.9725 37.5303 44.0878 37.2682 44.3106 37.1381L45.0865 36.6859L44.5276 35.5054L43.7008 35.8495C43.4644 35.9476 43.1908 35.8795 43.0266 35.6794C42.7471 35.3413 42.4188 35.0452 42.0533 34.7991C41.8403 34.655 41.7406 34.3849 41.809 34.1328L42.0455 33.2504L40.8338 32.8202L40.4859 33.6646C40.3862 33.9067 40.1634 34.0587 39.8898 34.0327C39.4501 33.9967 39.0162 34.0207 38.596 34.1088C38.3419 34.1628 38.0878 34.0427 37.9628 33.8146L37.5211 33.0203L36.3699 33.5925L36.7061 34.4369C36.8038 34.681 36.7354 34.9591 36.54 35.1292C36.2097 35.4173 35.9204 35.7515 35.68 36.1236C35.5374 36.3437 35.2755 36.4438 35.0292 36.3758L34.1654 36.1337L33.7471 37.3742L34.5699 37.7304C34.8064 37.8324 34.951 38.0785 34.9296 38.3406C34.8944 38.7888 34.9198 39.235 35.0038 39.6652C35.0566 39.9213 34.9393 40.1834 34.7165 40.3135L33.9406 40.7657L34.4996 41.9442L35.3263 41.6001C35.5628 41.5 35.8364 41.5701 36.0006 41.7702C36.28 42.1043 36.6064 42.4004 36.9738 42.6505C37.1869 42.7946 37.2865 43.0647 37.2181 43.3168L36.9817 44.2012L36.9797 44.2052Z" fill="white"/>
<path d="M34.1165 46.0001H17.5922C17.2658 46.0001 17 45.728 17 45.3938V35.0012H18.1844V44.7876H34.1165V46.0001Z" fill="white"/>
<path d="M46.6131 32.5H45.4287V20.2125H31.8066V19H46.0209C46.3473 19 46.6131 19.2721 46.6131 19.6063V32.5Z" fill="white"/>
</g>
<defs>
<clipPath id="clip0_6267_5408">
<rect width="29.6129" height="27" fill="white" transform="translate(17 19)"/>
</clipPath>
</defs>
</svg>
