<svg width="65" height="64" viewBox="0 0 65 64" fill="none" xmlns="http://www.w3.org/2000/svg">
<circle cx="33" cy="32" r="32" fill="#3EC2CF"/>
<g clip-path="url(#clip0_6267_5578)">
<path d="M44.4286 44.828H31.5234V43.6282H43.8287V39.1H24.4649C23.2175 39.1 22.2018 40.1157 22.2018 41.3631C22.2018 42.6105 23.2175 43.6262 24.4649 43.6262H27.1477V44.826H24.4649C22.5543 44.826 21 43.2718 21 41.3611C21 39.4505 22.5543 37.8962 24.4649 37.8962H44.4286C44.7612 37.8962 45.0285 38.1655 45.0285 38.4962V44.2241C45.0285 44.5567 44.7592 44.824 44.4286 44.824V44.828Z" fill="white"/>
<path d="M22.1998 20.4629H21V41.3631H22.1998V20.4629Z" fill="white"/>
<path d="M22.1998 20.4629H21C21 18.5543 22.5543 17 24.4649 17V18.1998C23.2175 18.1998 22.2018 19.2155 22.2018 20.4629H22.1998Z" fill="white"/>
<path d="M27.1458 47C27.0468 47 26.9498 46.9763 26.8607 46.9268C26.6667 46.8218 26.5459 46.6199 26.5459 46.4001V41.3651H27.7457V45.2953L29.007 44.4756C29.2069 44.3469 29.4623 44.3469 29.6603 44.4756L30.9216 45.2953V41.3651H32.1214V46.4001C32.1214 46.6199 32.0006 46.8218 31.8066 46.9268C31.6145 47.0317 31.3789 47.0218 31.1928 46.903L29.3317 45.6933L27.4705 46.903C27.3715 46.9683 27.2567 47 27.1438 47H27.1458Z" fill="white"/>
<path d="M44.4289 39.1001H25.3264V37.9002H43.8289V18.1998H25.0651V38.5001H23.8652V17.5999C23.8652 17.2673 24.1345 17 24.4652 17H44.4289C44.7615 17 45.0288 17.2693 45.0288 17.5999V38.5001C45.0288 38.8308 44.7595 39.1001 44.4289 39.1001Z" fill="white"/>
<path d="M39.0408 28.5114H29.8499C29.5193 28.5114 29.25 28.2421 29.25 27.9115V21.8251C29.25 21.4945 29.5193 21.2252 29.8499 21.2252H39.0408C39.3734 21.2252 39.6407 21.4945 39.6407 21.8251V27.9115C39.6407 28.2441 39.3714 28.5114 39.0408 28.5114ZM30.4498 27.3115H38.4409V22.4251H30.4498V27.3115Z" fill="white"/>
<path d="M37.3441 30.3091H31.5488V31.5089H37.3441V30.3091Z" fill="white"/>
<path d="M39.6407 33.3127H29.25V34.5126H39.6407V33.3127Z" fill="white"/>
<path d="M44.4285 40.7651H24.4648V41.965H44.4285V40.7651Z" fill="white"/>
</g>
<defs>
<clipPath id="clip0_6267_5578">
<rect width="24.0285" height="30" fill="white" transform="translate(21 17)"/>
</clipPath>
</defs>
</svg>
