<svg width="64" height="64" viewBox="0 0 64 64" fill="none" xmlns="http://www.w3.org/2000/svg">
<circle cx="32" cy="32" r="32" fill="#3EC2CF"/>
<g clip-path="url(#clip0_6267_5556)">
<path d="M31.0501 47.0001C29.2896 47.0001 28.294 45.5778 28.0881 44.8871L28.0428 44.753H14.6856C14.3077 44.753 14 44.444 14 44.0646V20.3831C14 20.0037 14.3077 19.6947 14.6856 19.6947H17.4507V21.0716H15.3712V43.3784H28.5361C28.8303 43.3784 29.0928 43.567 29.1855 43.8487L29.3937 44.4736C29.4526 44.6712 29.9798 45.6255 31.0501 45.6255C32.1204 45.6255 32.6453 44.669 32.6974 44.494L32.9124 43.8487C33.0051 43.5693 33.2676 43.3784 33.5618 43.3784H46.9122V21.0716H44.6132V19.6947H47.5978C47.9757 19.6947 48.2834 20.0037 48.2834 20.3831V44.0669C48.2834 44.4463 47.9757 44.7553 47.5978 44.7553H34.0551L34.003 44.9098C33.8039 45.5778 32.8083 47.0001 31.0478 47.0001H31.0501Z" fill="white"/>
<path d="M31.0503 43.626C30.7787 43.626 30.5321 43.4647 30.4235 43.2148C29.3441 40.7587 26.9343 40.895 23.0943 41.3222C21.7751 41.4698 20.4107 41.6198 19.019 41.6198H17.4532C17.0753 41.6198 16.7676 41.3108 16.7676 40.9314V18.2405C16.7676 17.8588 17.0753 17.5521 17.4532 17.5521H19.019C20.3337 17.5521 21.6597 17.4044 22.9427 17.2613C26.2057 16.9 29.3079 16.5547 31.0503 18.879C32.7949 16.5524 35.8972 16.8977 39.1578 17.2613C40.4408 17.4044 41.7668 17.5521 43.0815 17.5521H44.6157C44.9936 17.5521 45.3013 17.8611 45.3013 18.2405V40.9314C45.3013 41.3131 44.9936 41.6198 44.6157 41.6198H43.0815C41.6899 41.6198 40.3254 41.4676 39.0062 41.3222C35.1685 40.8973 32.7587 40.7587 31.6771 43.2148C31.5662 43.4647 31.3218 43.626 31.0503 43.626ZM26.3754 39.6908C28.2784 39.6908 29.9392 40.0884 31.0503 41.5698C32.7949 39.2455 35.8972 39.5909 39.1578 39.9521C40.4408 40.0953 41.7668 40.2429 43.0815 40.2429H43.93V18.9289H43.0815C41.6899 18.9289 40.3254 18.7767 39.0062 18.6313C35.1685 18.2064 32.7587 18.0678 31.6771 20.5239C31.4576 21.0238 30.643 21.0238 30.4212 20.5239C29.3419 18.0656 26.932 18.2042 23.0921 18.6313C21.7729 18.779 20.4084 18.9289 19.0168 18.9289H18.1366V40.2429H19.0168C20.3315 40.2429 21.6575 40.0953 22.9405 39.9521C24.1239 39.8203 25.2892 39.6908 26.3731 39.6908H26.3754Z" fill="white"/>
<path d="M28.0319 36.4374H20.1416V37.8142H28.0319V36.4374Z" fill="white"/>
<path d="M28.0319 32.6271H20.1416V34.0039H28.0319V32.6271Z" fill="white"/>
<path d="M28.0319 28.8192H20.1416V30.1961H28.0319V28.8192Z" fill="white"/>
<path d="M28.0319 21.201H20.1416V22.5779H28.0319V21.201Z" fill="white"/>
<path d="M41.9567 36.4374H34.0664V37.8142H41.9567V36.4374Z" fill="white"/>
<path d="M41.9567 32.6271H34.0664V34.0039H41.9567V32.6271Z" fill="white"/>
<path d="M41.9567 28.8192H34.0664V30.1961H41.9567V28.8192Z" fill="white"/>
<path d="M41.9567 21.201H34.0664V22.5779H41.9567V21.201Z" fill="white"/>
<path d="M31.7355 20.2445H30.3643V42.9354H31.7355V20.2445Z" fill="white"/>
<path d="M28.0319 25.0089H20.1416V26.3858H28.0319V25.0089Z" fill="white"/>
<path d="M41.9567 25.0089H34.0664V26.3858H41.9567V25.0089Z" fill="white"/>
</g>
<defs>
<clipPath id="clip0_6267_5556">
<rect width="34.2857" height="30" fill="white" transform="translate(14 17)"/>
</clipPath>
</defs>
</svg>
