<svg width="161" height="140" viewBox="0 0 161 140" fill="none" xmlns="http://www.w3.org/2000/svg">
<circle cx="80.25" cy="76" r="48.4" stroke="#C9CED1" stroke-width="1.2" stroke-dasharray="3 3"/>
<rect x="17.25" y="72.6243" width="49.8071" height="35.4837" rx="2" fill="white" stroke="#C9C0F2" stroke-width="4"/>
<path d="M15.25 100.08H69.0571V106.108C69.0571 108.317 67.2663 110.108 65.0571 110.108H19.25C17.0409 110.108 15.25 108.317 15.25 106.108V100.08Z" fill="#6242E2"/>
<rect x="27.7632" y="112.615" width="28.7806" height="5.0138" rx="2.5069" fill="#6242E2"/>
<rect x="33.4131" y="88.7874" width="4.54076" height="6.81114" rx="1" fill="#E1E7EA"/>
<rect x="47.0352" y="86.517" width="4.54076" height="9.08151" rx="1" fill="#554596"/>
<rect x="40.2241" y="83.1113" width="4.54076" height="12.4871" rx="1" fill="#6242E2"/>
<rect x="94.4429" y="72.6243" width="49.8071" height="35.4837" rx="2" fill="white" stroke="#C9C0F2" stroke-width="4"/>
<path d="M92.4429 100.08H146.25V106.108C146.25 108.317 144.459 110.108 142.25 110.108H96.4429C94.2337 110.108 92.4429 108.317 92.4429 106.108V100.08Z" fill="#6242E2"/>
<rect x="104.956" y="112.615" width="28.7806" height="5.0138" rx="2.5069" fill="#6242E2"/>
<circle cx="108.393" cy="86.8008" r="2.55418" fill="#554596"/>
<path d="M108.392 90.3765C106.237 90.3765 104.427 91.6955 103.93 93.4753C103.782 94.0072 104.243 94.4631 104.795 94.4631H111.99C112.542 94.4631 113.003 94.0072 112.855 93.4753C112.358 91.6955 110.548 90.3765 108.392 90.3765Z" fill="#554596"/>
<circle cx="119.631" cy="86.8008" r="2.55418" fill="#554596"/>
<path d="M119.631 90.3765C117.475 90.3765 115.665 91.6955 115.168 93.4753C115.02 94.0072 115.481 94.4631 116.033 94.4631H123.228C123.781 94.4631 124.242 94.0072 124.093 93.4753C123.596 91.6955 121.787 90.3765 119.631 90.3765Z" fill="#554596"/>
<circle cx="130.869" cy="86.8008" r="2.55418" fill="#554596"/>
<path d="M130.869 90.3765C128.713 90.3765 126.904 91.6955 126.407 93.4753C126.258 94.0072 126.719 94.4631 127.271 94.4631H134.467C135.019 94.4631 135.48 94.0072 135.331 93.4753C134.834 91.6955 133.025 90.3765 130.869 90.3765Z" fill="#554596"/>
<rect x="55.25" y="17" width="49.8071" height="35.4837" rx="2" fill="white" stroke="#C9C0F2" stroke-width="4"/>
<path d="M80.7458 40.0455C80.7803 39.5821 81.1319 39.2107 81.5802 39.0885C82.1787 38.9253 82.746 38.6866 83.2717 38.3833C83.6731 38.1518 84.1828 38.1637 84.5356 38.4641L84.6305 38.545C85.0277 38.8831 85.6181 38.8592 85.9866 38.49L86.1775 38.2988C86.5452 37.9304 86.5688 37.3416 86.2318 36.9449L86.1112 36.8029C85.8185 36.4584 85.8 35.9637 86.0155 35.5664C86.2774 35.0837 86.4858 34.5677 86.6328 34.0263C86.7545 33.5782 87.1253 33.2266 87.5883 33.1915L87.7063 33.1826C88.2278 33.1432 88.6309 32.7085 88.6309 32.1855V32.0741C88.6309 31.5506 88.2272 31.1158 87.7052 31.0768L87.5894 31.0682C87.1258 31.0336 86.7544 30.6818 86.6326 30.2332C86.4765 29.6587 86.2513 29.1129 85.9664 28.6049C85.7413 28.2036 85.7576 27.6984 86.0574 27.3494L86.079 27.3242C86.4196 26.9277 86.3974 26.3358 86.0281 25.966L85.9445 25.8823C85.5777 25.515 84.9897 25.493 84.5966 25.8319C84.2442 26.1356 83.7314 26.1466 83.3306 25.9105C82.7885 25.5911 82.2011 25.341 81.5802 25.1719C81.1318 25.0498 80.7803 24.6784 80.7458 24.215L80.7369 24.0951C80.698 23.573 80.2631 23.1693 79.7396 23.1693H79.6319C79.1087 23.1693 78.6739 23.5727 78.6347 24.0946L78.6257 24.2155C78.591 24.6787 78.2395 25.0497 77.7914 25.1719C77.1986 25.3334 76.6363 25.5689 76.1149 25.8679C75.7115 26.0993 75.1999 26.0853 74.8477 25.7817L74.7595 25.7057C74.3627 25.3637 73.7692 25.3859 73.399 25.7565L73.3215 25.8342C72.9522 26.204 72.9299 26.7958 73.2704 27.1923L73.3507 27.2858C73.6528 27.6376 73.6667 28.1475 73.4363 28.5499C73.1365 29.0735 72.9002 29.6382 72.7384 30.2336C72.6166 30.682 72.2455 31.0338 71.7822 31.0686L71.6663 31.0773C71.1445 31.1165 70.7412 31.5513 70.7412 32.0745V32.1865C70.7412 32.7095 71.1442 33.1442 71.6657 33.1836L71.7829 33.1925C72.2459 33.2275 72.6166 33.5791 72.7384 34.0272C72.9002 34.6224 73.1364 35.1869 73.4361 35.7103C73.6666 36.1128 73.6526 36.623 73.3503 36.9748L73.2705 37.0677C72.9299 37.4639 72.9519 38.0556 73.3208 38.4255L73.3983 38.5033C73.7683 38.8743 74.362 38.8968 74.759 38.5548L74.8478 38.4784C75.2 38.175 75.7114 38.1611 76.1146 38.3923C76.6361 38.6914 77.1985 38.927 77.7914 39.0886C78.2395 39.2108 78.591 39.5818 78.6257 40.0449L78.6347 40.165C78.6738 40.6868 79.1086 41.0902 79.6319 41.0902H79.7397C80.2631 41.0902 80.698 40.6865 80.7369 40.1645L80.7458 40.0455ZM79.6855 36.2816C77.3964 36.2814 75.541 34.4224 75.541 32.1293C75.5413 29.8364 77.3966 27.9772 79.6855 27.9769C81.9747 27.9769 83.8308 29.8363 83.8311 32.1293C83.8311 34.4225 81.9749 36.2816 79.6855 36.2816Z" fill="#C3C6C8"/>
<path d="M53.25 44.4562H107.057V50.4838C107.057 52.6929 105.266 54.4838 103.057 54.4838H57.25C55.0409 54.4838 53.25 52.6929 53.25 50.4838V44.4562Z" fill="#6242E2"/>
<rect x="65.7632" y="56.9906" width="28.7806" height="5.0138" rx="2.5069" fill="#6242E2"/>
</svg>
