<svg width="100" height="80" viewBox="0 0 100 80" fill="none" xmlns="http://www.w3.org/2000/svg">
<path d="M44.6875 27.4525C26.7932 27.4525 16.4921 40.0048 16.072 55.6887C16.0572 56.2407 16.5063 56.6906 17.0586 56.6906H72.3165C72.8687 56.6906 73.3179 56.2407 73.3023 55.6887C72.8572 40.0048 61.96 27.4525 44.6875 27.4525Z" fill="#C9BFF2"/>
<path d="M39.2051 25.3611C39.2051 23.1519 40.9959 21.3611 43.2051 21.3611H47.3876C49.5967 21.3611 51.3876 23.1519 51.3876 25.3611V56.6904H39.2051V25.3611Z" fill="#6242E2"/>
<rect x="35.7363" y="27.6797" width="2.10613" height="8.42453" rx="1" fill="#554596"/>
<rect x="52.585" y="27.6797" width="2.10613" height="8.42453" rx="1" fill="#554596"/>
<rect x="78.1699" y="55.7665" width="9.82979" height="67.1702" rx="4" transform="rotate(90 78.1699 55.7665)" fill="#C9BFF2"/>
<rect x="23" y="55" width="44" height="2" rx="1" fill="white"/>
<path d="M72.0479 17.7246C74.4079 18.0931 76.5816 19.0241 78.4277 20.376L81.2803 17.9512L84.3252 20.9961L81.8535 23.9004C83.0755 25.6716 83.9193 27.724 84.2656 29.9414L88 30.2217V34.2246L84.2656 34.5039C83.9066 36.8049 83.0121 38.9282 81.7148 40.7441L84.0273 43.4316L81.1973 46.2617L78.5488 43.9824C77.5431 44.7348 76.4367 45.3584 75.2549 45.835C74.8368 43.757 74.1643 41.7716 73.2705 39.9121C76.1874 38.5801 78.2156 35.6396 78.2158 32.2236C78.2155 27.5573 74.4329 23.7747 69.7666 23.7744C66.4554 23.7745 63.5899 25.6798 62.2041 28.4531C60.3742 27.4931 58.4124 26.7509 56.3525 26.2607C56.7755 25.3116 57.2959 24.4151 57.9014 23.585L55.458 20.7451L58.2881 17.915L61.1279 20.3584C62.9693 19.0156 65.1348 18.0904 67.4854 17.7236L67.7656 13.9893H71.7686L72.0479 17.7246Z" fill="#E1E1E1"/>
</svg>
