<svg width="221" height="23" viewBox="0 0 221 23" fill="none" xmlns="http://www.w3.org/2000/svg">
<path d="M3.9375 9.03516C3.9375 6.31641 6.12891 4.125 8.85938 4.13672C11.2031 4.125 13.1719 5.78906 13.5 7.98047H11.4609C11.2383 6.86719 10.1133 6.07031 8.85938 6.05859C7.20703 6.07031 5.88281 7.39453 5.88281 9.03516C5.88281 10.6758 7.20703 12 8.85938 12.0117C10.1133 12 11.0742 11.2031 11.2969 10.0898H13.3125C13.0078 12.2812 11.2031 13.9336 8.85938 13.9336C6.12891 13.9336 3.9375 11.7539 3.9375 9.03516ZM0.0234375 9.03516C0.0351562 4.19531 3.96094 0.28125 8.76562 0.292969C13.6172 0.28125 17.4961 4.19531 17.5078 9.03516C17.5312 13.8516 13.6172 17.7891 8.76562 17.7773C3.96094 17.7891 0 13.8516 0.0234375 9.03516ZM1.96875 9.03516C1.95703 12.7617 5.01562 15.832 8.76562 15.832C12.5273 15.832 15.5742 12.7734 15.5625 9.03516C15.5508 5.27344 12.5156 2.23828 8.76562 2.23828C5.03906 2.23828 1.99219 5.28516 1.96875 9.03516ZM20.6016 17.5195V0.550781H22.7109V15.6445H30.5859V17.5195H20.6016ZM44.2969 5.84766C43.5703 3.66797 41.918 2.28516 39.4922 2.28516C36.4922 2.28516 34.1133 4.65234 34.1016 9.03516C34.1133 13.4062 36.4922 15.7734 39.6328 15.7852C42.4922 15.7734 44.4727 13.875 44.5078 10.8633H40.0781V9.01172H46.5703V10.8398C46.5703 15.0469 43.6758 17.7539 39.6328 17.7539C35.0977 17.7539 32.0508 14.4023 32.0625 9.03516C32.0508 3.66797 35.1328 0.316406 39.4922 0.316406C43.0781 0.316406 45.8438 2.56641 46.4766 5.84766H44.2969ZM55.7578 17.5195V0.550781H66.0469V2.42578H57.8672V8.09766H65.5078V9.94922H57.8672V15.6445H66.1641V17.5195H55.7578ZM71.1328 9.87891V17.5195H69.1172V4.79297H71.0625V6.78516H71.2266C71.8242 5.48438 73.0195 4.62891 74.9531 4.62891C77.5312 4.62891 79.2539 6.19922 79.2422 9.43359V17.5195H77.2266V9.57422C77.2266 7.60547 76.1484 6.43359 74.3438 6.43359C72.4922 6.43359 71.1328 7.67578 71.1328 9.87891ZM87.8203 17.7773C84.1406 17.7891 81.8672 15.1641 81.8672 11.2617C81.8672 7.34766 84.1758 4.62891 87.6328 4.62891C90.3047 4.62891 93.1289 6.26953 93.1172 10.9805V11.8242H83.8828C83.9883 14.5195 85.5586 15.9961 87.8203 15.9961C89.3438 15.9961 90.3047 15.3281 90.7734 14.543H92.9297C92.332 16.4766 90.4453 17.7891 87.8203 17.7773ZM83.8945 10.1133H91.0781C91.0664 7.99219 89.7305 6.41016 87.6328 6.41016C85.4297 6.41016 84.0352 8.14453 83.8945 10.1133ZM95.7422 17.5195V4.79297H97.6875V6.73828H97.8281C98.2852 5.44922 99.6094 4.59375 101.109 4.58203C101.414 4.59375 101.93 4.60547 102.164 4.62891V6.66797C102.012 6.63281 101.473 6.52734 100.945 6.52734C99.1172 6.52734 97.7578 7.79297 97.7578 9.50391V17.5195H95.7422ZM108.867 22.5586C105.785 22.5586 103.699 21.2109 103.477 18.8555H105.586C105.855 20.1562 107.062 20.8008 108.867 20.8008C111.047 20.8008 112.383 19.8516 112.383 17.7539V15.1758H112.219C111.785 15.8789 110.977 17.3203 108.516 17.332C105.422 17.3203 103.102 14.9883 103.102 10.9805C103.102 7.06641 105.34 4.62891 108.539 4.62891C111.012 4.62891 111.809 6.12891 112.266 6.80859H112.43V4.79297H114.398V17.8711C114.387 21.1523 111.973 22.5586 108.867 22.5586ZM105.141 11.0508C105.141 13.6875 106.383 15.5273 108.797 15.5273C111.129 15.5273 112.418 13.8516 112.43 11.0508C112.418 8.32031 111.164 6.43359 108.797 6.43359C106.348 6.43359 105.141 8.48438 105.141 11.0508ZM118.898 22.3008C118.465 22.2891 118.031 22.2773 117.773 22.2539V20.4492C117.984 20.4727 118.441 20.4844 118.758 20.4961C119.578 20.4844 120.27 20.4375 120.938 18.5742L121.312 17.6133L116.602 4.79297H118.805L122.273 14.8945H122.414L125.883 4.79297H128.086L122.695 19.3477C121.945 21.3516 120.703 22.2891 118.898 22.3008ZM145.852 4.81641C145.676 3.15234 144.129 2.19141 142.102 2.19141C139.852 2.19141 138.387 3.36328 138.375 4.98047C138.387 6.76172 140.367 7.42969 141.656 7.74609L143.344 8.21484C145.16 8.68359 148.148 9.72656 148.148 12.9023C148.148 15.668 145.922 17.8125 141.984 17.8242C138.328 17.8125 136.066 15.9258 135.867 13.1133H138.023C138.199 15.0117 139.969 15.9141 141.984 15.9023C144.328 15.9141 146.086 14.707 146.086 12.8555C146.086 11.2031 144.516 10.5703 142.734 10.0664L140.648 9.50391C137.988 8.73047 136.324 7.37109 136.336 5.07422C136.324 2.20312 138.879 0.316406 142.172 0.316406C145.465 0.316406 147.832 2.23828 147.914 4.81641H145.852ZM156.117 17.7773C152.648 17.7891 150.305 15.1641 150.305 11.2148C150.305 7.24219 152.648 4.62891 156.117 4.62891C159.574 4.62891 161.895 7.24219 161.883 11.2148C161.895 15.1641 159.574 17.7891 156.117 17.7773ZM152.32 11.2148C152.332 13.7578 153.527 15.9961 156.117 15.9961C158.684 15.9961 159.867 13.7578 159.867 11.2148C159.867 8.68359 158.684 6.41016 156.117 6.41016C153.527 6.41016 152.332 8.68359 152.32 11.2148ZM166.547 0.550781V17.5195H164.531V0.550781H166.547ZM177.797 12.293V4.79297H179.789V17.5195H177.797V15.3633H177.656C177.059 16.6523 175.793 17.6836 173.883 17.6836C171.469 17.6836 169.746 16.1133 169.758 12.8789V4.79297H171.773V12.7383C171.773 14.5664 172.91 15.75 174.539 15.7383C175.98 15.75 177.785 14.6719 177.797 12.293ZM188.578 4.79297V6.48047H185.906V13.8633C185.895 15.4922 186.715 15.7617 187.57 15.7617C187.934 15.7617 188.473 15.7266 188.766 15.7148V17.5898C188.449 17.6367 187.957 17.6836 187.359 17.6836C185.66 17.6836 183.879 16.6289 183.867 14.3789V6.48047H181.945V4.79297H183.867V1.74609H185.906V4.79297H188.578ZM191.18 17.5195V4.79297H193.195V17.5195H191.18ZM190.781 1.34766C190.77 0.597656 191.414 0 192.188 0.0117188C192.961 0 193.605 0.597656 193.617 1.34766C193.605 2.08594 192.961 2.68359 192.188 2.68359C191.414 2.68359 190.77 2.08594 190.781 1.34766ZM201.609 17.7773C198.141 17.7891 195.797 15.1641 195.797 11.2148C195.797 7.24219 198.141 4.62891 201.609 4.62891C205.066 4.62891 207.387 7.24219 207.375 11.2148C207.387 15.1641 205.066 17.7891 201.609 17.7773ZM197.812 11.2148C197.824 13.7578 199.02 15.9961 201.609 15.9961C204.176 15.9961 205.359 13.7578 205.359 11.2148C205.359 8.68359 204.176 6.41016 201.609 6.41016C199.02 6.41016 197.824 8.68359 197.812 11.2148ZM212.039 9.87891V17.5195H210.023V4.79297H211.969V6.78516H212.133C212.73 5.48438 213.926 4.62891 215.859 4.62891C218.438 4.62891 220.16 6.19922 220.148 9.43359V17.5195H218.133V9.57422C218.133 7.60547 217.055 6.43359 215.25 6.43359C213.398 6.43359 212.039 7.67578 212.039 9.87891Z" fill="#171819"/>
</svg>
