<svg width="511" height="53" viewBox="0 0 511 53" fill="none" xmlns="http://www.w3.org/2000/svg">
<path d="M10.1953 21.2031C10.1953 14.8594 15.3359 9.71875 21.6797 9.71875C26.9297 9.71875 31.1953 13.2734 32.1797 18.0312H28.3516C27.5859 15.2969 24.8516 13.3281 21.6797 13.3281C17.3594 13.3281 13.8047 16.8281 13.8047 21.2031C13.8047 25.5234 17.3594 29.0781 21.6797 29.0781C24.8516 29.0781 27.3125 27.1094 28.0781 24.375H31.8516C30.9219 29.1328 26.9297 32.6328 21.6797 32.6328C15.3359 32.6328 10.1953 27.5469 10.1953 21.2031ZM21.4062 41.6016C10.1406 41.6016 0.953125 32.4688 0.953125 21.2031C1.00781 9.9375 10.1406 0.804688 21.4062 0.804688C32.7266 0.804688 41.75 9.9375 41.8047 21.2031C41.8594 32.4688 32.7266 41.6016 21.4062 41.6016ZM21.4062 37.9922C30.7031 37.9922 38.1953 30.4453 38.1953 21.2031C38.1406 11.9062 30.6484 4.41406 21.4062 4.41406C12.1641 4.41406 4.61719 11.9609 4.61719 21.2031C4.5625 30.4453 12.1094 37.9922 21.4062 37.9922ZM48.9609 41V1.40625H52.8438V37.5H71.6016V41H48.9609ZM103.914 13.7656C102.492 8.57031 98.3359 4.52344 91.9922 4.52344C84.3906 4.52344 78.7031 10.6484 78.7031 21.2031C78.7031 31.7031 84.3359 37.8828 92.2656 37.8828C99.3203 37.8828 104.324 33.043 104.406 25.1406H93.0859V21.6953H108.18V25.0859C108.18 35.2031 101.508 41.5469 92.2656 41.5469C81.8203 41.5469 74.875 33.6172 74.875 21.2031C74.875 8.78906 81.9297 0.859375 91.9922 0.859375C100.578 0.859375 106.648 6.65625 107.961 13.7656H103.914ZM128.617 41V1.40625H151.805V4.90625H132.5V19.4531H150.602V22.8984H132.5V37.5H152.188V41H128.617ZM162.625 22.5703V41H158.852V11.3047H162.461V16.0078H162.789C164.211 12.9453 167.164 10.9219 171.539 10.9219C177.555 10.9219 181.602 14.75 181.602 21.8047V41H177.883V22.0781C177.883 17.2656 175.039 14.3125 170.555 14.3125C165.961 14.3125 162.625 17.4297 162.625 22.5703ZM201.227 41.6016C192.859 41.6016 187.609 35.3672 187.609 26.3438C187.609 17.3203 192.969 10.8672 200.68 10.8672C207.133 10.8672 213.367 15.4609 213.367 25.5234V27.2734H191.328C191.492 33.9727 195.293 38.2656 201.227 38.2656C205.328 38.2656 207.734 36.1328 208.773 34.2734H212.766C211.453 38.375 207.242 41.6016 201.227 41.6016ZM191.383 24.0469H209.539C209.539 18.4688 205.93 14.2578 200.734 14.2578C195.348 14.2578 191.684 18.6875 191.383 24.0469ZM219.32 41V11.3047H222.93V15.8984H223.203C224.406 12.8906 227.578 10.8672 231.242 10.8672C231.844 10.8672 232.719 10.8672 233.156 10.9219V14.6953C232.828 14.6406 231.953 14.4766 230.969 14.4766C226.43 14.4766 223.094 17.5938 223.094 21.9141V41H219.32ZM248.023 52.7578C241.461 52.7578 236.703 49.9688 235.992 44.7188H239.93C240.641 47.8906 243.758 49.4766 248.023 49.4766C253.438 49.4766 256.719 46.9609 256.719 41.5469V34.9844H256.391C255.242 37.5547 252.727 40.6719 247.312 40.6719C240.203 40.6719 235.062 35.0391 235.062 25.9062C235.062 16.8281 240.039 10.8672 247.367 10.8672C252.891 10.8672 255.242 14.3125 256.445 16.8281H256.773V11.3047H260.438V41.7656C260.438 49.3125 255.188 52.7578 248.023 52.7578ZM247.805 37.3359C253.438 37.3359 256.773 33.0703 256.773 26.0156C256.773 19.1797 253.547 14.2578 247.805 14.2578C241.953 14.2578 238.836 19.4531 238.836 26.0156C238.836 32.6875 242.008 37.3359 247.805 37.3359ZM270.328 52.1562C269.562 52.1562 268.742 52.1016 268.25 52.0469L268.305 48.7109L270.109 48.7656C272.023 48.7656 273.938 48.4922 275.523 44.1719L276.562 41.2734L265.625 11.3047H269.672L278.312 36.1875H278.586L287.281 11.3047H291.273L278.75 45.5938C277.109 49.9688 274.375 52.1562 270.328 52.1562ZM331.617 11.3594C331.234 7.03906 327.516 4.30469 322.375 4.30469C316.906 4.30469 313.188 7.36719 313.188 11.5234C313.188 15.625 317.234 17.5391 321.008 18.5781L325.109 19.7266C330.086 21.1484 335.938 23.7188 335.938 30.3906C335.938 36.7891 330.797 41.6562 322.102 41.6562C313.953 41.6562 308.758 37.3359 308.32 30.9922H312.312C312.695 35.6406 316.852 38.1562 322.102 38.1562C327.953 38.1562 332.164 35.0391 332.164 30.3359C332.164 26.3984 328.773 24.5938 323.961 23.2266L319.258 21.8594C313.023 20 309.359 16.8281 309.359 11.6875C309.359 5.23438 315.047 0.859375 322.484 0.859375C329.922 0.859375 335.172 5.28906 335.445 11.3594H331.617ZM354.086 41.6016C346.32 41.6016 340.906 35.3672 340.906 26.2891C340.906 17.1562 346.32 10.8672 354.086 10.8672C361.852 10.8672 367.211 17.1562 367.211 26.2891C367.211 35.3672 361.852 41.6016 354.086 41.6016ZM354.086 38.2656C360.156 38.2656 363.492 32.7969 363.492 26.2891C363.492 19.7812 360.156 14.2578 354.086 14.2578C347.961 14.2578 344.625 19.7812 344.625 26.2891C344.625 32.7969 347.961 38.2656 354.086 38.2656ZM376.992 1.40625V41H373.219V1.40625H376.992ZM403.344 29.5156V11.3047H407.062V41H403.344V36.0781H403.07C401.703 39.0859 398.641 41.3828 394.266 41.3828C388.578 41.3828 384.477 37.5547 384.477 30.5V11.3047H388.25V30.2266C388.25 34.7656 391.148 37.7734 395.359 37.7734C399.242 37.7734 403.344 34.9297 403.344 29.5156ZM426.523 11.3047V14.4766H420.289V33.0703C420.289 36.8438 422.367 37.8828 424.609 37.8828C425.375 37.8828 426.469 37.7734 427.07 37.7734V41.2734C426.469 41.3281 425.539 41.4375 424.281 41.4375C420.398 41.4375 416.516 38.9219 416.516 34V14.4766H412.086V11.3047H416.516V4.19531H420.289V11.3047H426.523ZM432.75 41V11.3047H436.469V41H432.75ZM434.664 6.21875C433.188 6.21875 431.93 5.07031 431.93 3.64844C431.93 2.22656 433.188 1.02344 434.664 1.02344C436.141 1.02344 437.398 2.22656 437.398 3.64844C437.398 5.07031 436.141 6.21875 434.664 6.21875ZM455.711 41.6016C447.945 41.6016 442.531 35.3672 442.531 26.2891C442.531 17.1562 447.945 10.8672 455.711 10.8672C463.477 10.8672 468.836 17.1562 468.836 26.2891C468.836 35.3672 463.477 41.6016 455.711 41.6016ZM455.711 38.2656C461.781 38.2656 465.117 32.7969 465.117 26.2891C465.117 19.7812 461.781 14.2578 455.711 14.2578C449.586 14.2578 446.25 19.7812 446.25 26.2891C446.25 32.7969 449.586 38.2656 455.711 38.2656ZM478.617 22.5703V41H474.844V11.3047H478.453V16.0078H478.781C480.203 12.9453 483.156 10.9219 487.531 10.9219C493.547 10.9219 497.594 14.75 497.594 21.8047V41H493.875V22.0781C493.875 17.2656 491.031 14.3125 486.547 14.3125C481.953 14.3125 478.617 17.4297 478.617 22.5703ZM507.977 41.2734C506.336 41.2734 505.023 39.9609 505.023 38.375C505.023 36.7344 506.336 35.4219 507.977 35.4219C509.562 35.4219 510.875 36.7344 510.875 38.375C510.875 39.9609 509.562 41.2734 507.977 41.2734Z" fill="#171819"/>
</svg>
