<svg width="227" height="24" viewBox="0 0 227 24" fill="none" xmlns="http://www.w3.org/2000/svg">
<path d="M4.13281 9.51562C4.13281 6.79688 6.33594 4.61719 9.05469 4.61719C11.3984 4.61719 13.3672 6.25781 13.6953 8.46094H11.6562C11.4219 7.33594 10.2969 6.53906 9.05469 6.53906C7.41406 6.53906 6.07812 7.875 6.07812 9.51562C6.07812 11.1562 7.41406 12.4922 9.05469 12.4922C10.2969 12.4922 11.2578 11.6953 11.4922 10.5703H13.5078C13.2031 12.7734 11.3984 14.4141 9.05469 14.4141C6.33594 14.4141 4.13281 12.2344 4.13281 9.51562ZM8.96094 18.2578C4.15625 18.2578 0.195312 14.3438 0.21875 9.51562C0.21875 4.66406 4.15625 0.773438 8.96094 0.773438C13.8125 0.773438 17.7031 4.66406 17.7031 9.51562C17.7266 14.3438 13.8125 18.2578 8.96094 18.2578ZM8.96094 16.3125C12.7344 16.3125 15.7812 13.2656 15.7578 9.51562C15.7344 5.74219 12.7109 2.71875 8.96094 2.71875C5.23438 2.71875 2.1875 5.76562 2.16406 9.51562C2.14062 13.2422 5.21094 16.3125 8.96094 16.3125ZM20.7969 18V1.03125H22.9062V16.125H30.7812V18H20.7969ZM44.4922 6.32812C43.7656 4.14844 42.1016 2.76562 39.6875 2.76562C36.6875 2.76562 34.2969 5.13281 34.2969 9.51562C34.2969 13.8984 36.6875 16.2656 39.8281 16.2656C42.6992 16.2656 44.6562 14.3438 44.7031 11.3438H40.2734V9.49219H46.7656V11.3203C46.7656 15.5391 43.8594 18.2344 39.8281 18.2344C35.3047 18.2344 32.2578 14.8828 32.2578 9.51562C32.2578 4.14844 35.3281 0.796875 39.6875 0.796875C43.2734 0.796875 46.0391 3.04688 46.6719 6.32812H44.4922ZM55.9531 18V1.03125H66.2422V2.90625H58.0625V8.57812H65.7031V10.4297H58.0625V16.125H66.3594V18H55.9531ZM71.3281 10.3594V18H69.3125V5.27344H71.2578V7.26562H71.4219C72.0312 5.97656 73.2031 5.10938 75.1484 5.10938C77.7266 5.10938 79.4375 6.67969 79.4375 9.91406V18H77.4219V10.0547C77.4219 8.08594 76.3438 6.91406 74.5391 6.91406C72.6875 6.91406 71.3281 8.15625 71.3281 10.3594ZM88.0156 18.2578C84.3359 18.2578 82.0625 15.6562 82.0625 11.7422C82.0625 7.82812 84.3594 5.10938 87.8281 5.10938C90.5 5.10938 93.3125 6.75 93.3125 11.4609V12.3047H84.0781C84.1719 15 85.7422 16.4766 88.0156 16.4766C89.5391 16.4766 90.5 15.8203 90.9688 15.0234H93.125C92.5156 16.9453 90.6406 18.2578 88.0156 18.2578ZM84.1016 10.5938H91.2734C91.2734 8.46094 89.9141 6.89062 87.8281 6.89062C85.625 6.89062 84.2188 8.625 84.1016 10.5938ZM95.9375 18V5.27344H97.8828V7.21875H98.0234C98.4922 5.92969 99.8047 5.0625 101.305 5.0625C101.609 5.0625 102.125 5.08594 102.359 5.10938V7.14844C102.219 7.10156 101.656 7.00781 101.141 7.00781C99.3125 7.00781 97.9531 8.27344 97.9531 9.98438V18H95.9375ZM109.062 23.0391C105.992 23.0391 103.906 21.7031 103.672 19.3359H105.781C106.062 20.625 107.258 21.2812 109.062 21.2812C111.242 21.2812 112.578 20.3438 112.578 18.2344V15.6562H112.414C111.992 16.3594 111.172 17.8125 108.711 17.8125C105.617 17.8125 103.297 15.4688 103.297 11.4609C103.297 7.54688 105.547 5.10938 108.734 5.10938C111.195 5.10938 111.992 6.60938 112.461 7.28906H112.625V5.27344H114.594V18.3516C114.594 21.6328 112.156 23.0391 109.062 23.0391ZM108.992 16.0078C111.312 16.0078 112.625 14.3438 112.625 11.5312C112.625 8.8125 111.359 6.91406 108.992 6.91406C106.555 6.91406 105.336 8.97656 105.336 11.5312C105.336 14.1797 106.578 16.0078 108.992 16.0078ZM119.094 22.7812C118.648 22.7812 118.227 22.7578 117.969 22.7344V20.9297C118.18 20.9531 118.648 20.9766 118.953 20.9766C119.773 20.9766 120.453 20.9062 121.133 19.0547L121.508 18.0938L116.797 5.27344H119L122.469 15.375H122.609L126.078 5.27344H128.281L122.891 19.8281C122.141 21.8203 120.898 22.7812 119.094 22.7812ZM146.047 5.29688C145.859 3.63281 144.336 2.67188 142.297 2.67188C140.047 2.67188 138.57 3.84375 138.57 5.46094C138.57 7.24219 140.562 7.89844 141.852 8.22656L143.539 8.69531C145.367 9.16406 148.344 10.2188 148.344 13.3828C148.344 16.1484 146.117 18.3047 142.18 18.3047C138.523 18.3047 136.25 16.4062 136.062 13.5938H138.219C138.406 15.4922 140.164 16.3828 142.18 16.3828C144.523 16.3828 146.281 15.1875 146.281 13.3359C146.281 11.6953 144.711 11.0625 142.93 10.5469L140.844 9.98438C138.172 9.21094 136.531 7.85156 136.531 5.55469C136.531 2.69531 139.086 0.796875 142.367 0.796875C145.648 0.796875 148.016 2.71875 148.109 5.29688H146.047ZM156.312 18.2578C152.844 18.2578 150.5 15.6562 150.5 11.6953C150.5 7.73438 152.844 5.10938 156.312 5.10938C159.758 5.10938 162.078 7.73438 162.078 11.6953C162.078 15.6562 159.758 18.2578 156.312 18.2578ZM156.312 16.4766C158.867 16.4766 160.062 14.2266 160.062 11.6953C160.062 9.16406 158.867 6.89062 156.312 6.89062C153.711 6.89062 152.516 9.16406 152.516 11.6953C152.516 14.2266 153.711 16.4766 156.312 16.4766ZM166.742 1.03125V18H164.727V1.03125H166.742ZM177.992 12.7734V5.27344H179.984V18H177.992V15.8438H177.852C177.242 17.1328 176 18.1641 174.078 18.1641C171.664 18.1641 169.953 16.5938 169.953 13.3594V5.27344H171.969V13.2188C171.969 15.0469 173.117 16.2188 174.734 16.2188C176.164 16.2188 177.992 15.1406 177.992 12.7734ZM188.773 5.27344V6.96094H186.102V14.3438C186.102 15.9844 186.898 16.2422 187.766 16.2422C188.141 16.2422 188.656 16.2188 188.961 16.1953V18.0703C188.656 18.1172 188.141 18.1641 187.555 18.1641C185.867 18.1641 184.062 17.1094 184.062 14.8594V6.96094H182.141V5.27344H184.062V2.22656H186.102V5.27344H188.773ZM191.375 18V5.27344H193.391V18H191.375ZM192.383 3.16406C191.609 3.16406 190.977 2.57812 190.977 1.82812C190.977 1.07812 191.609 0.492188 192.383 0.492188C193.156 0.492188 193.812 1.07812 193.812 1.82812C193.812 2.57812 193.156 3.16406 192.383 3.16406ZM201.805 18.2578C198.336 18.2578 195.992 15.6562 195.992 11.6953C195.992 7.73438 198.336 5.10938 201.805 5.10938C205.25 5.10938 207.57 7.73438 207.57 11.6953C207.57 15.6562 205.25 18.2578 201.805 18.2578ZM201.805 16.4766C204.359 16.4766 205.555 14.2266 205.555 11.6953C205.555 9.16406 204.359 6.89062 201.805 6.89062C199.203 6.89062 198.008 9.16406 198.008 11.6953C198.008 14.2266 199.203 16.4766 201.805 16.4766ZM212.234 10.3594V18H210.219V5.27344H212.164V7.26562H212.328C212.938 5.97656 214.109 5.10938 216.055 5.10938C218.633 5.10938 220.344 6.67969 220.344 9.91406V18H218.328V10.0547C218.328 8.08594 217.25 6.91406 215.445 6.91406C213.594 6.91406 212.234 8.15625 212.234 10.3594ZM225.008 18.1406C224.188 18.1406 223.484 17.4609 223.508 16.6172C223.484 15.7969 224.188 15.1172 225.008 15.1172C225.828 15.1172 226.508 15.7969 226.508 16.6172C226.508 17.4609 225.828 18.1406 225.008 18.1406Z" fill="#171819"/>
</svg>
