<svg width="130" height="131" viewBox="0 0 130 131" fill="none" xmlns="http://www.w3.org/2000/svg">
<mask id="mask0_7858_20888" style="mask-type:luminance" maskUnits="userSpaceOnUse" x="20" y="2" width="87" height="121">
<path d="M106.383 2.76562H20.3828V122.766H106.383V2.76562Z" fill="white"/>
</mask>
<g mask="url(#mask0_7858_20888)">
<path d="M67.8224 28.3555C64.2664 28.3555 60.856 29.767 58.3416 32.2795C55.8271 34.7921 54.4145 38.1998 54.4145 41.753V75.3679C54.4006 77.1361 54.7371 78.8895 55.4046 80.5272C56.0722 82.1648 57.0576 83.6542 58.3039 84.9094C59.5503 86.1647 61.0331 87.1609 62.6666 87.8408C64.3002 88.5207 66.0523 88.8708 67.822 88.8708C69.5916 88.8708 71.3437 88.5207 72.9773 87.8408C74.6109 87.1609 76.0936 86.1647 77.34 84.9094C78.5863 83.6542 79.5717 82.1648 80.2393 80.5272C80.9068 78.8895 81.2434 77.1361 81.2294 75.3679V41.753C81.2294 38.1999 79.8169 34.7923 77.3027 32.2798C74.7884 29.7673 71.3782 28.3557 67.8224 28.3555Z" fill="#554596"/>
<path d="M67.829 27.9336C71.4965 27.9338 75.0137 29.3898 77.607 31.9812C80.2002 34.5726 81.6571 38.0872 81.6571 41.7519V75.3667C81.6288 79.013 80.1595 82.5002 77.5692 85.0685C74.9789 87.6369 71.4777 89.0781 67.8285 89.0781C64.1794 89.0781 60.6782 87.6369 58.0879 85.0685C55.4976 82.5002 54.0283 79.013 54 75.3667V41.7519C54 38.0871 55.457 34.5723 58.0504 31.9809C60.6438 29.3894 64.1613 27.9336 67.829 27.9336ZM67.829 88.3436C71.272 88.3396 74.5729 86.9711 77.0074 84.5383C79.4419 82.1055 80.8112 78.8071 80.815 75.3667V41.7519C80.8287 40.0391 80.5029 38.3405 79.8564 36.7541C79.2099 35.1678 78.2555 33.725 77.0482 32.509C75.841 31.293 74.4047 30.3278 72.8223 29.6692C71.24 29.0105 69.5427 28.6714 67.8285 28.6714C66.1144 28.6714 64.4171 29.0105 62.8348 29.6692C61.2524 30.3278 59.8161 31.293 58.6089 32.509C57.4016 33.725 56.4472 35.1678 55.8007 36.7541C55.1542 38.3405 54.8284 40.0391 54.8421 41.7519V75.3667C54.8459 78.8073 56.2153 82.1058 58.65 84.5386C61.0847 86.9715 64.3858 88.3398 67.829 88.3436Z" fill="black"/>
<path d="M67.7746 88.7659C65.7677 88.7599 63.7878 88.3026 61.9818 87.4281C60.1757 86.5535 58.5898 85.284 57.3415 83.7136H57.3283L44.7136 67.0884H44.7037C42.9844 64.9008 40.6259 63.3026 37.956 62.5157C35.286 61.7288 32.437 61.7924 29.8048 62.6975C27.1727 63.6027 24.888 65.3045 23.2681 67.5666C21.6482 69.8287 20.7736 72.5387 20.7658 75.3203V108.947C20.7543 111.577 21.5185 114.152 22.963 116.351C24.4075 118.55 26.4682 120.275 28.8879 121.311C31.3075 122.347 33.9789 122.647 36.5685 122.175C39.1581 121.703 41.5511 120.479 43.4488 118.656H43.4579L43.5764 118.538L43.6668 118.447L77.2246 84.9146C74.7087 87.3964 71.3108 88.7804 67.7754 88.7634" fill="#D1D4D4"/>
<path d="M34.172 61.5508H34.2217C36.2573 61.5544 38.2668 62.0095 40.1051 62.8831C41.9434 63.7568 43.5647 65.0273 44.852 66.603L44.8703 66.5972L57.5454 83.3044H57.5529L57.6706 83.4519C58.8783 84.9746 60.4141 86.2056 62.1637 87.0532C63.9134 87.9009 65.8318 88.3433 67.7763 88.3476H67.8243C71.2323 88.355 74.5049 87.0152 76.9279 84.6205L77.5214 85.2177L43.9668 118.746L43.9046 118.808L43.5573 119.156L43.5399 119.148C40.9931 121.507 37.6472 122.816 34.1745 122.811H34.1222C32.3062 122.805 30.5093 122.441 28.834 121.74C27.1588 121.04 25.638 120.017 24.3585 118.729C23.0791 117.441 22.066 115.914 21.3772 114.235C20.6883 112.556 20.3372 110.758 20.3438 108.943V75.3202C20.3566 71.6639 21.8191 68.1617 24.411 65.5808C27.0029 62.9999 30.5128 61.5508 34.172 61.5508ZM44.547 67.5787L44.368 67.3518C43.1622 65.8106 41.6217 64.5633 39.8629 63.7042C38.104 62.845 36.1728 62.3964 34.2151 62.3923H34.1687C30.7354 62.4003 27.4444 63.7637 25.0126 66.1855C22.5809 68.6073 21.2054 71.8913 21.186 75.3219V108.948C21.1797 110.652 21.5093 112.341 22.1562 113.918C22.8031 115.495 23.7545 116.929 24.9561 118.138C26.1576 119.348 27.5859 120.309 29.1592 120.967C30.7325 121.625 32.4201 121.966 34.1256 121.972H34.1745C37.5247 121.976 40.7452 120.678 43.1562 118.354L43.3559 118.162L43.3609 118.157L73.619 87.9219C71.8005 88.7621 69.8204 89.1956 67.8169 89.1924H67.7721C65.7337 89.1882 63.7216 88.7316 61.8812 87.8558C60.0408 86.9799 58.4181 85.7066 57.1302 84.1277H57.1086L44.5545 67.577L44.547 67.5787Z" fill="black"/>
<path d="M67.827 18.0288C67.2563 18.0288 66.7089 17.8026 66.3048 17.3998C65.9008 16.9971 65.6732 16.4506 65.6719 15.8803V5.29381C65.6719 4.72378 65.8985 4.17711 66.3019 3.77404C66.7052 3.37097 67.2523 3.14453 67.8228 3.14453C68.3933 3.14453 68.9404 3.37097 69.3437 3.77404C69.7471 4.17711 69.9737 4.72378 69.9737 5.29381V15.8787C69.9742 16.4482 69.7483 16.9946 69.3457 17.3978C68.9432 17.8009 68.3969 18.0279 67.827 18.0288Z" fill="white"/>
<path d="M67.8276 18.4484C67.1465 18.4471 66.4937 18.1762 66.0121 17.6949C65.5305 17.2137 65.2594 16.5614 65.2581 15.8809V5.29268C65.2581 4.61106 65.529 3.95737 66.0114 3.4754C66.4937 2.99343 67.1479 2.72266 67.8301 2.72266C68.5122 2.72266 69.1664 2.99343 69.6487 3.4754C70.1311 3.95737 70.4021 4.61106 70.4021 5.29268V15.8776C70.4016 16.5595 70.1302 17.2134 69.6474 17.6955C69.1647 18.1776 68.5101 18.4484 67.8276 18.4484ZM67.8276 3.56663C67.3689 3.56619 66.9287 3.74774 66.6039 4.07139C66.2791 4.39504 66.0961 4.83431 66.0952 5.29268V15.8776C66.0952 16.336 66.2775 16.7756 66.6019 17.0998C66.9263 17.424 67.3663 17.6061 67.8251 17.6061C68.2839 17.6061 68.7239 17.424 69.0483 17.0998C69.3727 16.7756 69.5549 16.336 69.5549 15.8776V5.29268C69.5545 4.83504 69.3724 4.39626 69.0485 4.07266C68.7247 3.74906 68.2856 3.56707 67.8276 3.56663Z" fill="black"/>
<path d="M91.1172 41.2979C91.1172 40.7277 91.3436 40.1807 91.7466 39.777C92.1497 39.3733 92.6966 39.1458 93.2673 39.1445H103.86C104.431 39.1445 104.978 39.371 105.381 39.774C105.785 40.1771 106.011 40.7238 106.011 41.2938C106.011 41.8638 105.785 42.4105 105.381 42.8136C104.978 43.2166 104.431 43.4431 103.86 43.4431H93.2673C92.697 43.4431 92.1502 43.2167 91.7469 42.8138C91.3437 42.4109 91.1172 41.8644 91.1172 41.2946" fill="white"/>
<path d="M103.853 43.8666H93.2595C92.5774 43.8666 91.9232 43.5958 91.4408 43.1139C90.9585 42.6319 90.6875 41.9782 90.6875 41.2966C90.6875 40.615 90.9585 39.9613 91.4408 39.4793C91.9232 38.9973 92.5774 38.7266 93.2595 38.7266H103.853C104.535 38.7266 105.189 38.9973 105.671 39.4793C106.154 39.9613 106.425 40.615 106.425 41.2966C106.425 41.9782 106.154 42.6319 105.671 43.1139C105.189 43.5958 104.535 43.8666 103.853 43.8666ZM93.2595 39.5681C92.8007 39.5681 92.3607 39.7502 92.0363 40.0743C91.7119 40.3985 91.5296 40.8381 91.5296 41.2966C91.5296 41.755 91.7119 42.1947 92.0363 42.5188C92.3607 42.843 92.8007 43.0251 93.2595 43.0251H103.853C104.311 43.0251 104.751 42.843 105.076 42.5188C105.4 42.1947 105.582 41.755 105.582 41.2966C105.582 40.8381 105.4 40.3985 105.076 40.0743C104.751 39.7502 104.311 39.5681 103.853 39.5681H93.2595Z" fill="black"/>
<path d="M44.5364 41.2975C44.5364 41.8677 44.31 42.4147 43.9069 42.8184C43.5038 43.2221 42.9569 43.4496 42.3862 43.4509H31.7916C31.2211 43.4509 30.674 43.2245 30.2706 42.8214C29.8672 42.4183 29.6406 41.8716 29.6406 41.3016C29.6406 40.7316 29.8672 40.1849 30.2706 39.7819C30.674 39.3788 31.2211 39.1523 31.7916 39.1523H42.3813C42.6638 39.1517 42.9436 39.2067 43.2048 39.3141C43.4661 39.4216 43.7035 39.5795 43.9037 39.7787C44.1038 39.9779 44.2627 40.2146 44.3713 40.4752C44.4798 40.7358 44.5359 41.0152 44.5364 41.2975Z" fill="white"/>
<path d="M31.7908 38.7266H42.3805C43.0626 38.7266 43.7168 38.9973 44.1991 39.4793C44.6815 39.9613 44.9525 40.615 44.9525 41.2966C44.9525 41.9782 44.6815 42.6319 44.1991 43.1139C43.7168 43.5958 43.0626 43.8666 42.3805 43.8666H31.7908C31.1086 43.8666 30.4544 43.5958 29.9721 43.1139C29.4897 42.6319 29.2188 41.9782 29.2188 41.2966C29.2188 40.615 29.4897 39.9613 29.9721 39.4793C30.4544 38.9973 31.1086 38.7266 31.7908 38.7266ZM42.3838 43.0251C42.8426 43.0251 43.2826 42.843 43.607 42.5188C43.9314 42.1947 44.1136 41.755 44.1136 41.2966C44.1136 40.8381 43.9314 40.3985 43.607 40.0743C43.2826 39.7502 42.8426 39.5681 42.3838 39.5681H31.7908C31.332 39.5681 30.892 39.7502 30.5676 40.0743C30.2431 40.3985 30.0609 40.8381 30.0609 41.2966C30.0609 41.755 30.2431 42.1947 30.5676 42.5188C30.892 42.843 31.332 43.0251 31.7908 43.0251H42.3838Z" fill="black"/>
<path d="M51.3612 24.8409C50.9572 25.243 50.4103 25.4688 49.8402 25.4688C49.27 25.4688 48.7231 25.243 48.3192 24.8409L40.8295 17.357C40.4661 16.9462 40.2732 16.4125 40.2901 15.8645C40.307 15.3166 40.5323 14.7957 40.9203 14.4081C41.3082 14.0204 41.8295 13.7952 42.3779 13.7784C42.9262 13.7615 43.4604 13.9543 43.8714 14.3173L51.3612 21.8021C51.5609 22.0016 51.7193 22.2385 51.8274 22.4992C51.9355 22.7599 51.9911 23.0393 51.9911 23.3215C51.9911 23.6037 51.9355 23.8831 51.8274 24.1438C51.7193 24.4045 51.5609 24.6414 51.3612 24.8409Z" fill="white"/>
<path d="M49.8336 25.8941C49.4957 25.8949 49.161 25.8288 48.8489 25.6996C48.5367 25.5704 48.2533 25.3806 48.0151 25.1412L40.527 17.6572C40.0446 17.1753 39.7735 16.5216 39.7734 15.84C39.7734 15.1583 40.0443 14.5046 40.5266 14.0225C41.0089 13.5405 41.6631 13.2696 42.3453 13.2695C43.0274 13.2695 43.6817 13.5402 44.1641 14.0221L51.6538 21.5069C52.0156 21.8657 52.2623 22.3239 52.3627 22.8233C52.4631 23.3226 52.4126 23.8405 52.2177 24.3111C52.0227 24.7816 51.6921 25.1837 51.2679 25.466C50.8437 25.7483 50.345 25.8982 49.8353 25.8965L49.8336 25.8941ZM42.3439 14.1115C42.0018 14.1116 41.6673 14.2131 41.3829 14.4031C41.0985 14.5931 40.8768 14.8631 40.746 15.1789C40.6151 15.4948 40.5809 15.8423 40.6477 16.1776C40.7145 16.5129 40.8793 16.8209 41.1213 17.0626L48.611 24.5465C48.7695 24.7165 48.9605 24.8529 49.1729 24.9474C49.3852 25.042 49.6145 25.0928 49.8469 25.0968C50.0794 25.1009 50.3103 25.0581 50.5258 24.9709C50.7413 24.8838 50.937 24.7542 51.1012 24.5898C51.2655 24.4254 51.3949 24.2296 51.4817 24.0141C51.5685 23.7986 51.611 23.5678 51.6066 23.3356C51.6021 23.1033 51.5509 22.8743 51.4559 22.6623C51.3609 22.4503 51.2241 22.2596 51.0537 22.1016L43.564 14.6168C43.4039 14.4564 43.2138 14.3292 43.0044 14.2425C42.795 14.1558 42.5705 14.1113 42.3439 14.1115Z" fill="black"/>
<path d="M67.8228 28.3555C65.1709 28.3553 62.5786 29.1409 60.3735 30.613C58.1685 32.085 56.4499 34.1774 55.4349 36.6254C54.42 39.0735 54.1543 41.7673 54.6716 44.3663C55.1888 46.9652 56.4658 49.3525 58.3409 51.2263C60.216 53.1 62.605 54.3761 65.2059 54.8931C67.8068 55.4101 70.5027 55.1449 72.9527 54.1309C75.4028 53.1168 77.4968 51.3996 78.9702 49.1964C80.4435 46.9932 81.2299 44.4029 81.2299 41.753C81.2299 38.1999 79.8174 34.7923 77.3031 32.2798C74.7888 29.7673 71.3786 28.3557 67.8228 28.3555Z" fill="white"/>
<path d="M67.8204 27.9336C70.5556 27.9333 73.2295 28.7434 75.5039 30.2616C77.7784 31.7798 79.5511 33.9379 80.5981 36.4629C81.645 38.9878 81.9191 41.7664 81.3856 44.447C80.8522 47.1276 79.5351 49.59 77.6011 51.5227C75.0077 54.1144 71.4903 55.5705 67.8225 55.5707C64.1547 55.5709 60.637 54.1153 58.0433 51.5239C55.4497 48.9326 53.9924 45.4178 53.9922 41.7528C53.992 38.0879 55.4488 34.5729 58.0421 31.9812C59.3232 30.694 60.847 29.6735 62.5255 28.9787C64.2039 28.2839 66.0036 27.9287 67.8204 27.9336ZM67.8204 54.728C70.3889 54.728 72.8998 53.9669 75.0355 52.5409C77.1712 51.115 78.8358 49.0882 79.8187 46.7169C80.8016 44.3457 81.0587 41.7364 80.5576 39.2192C80.0564 36.7019 78.8195 34.3896 77.0031 32.5748C75.1868 30.76 72.8727 29.5242 70.3534 29.0235C67.8342 28.5229 65.223 28.78 62.8499 29.7623C60.4769 30.7447 58.4487 32.4081 57.0218 34.5422C55.5949 36.6763 54.8334 39.1853 54.8335 41.752C54.8375 45.1923 56.207 48.4907 58.6417 50.9233C61.0764 53.3559 64.3773 54.7242 67.8204 54.728Z" fill="black"/>
<path d="M34.1744 61.9688C31.5225 61.9686 28.9301 62.7542 26.7251 64.2262C24.5201 65.6983 22.8014 67.7906 21.7865 70.2387C20.7715 72.6868 20.5059 75.3806 21.0232 77.9795C21.5404 80.5785 22.8173 82.9658 24.6924 84.8395C26.5675 86.7133 28.9566 87.9894 31.5575 88.5064C34.1584 89.0234 36.8543 88.7581 39.3043 87.7441C41.7543 86.7301 43.8484 85.0129 45.3217 82.8097C46.795 80.6065 47.5814 78.0161 47.5814 75.3663C47.5814 71.8132 46.1689 68.4056 43.6546 65.8931C41.1403 63.3806 37.7302 61.969 34.1744 61.9688Z" fill="white"/>
<path d="M34.1719 61.5508C36.9071 61.5505 39.5811 62.3606 41.8555 63.8788C44.1299 65.397 45.9027 67.555 46.9496 70.08C47.9966 72.605 48.2706 75.3835 47.7372 78.0642C47.2037 80.7448 45.8867 83.2072 43.9526 85.1399C41.3593 87.7315 37.8418 89.1877 34.174 89.1879C30.5062 89.1881 26.9886 87.7325 24.3949 85.1411C21.8012 82.5497 20.344 79.035 20.3438 75.37C20.3435 71.7051 21.8003 68.1901 24.3937 65.5984C25.6747 64.3112 27.1986 63.2907 28.877 62.5959C30.5555 61.9011 32.3552 61.5459 34.1719 61.5508ZM34.1719 88.3451C36.7405 88.3451 39.2514 87.584 41.3871 86.1581C43.5228 84.7321 45.1873 82.7054 46.1703 80.3341C47.1532 77.9629 47.4103 75.3536 46.9091 72.8364C46.408 70.3191 45.171 68.0068 43.3547 66.192C41.5384 64.3772 39.2243 63.1414 36.705 62.6407C34.1858 62.1401 31.5745 62.3972 29.2015 63.3795C26.8285 64.3618 24.8003 66.0252 23.3734 68.1594C21.9465 70.2935 21.1849 72.8025 21.1851 75.3691C21.189 78.8095 22.5586 82.1078 24.9933 84.5405C27.4279 86.9731 30.7289 88.3414 34.1719 88.3451Z" fill="black"/>
</g>
</svg>
