<svg width="130" height="131" viewBox="0 0 130 131" fill="none" xmlns="http://www.w3.org/2000/svg">
<mask id="mask0_7858_20970" style="mask-type:luminance" maskUnits="userSpaceOnUse" x="5" y="5" width="120" height="121">
<path d="M125 5.5H5V125.5H125V5.5Z" fill="white"/>
</mask>
<g mask="url(#mask0_7858_20970)">
<path d="M98.7078 118.741C99.2165 118.376 99.5601 117.825 99.6634 117.208C99.7668 116.59 99.6215 115.957 99.2592 115.447L92.5081 105.979C92.1443 105.469 91.5928 105.124 90.9749 105.021C90.357 104.917 89.7233 105.064 89.2132 105.427C88.7032 105.791 88.3585 106.343 88.2551 106.96C88.1517 107.578 88.2979 108.212 88.6617 108.722L95.4129 118.19C95.7775 118.699 96.3289 119.043 96.9464 119.146C97.5639 119.249 98.1973 119.103 98.7078 118.741Z" fill="white"/>
<path d="M97.3379 119.624C96.8905 119.624 96.4496 119.517 96.0518 119.312C95.654 119.107 95.3107 118.811 95.0504 118.447L88.2993 108.979C87.9993 108.56 87.8207 108.066 87.7829 107.552C87.7452 107.038 87.8498 106.523 88.0853 106.065C88.3209 105.606 88.6782 105.221 89.1181 104.953C89.5579 104.684 90.0634 104.541 90.5789 104.541C90.7351 104.541 90.8912 104.554 91.0453 104.58C91.4094 104.64 91.758 104.771 92.0709 104.967C92.3838 105.163 92.6547 105.418 92.8681 105.719L99.6192 115.187C99.9192 115.607 100.098 116.101 100.135 116.615C100.173 117.13 100.067 117.644 99.8314 118.103C99.5954 118.561 99.2376 118.946 98.7972 119.214C98.3568 119.483 97.851 119.625 97.3353 119.624H97.3379ZM90.5789 105.432C90.2269 105.432 89.8819 105.53 89.5816 105.713C89.2814 105.897 89.0374 106.16 88.8765 106.472C88.7156 106.785 88.644 107.137 88.6694 107.488C88.6949 107.839 88.8165 108.176 89.0208 108.462L95.772 117.931C95.9181 118.135 96.1031 118.31 96.3166 118.443C96.53 118.576 96.7676 118.667 97.0158 118.708C97.2641 118.75 97.5181 118.742 97.7633 118.685C98.0086 118.629 98.2403 118.525 98.4452 118.379C98.6502 118.232 98.8244 118.047 98.9578 117.834C99.0912 117.621 99.1813 117.383 99.2229 117.135C99.2645 116.887 99.2568 116.633 99.2003 116.387C99.1437 116.142 99.0394 115.91 98.8933 115.706L92.1422 106.237C91.9964 106.032 91.8115 105.858 91.5979 105.724C91.3844 105.591 91.1465 105.501 90.898 105.46C90.7926 105.442 90.6858 105.432 90.5789 105.432Z" fill="black"/>
<path d="M118.248 31.7948C117.884 31.285 117.333 30.9405 116.715 30.8371C116.097 30.7337 115.464 30.8798 114.954 31.2434L105.485 37.9938C104.982 38.3603 104.644 38.9104 104.544 39.5247C104.445 40.139 104.591 40.7677 104.953 41.2743C105.314 41.7809 105.861 42.1244 106.474 42.2301C107.088 42.3358 107.718 42.1953 108.228 41.839L117.697 35.0885C118.206 34.7239 118.55 34.1725 118.653 33.5551C118.757 32.9376 118.611 32.3044 118.249 31.7939" fill="white"/>
<path d="M116.323 30.3584C116.919 30.3569 117.499 30.545 117.981 30.8955C118.463 31.246 118.82 31.7406 119.002 32.3079C119.184 32.8751 119.18 33.4855 118.992 34.0506C118.804 34.6157 118.44 35.1062 117.955 35.451L108.486 42.2015C108.012 42.5427 107.442 42.7267 106.858 42.7275C106.702 42.7275 106.546 42.7146 106.392 42.6889C105.844 42.5981 105.335 42.3465 104.93 41.9662C104.525 41.5858 104.242 41.0937 104.117 40.5524C103.992 40.011 104.03 39.4447 104.228 38.9253C104.425 38.4059 104.772 37.9568 105.225 37.6349L114.694 30.8844C115.168 30.5427 115.738 30.3587 116.323 30.3584ZM106.854 41.8359C107.252 41.8361 107.641 41.7113 107.965 41.4791L117.434 34.7287C117.848 34.4336 118.128 33.9862 118.212 33.4849C118.296 32.9837 118.177 32.4695 117.882 32.0557C117.587 31.6418 117.139 31.3621 116.638 31.2781C116.137 31.1941 115.623 31.3126 115.209 31.6077L105.74 38.3581C105.431 38.5782 105.195 38.8848 105.061 39.2392C104.927 39.5935 104.9 39.9796 104.986 40.3488C105.071 40.718 105.263 41.0536 105.539 41.3133C105.815 41.573 106.162 41.7451 106.536 41.8079C106.642 41.8262 106.75 41.8356 106.858 41.8359H106.854Z" fill="black"/>
<path d="M31.293 12.2561C30.7831 12.6198 30.4386 13.1711 30.3352 13.7888C30.2317 14.4064 30.3779 15.0398 30.7415 15.5498L37.4926 25.0179C37.8617 25.5138 38.4106 25.8452 39.0214 25.941C39.6322 26.0368 40.2561 25.8894 40.7594 25.5303C41.2627 25.1712 41.6051 24.6292 41.7131 24.0205C41.8211 23.4119 41.6862 22.7851 41.3373 22.2748L34.5861 12.8075C34.2224 12.2977 33.671 11.9532 33.0533 11.8498C32.4356 11.7464 31.803 11.8925 31.293 12.2561Z" fill="white"/>
<path d="M32.6631 11.3721C33.1106 11.3723 33.5515 11.4792 33.9493 11.684C34.3472 11.8888 34.6904 12.1855 34.9506 12.5495L41.7017 22.0176C42.0017 22.4368 42.1803 22.9305 42.2181 23.4446C42.2558 23.9587 42.1512 24.4732 41.9157 24.9317C41.6801 25.3902 41.3228 25.775 40.8829 26.0438C40.4431 26.3125 39.9376 26.455 39.4221 26.4554C39.2661 26.4553 39.1104 26.4424 38.9566 26.4168C38.5924 26.3568 38.2438 26.2252 37.931 26.0295C37.6181 25.8339 37.3471 25.5782 37.1338 25.2771L30.3826 15.8089C30.0829 15.3897 29.9045 14.8961 29.8669 14.3822C29.8292 13.8682 29.9339 13.3539 30.1694 12.8955C30.4049 12.4371 30.7621 12.0525 31.2019 11.7838C31.6416 11.515 32.1477 11.3726 32.6631 11.3721ZM39.4221 25.5629C39.7739 25.5621 40.1186 25.4645 40.4186 25.2809C40.7186 25.0973 40.9623 24.8347 41.1231 24.5219C41.2838 24.2091 41.3555 23.8581 41.3301 23.5073C41.3047 23.1566 41.1834 22.8195 40.9793 22.5331L34.2281 13.0649C34.0841 12.8549 33.8997 12.6757 33.6856 12.5378C33.4716 12.3999 33.2321 12.306 32.9814 12.2616C32.7306 12.2173 32.4735 12.2233 32.2251 12.2794C31.9767 12.3356 31.742 12.4406 31.5347 12.5884C31.3273 12.7363 31.1515 12.924 31.0176 13.1405C30.8836 13.3571 30.7941 13.5981 30.7543 13.8496C30.7146 14.1011 30.7254 14.3581 30.786 14.6054C30.8467 14.8527 30.9561 15.0854 31.1077 15.29L37.8588 24.7581C38.0045 24.9635 38.1895 25.138 38.403 25.2715C38.6166 25.4049 38.8545 25.4948 39.103 25.5357C39.2084 25.5536 39.3152 25.5626 39.4221 25.5629Z" fill="black"/>
<path d="M11.7521 99.2011C12.1159 99.7109 12.6672 100.055 13.2849 100.159C13.9027 100.262 14.5362 100.116 15.0462 99.7525L24.5153 93.0021C25.0183 92.6356 25.3563 92.0855 25.4559 91.4712C25.5555 90.8569 25.4086 90.2282 25.0472 89.7216C24.6857 89.215 24.1389 88.8715 23.5256 88.7658C22.9123 88.6601 22.2821 88.8006 21.7719 89.1569L12.3027 95.9074C11.7929 96.2711 11.4484 96.8224 11.3449 97.44C11.2415 98.0577 11.3877 98.6911 11.7513 99.2011" fill="white"/>
<path d="M13.68 100.638C13.0843 100.639 12.5036 100.451 12.0219 100.101C11.5403 99.7501 11.1827 99.2554 11.001 98.6882C10.8192 98.1209 10.8227 97.5106 11.011 96.9455C11.1994 96.3804 11.5626 95.8899 12.0483 95.545L21.5174 88.7946C21.9915 88.4533 22.5606 88.2694 23.1447 88.2686C23.553 88.2678 23.9564 88.3561 24.327 88.5273C24.6976 88.6985 25.0263 88.9485 25.2903 89.2599C25.5543 89.5712 25.7471 89.9364 25.8554 90.33C25.9636 90.7236 25.9847 91.136 25.9171 91.5386C25.8571 91.9027 25.7254 92.2512 25.5298 92.5641C25.3341 92.8769 25.0784 93.1479 24.7773 93.3612L15.3082 100.112C14.8339 100.453 14.2644 100.637 13.68 100.638ZM23.1491 89.1601C22.7506 89.16 22.3621 89.2848 22.0382 89.5169L12.5691 96.2674C12.3591 96.4114 12.1799 96.5958 12.042 96.8099C11.904 97.0239 11.8101 97.2633 11.7658 97.514C11.7214 97.7648 11.7274 98.0218 11.7836 98.2702C11.8397 98.5186 11.9447 98.7533 12.0926 98.9606C12.2404 99.1679 12.4281 99.3437 12.6447 99.4776C12.8613 99.6116 13.1024 99.7011 13.3539 99.7408C13.6054 99.7806 13.8624 99.7698 14.1097 99.7091C14.357 99.6485 14.5898 99.5391 14.7944 99.3875L24.2635 92.6371C24.5719 92.4169 24.8081 92.1103 24.9423 91.756C25.0765 91.4017 25.1027 91.0156 25.0175 90.6464C24.9323 90.2772 24.7396 89.9416 24.4637 89.6819C24.1878 89.4222 23.8411 89.2501 23.4674 89.1873C23.3594 89.1687 23.25 89.1593 23.1403 89.1593L23.1491 89.1601Z" fill="black"/>
<path d="M105.994 87.9076V87.9032L70.9122 70.3205H70.9069C70.046 69.8395 69.0728 69.5954 68.0868 69.6132C67.1007 69.631 66.137 69.91 65.2939 70.4218C64.4509 70.9335 63.7587 71.6597 63.288 72.5263C62.8173 73.3928 62.5848 74.3687 62.6144 75.3544L62.5645 119.534C62.5675 120.29 62.7242 121.038 63.0251 121.732C63.326 122.426 63.7648 123.051 64.3148 123.571C64.8649 124.09 65.5147 124.492 66.2249 124.752C66.9351 125.013 67.6908 125.126 68.4462 125.085C69.2015 125.045 69.9407 124.851 70.6189 124.516C71.2971 124.181 71.9002 123.712 72.3915 123.137C72.8828 122.562 73.252 121.893 73.4769 121.171C73.7017 120.449 73.7774 119.688 73.6994 118.936L73.6915 118.883C73.6915 118.855 73.6845 118.826 73.6801 118.796L71.4803 102.455V102.44L71.4672 102.345L71.4733 102.339C71.3929 101.529 71.4906 100.711 71.7595 99.943C72.0284 99.1749 72.4621 98.4748 73.0301 97.8919C73.5981 97.309 74.2867 96.8574 75.0477 96.5686C75.8087 96.2798 76.6236 96.161 77.4353 96.2203H77.4546H77.4739L103.069 98.5093C104.38 98.6419 105.697 98.3057 106.784 97.5602C107.872 96.8148 108.66 95.7083 109.009 94.437C109.359 93.1657 109.246 91.8118 108.692 90.6154C108.138 89.4191 107.178 88.4576 105.983 87.9015" fill="#554596"/>
<path d="M68.1818 69.1686C69.1138 69.1703 70.0328 69.3869 70.8673 69.8016L106.536 87.6771V87.6841C107.871 88.4099 108.878 89.6178 109.352 91.0611C109.661 91.9878 109.74 92.9758 109.582 93.9399C109.424 94.9039 109.034 95.8151 108.445 96.5947C107.857 97.3743 107.087 97.999 106.203 98.4149C105.319 98.8308 104.347 99.0254 103.371 98.9819V98.9881L103.039 98.9626L77.4072 96.671C76.6599 96.6159 75.9097 96.725 75.2091 96.9905C74.5085 97.256 73.8744 97.6715 73.3514 98.2079C72.8283 98.7444 72.429 99.3887 72.1813 100.096C71.9337 100.803 71.8437 101.556 71.9177 102.301L71.937 102.496L74.1246 118.743C74.1246 118.769 74.1324 118.799 74.136 118.831L74.2052 119.295L74.1693 119.302C74.2214 120.875 73.6561 122.405 72.5942 123.567C71.5324 124.729 70.0582 125.429 68.4868 125.519C66.9154 125.608 65.3714 125.079 64.1847 124.045C62.9981 123.011 62.263 121.554 62.1365 119.985H62.1172V119.539L62.1672 75.3659C62.1342 74.0857 62.5064 72.8277 63.2307 71.7715C63.7839 70.9692 64.5235 70.3131 65.3859 69.8593C66.2484 69.4055 67.2081 69.1676 68.1827 69.166L68.1818 69.1686ZM70.9349 70.8501L70.6876 70.7125C69.9213 70.2856 69.059 70.0605 68.1818 70.0585C67.6346 70.0591 67.091 70.1479 66.5721 70.3215C65.5268 70.6746 64.6218 71.3526 63.9892 72.2565C63.3567 73.1604 63.0298 74.2428 63.0562 75.3457V75.3589L63.0071 119.382V119.536C63.009 120.232 63.1525 120.921 63.429 121.56C63.7054 122.2 64.1091 122.776 64.6153 123.255C65.1216 123.733 65.7199 124.104 66.3738 124.344C67.0277 124.584 67.7237 124.688 68.4193 124.651C69.1149 124.614 69.7957 124.435 70.4202 124.127C71.0447 123.818 71.5999 123.386 72.052 122.856C72.5042 122.326 72.8438 121.71 73.0503 121.044C73.2567 120.379 73.3257 119.679 73.253 118.986L73.2416 118.873V118.866L70.9954 102.194L71.0129 102.177C70.9591 101.328 71.0856 100.478 71.3839 99.6813C71.6822 98.885 72.1457 98.1608 72.7438 97.5564C73.3419 96.952 74.0612 96.4809 74.8543 96.1742C75.6475 95.8675 76.4966 95.732 77.3458 95.7768L77.5124 95.789L102.78 98.0483L103.116 98.0781C103.291 98.0956 103.462 98.1035 103.634 98.1035C104.802 98.1029 105.936 97.7037 106.847 96.9719C107.758 96.2401 108.392 95.2194 108.644 94.0786C108.896 92.9378 108.751 91.745 108.234 90.6975C107.717 89.6499 106.857 88.8102 105.798 88.3171L105.439 88.1497L105.445 88.1348L70.9506 70.8387L70.9349 70.8501Z" fill="black"/>
<path d="M24.0092 43.0887V43.0931L59.0905 60.6758H59.0957C59.9568 61.1566 60.93 61.4004 61.916 61.3825C62.902 61.3645 63.8657 61.0854 64.7087 60.5736C65.5516 60.0618 66.2438 59.3356 66.7145 58.4691C67.1852 57.6025 67.4177 56.6267 67.3882 55.641L67.4391 11.4581C67.4359 10.7018 67.2791 9.954 66.9781 9.26015C66.6772 8.5663 66.2383 7.94084 65.6882 7.42174C65.1381 6.90265 64.4883 6.50075 63.7781 6.24044C63.0679 5.98014 62.3122 5.86685 61.5569 5.90747C60.8017 5.94808 60.0625 6.14175 59.3843 6.47671C58.7062 6.81168 58.1032 7.28095 57.6119 7.85604C57.1207 8.43113 56.7514 9.10004 56.5266 9.82217C56.3018 10.5443 56.2261 11.3046 56.3041 12.0569L56.312 12.1103C56.312 12.1375 56.319 12.1664 56.3234 12.198L58.5171 28.5341V28.549L58.5302 28.6445L58.5241 28.6507C58.6045 29.4605 58.5068 30.2782 58.2379 31.0463C57.9689 31.8144 57.5353 32.5145 56.9673 33.0974C56.3993 33.6803 55.7107 34.1319 54.9497 34.4207C54.1887 34.7095 53.3738 34.8283 52.562 34.769H52.5428H52.5235L26.9253 32.4774C25.6135 32.3447 24.297 32.681 23.2095 33.4264C22.122 34.1719 21.3337 35.2784 20.9845 36.5497C20.6352 37.821 20.7475 39.1749 21.3015 40.3713C21.8555 41.5676 22.8154 42.5291 24.0109 43.0852" fill="#554596"/>
<path d="M61.8199 61.8234C60.8774 61.8218 59.9483 61.6006 59.1063 61.1773L23.4647 43.3193V43.3123C22.1299 42.5865 21.1226 41.3786 20.6485 39.9353C20.3398 39.0086 20.2611 38.0207 20.4194 37.0568C20.5776 36.093 20.9679 35.182 21.5567 34.4026C22.1455 33.6232 22.915 32.9987 23.799 32.583C24.683 32.1672 25.6548 31.9727 26.6307 32.0162V32.011L26.9621 32.0364L52.591 34.3272C53.3382 34.3822 54.0885 34.2732 54.7891 34.0077C55.4897 33.7422 56.1238 33.3267 56.6468 32.7902C57.1698 32.2538 57.5692 31.6095 57.8168 30.9024C58.0645 30.1953 58.1545 29.4426 58.0805 28.6971L58.0612 28.5025L55.878 12.2532C55.878 12.2269 55.8701 12.198 55.8666 12.1656L55.7851 11.6089H55.8272C55.787 10.0364 56.3633 8.51045 57.4331 7.35709C58.5029 6.20372 59.9813 5.51433 61.5526 5.43616C63.1239 5.35799 64.6634 5.89724 65.8424 6.93872C67.0214 7.9802 67.7464 9.44136 67.8626 11.0101H67.8819V11.4581L67.8389 55.6314C67.8718 56.9116 67.4996 58.1695 66.7754 59.2258C66.2209 60.0271 65.4804 60.682 64.6174 61.1344C63.7543 61.5868 62.7944 61.8232 61.8199 61.8234ZM59.0949 60.1577L59.3141 60.2795C60.0804 60.7062 60.9427 60.9309 61.8199 60.9327C62.3671 60.932 62.9106 60.8432 63.4296 60.6697C64.4749 60.3166 65.3799 59.6386 66.0124 58.7347C66.645 57.8307 66.9719 56.7483 66.9455 55.6454V55.6323L66.9946 11.6089V11.4555C66.9926 10.759 66.849 10.0701 66.5724 9.43087C66.2958 8.7916 65.8922 8.21526 65.3859 7.73687C64.8796 7.25848 64.2813 6.88805 63.6274 6.64809C62.9734 6.40813 62.2775 6.30367 61.5819 6.34104C60.8864 6.37842 60.2057 6.55686 59.5812 6.86551C58.9567 7.17416 58.4016 7.60657 57.9495 8.13645C57.4974 8.66634 57.1578 9.28263 56.9514 9.94784C56.7449 10.6131 56.676 11.3133 56.7486 12.006L56.76 12.1165V12.1261L59.0063 28.798L58.9888 28.8155C59.0425 29.6642 58.9161 30.5146 58.6177 31.311C58.3193 32.1073 57.8558 32.8315 57.2576 33.436C56.6594 34.0404 55.94 34.5115 55.1467 34.8181C54.3535 35.1248 53.5043 35.2601 52.655 35.2153L52.4902 35.203L27.2217 32.9438L26.8867 32.9148C25.6749 32.7844 24.4562 33.0893 23.4486 33.775C22.4411 34.4607 21.7104 35.4825 21.3873 36.6576C21.0642 37.8327 21.1698 39.0844 21.6852 40.1888C22.2006 41.2932 23.0921 42.1782 24.2003 42.6854L24.5598 42.8538L24.5545 42.8687L59.0791 60.1708L59.0949 60.1577Z" fill="black"/>
<path d="M87.4192 24.5188H87.4148L69.818 59.5904V59.5957C69.3369 60.4565 69.0926 61.4295 69.1103 62.4155C69.1279 63.4015 69.4067 64.3651 69.9183 65.2082C70.4299 66.0513 71.156 66.7436 72.0225 67.2145C72.889 67.6855 73.8649 67.9183 74.8507 67.8891L119.035 67.9548C119.791 67.9523 120.539 67.796 121.234 67.4955C121.928 67.195 122.554 66.7565 123.074 66.2066C123.593 65.6567 123.996 65.007 124.256 64.2968C124.517 63.5867 124.631 62.8309 124.59 62.0755C124.55 61.32 124.357 60.5807 124.022 59.9023C123.687 59.224 123.218 58.6208 122.642 58.1293C122.067 57.6379 121.398 57.2685 120.676 57.0436C119.953 56.8187 119.193 56.743 118.44 56.821L118.388 56.828L118.3 56.8394L101.957 59.0311H101.942L101.846 59.0434L101.842 59.0355C101.032 59.1159 100.214 59.018 99.4453 58.7488C98.6768 58.4795 97.9766 58.0453 97.3938 57.4768C96.811 56.9082 96.3596 56.219 96.0715 55.4575C95.7833 54.696 95.6653 53.8807 95.7257 53.0688V53.0495V53.0302L98.0228 27.4391C98.1568 26.1269 97.8215 24.8097 97.0764 23.7213C96.3313 22.6329 95.2246 21.8437 93.9527 21.4938C92.6808 21.1439 91.3261 21.256 90.129 21.8101C88.932 22.3642 87.97 23.3245 87.4139 24.5206" fill="#D1D4D4"/>
<path d="M92.4714 20.8513C93.2855 20.8506 94.0913 21.0149 94.8401 21.3344C95.5888 21.6539 96.2651 22.1219 96.8278 22.7101C97.3906 23.2983 97.8282 23.9945 98.1143 24.7566C98.4004 25.5187 98.5289 26.3309 98.4922 27.1441H98.4974L98.472 27.4755L96.1722 53.1008C96.1199 53.8053 96.2135 54.513 96.4472 55.1797C96.6809 55.8464 97.0496 56.4577 97.5304 56.9753C98.0112 57.493 98.5936 57.9059 99.2412 58.1882C99.8889 58.4705 100.588 58.6161 101.294 58.616C101.463 58.616 101.633 58.6072 101.8 58.5906L101.993 58.5713L118.254 56.3884H118.283L118.333 56.3814L118.772 56.3217L118.779 56.3489C118.856 56.346 118.933 56.3445 119.01 56.3445C120.568 56.3454 122.065 56.9492 123.187 58.0292C124.309 59.1092 124.97 60.5816 125.03 62.1379C125.091 63.6941 124.546 65.2134 123.511 66.3771C122.476 67.5409 121.03 68.2588 119.478 68.3805V68.3989H119.031L74.8536 68.3331H74.687C73.6592 68.3328 72.6486 68.0695 71.7514 67.5681C70.8542 67.0667 70.1004 66.344 69.5616 65.4689C69.0228 64.5937 68.717 63.5952 68.6734 62.5684C68.6298 61.5417 68.8498 60.5208 69.3124 59.6032L87.1889 23.9722H87.1959C87.7152 23.0268 88.479 22.2382 89.4073 21.6888C90.3356 21.1393 91.3944 20.8491 92.4731 20.8486L92.4714 20.8513ZM97.5567 27.7279L97.5865 27.3931C97.7083 26.1865 97.3989 24.9758 96.7132 23.9756C96.0275 22.9753 95.0098 22.2501 93.8404 21.9285C92.671 21.6069 91.4255 21.7096 90.3247 22.2185C89.2239 22.7274 88.3388 23.6096 87.8263 24.7087L87.6579 25.0672L87.643 25.062L70.3216 59.576L70.3312 59.5926L70.2093 59.8118C69.7725 60.593 69.5477 61.4748 69.5571 62.3697C69.5665 63.2646 69.8099 64.1415 70.2631 64.9133C70.7163 65.685 71.3635 66.3248 72.1405 66.7691C72.9175 67.2134 73.7972 67.4467 74.6923 67.4459H74.8396H74.8527L118.819 67.5117H119.034C119.731 67.5103 120.42 67.3672 121.06 67.0911C121.699 66.815 122.276 66.4116 122.755 65.9056C123.234 65.3995 123.605 64.8013 123.845 64.1474C124.086 63.4935 124.191 62.7975 124.154 62.1018C124.116 61.4061 123.938 60.7252 123.63 60.1005C123.321 59.4759 122.889 58.9205 122.359 58.4682C121.829 58.0159 121.212 57.6762 120.547 57.4697C119.881 57.2631 119.181 57.1941 118.488 57.2668L118.385 57.2773H118.36L101.71 59.512L101.694 59.498C101.562 59.5067 101.431 59.5111 101.296 59.5111C100.477 59.5113 99.6672 59.3447 98.9149 59.0215C98.1627 58.6982 97.4843 58.2251 96.921 57.631C96.3578 57.0368 95.9215 56.3342 95.6389 55.5658C95.3562 54.7975 95.2331 53.9797 95.2771 53.1622L95.2893 52.9947L97.5567 27.7279Z" fill="black"/>
<path d="M42.5803 106.495H42.5847L60.1815 71.4204V71.4151C60.6626 70.5543 60.9068 69.5813 60.8892 68.5953C60.8716 67.6093 60.5927 66.6457 60.0811 65.8026C59.5695 64.9595 58.8435 64.2672 57.977 63.7963C57.1105 63.3253 56.1346 63.0925 55.1488 63.1217L10.9622 63.0586C10.2056 63.0611 9.45747 63.2174 8.76315 63.5179C8.06883 63.8185 7.44285 64.257 6.92324 64.8069C6.40362 65.3567 6.00122 66.0065 5.74046 66.7166C5.47971 67.4268 5.36604 68.1825 5.40638 68.938C5.44671 69.6934 5.6402 70.4327 5.97509 71.1111C6.30998 71.7895 6.77928 72.3927 7.35449 72.8841C7.9297 73.3755 8.59882 73.7449 9.32119 73.9698C10.0436 74.1947 10.8041 74.2705 11.5567 74.1924L11.6102 74.1854L11.6978 74.174L28.0408 71.9823H28.0557L28.1513 71.97L28.1574 71.9753C28.9677 71.8949 29.7858 71.9928 30.5542 72.2621C31.3226 72.5313 32.0228 72.9655 32.6056 73.534C33.1885 74.1026 33.6398 74.7918 33.928 75.5533C34.2161 76.3148 34.3342 77.1301 34.2738 77.942V77.9613V77.9806L31.9766 103.572C31.8426 104.884 32.1779 106.201 32.923 107.29C33.6682 108.378 34.7749 109.167 36.0468 109.517C37.3186 109.867 38.6733 109.755 39.8704 109.201C41.0675 108.647 42.0295 107.686 42.5856 106.49" fill="#D1D4D4"/>
<path d="M37.5278 110.162C36.7137 110.163 35.908 109.999 35.1592 109.679C34.4104 109.36 33.7342 108.892 33.1714 108.304C32.6086 107.715 32.171 107.019 31.8849 106.257C31.5989 105.495 31.4703 104.683 31.5071 103.87H31.5018L31.5272 103.538L33.827 77.9075C33.8794 77.2029 33.7857 76.495 33.5519 75.8282C33.3181 75.1614 32.9492 74.5501 32.4682 74.0324C31.9873 73.5147 31.4047 73.1018 30.7568 72.8196C30.1089 72.5374 29.4098 72.392 28.7032 72.3923C28.5357 72.3923 28.3656 72.4011 28.1981 72.4169L28.0061 72.4362L11.7455 74.6217H11.7157L11.6675 74.6279L11.2221 74.6866L11.216 74.6603C11.1394 74.6632 11.0628 74.6647 10.9863 74.6647C9.42868 74.6638 7.9319 74.0601 6.80967 72.9801C5.68744 71.9001 5.02688 70.4276 4.96646 68.8713C4.90603 67.3151 5.45043 65.7959 6.48554 64.6321C7.52066 63.4683 8.96612 62.7504 10.5189 62.6288V62.6104H10.9652L55.143 62.6761H55.3096C56.3383 62.6751 57.3501 62.9377 58.2484 63.4388C59.1468 63.9399 59.9018 64.6627 60.4413 65.5384C60.9809 66.4141 61.2871 67.4135 61.3307 68.4411C61.3743 69.4688 61.1538 70.4905 60.6904 71.4087L42.8121 107.041H42.8051C42.2858 107.986 41.522 108.775 40.5937 109.324C39.6654 109.873 38.6066 110.164 37.5278 110.164V110.162ZM32.4426 103.286L32.4128 103.621C32.291 104.827 32.6004 106.038 33.2861 107.038C33.9718 108.038 34.9895 108.764 36.1588 109.085C37.3282 109.407 38.5737 109.304 39.6745 108.795C40.7754 108.286 41.6605 107.404 42.173 106.305L42.3413 105.946L42.3562 105.952L59.6724 71.4368L59.6663 71.4201L59.7882 71.2009C60.225 70.4198 60.4498 69.538 60.4404 68.6431C60.431 67.7481 60.1876 66.8713 59.7344 66.0995C59.2812 65.3277 58.6339 64.6879 57.857 64.2436C57.08 63.7993 56.2003 63.566 55.3052 63.5668H55.1579H55.1448L11.1809 63.5037H10.9643C10.2676 63.5051 9.57837 63.6482 8.93865 63.9243C8.29893 64.2004 7.72208 64.6037 7.24318 65.1098C6.76428 65.6159 6.39335 66.214 6.15295 66.868C5.91255 67.5219 5.80771 68.2179 5.8448 68.9136C5.88189 69.6093 6.06015 70.2902 6.36872 70.9149C6.67729 71.5395 7.10972 72.0949 7.63972 72.5472C8.16971 72.9994 8.78619 73.3392 9.45164 73.5457C10.1171 73.7523 10.8176 73.8213 11.5106 73.7486L11.6132 73.7381H11.6386L28.2884 71.5034L28.3042 71.5174C28.4366 71.5087 28.5673 71.5043 28.7014 71.5043C29.5201 71.5039 30.3302 71.6704 31.0824 71.9935C31.8346 72.3166 32.513 72.7895 33.0764 73.3835C33.6397 73.9774 34.0761 74.6799 34.3589 75.4481C34.6417 76.2163 34.765 77.034 34.7213 77.8514L34.7082 78.0215L32.4426 103.286Z" fill="black"/>
<path d="M73.4364 117.728C73.7795 118.777 73.8042 119.904 73.5075 120.966C73.2107 122.029 72.6058 122.98 71.769 123.699C70.9323 124.418 69.9012 124.873 68.806 125.007C67.7107 125.141 66.6004 124.947 65.6152 124.45C64.63 123.954 63.814 123.176 63.2702 122.216C62.7264 121.256 62.4792 120.157 62.5599 119.056C62.6405 117.956 63.0453 116.904 63.7232 116.034C64.4011 115.163 65.3217 114.513 66.3688 114.166C67.0668 113.935 67.8034 113.845 68.5363 113.9C69.2693 113.954 69.9843 114.152 70.6406 114.483C71.2969 114.814 71.8816 115.271 72.3614 115.828C72.8411 116.385 73.2064 117.03 73.4364 117.728ZM108.9 91.1167C109.243 92.1653 109.268 93.292 108.971 94.3546C108.674 95.4172 108.069 96.368 107.233 97.0872C106.396 97.8063 105.365 98.2615 104.27 98.3952C103.174 98.5289 102.064 98.3352 101.079 97.8386C100.094 97.3419 99.2776 96.5646 98.7338 95.6046C98.19 94.6446 97.9428 93.5451 98.0234 92.4448C98.1041 91.3445 98.5089 90.2927 99.1868 89.4223C99.8647 88.5518 100.785 87.9017 101.832 87.5539C102.53 87.3238 103.267 87.2334 104 87.2879C104.733 87.3424 105.448 87.5407 106.104 87.8716C106.761 88.2024 107.345 88.6593 107.825 89.2161C108.305 89.7729 108.67 90.4187 108.9 91.1167Z" fill="#554596"/>
<path d="M68.1528 125.54C66.6368 125.542 65.1757 124.973 64.0605 123.946C62.9453 122.919 62.2579 121.51 62.1351 119.999C62.0122 118.488 62.4631 116.986 63.3978 115.793C64.3325 114.6 65.6824 113.802 67.1788 113.559C68.6753 113.316 70.2083 113.645 71.4728 114.482C72.7372 115.318 73.6402 116.6 74.0019 118.072C74.3636 119.544 74.1576 121.098 73.4248 122.425C72.692 123.752 71.4862 124.755 70.0475 125.233C69.4364 125.436 68.7967 125.539 68.1528 125.54ZM68.1248 114.326C67.0316 114.323 65.9655 114.666 65.0799 115.307C64.1943 115.948 63.5348 116.853 63.1962 117.893C62.8576 118.932 62.8573 120.052 63.1954 121.091C63.5336 122.131 64.1927 123.036 65.078 123.678C65.9633 124.319 67.0291 124.663 68.1223 124.66C69.2155 124.658 70.2797 124.308 71.1619 123.663C72.044 123.017 72.6987 122.108 73.0317 121.067C73.3648 120.026 73.3591 118.906 73.0154 117.869C72.6827 116.835 72.0292 115.934 71.1497 115.297C70.2703 114.66 69.2107 114.32 68.1248 114.326ZM103.616 98.9288C102.1 98.9306 100.639 98.3613 99.5241 97.3344C98.4089 96.3076 97.7215 94.8983 97.5987 93.3875C97.4758 91.8766 97.9267 90.3748 98.8614 89.1814C99.796 87.9879 101.146 87.1902 102.642 86.9472C104.139 86.7041 105.672 87.0336 106.936 87.8699C108.201 88.7062 109.104 89.9881 109.465 91.4602C109.827 92.9323 109.621 94.4866 108.888 95.8136C108.156 97.1406 106.95 98.143 105.511 98.621C104.9 98.8239 104.26 98.9278 103.616 98.9288ZM103.588 87.7134C102.495 87.7102 101.429 88.0538 100.544 88.6946C99.6579 89.3355 98.9984 90.2407 98.6598 91.28C98.3212 92.3193 98.3209 93.4393 98.659 94.4787C98.9972 95.5182 99.6563 96.4237 100.542 97.065C101.427 97.7063 102.493 98.0503 103.586 98.0477C104.679 98.045 105.743 97.6958 106.625 97.0502C107.508 96.4046 108.162 95.4959 108.495 94.4548C108.828 93.4136 108.823 92.2937 108.479 91.2561C108.146 90.2223 107.493 89.3214 106.614 88.6841C105.734 88.0469 104.674 87.7075 103.588 87.7134Z" fill="black"/>
<path d="M73.6288 73.4826C73.9826 74.5463 74.013 75.6911 73.7162 76.7721C73.4194 77.8532 72.8088 78.8219 71.9614 79.556C71.114 80.29 70.068 80.7563 68.9555 80.896C67.8431 81.0357 66.7143 80.8424 65.7117 80.3406C64.7091 79.8388 63.8779 79.0511 63.323 78.0769C62.7682 77.1028 62.5146 75.986 62.5945 74.8679C62.6743 73.7497 63.0839 72.6803 63.7716 71.7948C64.4592 70.9094 65.394 70.2477 66.4576 69.8934C67.1643 69.6588 67.9103 69.5656 68.653 69.6192C69.3956 69.6729 70.1205 69.8723 70.7861 70.206C71.4517 70.5398 72.045 71.0015 72.5321 71.5646C73.0193 72.1276 73.3907 72.7812 73.6252 73.4878" fill="white"/>
<path d="M68.2472 69.1543C69.7867 69.1533 71.27 69.732 72.4019 70.7753C73.5338 71.8185 74.2313 73.2497 74.3555 74.7839C74.4797 76.3181 74.0214 77.8429 73.072 79.0545C72.1226 80.2662 70.7517 81.0759 69.2322 81.3225C67.7126 81.569 66.156 81.2343 64.8721 80.385C63.5882 79.5357 62.6713 78.2341 62.3039 76.7393C61.9365 75.2446 62.1456 73.6663 62.8895 72.3187C63.6334 70.9711 64.8576 69.9531 66.3184 69.4673C66.9404 69.2601 67.5916 69.1544 68.2472 69.1543ZM68.2472 80.495C69.3523 80.4957 70.4292 80.146 71.323 79.4962C72.2168 78.8465 72.8816 77.9301 73.2219 76.8788C73.5622 75.8275 73.5603 74.6954 73.2167 73.6452C72.8731 72.595 72.2053 71.6808 71.3094 71.034C70.4134 70.3871 69.3355 70.0409 68.2304 70.045C67.1253 70.0492 66.05 70.4036 65.159 71.0573C64.2681 71.7109 63.6072 72.6302 63.2716 73.6829C62.9359 74.7357 62.9427 75.8677 63.2909 76.9164C63.6356 77.958 64.2999 78.8645 65.1894 79.5069C66.0789 80.1493 67.1482 80.4951 68.2455 80.495H68.2472Z" fill="black"/>
<path d="M56.5639 13.2669C56.2208 12.2184 56.1961 11.0917 56.4929 10.0291C56.7897 8.96648 57.3946 8.0156 58.2313 7.29647C59.0681 6.57733 60.0992 6.12218 61.1944 5.98844C62.2896 5.85471 63.3999 6.0484 64.3851 6.54506C65.3704 7.04172 66.1864 7.81909 66.7302 8.77905C67.2739 9.73901 67.5211 10.8385 67.4405 11.9388C67.3599 13.0391 66.9551 14.0909 66.2772 14.9614C65.5993 15.8318 64.6787 16.482 63.6315 16.8297C62.9335 17.06 62.197 17.1505 61.464 17.096C60.731 17.0416 60.0159 16.8433 59.3595 16.5124C58.7032 16.1815 58.1185 15.7246 57.6388 15.1678C57.1591 14.6109 56.7939 13.965 56.5639 13.2669ZM21.103 39.8785C20.7599 38.83 20.7352 37.7033 21.0319 36.6407C21.3287 35.5781 21.9336 34.6272 22.7704 33.9081C23.6071 33.189 24.6382 32.7338 25.7334 32.6001C26.8287 32.4663 27.939 32.66 28.9242 33.1567C29.9094 33.6533 30.7254 34.4307 31.2692 35.3907C31.813 36.3506 32.0602 37.4502 31.9795 38.5505C31.8989 39.6508 31.4941 40.7025 30.8162 41.573C30.1383 42.4434 29.2177 43.0936 28.1706 43.4414C27.4726 43.6716 26.736 43.7621 26.003 43.7077C25.27 43.6532 24.5549 43.4549 23.8986 43.124C23.2423 42.7932 22.6575 42.3362 22.1779 41.7794C21.6982 41.2225 21.3329 40.5766 21.103 39.8785Z" fill="white"/>
<path d="M61.8496 5.45312C63.2863 5.45484 64.6756 5.967 65.7696 6.89819C66.8635 7.82938 67.591 9.11899 67.822 10.5368C68.053 11.9547 67.7726 13.4085 67.0308 14.6387C66.2891 15.869 65.1342 16.7956 63.7724 17.2532C63.0191 17.5032 62.2239 17.6019 61.4323 17.5438C60.6408 17.4857 59.8685 17.2719 59.1598 16.9147C58.4511 16.5574 57.8199 16.0638 57.3024 15.462C56.785 14.8603 56.3915 14.1623 56.1445 13.4081C55.8391 12.5019 55.7537 11.5361 55.8953 10.5904C56.0368 9.64463 56.4013 8.74613 56.9586 7.96903C57.516 7.19193 58.2501 6.55851 59.1005 6.12105C59.951 5.6836 60.8932 5.45466 61.8496 5.45312ZM61.8733 16.6702C62.6886 16.6691 63.492 16.474 64.217 16.101C64.9421 15.7281 65.568 15.188 66.043 14.5254C66.5181 13.8629 66.8287 13.0968 66.9491 12.2905C67.0696 11.4841 66.9965 10.6607 66.7358 9.88825C66.5258 9.24467 66.1906 8.64896 65.7495 8.13536C65.3084 7.62177 64.7702 7.20042 64.1657 6.89555C63.5612 6.59068 62.9024 6.4083 62.2271 6.35891C61.5519 6.30951 60.8735 6.39406 60.2311 6.60771C59.5895 6.82233 58.9965 7.16125 58.4859 7.6051C57.9753 8.04896 57.5572 8.58905 57.2555 9.19452C56.9537 9.79999 56.7743 10.459 56.7273 11.1338C56.6803 11.8087 56.7668 12.4862 56.9818 13.1276C57.3206 14.1576 57.9757 15.0546 58.854 15.6907C59.7323 16.3267 60.7888 16.6695 61.8733 16.6702ZM26.386 32.0665C27.7005 32.0633 28.9801 32.4891 30.0304 33.2793C31.0808 34.0695 31.8446 35.1808 32.2058 36.4446C32.567 37.7083 32.5058 39.0554 32.0316 40.2812C31.5574 41.507 30.696 42.5446 29.5784 43.2363C28.4607 43.9281 27.1478 44.2362 25.839 44.1139C24.5303 43.9917 23.2972 43.4456 22.327 42.5588C21.3569 41.672 20.7027 40.4928 20.4638 39.2004C20.2249 37.9079 20.4144 36.5728 21.0035 35.3979C21.5028 34.3976 22.2708 33.5561 23.2215 32.9677C24.1722 32.3793 25.2679 32.0672 26.386 32.0665ZM26.4141 43.2819C27.5087 43.2859 28.5764 42.9425 29.4635 42.3013C30.3506 41.6601 31.0114 40.754 31.3508 39.7135C31.6903 38.6729 31.6909 37.5515 31.3525 36.5106C31.0141 35.4696 30.3542 34.5629 29.4678 33.9208C28.5813 33.2786 27.514 32.9342 26.4193 32.9371C25.3247 32.94 24.2592 33.29 23.3761 33.9367C22.4931 34.5835 21.8379 35.4937 21.505 36.5364C21.1721 37.579 21.1785 38.7004 21.5234 39.7392C21.8565 40.7726 22.5101 41.6731 23.3895 42.3101C24.2688 42.9471 25.3282 43.2875 26.4141 43.2819Z" fill="black"/>
<path d="M56.3764 57.5144C56.0233 56.4504 55.9936 55.3056 56.2912 54.2247C56.5888 53.1438 57.2002 52.1754 58.0481 51.442C58.8961 50.7086 59.9425 50.243 61.0551 50.1042C62.1677 49.9654 63.2964 50.1595 64.2986 50.6621C65.3008 51.1647 66.1315 51.9531 66.6856 52.9278C67.2397 53.9024 67.4923 55.0194 67.4115 56.1375C67.3308 57.2557 66.9202 58.3248 66.2318 59.2097C65.5434 60.0946 64.608 60.7555 63.544 61.1088C62.8373 61.3435 62.0913 61.4367 61.3487 61.3831C60.606 61.3294 59.8811 61.13 59.2155 60.7962C58.55 60.4624 57.9566 60.0008 57.4695 59.4377C56.9823 58.8746 56.6109 58.2211 56.3764 57.5144Z" fill="white"/>
<path d="M61.7532 61.841C60.2138 61.842 58.7305 61.2633 57.5986 60.22C56.4666 59.1768 55.7692 57.7456 55.645 56.2114C55.5208 54.6771 55.979 53.1524 56.9284 51.9408C57.8778 50.7291 59.2487 49.9194 60.7683 49.6728C62.2878 49.4263 63.8445 49.761 65.1283 50.6103C66.4122 51.4596 67.3291 52.7612 67.6965 54.2559C68.0639 55.7507 67.8548 57.329 67.1109 58.6766C66.367 60.0242 65.1428 61.0422 63.6821 61.528C63.0601 61.7352 62.4088 61.8409 61.7532 61.841ZM61.7532 50.5003C60.6481 50.4996 59.5713 50.8493 58.6775 51.4991C57.7836 52.1488 57.1188 53.0652 56.7785 54.1165C56.4383 55.1678 56.4401 56.2999 56.7838 57.3501C57.1274 58.4002 57.7952 59.3145 58.6911 59.9613C59.587 60.6082 60.6649 60.9544 61.77 60.9502C62.8751 60.9461 63.9504 60.5917 64.8414 59.938C65.7324 59.2844 66.3932 58.3651 66.7289 57.3124C67.0646 56.2596 67.0578 55.1275 66.7096 54.0789C66.3644 53.0373 65.6997 52.1311 64.8099 51.4889C63.9201 50.8468 62.8505 50.5014 61.7532 50.502V50.5003Z" fill="black"/>
<path d="M117.233 57.0787C118.282 56.7359 119.408 56.7115 120.471 57.0085C121.534 57.3055 122.485 57.9106 123.204 58.7474C123.923 59.5843 124.377 60.6153 124.511 61.7105C124.644 62.8056 124.45 63.9158 123.954 64.9008C123.457 65.8858 122.679 66.7015 121.719 67.245C120.759 67.7885 119.659 68.0354 118.558 67.9545C117.458 67.8736 116.406 67.4686 115.536 66.7905C114.665 66.1125 114.016 65.1918 113.668 64.1447C113.438 63.4467 113.348 62.7102 113.402 61.9774C113.457 61.2445 113.656 60.5296 113.987 59.8734C114.318 59.2172 114.775 58.6327 115.332 58.1532C115.889 57.6737 116.535 57.3086 117.233 57.0787ZM90.6317 21.6091C91.6805 21.2665 92.8073 21.2422 93.8698 21.5393C94.9324 21.8365 95.8831 22.4417 96.602 23.2786C97.3209 24.1155 97.7757 25.1466 97.9091 26.2418C98.0424 27.3369 97.8483 28.447 97.3513 29.4319C96.8542 30.4169 96.0765 31.2325 95.1163 31.7759C94.1561 32.3193 93.0564 32.5661 91.956 32.4851C90.8557 32.4041 89.8039 31.9991 88.9336 31.321C88.0633 30.6429 87.4134 29.7222 87.0659 28.6751C86.6017 27.2653 86.7166 25.7288 87.3853 24.4037C88.054 23.0786 89.2218 22.0733 90.6317 21.6091Z" fill="#D1D4D4"/>
<path d="M118.973 68.4124C117.444 68.4132 115.971 67.8382 114.847 66.802C113.723 65.7658 113.03 64.3443 112.907 62.8206C112.784 61.2968 113.239 59.7826 114.182 58.5794C115.125 57.3762 116.487 56.5723 117.996 56.3277C119.505 56.0831 121.051 56.4158 122.326 57.2595C123.601 58.1032 124.512 59.3961 124.876 60.8807C125.241 62.3653 125.033 63.9328 124.293 65.271C123.554 66.6091 122.338 67.6199 120.887 68.102C120.27 68.3082 119.623 68.413 118.973 68.4124ZM119.004 57.2373C118.09 57.2378 117.192 57.4823 116.403 57.9457C115.615 58.4091 114.964 59.0745 114.519 59.8732C114.074 60.672 113.85 61.5751 113.87 62.4894C113.89 63.4036 114.155 64.2959 114.635 65.0739C115.116 65.852 115.795 66.4878 116.604 66.9155C117.412 67.3432 118.32 67.5474 119.234 67.507C120.147 67.4666 121.034 67.1831 121.801 66.6857C122.569 66.1884 123.189 65.4952 123.599 64.6777C123.995 63.8946 124.183 63.023 124.145 62.1465C124.108 61.27 123.846 60.4177 123.385 59.6712C122.924 58.9247 122.279 58.309 121.512 57.8829C120.745 57.4567 119.882 57.2345 119.004 57.2373ZM92.3705 32.9419C90.8467 32.9421 89.3787 32.3687 88.2587 31.3356C87.1387 30.3025 86.4487 28.8856 86.3263 27.3669C86.2038 25.8482 86.6577 24.3391 87.5977 23.1399C88.5377 21.9407 89.8949 21.1395 91.399 20.8956C92.9032 20.6517 94.444 20.9831 95.7148 21.8238C96.9857 22.6645 97.8933 23.9528 98.2571 25.4324C98.6208 26.912 98.4141 28.4743 97.678 29.8083C96.9418 31.1423 95.7303 32.1503 94.2845 32.6315C93.6675 32.8376 93.0211 32.9424 92.3705 32.9419ZM92.4021 21.7668C91.3165 21.7692 90.2595 22.1155 89.383 22.7559C88.5065 23.3964 87.8554 24.298 87.5234 25.3315C87.1913 26.365 87.1953 27.4771 87.5347 28.5082C87.8741 29.5392 88.5316 30.4363 89.4127 31.0704C90.2937 31.7046 91.3531 32.0433 92.4387 32.038C93.5243 32.0326 94.5803 31.6834 95.455 31.0405C96.3298 30.3977 96.9783 29.4942 97.3076 28.4598C97.6368 27.4254 97.6297 26.3133 97.2874 25.2832C96.941 24.2612 96.2839 23.3729 95.4081 22.7423C94.5323 22.1117 93.4813 21.7704 92.4021 21.766V21.7668Z" fill="black"/>
<path d="M72.9828 56.8746C74.047 56.5214 75.1921 56.4916 76.2732 56.7892C77.3542 57.0867 78.3228 57.698 79.0564 58.546C79.79 59.3939 80.2556 60.4403 80.3944 61.5529C80.5332 62.6655 80.3389 63.7942 79.8361 64.7963C79.3334 65.7985 78.5447 66.629 77.5698 67.183C76.5949 67.7369 75.4776 67.9894 74.3593 67.9084C73.2409 67.8274 72.1717 67.4166 71.2868 66.728C70.4019 66.0393 69.7412 65.1038 69.3881 64.0397C68.9146 62.6129 69.0273 61.0565 69.7015 59.7128C70.3756 58.3691 71.5559 57.3482 72.9828 56.8746Z" fill="white"/>
<path d="M74.7689 56.1396C76.3069 56.1395 77.7886 56.7186 78.9189 57.7615C80.0493 58.8043 80.7454 60.2346 80.8687 61.7675C80.992 63.3004 80.5334 64.8236 79.5843 66.0337C78.6352 67.2438 77.2651 68.0521 75.7468 68.2978C74.2286 68.5434 72.6734 68.2084 71.3911 67.3593C70.1087 66.5103 69.1932 65.2095 68.8267 63.7159C68.4602 62.2224 68.6696 60.6456 69.4133 59.2995C70.1571 57.9534 71.3805 56.9366 72.84 56.4517C73.4621 56.2448 74.1134 56.1395 74.7689 56.1396ZM74.7689 67.4804C75.8736 67.4806 76.95 67.1307 77.8434 66.481C78.7368 65.8312 79.4012 64.915 79.7412 63.8641C80.0812 62.8131 80.0792 61.6814 79.7357 60.6316C79.3921 59.5817 78.7246 58.6678 77.829 58.0211C76.9334 57.3744 75.8559 57.0281 74.7512 57.0321C73.6465 57.0361 72.5714 57.3902 71.6806 58.0434C70.7897 58.6965 70.1288 59.6153 69.7929 60.6676C69.4569 61.7198 69.4632 62.8515 69.8108 63.9C70.1551 64.9424 70.8195 65.8495 71.7094 66.4924C72.5993 67.1352 73.6693 67.481 74.7672 67.4804H74.7689Z" fill="black"/>
<path d="M12.7693 73.9338C11.7205 74.2766 10.5937 74.301 9.53108 74.004C8.46845 73.707 7.51763 73.1019 6.79863 72.2651C6.07963 71.4282 5.62468 70.3971 5.49121 69.302C5.35773 68.2069 5.55172 67.0967 6.04867 66.1117C6.54563 65.1267 7.32328 64.311 8.28348 63.7675C9.24367 63.224 10.3434 62.9771 11.4438 63.058C12.5442 63.1389 13.5959 63.5439 14.4663 64.222C15.3367 64.9 15.9867 65.8207 16.3342 66.8678C16.5642 67.5658 16.6544 68.3023 16.5997 69.0351C16.545 69.768 16.3465 70.4829 16.0155 71.1391C15.6844 71.7953 15.2274 72.3798 14.6704 72.8593C14.1134 73.3388 13.4674 73.7039 12.7693 73.9338ZM39.3705 109.403C38.3217 109.746 37.1949 109.771 36.1323 109.474C35.0697 109.177 34.1188 108.571 33.3998 107.735C32.6808 106.898 32.2259 105.867 32.0924 104.772C31.9589 103.676 32.1529 102.566 32.6499 101.581C33.1468 100.596 33.9245 99.7806 34.8847 99.2371C35.8449 98.6936 36.9446 98.4467 38.045 98.5276C39.1454 98.6085 40.1971 99.0135 41.0675 99.6916C41.9379 100.37 42.5879 101.29 42.9354 102.337C43.3997 103.747 43.2849 105.283 42.6163 106.609C41.9478 107.934 40.7803 108.939 39.3705 109.403Z" fill="#D1D4D4"/>
<path d="M11.0261 62.6006C12.1354 62.6075 13.2213 62.92 14.1645 63.5038C15.1077 64.0876 15.8717 64.9201 16.3726 65.9098C16.8734 66.8995 17.0917 68.0081 17.0034 69.1138C16.9152 70.2195 16.5238 71.2794 15.8723 72.1771C15.2208 73.0749 14.3344 73.7757 13.3105 74.2025C12.2867 74.6293 11.1649 74.7657 10.0686 74.5965C8.97228 74.4274 7.94379 73.9594 7.09617 73.2439C6.24855 72.5283 5.61461 71.593 5.264 70.5407C4.76294 69.019 4.88686 67.3607 5.6085 65.9303C6.33015 64.5 7.59042 63.4149 9.11215 62.9136C9.72925 62.7073 10.3755 62.6017 11.0261 62.6006ZM10.9954 73.7765C11.9101 73.7761 12.808 73.5317 13.5966 73.0683C14.3851 72.6049 15.0357 71.9395 15.481 71.1407C15.9264 70.3419 16.1504 69.4387 16.13 68.5244C16.1096 67.61 15.8454 66.7178 15.3648 65.9397C14.8842 65.1615 14.2045 64.5258 13.3961 64.0982C12.5876 63.6705 11.6796 63.4663 10.7659 63.5068C9.85214 63.5474 8.96578 63.831 8.19833 64.3285C7.43088 64.8261 6.81017 65.5194 6.4003 66.337C6.00477 67.1202 5.81679 67.9917 5.85432 68.8682C5.89185 69.7448 6.15365 70.597 6.61468 71.3435C7.0757 72.09 7.72054 72.7057 8.48753 73.1319C9.25452 73.558 10.118 73.7794 10.9954 73.7765ZM37.6291 98.0728C39.1531 98.0721 40.6214 98.6452 41.7419 99.678C42.8625 100.711 43.5529 102.128 43.6759 103.647C43.799 105.165 43.3455 106.675 42.4058 107.875C41.4661 109.074 40.1091 109.876 38.6049 110.121C37.1006 110.365 35.5595 110.034 34.2882 109.194C33.0168 108.354 32.1086 107.065 31.7442 105.586C31.3797 104.106 31.5859 102.544 32.3216 101.209C33.0572 99.8746 34.2685 98.866 35.7142 98.384C36.3315 98.1775 36.9782 98.0724 37.6291 98.0728ZM37.5966 109.248C38.5552 109.247 39.4948 108.981 40.3113 108.479C41.1278 107.976 41.7893 107.258 42.2225 106.403C42.6177 105.62 42.8056 104.749 42.768 103.873C42.7305 102.996 42.4688 102.144 42.008 101.398C41.5472 100.652 40.9027 100.036 40.136 99.6097C39.3694 99.1835 38.5062 98.961 37.6291 98.9635C36.9483 98.9528 36.2721 99.0773 35.6398 99.3298C35.0075 99.5824 34.4316 99.958 33.9456 100.435C33.4596 100.912 33.0731 101.48 32.8086 102.108C32.5441 102.735 32.4067 103.408 32.4046 104.089C32.4024 104.77 32.5355 105.445 32.7961 106.074C33.0567 106.703 33.4396 107.274 33.9225 107.753C34.4055 108.233 34.979 108.612 35.6097 108.869C36.2404 109.126 36.9158 109.254 37.5966 109.248Z" fill="black"/>
<path d="M57.0199 74.1344C55.9557 74.4877 54.8106 74.5175 53.7294 74.22C52.6483 73.9225 51.6797 73.3111 50.946 72.4631C50.2124 71.6151 49.7468 70.5687 49.608 69.4561C49.4693 68.3435 49.6636 67.2147 50.1664 66.2125C50.6693 65.2104 51.4581 64.3798 52.433 63.8259C53.408 63.272 54.5253 63.0197 55.6437 63.1008C56.7621 63.1819 57.8314 63.5928 58.7162 64.2816C59.601 64.9703 60.2617 65.906 60.6147 66.9702C61.0878 68.3969 60.975 69.9531 60.3009 71.2966C59.6267 72.6401 58.4466 73.6608 57.0199 74.1344Z" fill="white"/>
<path d="M55.232 74.8734C53.6928 74.8737 52.2099 74.2944 51.0787 73.2508C49.9474 72.2072 49.2506 70.7759 49.1272 69.2419C49.0037 67.7078 49.4625 66.1835 50.4123 64.9725C51.3621 63.7614 52.7332 62.9524 54.2526 62.7066C55.7721 62.4607 57.3283 62.7961 58.6117 63.6458C59.895 64.4955 60.8112 65.7973 61.1779 67.292C61.5445 68.7868 61.3348 70.3647 60.5904 71.7118C59.846 73.0589 58.6216 74.0762 57.1609 74.5613C56.5388 74.7682 55.8875 74.8736 55.232 74.8734ZM55.232 63.5327C54.127 63.5322 53.0504 63.882 52.1567 64.5318C51.2631 65.1815 50.5984 66.0977 50.2582 67.1489C49.918 68.2 49.9198 69.3319 50.2632 70.382C50.6067 71.4321 51.2743 72.3463 52.17 72.9932C53.0656 73.6402 54.1434 73.9866 55.2483 73.9827C56.3532 73.9788 57.4284 73.6248 58.3195 72.9716C59.2106 72.3183 59.8717 71.3995 60.2078 70.347C60.5439 69.2945 60.5377 68.1626 60.1901 67.1139C59.8456 66.0715 59.181 65.1642 58.291 64.5213C57.401 63.8783 56.33 63.5324 55.232 63.5327Z" fill="black"/>
</g>
</svg>
