<svg width="130" height="131" viewBox="0 0 130 131" fill="none" xmlns="http://www.w3.org/2000/svg">
<mask id="mask0_7858_20943" style="mask-type:luminance" maskUnits="userSpaceOnUse" x="21" y="2" width="85" height="121">
<path d="M105.297 2.74219H21.2969V122.742H105.297V2.74219Z" fill="white"/>
</mask>
<g mask="url(#mask0_7858_20943)">
<path d="M30.7944 92.1106L64.0379 107.216L64.1098 107.249L64.1706 107.276C64.46 107.401 64.7554 107.518 65.0619 107.615C67.6547 108.46 70.4799 108.25 72.9165 107.032C75.3532 105.814 77.2021 103.687 78.0568 101.12C78.9116 98.5523 78.7023 95.7536 77.475 93.3388C76.2476 90.924 74.1027 89.0907 71.5114 88.2416C71.2058 88.1416 70.8984 88.0618 70.591 87.9872L70.5251 87.9736L70.448 87.9575L34.66 80.4876C33.1039 79.9792 31.4076 80.1041 29.9444 80.8346C28.4812 81.5651 27.3709 82.8414 26.8577 84.3828C26.3445 85.9243 26.4705 87.6045 27.208 89.0539C27.9455 90.5033 29.234 91.6031 30.7901 92.1115" fill="#D1D4D4"/>
<path d="M32.7332 79.75C33.4291 79.7503 34.1206 79.8596 34.782 80.074L71.1094 87.6559V87.6745C71.3063 87.7263 71.4853 87.7788 71.6582 87.8348C73.0056 88.2648 74.2539 88.9546 75.331 89.8644C76.4082 90.7743 77.293 91.8862 77.9345 93.1362C78.576 94.3862 78.9614 95.7496 79.0687 97.1478C79.176 98.546 79.003 99.9515 78.5596 101.283C78.1162 102.615 77.4112 103.846 76.4853 104.907C75.5593 105.968 74.4306 106.837 73.1643 107.463C71.8979 108.09 70.5189 108.462 69.1067 108.559C67.6944 108.656 66.2768 108.474 64.9356 108.026C64.7703 107.972 64.5991 107.911 64.4218 107.841L64.4167 107.855L63.9424 107.645L63.8996 107.626L63.873 107.614H63.8662L30.6467 92.5179C29.1574 92.0258 27.8933 91.0251 27.0805 89.6945C26.2677 88.364 25.9591 86.7905 26.21 85.2553C26.4609 83.7201 27.2548 82.3234 28.4499 81.3148C29.6449 80.3062 31.1632 79.7516 32.7332 79.75ZM70.3312 88.375L34.5568 80.9119L34.5337 80.9042C33.0916 80.4482 31.526 80.5746 30.1775 81.256C28.829 81.9374 27.8066 83.1186 27.3326 84.5427C26.8587 85.9668 26.9716 87.5187 27.6467 88.8609C28.3218 90.203 29.5046 91.2269 30.9378 91.7097L30.9609 91.7174L30.9832 91.7275L64.2121 106.823L64.3534 106.883C64.6641 107.017 64.9433 107.125 65.2095 107.21C67.6918 108.015 70.395 107.812 72.7261 106.645C75.0571 105.478 76.8257 103.442 77.6437 100.985C78.4616 98.5282 78.2623 95.8501 77.0893 93.5385C75.9163 91.2269 73.8655 89.4706 71.3868 88.6549C71.13 88.5701 70.8466 88.4938 70.5041 88.4149L70.3312 88.375Z" fill="black"/>
<path d="M58.4963 94.7266C59.1352 92.8103 60.3334 91.1248 61.9394 89.8831C63.5453 88.6414 65.4868 87.8992 67.5186 87.7504C69.5503 87.6017 71.5809 88.053 73.3537 89.0473C75.1265 90.0416 76.5619 91.5342 77.4784 93.3366C78.3948 95.1389 78.7512 97.1699 78.5024 99.1728C78.2537 101.176 77.411 103.061 76.0808 104.589C74.7507 106.118 72.9929 107.221 71.0297 107.76C69.0664 108.299 66.9859 108.25 65.0512 107.617C63.7661 107.198 62.5772 106.531 61.5522 105.656C60.5273 104.781 59.6864 103.714 59.0777 102.517C58.469 101.32 58.1044 100.016 58.0046 98.6791C57.9048 97.3424 58.0719 95.9993 58.4963 94.7266Z" fill="white"/>
<path d="M68.2747 87.2852C70.837 87.2836 73.3155 88.1892 75.2629 89.8387C77.2103 91.4881 78.4983 93.7728 78.8946 96.2803C79.2909 98.7878 78.7693 101.353 77.424 103.513C76.0787 105.673 73.9982 107.286 71.5581 108.06C69.1179 108.834 66.4787 108.719 64.1169 107.735C61.755 106.751 59.8259 104.963 58.6778 102.694C57.5297 100.425 57.2382 97.8243 57.8559 95.3611C58.4735 92.8978 59.9596 90.7344 62.0461 89.2612C63.8639 87.9761 66.0414 87.2852 68.2747 87.2852ZM68.2747 107.699C70.7575 107.702 73.15 106.777 74.9757 105.111C76.8013 103.444 77.9261 101.157 78.1259 98.7058C78.3258 96.2544 77.586 93.8185 76.054 91.8832C74.5221 89.9479 72.3103 88.6552 69.8593 88.2628C67.4084 87.8704 64.8981 88.4069 62.8286 89.7656C60.7591 91.1243 59.2823 93.2053 58.6923 95.5942C58.1023 97.9831 58.4425 100.504 59.6451 102.656C60.8476 104.808 62.8243 106.431 65.1814 107.204C66.1814 107.532 67.2281 107.7 68.2816 107.699H68.2747Z" fill="black"/>
<path d="M30.7979 34.5431L64.0414 19.437L64.1133 19.4039L64.1741 19.3767C64.4635 19.2521 64.7589 19.135 65.0654 19.0375C67.6582 18.1932 70.4834 18.4031 72.9201 19.621C75.3568 20.839 77.2056 22.9654 78.0604 25.533C78.9151 28.1005 78.7058 30.8992 77.4785 33.314C76.2512 35.7288 74.1062 37.5622 71.5149 38.4112C71.2093 38.5113 70.9019 38.591 70.5946 38.6656L70.5286 38.6792L70.4516 38.6953L34.6678 46.1669C33.1117 46.6753 31.4155 46.5505 29.9522 45.82C28.489 45.0895 27.3787 43.8131 26.8655 42.2717C26.3523 40.7303 26.4783 39.05 27.2158 37.6006C27.9533 36.1512 29.2418 35.0514 30.7979 34.5431Z" fill="#D1D4D4"/>
<path d="M32.7271 46.9083C31.1574 46.9071 29.6393 46.3531 28.4441 45.3452C27.2489 44.3373 26.4544 42.9412 26.2028 41.4065C25.9511 39.8717 26.2586 38.2984 27.0704 36.9675C27.8821 35.6367 29.1451 34.6352 30.6337 34.142L63.8627 19.0461L63.8892 19.0342L63.932 19.0147L64.4055 18.801L64.4123 18.8188C64.5913 18.7493 64.7617 18.6873 64.926 18.6339C67.611 17.8158 70.5128 18.0731 73.0085 19.3506C75.5041 20.6281 77.3945 22.824 78.274 25.4667C79.1535 28.1095 78.9518 30.9884 77.7123 33.4855C76.4728 35.9826 74.2943 37.8988 71.6444 38.8226C71.4732 38.8786 71.2925 38.932 71.0956 38.9829V38.9982L70.5314 39.1194L34.7691 46.5826C34.1099 46.7968 33.4208 46.9067 32.7271 46.9083ZM64.1341 19.8679L30.9522 34.9452L30.9291 34.9528C30.2063 35.1814 29.5364 35.5496 28.958 36.0361C28.3797 36.5226 27.9044 37.1178 27.5596 37.7873C27.2148 38.4569 27.0074 39.1874 26.9493 39.9368C26.8913 40.6862 26.9837 41.4396 27.2212 42.1534C27.4588 42.8672 27.8367 43.5273 28.3333 44.0956C28.8299 44.6638 29.4353 45.129 30.1144 45.4642C30.7935 45.7994 31.533 45.998 32.29 46.0484C33.0471 46.0989 33.8067 46.0003 34.525 45.7583L34.5482 45.7506L34.5721 45.7439L70.3747 38.2705L70.492 38.2425C70.8345 38.1637 71.1153 38.0873 71.3747 38.0025C72.6339 37.625 73.8041 37.0017 74.8165 36.1694C75.8288 35.3371 76.6628 34.3125 77.2693 33.1561C77.8759 31.9997 78.2427 30.7347 78.3482 29.4357C78.4537 28.1367 78.2957 26.83 77.8836 25.5923C77.4715 24.3547 76.8136 23.2113 75.9486 22.2294C75.0837 21.2475 74.0291 20.4469 72.847 19.8748C71.6649 19.3027 70.3793 18.9707 69.0657 18.8983C67.7521 18.8259 66.4372 19.0146 65.1983 19.4532C64.9346 19.538 64.6555 19.6457 64.3421 19.7805L64.1341 19.8679Z" fill="black"/>
<path d="M58.4961 31.9279C59.135 33.8441 60.3332 35.5296 61.9391 36.7714C63.5451 38.0131 65.4866 38.7552 67.5183 38.904C69.5501 39.0528 71.5807 38.6015 73.3535 37.6072C75.1263 36.6129 76.5617 35.1202 77.4781 33.3179C78.3946 31.5156 78.751 29.4846 78.5022 27.4817C78.2535 25.4787 77.4107 23.5939 76.0806 22.0653C74.7505 20.5368 72.9927 19.4332 71.0294 18.8942C69.0662 18.3552 66.9857 18.4049 65.0509 19.037C63.7659 19.4569 62.5771 20.1235 61.5522 20.9987C60.5273 21.8738 59.6865 22.9404 59.0778 24.1375C58.4691 25.3346 58.1044 26.6387 58.0046 27.9754C57.9048 29.3121 58.0718 30.6551 58.4961 31.9279Z" fill="white"/>
<path d="M68.2777 39.3687C65.574 39.371 62.9686 38.3643 60.9806 36.5491C58.9925 34.7339 57.7679 32.2435 57.5505 29.574C57.3331 26.9044 58.1389 24.2518 59.8075 22.1444C61.4761 20.037 63.8849 18.6297 66.554 18.2027C69.2232 17.7757 71.9568 18.3604 74.2102 19.8404C76.4636 21.3203 78.0715 23.5869 78.7135 26.1885C79.3555 28.7901 78.9845 31.5358 77.6743 33.8786C76.3642 36.2214 74.2112 37.9893 71.6442 38.8301C70.5567 39.1875 69.4183 39.3693 68.2726 39.3687H68.2777ZM68.2777 18.9535C65.66 18.9535 63.1496 19.9836 61.2986 21.8171C59.4476 23.6506 58.4077 26.1373 58.4077 28.7303C58.4077 31.3232 59.4476 33.81 61.2986 35.6435C63.1496 37.477 65.66 38.507 68.2777 38.507C70.8954 38.507 73.4058 37.477 75.2568 35.6435C77.1078 33.81 78.1477 31.3232 78.1477 28.7303C78.1477 26.1373 77.1078 23.6506 75.2568 21.8171C73.4058 19.9836 70.8954 18.9535 68.2777 18.9535Z" fill="black"/>
<path d="M64.5517 3.23508C64.4059 3.28016 64.265 3.33983 64.1313 3.41318L54.4566 9.8985C54.3229 9.9705 54.197 10.0557 54.0807 10.1529C53.8575 10.342 53.6737 10.5725 53.5396 10.8314C53.4742 10.9593 53.4212 11.093 53.3812 11.2308C53.2544 11.6566 53.2585 12.1101 53.3931 12.5334C53.5277 12.9568 53.7866 13.3309 54.1368 13.6078C54.4869 13.8848 54.9125 14.0521 55.3591 14.0884C55.8057 14.1247 56.2531 14.0283 56.6441 13.8116L66.3189 7.3254C66.5179 7.21608 66.6991 7.07771 66.8565 6.91493C67.0082 6.75756 67.1357 6.57897 67.235 6.38488C67.3004 6.25726 67.3534 6.12379 67.3934 5.98627C67.4952 5.63412 67.5082 5.26259 67.4312 4.90429C67.3542 4.546 67.1896 4.21192 66.9518 3.93138C66.714 3.65085 66.4103 3.43245 66.0673 3.29537C65.7244 3.15829 65.3527 3.10671 64.985 3.14518C64.8377 3.16134 64.6932 3.19144 64.5517 3.23508Z" fill="white"/>
<path d="M65.2253 2.69922C65.6424 2.69884 66.0539 2.79447 66.4273 2.97858C66.8007 3.16268 67.1258 3.43022 67.377 3.76009C67.6281 4.08995 67.7984 4.47312 67.8745 4.87935C67.9506 5.28558 67.9303 5.70376 67.8153 6.1009C67.7675 6.26505 67.7041 6.42436 67.626 6.57667C67.5074 6.80808 67.3551 7.02097 67.174 7.2085C66.991 7.39782 66.781 7.55955 66.5507 7.68851L56.8554 14.1849C56.5464 14.355 56.2065 14.463 55.8553 14.5028C55.504 14.5425 55.1483 14.5132 54.8085 14.4166C54.4688 14.3199 54.1516 14.1577 53.8752 13.9394C53.5988 13.7211 53.3686 13.4509 53.1978 13.1443C53.0257 12.8384 52.9165 12.5018 52.8765 12.1539C52.8366 11.806 52.8666 11.4537 52.9649 11.1173C53.0125 10.9535 53.0756 10.7945 53.1533 10.6424C53.3131 10.3314 53.533 10.0544 53.8006 9.82739C53.9331 9.7146 54.0765 9.6149 54.2286 9.52971L63.9257 3.03845C64.0852 2.95084 64.2533 2.87951 64.4274 2.82558C64.5948 2.77387 64.7668 2.73809 64.9411 2.71873C65.0354 2.70728 65.1303 2.70077 65.2253 2.69922ZM56.4187 13.4394L66.1115 6.94644C66.2724 6.85783 66.4191 6.74576 66.5464 6.61399C66.6683 6.48813 66.771 6.34527 66.8512 6.18994C66.9042 6.08649 66.9472 5.9783 66.9796 5.86682C67.061 5.58277 67.0709 5.28329 67.0083 4.99459C66.9458 4.70588 66.8128 4.43677 66.6209 4.2108C66.429 3.98483 66.1841 3.8089 65.9077 3.69841C65.6313 3.58791 65.3317 3.54622 65.0353 3.57699C64.9165 3.59024 64.7992 3.61466 64.6851 3.64992C64.5734 3.68447 64.4653 3.72963 64.3623 3.78477L54.6687 10.2743C54.5608 10.3335 54.4593 10.4034 54.3656 10.483C54.275 10.5593 54.1923 10.6445 54.1191 10.7374C54.0464 10.8288 53.983 10.9271 53.9298 11.0308C53.8769 11.1346 53.8339 11.243 53.8014 11.3548C53.7348 11.5825 53.7145 11.821 53.7415 12.0565C53.7686 12.292 53.8425 12.5199 53.959 12.727C54.1157 13.0101 54.3465 13.2461 54.6272 13.4103C54.9079 13.5744 55.228 13.6607 55.554 13.6599C55.6771 13.6598 55.7999 13.6473 55.9204 13.6226C56.0946 13.5858 56.2625 13.5241 56.4187 13.4394Z" fill="black"/>
<path d="M64.5575 122.254C64.4117 122.209 64.2708 122.15 64.1372 122.076L54.4624 115.591C54.3287 115.519 54.2028 115.434 54.0865 115.337C53.8633 115.147 53.6795 114.917 53.5454 114.658C53.4801 114.53 53.427 114.396 53.387 114.259C53.2618 113.833 53.2671 113.38 53.4023 112.958C53.5374 112.536 53.7963 112.163 54.1461 111.886C54.4958 111.61 54.9206 111.443 55.3664 111.406C55.8122 111.369 56.259 111.465 56.6499 111.68L66.3247 118.166C66.5237 118.275 66.7049 118.413 66.8624 118.576C67.014 118.734 67.1415 118.912 67.2408 119.106C67.306 119.234 67.3591 119.367 67.3992 119.505C67.5009 119.857 67.5137 120.228 67.4367 120.587C67.3596 120.945 67.1949 121.279 66.9571 121.559C66.7194 121.84 66.4157 122.058 66.0729 122.195C65.73 122.332 65.3584 122.384 64.9908 122.345C64.8435 122.329 64.6981 122.299 64.5567 122.255" fill="white"/>
<path d="M65.2209 122.789C65.1269 122.789 65.0328 122.784 64.9393 122.774C64.765 122.755 64.593 122.719 64.4256 122.667C64.2504 122.612 64.0814 122.539 63.9213 122.449L63.8879 122.429L54.226 115.954C54.0738 115.868 53.9304 115.768 53.7979 115.655C53.531 115.428 53.3117 115.152 53.1523 114.841C53.0746 114.689 53.0116 114.53 52.964 114.366C52.817 113.86 52.8251 113.321 52.9871 112.819C53.1492 112.317 53.458 111.873 53.8744 111.545C54.2909 111.217 54.7963 111.018 55.3267 110.974C55.8572 110.93 56.3888 111.043 56.8544 111.299L56.8878 111.319L66.5506 117.794C66.7809 117.923 66.9909 118.085 67.1739 118.274C67.3551 118.462 67.5074 118.675 67.6259 118.907C67.7035 119.059 67.7665 119.218 67.8143 119.381C67.9301 119.779 67.9509 120.198 67.8751 120.605C67.7992 121.012 67.6287 121.396 67.3771 121.727C67.1255 122.057 66.7997 122.325 66.4255 122.51C66.0513 122.694 65.6389 122.789 65.2209 122.789ZM64.3579 121.709C64.4609 121.764 64.569 121.809 64.6807 121.844C64.7957 121.879 64.9138 121.904 65.0334 121.917C65.3298 121.947 65.6291 121.905 65.9053 121.795C66.1815 121.684 66.4261 121.508 66.6177 121.282C66.8093 121.056 66.9421 120.787 67.0044 120.499C67.0668 120.21 67.0567 119.911 66.9752 119.627C66.9426 119.516 66.8996 119.408 66.8468 119.305C66.7667 119.149 66.664 119.007 66.542 118.881C66.4147 118.749 66.2681 118.637 66.1071 118.548L66.0745 118.529L56.4143 112.055C56.0988 111.886 55.7401 111.814 55.383 111.846C55.0259 111.878 54.6864 112.014 54.407 112.237C54.1275 112.459 53.9206 112.759 53.8121 113.097C53.7036 113.436 53.6984 113.798 53.797 114.14C53.8295 114.252 53.8725 114.36 53.9254 114.464C54.0331 114.673 54.1808 114.859 54.3604 115.012C54.4543 115.092 54.5561 115.162 54.6643 115.221L54.6977 115.242L64.3579 121.709Z" fill="black"/>
<path d="M31.245 53.66L87.3594 47.5648L87.481 47.5521L87.5838 47.5411V47.5462C88.0692 47.5029 88.5589 47.4749 89.0564 47.4766C93.2528 47.5144 97.2639 49.1944 100.215 52.1502C103.166 55.106 104.817 59.0977 104.808 63.2546C104.8 67.4116 103.132 71.3966 100.169 74.3404C97.2059 77.2841 93.1879 78.9478 88.9913 78.9686C88.4939 78.9686 88.0041 78.9373 87.5187 78.8915V78.8974L87.4159 78.8864L87.2952 78.8728L31.2056 72.5554C28.676 72.5502 26.2521 71.5499 24.4671 69.7745C22.6822 67.999 21.6823 65.5939 21.6875 63.0882C21.6927 60.5825 22.7026 58.1815 24.495 56.4134C26.2874 54.6453 28.7154 53.6549 31.245 53.66Z" fill="#554596"/>
<path d="M88.9978 47.0508H89.056C93.3873 47.0554 97.5393 48.7642 100.599 51.8012C103.658 54.8382 105.374 58.9546 105.37 63.245C105.365 67.5354 103.64 71.6482 100.574 74.6787C97.5079 77.7091 93.3522 79.4091 89.0209 79.4044H88.9875C88.6613 79.4044 88.3197 79.3909 87.9507 79.3646V79.3841L87.3668 79.3196L87.2812 79.3095L87.2452 79.3052L31.1805 72.987C29.8706 72.9843 28.5741 72.7261 27.365 72.2271C26.1559 71.7281 25.0578 70.9981 24.1335 70.0787C22.2668 68.222 21.2211 65.7068 21.2266 63.0864C21.232 60.466 22.2881 57.9551 24.1626 56.106C26.037 54.2569 28.5762 53.2211 31.2215 53.2265L87.3163 47.1415L87.3685 47.1356L87.4353 47.1288L87.949 47.0754V47.0906C88.3266 47.0635 88.6708 47.0508 88.9978 47.0508ZM89.0218 78.5428C93.1027 78.5171 97.0078 76.8944 99.8858 74.0284C102.764 71.1624 104.381 67.2856 104.385 63.2432C104.389 59.2008 102.78 55.3207 99.9081 52.4489C97.036 49.577 93.1343 47.9464 89.0535 47.9124H88.9978C88.5809 47.9124 88.1297 47.9345 87.6211 47.9803L87.3052 48.0083L31.2661 54.0958H31.2224C28.8082 54.0934 26.4919 55.041 24.783 56.7302C23.0741 58.4195 22.1127 60.7119 22.1102 63.1034C22.1077 65.4948 23.0643 67.7892 24.7697 69.482C26.475 71.1747 28.7893 72.1271 31.2036 72.1296H31.2275L87.2213 78.4402L87.5517 78.4715C88.0809 78.5216 88.5492 78.5462 88.9841 78.547L89.0218 78.5428Z" fill="black"/>
<path d="M73.1094 63.1938C73.1028 66.3082 74.0287 69.3545 75.7699 71.9476C77.5112 74.5407 79.9896 76.5642 82.8918 77.762C85.794 78.9599 88.9896 79.2783 92.0745 78.6772C95.1594 78.076 97.995 76.5822 100.223 74.3847C102.451 72.1871 103.971 69.3845 104.591 66.3313C105.21 63.2781 104.902 60.1114 103.705 57.2316C102.508 54.3518 100.476 51.8883 97.8654 50.1526C95.2549 48.417 92.1834 47.4871 89.0394 47.4805C84.8234 47.4719 80.7767 49.1226 77.7893 52.0694C74.8019 55.0162 73.1185 59.0177 73.1094 63.1938Z" fill="white"/>
<path d="M77.7333 51.5206C80.4608 48.9453 84.0032 47.3832 87.7603 47.0989C91.5175 46.8147 95.2583 47.8258 98.349 49.9609C101.44 52.096 103.69 55.2238 104.719 58.8144C105.748 62.405 105.493 66.2376 103.995 69.6629C102.272 73.6003 99.0396 76.6982 95.01 78.2751C90.9804 79.852 86.4835 79.7787 82.5085 78.0713C78.5335 76.3639 75.4061 73.1623 73.8141 69.1708C72.2222 65.1793 72.2962 60.7249 74.0199 56.7874C74.8874 54.8022 76.1504 53.0109 77.7333 51.5206ZM99.6815 74.3063C101.894 72.2152 103.431 69.5212 104.098 66.565C104.764 63.6088 104.531 60.5231 103.428 57.6981C102.324 54.8732 100.399 52.4358 97.8974 50.6943C95.3954 48.9527 92.4282 47.9852 89.371 47.9141C86.3139 47.843 83.3041 48.6714 80.7223 50.2946C78.1404 51.9179 76.1025 54.2631 74.8662 57.0336C73.6299 59.8041 73.2508 62.8755 73.7767 65.8595C74.3026 68.8435 75.71 71.6059 77.8209 73.7976C80.6541 76.7324 84.5468 78.4341 88.645 78.5295C92.7433 78.6248 96.7123 77.106 99.6815 74.3063Z" fill="black"/>
</g>
</svg>
