<svg width="120" height="121" viewBox="0 0 120 121" fill="none" xmlns="http://www.w3.org/2000/svg">
<mask id="mask0_7858_20917" style="mask-type:luminance" maskUnits="userSpaceOnUse" x="0" y="0" width="120" height="121">
<path d="M120 0.5H0V120.5H120V0.5Z" fill="white"/>
</mask>
<g mask="url(#mask0_7858_20917)">
<path d="M33.6139 71.7829C31.6107 73.7993 30.4854 76.5342 30.4854 79.3858C30.4854 82.2375 31.6107 84.9723 33.6139 86.9887C35.6171 89.0051 38.334 90.1379 41.1669 90.1379C43.9998 90.1379 46.7167 89.0051 48.7199 86.9887L76.2489 59.28L75.8449 55.293C75.701 52.4727 74.5234 49.8062 72.5398 47.8091C70.5562 45.812 67.9074 44.6262 65.1056 44.4808L61.1409 44.0771L33.6139 71.7829Z" fill="#554596"/>
<path d="M41.1752 90.6382C38.9641 90.6386 36.8025 89.979 34.9637 88.7429C33.125 87.5067 31.6916 85.7496 30.8449 83.6935C29.9982 81.6374 29.7761 79.3748 30.2068 77.1917C30.6375 75.0086 31.7015 73.0031 33.2644 71.4287L60.9555 43.5527L65.1561 43.9801C67.4219 44.1515 69.604 44.9154 71.4865 46.1962C72.8872 47.1949 74.0357 48.5102 74.8399 50.0367C75.703 51.6504 76.2158 53.4302 76.3446 55.2583L76.7701 59.4669L49.0751 87.3438C48.0401 88.3914 46.809 89.222 45.4529 89.7875C44.0969 90.353 42.643 90.6421 41.1752 90.6382ZM61.33 44.6014L33.9691 72.139C32.5462 73.573 31.5775 75.3995 31.1856 77.3876C30.7936 79.3756 30.996 81.436 31.7672 83.3083C32.5383 85.1806 33.8435 86.7808 35.5179 87.9066C37.1923 89.0323 39.1607 89.6331 41.1742 89.6331C42.5108 89.6368 43.8349 89.3735 45.0698 88.8587C46.3047 88.3438 47.4259 87.5874 48.3685 86.6335L75.7284 59.0929L75.346 55.3068C75.219 53.6162 74.7405 51.9714 73.9416 50.4789C72.1951 47.2419 69.2053 45.3919 65.0568 44.9803L61.33 44.6014Z" fill="black"/>
<path d="M75.8448 55.2869L81.5127 111.282H81.5186C82.0237 113.923 83.4885 116.279 85.627 117.891C87.7656 119.503 90.4242 120.255 93.0837 119.999C95.7432 119.744 98.2126 118.499 100.01 116.509C101.807 114.519 102.802 111.927 102.802 109.237C102.802 109.205 102.802 109.173 102.802 109.138V28.1569C102.801 25.2897 101.67 22.54 99.6557 20.5125C97.6415 18.4851 94.9098 17.346 92.0614 17.3457H11.2879C11.2565 17.3457 11.2231 17.3457 11.1896 17.3457C8.52174 17.3509 5.95126 18.3555 3.97896 20.164C2.00665 21.9725 0.773766 24.4552 0.520458 27.1287C0.26715 29.8021 1.01156 32.4746 2.60869 34.6258C4.20582 36.777 6.54127 38.2526 9.16012 38.7654V38.7703L65.1055 44.4757C67.9071 44.621 70.5557 45.8068 72.5394 47.8037C74.523 49.8005 75.7007 52.4668 75.8448 55.2869Z" fill="#D1D4D4"/>
<path d="M11.1907 16.8438H92.0615C95.0424 16.844 97.901 18.0361 100.009 20.1578C102.117 22.2795 103.301 25.157 103.301 28.1576V109.552C103.225 112.301 102.156 114.929 100.294 116.943C98.4316 118.956 95.9044 120.218 93.1851 120.491C90.4657 120.765 87.7405 120.032 85.5195 118.429C83.2985 116.826 81.734 114.463 81.1187 111.782H81.0666L75.3456 55.3064C75.2186 53.6158 74.7401 51.971 73.9412 50.4785C72.1947 47.2415 69.2049 45.3914 65.0564 44.9799L8.57938 39.2221L8.5892 39.1617C5.94471 38.5273 3.6183 36.9495 2.04103 34.7207C0.463754 32.4918 -0.25746 29.763 0.0110154 27.0399C0.279491 24.3168 1.51946 21.7839 3.50116 19.9106C5.48287 18.0373 8.07198 16.9505 10.7888 16.8517H10.9156C11.0099 16.8464 11.1016 16.8438 11.1907 16.8438ZM102.299 108.725V28.1615C102.296 25.4285 101.217 22.808 99.2981 20.8748C97.379 18.9415 94.7766 17.8533 92.0615 17.8489H11.7873H11.288C11.2615 17.8489 11.234 17.8489 11.2065 17.8489H11.1898C8.64178 17.8479 6.18498 18.8033 4.29939 20.5283C2.41379 22.2533 1.23489 24.624 0.993023 27.1772C0.751155 29.7304 1.4637 32.2827 2.99144 34.3353C4.51918 36.388 6.75233 37.7935 9.25458 38.2773L9.29291 38.2842L65.1557 43.9807C67.4215 44.1521 69.6036 44.9159 71.4861 46.1967C72.8878 47.1951 74.0374 48.5105 74.8424 50.0373C75.7055 51.651 76.2184 53.4307 76.3471 55.2589L82.0033 111.139L82.0121 111.187C82.4939 113.705 83.8906 115.951 85.9297 117.488C87.9688 119.025 90.5037 119.741 93.0394 119.498C95.5751 119.254 97.9296 118.068 99.643 116.17C101.356 114.273 102.306 111.801 102.305 109.237V109.223C102.305 109.195 102.305 109.168 102.305 109.14V108.727L102.299 108.725Z" fill="black"/>
<path d="M48.7256 71.7802C50.2193 73.2839 51.2366 75.1997 51.6487 77.2853C52.0608 79.371 51.8492 81.5328 51.0408 83.4974C50.2323 85.462 48.8633 87.1412 47.1067 88.3226C45.3502 89.504 43.2851 90.1346 41.1726 90.1346C39.06 90.1346 36.9949 89.504 35.2384 88.3226C33.4818 87.1412 32.1128 85.462 31.3043 83.4974C30.4959 81.5328 30.2843 79.371 30.6964 77.2853C31.1085 75.1997 32.1258 73.2839 33.6195 71.7802C34.6114 70.7817 35.7889 69.9897 37.0849 69.4493C38.3808 68.909 39.7698 68.6309 41.1726 68.6309C42.5753 68.6309 43.9643 68.909 45.2602 69.4493C46.5562 69.9897 47.7337 70.7817 48.7256 71.7802Z" fill="white"/>
<path d="M41.1725 68.128C43.3838 68.128 45.5454 68.7881 47.384 70.0247C49.2227 71.2614 50.6557 73.0191 51.5019 75.0755C52.3481 77.132 52.5696 79.3949 52.1382 81.578C51.7068 83.7612 50.6419 85.7665 49.0783 87.3405C46.9791 89.4392 44.139 90.6148 41.1804 90.6097C38.2217 90.6047 35.3856 89.4193 33.2935 87.3134C31.2014 85.2075 30.0239 82.3527 30.0188 79.3745C30.0138 76.3963 31.1817 73.5375 33.2666 71.4244C34.3024 70.376 35.5344 69.5448 36.8915 68.9789C38.2485 68.4131 39.7036 68.1239 41.1725 68.128ZM41.1725 89.6317C43.1863 89.6317 45.1549 89.0306 46.8293 87.9044C48.5037 86.7782 49.8088 85.1775 50.5795 83.3047C51.3501 81.4318 51.5518 79.3711 51.1589 77.3829C50.766 75.3947 49.7963 73.5685 48.3723 72.1351C46.9483 70.7017 45.134 69.7255 43.1589 69.3301C41.1838 68.9346 39.1365 69.1376 37.276 69.9133C35.4154 70.689 33.8252 72.0027 32.7064 73.6882C31.5876 75.3737 30.9904 77.3553 30.9904 79.3824C30.9935 82.0997 32.0673 84.7049 33.9761 86.6263C35.8849 88.5477 38.473 89.6286 41.1725 89.6317Z" fill="black"/>
<path d="M106.318 14.2727C105.841 13.7906 105.573 13.1378 105.573 12.4573C105.573 11.7768 105.841 11.124 106.318 10.6419L115.199 1.70242C115.685 1.26093 116.321 1.02412 116.975 1.04087C117.63 1.05762 118.253 1.32665 118.716 1.79244C119.179 2.25823 119.447 2.88524 119.465 3.54409C119.482 4.20295 119.248 4.84337 118.809 5.33321L109.928 14.2727C109.691 14.511 109.41 14.7001 109.101 14.8292C108.791 14.9582 108.46 15.0246 108.125 15.0246C107.79 15.0246 107.458 14.9582 107.149 14.8292C106.84 14.7001 106.558 14.511 106.322 14.2727" fill="white"/>
<path d="M108.122 15.5289C107.518 15.5309 106.927 15.3519 106.424 15.0146C105.921 14.6774 105.529 14.1972 105.297 13.6351C105.066 13.073 105.006 12.4544 105.125 11.8579C105.244 11.2615 105.537 10.7141 105.966 10.2855L114.847 1.34806C115.419 0.772265 116.195 0.448941 117.005 0.449219C117.814 0.449497 118.59 0.773355 119.162 1.34955C119.734 1.92574 120.055 2.70707 120.055 3.52165C120.054 4.33623 119.733 5.11734 119.16 5.69314L110.279 14.6326C109.996 14.9181 109.66 15.1444 109.29 15.2983C108.919 15.4521 108.523 15.5305 108.122 15.5289ZM117.003 1.45491C116.734 1.45424 116.467 1.50732 116.218 1.61107C115.969 1.71482 115.743 1.86719 115.552 2.05938L106.672 10.9988C106.481 11.1905 106.33 11.4181 106.227 11.6686C106.124 11.9191 106.071 12.1876 106.071 12.4587C106.071 12.7299 106.124 12.9984 106.227 13.2489C106.33 13.4994 106.481 13.727 106.671 13.9188C106.862 14.1106 107.088 14.2627 107.336 14.3665C107.585 14.4703 107.852 14.5237 108.121 14.5238C108.391 14.5238 108.658 14.4705 108.906 14.3668C109.155 14.263 109.381 14.111 109.572 13.9193L118.454 4.97984C118.74 4.69103 118.935 4.32318 119.014 3.92276C119.093 3.52235 119.053 3.10735 118.898 2.73021C118.742 2.35308 118.479 2.03073 118.142 1.80391C117.805 1.5771 117.409 1.455 117.003 1.45491Z" fill="black"/>
<path d="M14.7257 106.47C14.2486 105.988 13.9807 105.335 13.9807 104.655C13.9807 103.974 14.2486 103.321 14.7257 102.839L23.6066 93.8999C24.094 93.4662 24.7273 93.236 25.3775 93.2561C26.0278 93.2762 26.6459 93.5452 27.1059 94.0083C27.5658 94.4713 27.8331 95.0935 27.8531 95.748C27.8731 96.4025 27.6444 97.0401 27.2135 97.5307L18.3317 106.47C18.095 106.709 17.8139 106.898 17.5045 107.027C17.1952 107.156 16.8636 107.222 16.5287 107.222C16.1939 107.222 15.8623 107.156 15.5529 107.027C15.2436 106.898 14.9625 106.709 14.7257 106.47Z" fill="white"/>
<path d="M16.529 107.725C15.9246 107.726 15.3333 107.547 14.8303 107.21C14.3273 106.873 13.9352 106.393 13.7041 105.831C13.4729 105.269 13.4131 104.65 13.5321 104.054C13.6512 103.457 13.9437 102.91 14.3727 102.481L23.2535 93.5417C23.8256 92.9659 24.6016 92.6425 25.4106 92.6426C26.2197 92.6427 26.9956 92.9663 27.5676 93.5422C28.1396 94.1181 28.4609 94.8992 28.4608 95.7136C28.4607 96.528 28.1392 97.309 27.5671 97.8848L18.6853 106.824C18.403 107.111 18.067 107.338 17.6968 107.492C17.3267 107.647 16.9297 107.726 16.529 107.725ZM25.4098 93.6505C25.1403 93.6499 24.8734 93.7029 24.6244 93.8067C24.3754 93.9104 24.1493 94.0628 23.9591 94.255L15.0783 103.194C14.8878 103.386 14.7367 103.614 14.6336 103.864C14.5305 104.115 14.4774 104.383 14.4773 104.654C14.4773 104.925 14.5303 105.194 14.6333 105.445C14.7364 105.695 14.8874 105.923 15.0778 106.114C15.2683 106.306 15.4944 106.458 15.7432 106.562C15.9921 106.666 16.2588 106.719 16.5281 106.719C16.7975 106.719 17.0642 106.666 17.3131 106.562C17.562 106.459 17.7881 106.307 17.9786 106.115L26.8604 97.1755C27.1471 96.8867 27.3422 96.5188 27.4212 96.1184C27.5002 95.718 27.4595 95.303 27.3042 94.9258C27.149 94.5487 26.8862 94.2264 26.549 93.9995C26.2118 93.7727 25.8153 93.6506 25.4098 93.6505Z" fill="black"/>
<path d="M102.802 28.1785C102.801 30.3165 102.171 32.4063 100.99 34.1837C99.8097 35.9611 98.132 37.3461 96.1695 38.1638C94.207 38.9815 92.0476 39.1951 89.9645 38.7776C87.8813 38.3601 85.968 37.3302 84.4663 35.8182C82.9646 34.3061 81.942 32.3798 81.5277 30.2828C81.1135 28.1858 81.3263 26.0123 82.1392 24.037C82.9521 22.0617 84.3285 20.3734 86.0946 19.1855C87.8606 17.9976 89.9368 17.3635 92.0609 17.3633C93.4717 17.3633 94.8687 17.643 96.1721 18.1866C97.4754 18.7301 98.6597 19.5268 99.6572 20.5312C100.655 21.5355 101.446 22.7278 101.985 24.0399C102.525 25.352 102.803 26.7583 102.802 28.1785Z" fill="#554596"/>
<path d="M92.0602 16.8614C94.2833 16.8612 96.4566 17.5246 98.3051 18.7678C100.154 20.0109 101.594 21.778 102.445 23.8454C103.296 25.9129 103.519 28.1879 103.085 30.3827C102.651 32.5775 101.58 34.5935 100.008 36.1758C97.9004 38.2975 95.0416 39.4895 92.0607 39.4895C89.0797 39.4895 86.2209 38.2975 84.1131 36.1758C82.0052 34.054 80.821 31.1763 80.821 28.1757C80.821 25.1751 82.0052 22.2973 84.1131 20.1756C85.1543 19.1217 86.3927 18.2862 87.7569 17.7173C89.121 17.1484 90.5836 16.8575 92.0602 16.8614ZM92.0602 38.4848C94.0856 38.4848 96.0656 37.8803 97.7497 36.7476C99.4338 35.6149 100.746 34.005 101.522 32.1214C102.297 30.2377 102.5 28.1651 102.105 26.1654C101.709 24.1658 100.734 22.3289 99.302 20.8872C97.8699 19.4455 96.0452 18.4636 94.0587 18.0657C92.0722 17.6678 90.0131 17.8718 88.1418 18.6519C86.2705 19.432 84.671 20.7531 83.5455 22.4483C82.4201 24.1434 81.8193 26.1364 81.8191 28.1752C81.822 30.9084 82.9019 33.5289 84.8218 35.4617C86.7417 37.3945 89.3449 38.4817 92.0602 38.4848Z" fill="black"/>
<path d="M21.9303 28.1862C21.9303 30.3245 21.3005 32.4147 20.1203 34.1925C18.9402 35.9704 17.2629 37.3561 15.3004 38.1744C13.3379 38.9927 11.1784 39.2069 9.09506 38.7898C7.01167 38.3727 5.09792 37.3432 3.59582 35.8313C2.09373 34.3194 1.07073 32.3931 0.656204 30.296C0.241675 28.1989 0.454229 26.0252 1.26699 24.0496C2.07975 22.0741 3.45621 20.3856 5.22231 19.1975C6.98842 18.0094 9.06485 17.3752 11.189 17.375C12.5996 17.3749 13.9963 17.6544 15.2995 18.1977C16.6027 18.7409 17.7868 19.5373 18.7842 20.5412C19.7817 21.5451 20.5729 22.737 21.1127 24.0487C21.6525 25.3605 21.9303 26.7664 21.9303 28.1862Z" fill="white"/>
<path d="M11.1903 16.8711C13.4134 16.8709 15.5867 17.5344 17.4352 18.7775C19.2838 20.0207 20.7245 21.7877 21.5753 23.8552C22.4261 25.9227 22.6487 28.1976 22.2149 30.3924C21.7811 32.5872 20.7105 34.6033 19.1384 36.1855C17.0306 38.3073 14.1717 39.4993 11.1908 39.4993C8.20986 39.4993 5.35102 38.3073 3.24318 36.1855C1.13534 34.0638 -0.0488281 31.1861 -0.0488281 28.1854C-0.0488281 25.1848 1.13534 22.3071 3.24318 20.1853C4.28438 19.1315 5.52287 18.2959 6.88699 17.727C8.25111 17.1582 9.71376 16.8672 11.1903 16.8711ZM11.1903 38.4946C13.2158 38.4946 15.1957 37.89 16.8798 36.7573C18.5639 35.6247 19.8766 34.0147 20.6517 32.1311C21.4268 30.2475 21.6297 28.1748 21.2346 26.1752C20.8396 24.1755 19.8643 22.3387 18.4322 20.897C17 19.4552 15.1753 18.4733 13.1888 18.0755C11.2023 17.6776 9.14323 17.8816 7.27191 18.6617C5.40059 19.4418 3.80109 20.7629 2.67567 22.458C1.55025 24.1531 0.949462 26.1461 0.949268 28.1849C0.952129 30.9182 2.03198 33.5387 3.9519 35.4714C5.87182 37.4042 8.475 38.4915 11.1903 38.4946Z" fill="black"/>
<path d="M102.784 109.17C102.784 111.308 102.154 113.398 100.974 115.176C99.7936 116.954 98.1162 118.34 96.1537 119.158C94.1911 119.976 92.0316 120.19 89.9482 119.773C87.8648 119.356 85.9511 118.326 84.449 116.814C82.9469 115.302 81.924 113.376 81.5096 111.279C81.0952 109.182 81.3079 107.008 82.1208 105.032C82.9337 103.057 84.3103 101.368 86.0765 100.18C87.8428 98.9925 89.9193 98.3584 92.0435 98.3584C94.8921 98.3584 97.6239 99.4974 99.6381 101.525C101.652 103.552 102.784 106.302 102.784 109.17Z" fill="white"/>
<path d="M92.0428 97.8555C94.266 97.8553 96.4392 98.5187 98.2878 99.7619C100.136 101.005 101.577 102.772 102.428 104.84C103.279 106.907 103.501 109.182 103.067 111.377C102.634 113.572 101.563 115.588 99.991 117.17C97.8831 119.292 95.0243 120.484 92.0433 120.484C89.0624 120.484 86.2036 119.292 84.0957 117.17C81.9879 115.048 80.8037 112.17 80.8037 109.17C80.8037 106.169 81.9879 103.291 84.0957 101.17C85.1369 100.116 86.3754 99.2803 87.7395 98.7114C89.1036 98.1425 90.5663 97.8516 92.0428 97.8555ZM92.0428 119.479C94.0683 119.479 96.0483 118.874 97.7324 117.742C99.4165 116.609 100.729 114.999 101.504 113.115C102.279 111.232 102.482 109.159 102.087 107.16C101.692 105.16 100.717 103.323 99.2847 101.881C97.8526 100.44 96.0279 99.4577 94.0414 99.0598C92.0549 98.662 89.9958 98.866 88.1245 99.6461C86.2531 100.426 84.6536 101.747 83.5282 103.442C82.4028 105.138 81.802 107.131 81.8018 109.169C81.8047 111.903 82.8845 114.523 84.8044 116.456C86.7244 118.389 89.3275 119.476 92.0428 119.479Z" fill="black"/>
</g>
</svg>
