<svg width="32" height="50" viewBox="0 0 32 50" fill="none" xmlns="http://www.w3.org/2000/svg">
<g clip-path="url(#clip0_17162_68029)">
<rect width="32" height="50" fill="#F3F5F7"/>
<path d="M12 0V1.68629C12 3.80802 12.8429 5.84285 14.3431 7.34314L26.3431 19.3431C29.4673 22.4673 29.4673 27.5327 26.3432 30.6568L14.3431 42.6569C12.8429 44.1571 12 46.192 12 48.3137V50" stroke="#C9CED1"/>
<g clip-path="url(#clip1_17162_68029)">
<g clip-path="url(#clip2_17162_68029)">
<path d="M11.6051 18.6815C11.8506 18.4813 12.2129 18.4959 12.4417 18.7247L18.2751 24.558L18.3182 24.6052C18.505 24.8343 18.5051 25.1655 18.3182 25.3946L18.2751 25.4418L12.4417 31.2751C12.2129 31.5039 11.8506 31.5185 11.6051 31.3183L11.5579 31.2751C11.3139 31.031 11.314 30.6354 11.5579 30.3913L15.9688 25.9805C16.0283 25.921 16.0464 25.8313 16.0143 25.7535C15.9821 25.6757 15.9057 25.6249 15.8215 25.6249H6.1665C5.84279 25.6249 5.57662 25.3787 5.54476 25.0634L5.5415 24.9999C5.54158 24.6547 5.8214 24.3749 6.1665 24.3749H15.8215C15.9057 24.3749 15.9821 24.3242 16.0143 24.2463C16.0465 24.1685 16.0283 24.0788 15.9688 24.0193L11.5579 19.6085C11.3139 19.3644 11.314 18.9687 11.5579 18.7247L11.6051 18.6815Z" fill="#555758"/>
</g>
</g>
</g>
<defs>
<clipPath id="clip0_17162_68029">
<rect width="32" height="50" fill="white"/>
</clipPath>
<clipPath id="clip1_17162_68029">
<rect width="20" height="20" fill="white" transform="translate(2 15)"/>
</clipPath>
<clipPath id="clip2_17162_68029">
<rect width="20" height="20" fill="white" transform="translate(2 15)"/>
</clipPath>
</defs>
</svg>
