<svg width="50" height="30" viewBox="0 0 50 30" fill="none" xmlns="http://www.w3.org/2000/svg">
<g clip-path="url(#clip0_17162_67980)">
<rect width="30" height="50" transform="matrix(0 1 -1 0 50 0)" fill="#F3F5F7"/>
<path d="M50 10.5L48.3137 10.5C46.192 10.5 44.1571 11.3429 42.6569 12.8431L30.6569 24.8431C27.5327 27.9673 22.4673 27.9673 19.3432 24.8432L7.34315 12.8431C5.84285 11.3429 3.80802 10.5 1.68629 10.5L0 10.5" stroke="#C9CED1"/>
<path d="M31.3185 9.60539C31.5187 9.85084 31.5041 10.2131 31.2753 10.442L25.442 16.2753L25.3948 16.3184C25.1657 16.5053 24.8345 16.5053 24.6054 16.3184L24.5582 16.2753L18.7249 10.442C18.4961 10.2132 18.4815 9.85084 18.6817 9.60539L18.7249 9.55819C18.969 9.31418 19.3646 9.3142 19.6087 9.55819L24.0195 13.969C24.079 14.0285 24.1687 14.0467 24.2465 14.0146C24.3243 13.9823 24.3751 13.9059 24.3751 13.8217V4.16675C24.3751 3.84304 24.6213 3.57687 24.9366 3.545L25.0001 3.54175C25.3453 3.54182 25.6251 3.82165 25.6251 4.16675V13.8217C25.6251 13.906 25.6758 13.9823 25.7537 14.0146C25.8315 14.0468 25.9212 14.0285 25.9807 13.969L30.3915 9.55819C30.6356 9.31418 31.0313 9.3142 31.2753 9.55819L31.3185 9.60539Z" fill="#555758"/>
</g>
<defs>
<clipPath id="clip0_17162_67980">
<rect width="30" height="50" fill="white" transform="matrix(0 1 -1 0 50 0)"/>
</clipPath>
</defs>
</svg>
