<svg width="146" height="40" viewBox="0 0 146 40" fill="none" xmlns="http://www.w3.org/2000/svg">
<g clip-path="url(#clip0_17529_21582)">
<path d="M14.2754 36.9844C14.885 36.9844 15.3926 37.3588 15.3926 37.9941V38.9404C15.3923 39.6025 14.8713 39.9785 14.2754 39.9785C13.6636 39.9785 13.1651 39.643 13.165 39.001V38.0391C13.165 37.379 13.6658 36.9844 14.2754 36.9844ZM23.6689 36.9844C24.2786 36.9844 24.7861 37.3588 24.7861 37.9941V38.9404C24.7859 39.6025 24.2648 39.9785 23.6689 39.9785C23.0572 39.9785 22.5587 39.643 22.5586 39.001V38.0391C22.5586 37.379 23.0594 36.9844 23.6689 36.9844ZM16.8223 39.3682H16.834L17.5479 37.0391H17.9668L17.0244 39.9434H16.6162L15.6777 37.0391H16.0947L16.8223 39.3682ZM9.46875 39.2217H9.47949V37.0391H9.85645V39.9365H9.47266L8.07715 37.7168H8.06836V39.9316H7.68945V37.0391H8.08594L9.46875 39.2217ZM12.2432 39.2227H12.2539V37.0391H12.6299V39.9365H12.2471L10.8516 37.7168H10.8428V39.9316H10.4639V37.0391H10.8604L12.2432 39.2227ZM20.2646 39.9355H19.8428L19.5781 39.1758H18.4424L18.1777 39.9355H17.7695L18.835 37.0312H19.2109L20.2646 39.9355ZM7.14355 37.3926H6.52051V39.5801H7.14355V39.9346H5.49121V39.5801H6.11426V37.3926H5.49121V37.0391H7.14355V37.3926ZM22.2158 37.3877H21.3799V39.9316H20.9717V37.3877H20.1309V37.0391H22.2158V37.3877ZM26.3691 37.0391C26.6298 37.0391 26.8502 37.0953 27.0225 37.2305C27.2218 37.3814 27.3369 37.625 27.3369 37.9111C27.3369 38.3279 27.1014 38.6617 26.6641 38.7676L27.4531 39.9316H26.9932L26.2422 38.8027H25.7236V39.9316H25.3203V37.0391H26.3691ZM14.2666 37.3428C13.8792 37.3428 13.5734 37.5768 13.5732 38.0205V38.9785C13.5733 39.3884 13.8631 39.6269 14.2822 39.627C14.6741 39.627 14.9842 39.4043 14.9844 38.9697V37.9873C14.9844 37.5818 14.6993 37.3428 14.2666 37.3428ZM23.6621 37.3428C23.2747 37.3428 22.9689 37.5769 22.9688 38.0205V38.9785C22.9689 39.3883 23.2588 39.6268 23.6777 39.627C24.0697 39.627 24.3806 39.4043 24.3809 38.9697V37.9873C24.3809 37.5818 24.095 37.3428 23.6621 37.3428ZM18.5557 38.8359H19.4619L19.0137 37.5381H19.0049L18.5557 38.8359ZM25.7236 38.4629H26.29C26.6979 38.4629 26.9316 38.2805 26.9316 37.9111C26.9316 37.5214 26.6254 37.3789 26.2832 37.3789H25.7236V38.4629Z" fill="#231F20"/>
<path d="M4.21484 37.292H2.91602L2.86914 38.1553C3.06621 38.0202 3.29024 37.9639 3.53711 37.9639C3.89744 37.9639 4.37305 38.1396 4.37305 38.6826V38.998C4.37292 39.667 3.90163 40.0049 3.3125 40.0049V40C2.6692 39.9999 2.31355 39.6714 2.31348 39.2705V39.1084H2.85547V39.1875C2.85576 39.4193 3.07062 39.5449 3.33105 39.5449C3.59164 39.5449 3.79297 39.3827 3.79297 38.9502V38.7744C3.79279 38.4909 3.55549 38.3605 3.32227 38.3604C3.12057 38.3604 2.96589 38.4524 2.85938 38.5605L2.37012 38.4863L2.46289 36.8281H4.21484V37.292ZM1.25488 36.7812C1.88938 36.7813 2.21387 37.1577 2.21387 37.6602C2.21376 38.2413 1.81207 38.6128 1.44727 39.0205L1.04199 39.4717V39.4805H2.25684V39.9492H0.3125V39.5791L1.35938 38.3535C1.5449 38.1397 1.64441 37.9304 1.64453 37.6807V37.6016C1.64453 37.3876 1.50878 37.2209 1.20996 37.2207C0.92898 37.2207 0.769563 37.3828 0.769531 37.6328V37.7158H0.237305V37.6035C0.237348 37.0561 0.663434 36.7812 1.25488 36.7812ZM1.41602 33.877L2.13965 31.3984H2.71484L3.4375 33.877L4.05469 31.3984H4.8584L3.79785 35.3301H3.1543L2.42676 32.9443L1.69922 35.3301H1.05566L0 31.3984H0.804688L1.41602 33.877ZM7.84375 32.083H6.01074V33.0049H7.57227V33.6895H6.01074V34.6455H7.84375V35.3301H5.24023V31.3984H7.84375V32.083ZM9.96875 31.3984C10.3493 31.3985 10.6487 31.4974 10.8662 31.6934C11.0836 31.8915 11.1923 32.162 11.1924 32.502C11.1924 32.7002 11.1355 32.8814 11.0244 33.0391C10.9362 33.1649 10.8275 33.2572 10.7031 33.3135C10.8548 33.3855 10.9752 33.4777 11.0635 33.5947C11.1858 33.7569 11.2441 33.9599 11.2441 34.1963L11.2412 34.3271C11.2169 34.6229 11.1074 34.8568 10.9131 35.0322C10.691 35.2304 10.3964 35.3301 10.0361 35.3301H8.37988V31.3984H9.96875ZM15.3848 35.3301H14.5781L14.3447 34.6338H12.9395L12.7021 35.3301H11.8975L13.3369 31.3984H13.9395L15.3848 35.3301ZM16.4297 33.877L17.1504 31.3984H17.7305L18.4512 33.877L19.0684 31.3984H19.875L18.8145 35.3301H18.168L17.4404 32.9443L16.7129 35.3301H16.0693L15.0137 31.3984H15.8203L16.4297 33.877ZM22.9062 35.3301H22.1025L21.8691 34.6338H20.4639L20.2236 35.3301H19.4189L20.8584 31.3984H21.4629L22.9062 35.3301ZM24.6455 31.3984C25.0375 31.3984 25.3529 31.5154 25.5908 31.752C25.8174 31.975 25.9307 32.2591 25.9307 32.6016C25.9307 32.8584 25.8576 33.0816 25.7148 33.2686C25.5835 33.4373 25.416 33.5588 25.21 33.6309L26.0938 35.3301H25.1982L24.4258 33.7598H23.8682V35.3301H23.0977V31.3984H24.6455ZM27.8203 31.3984C28.0309 31.3985 28.2257 31.4275 28.4023 31.4883C28.579 31.5491 28.7332 31.6461 28.8623 31.7744C29.0367 31.9478 29.1526 32.1552 29.207 32.3916C29.2433 32.5516 29.2617 32.7864 29.2617 33.0996V33.6016C29.2617 33.9168 29.2432 34.1559 29.207 34.3203C29.1504 34.5704 29.0368 34.7829 28.8623 34.9541C28.74 35.0756 28.5877 35.1704 28.4043 35.2334C28.221 35.2986 28.0263 35.33 27.8203 35.3301H26.3945V31.3984H27.8203ZM9.15527 34.6475H9.95898C10.1244 34.6475 10.2537 34.6021 10.3398 34.5098C10.4282 34.4197 10.4736 34.3027 10.4736 34.1631L10.4688 34.0586C10.4534 33.9641 10.4147 33.8848 10.3535 33.8223C10.2606 33.7279 10.1288 33.6807 9.95898 33.6807H9.15527V34.6475ZM27.1602 34.6455H27.7432C27.9969 34.6455 28.1899 34.5635 28.3213 34.4014C28.3936 34.3158 28.4386 34.2006 28.459 34.0566C28.4793 33.9125 28.4883 33.6762 28.4883 33.3477C28.4883 33.0303 28.4793 32.8048 28.459 32.665C28.4386 32.5276 28.3932 32.4144 28.3252 32.3311C28.2573 32.2456 28.1758 32.1851 28.083 32.1445C27.9902 32.104 27.8768 32.083 27.7432 32.083H27.1602V34.6455ZM13.1553 33.9893H14.1387L13.6562 32.5586L13.1553 33.9893ZM20.6816 33.9893H21.665L21.1816 32.5586L20.6816 33.9893ZM23.8662 33.1152H24.5957C24.7611 33.1152 24.8967 33.0676 25.001 32.9707C25.1052 32.8761 25.1572 32.7521 25.1572 32.5967L25.1475 32.4873C25.128 32.3815 25.0804 32.2936 25.0039 32.2227C24.9019 32.1303 24.7656 32.083 24.5957 32.083H23.8662V33.1152ZM9.15234 32.9893H9.90723C10.0681 32.9893 10.1978 32.946 10.2861 32.8672C10.3743 32.7883 10.4199 32.6757 10.4199 32.5361C10.4199 32.3987 10.3719 32.2904 10.2812 32.207C10.1929 32.1237 10.0658 32.083 9.90723 32.083H9.15234V32.9893ZM30 5.18848L25.7529 29.1025L0.396484 24.6572V0L30 5.18848ZM6.13672 19.2803L7.78711 19.5693L12.3418 12.209L13.9492 20.6504L15.6299 20.9453L20.3867 13.2744L21.1689 17.3525L19.707 17.0977L18.6104 18.8682L21.5312 19.3799L22.0732 22.0742L23.9951 22.4102L21.9033 10.6875L19.8955 10.334L15.3174 17.8633L13.7539 9.25977L12.0537 8.96191L7.4834 16.4512L5.94043 7.88965L3.90039 7.53125L6.13672 19.2803Z" fill="#D22228"/>
</g>
<path d="M48.1436 4.7041V11.7373H46.9883V4.7041H48.1436ZM38.3555 9.05859C39.8979 9.05859 42.437 9.02686 44.3223 8.72852L44.4111 9.55371C43.6685 9.70605 42.8496 9.80762 42.0371 9.87109V11.6865H40.8691V9.94092C39.9741 9.979 39.1362 9.98535 38.4697 9.98535L38.3555 9.05859ZM38.9141 6.78613C38.9077 5.74512 39.9106 5.104 41.4023 5.09766C42.8877 5.104 43.897 5.74512 43.8906 6.78613C43.897 7.82715 42.8877 8.48096 41.4023 8.4873C39.9106 8.48096 38.9077 7.82715 38.9141 6.78613ZM40.0059 6.78613C40.0059 7.31934 40.5391 7.62402 41.4023 7.62402C42.2529 7.62402 42.8115 7.31934 42.8115 6.78613C42.8115 6.25928 42.2529 5.94824 41.4023 5.96094C40.5391 5.94824 40.0059 6.25928 40.0059 6.78613ZM40.3232 15.9395V12.1309H41.5039V13.0957H46.9502V12.1309H48.1436V15.9395H40.3232ZM41.5039 14.9873H46.9502V14.0352H41.5039V14.9873ZM42.9766 11.1406V10.3027H44.8936V4.89453H46.0361V11.7119H44.8936V11.1406H42.9766ZM52.2393 5.55469C53.7881 5.56104 54.9116 6.86865 55.0957 8.96973H57.4443V4.7041H58.6377V16.1045H57.4443V9.94727H55.1084C54.9751 12.1689 53.8262 13.5464 52.2393 13.54C50.5444 13.5464 49.3447 11.9976 49.3574 9.54102C49.3447 7.10986 50.5444 5.56104 52.2393 5.55469ZM50.5 9.54102C50.5063 11.3501 51.2109 12.4609 52.2393 12.4609C53.2676 12.4609 53.9722 11.3501 53.9785 9.54102C53.9722 7.75732 53.2676 6.64014 52.2393 6.63379C51.2109 6.64014 50.5063 7.75732 50.5 9.54102ZM69.3984 4.7168V16.0791H68.1797V13.3623H65.666V12.4482H68.1797V4.7168H69.3984ZM59.8389 10.6328C61.9971 10.6201 64.8599 10.6138 67.3545 10.2646L67.418 11.1533C66.3325 11.3438 65.209 11.458 64.1172 11.5278V15.7236H62.9111V11.585C61.8701 11.623 60.8799 11.6357 60.0039 11.6357L59.8389 10.6328ZM60.6768 7.50977C60.6831 6.16406 61.8765 5.2373 63.584 5.2373C65.2661 5.2373 66.4658 6.16406 66.4658 7.50977C66.4658 8.88086 65.2661 9.76318 63.584 9.76953C61.8765 9.76318 60.6831 8.88086 60.6768 7.50977ZM61.8193 7.50977C61.813 8.32227 62.5366 8.84912 63.584 8.84277C64.5933 8.84912 65.3169 8.32227 65.3232 7.50977C65.3169 6.70996 64.5996 6.17041 63.584 6.16406C62.5366 6.17041 61.813 6.70996 61.8193 7.50977ZM79.8418 10.0996V11.0898H71.9199V5.71973H79.7402V6.70996H73.1133V10.0996H79.8418ZM70.625 14.5811V13.5781H81.0352V14.5811H70.625ZM90.5391 5.75781V6.82422C90.5327 8.20801 90.5454 9.78223 90.0566 12.1436L88.876 12.0166C89.0854 11.0454 89.1997 10.1885 89.2695 9.42041L82.4268 9.82031L82.249 8.7793L89.3267 8.5C89.3521 7.88428 89.3584 7.33838 89.3584 6.82422V6.74805H82.5918V5.75781H90.5391ZM81.3604 14.6064V13.6035H85.3086V10.7217H86.502V13.6035H91.7324V14.6064H81.3604ZM101.541 4.7041V16.1045H100.335V4.7041H101.541ZM92.7305 6.70996V5.73242H98.0625V9.88379H93.9746V12.3721C95.8218 12.3657 97.4277 12.2769 99.332 11.9658L99.4463 12.9561C97.4341 13.2925 95.7202 13.3687 93.708 13.375H92.7432V8.91895H96.8311V6.70996H92.7305ZM105.878 5.55469C107.579 5.56104 108.792 7.10986 108.798 9.54102C108.792 11.9976 107.579 13.5464 105.878 13.54C104.177 13.5464 102.964 11.9976 102.971 9.54102C102.964 7.10986 104.177 5.56104 105.878 5.55469ZM104.126 9.54102C104.12 11.3501 104.843 12.4609 105.878 12.4609C106.932 12.4609 107.643 11.3501 107.643 9.54102C107.643 7.75732 106.932 6.64014 105.878 6.63379C104.843 6.64014 104.12 7.75732 104.126 9.54102ZM110.486 16.0791V4.7041H111.692V9.16016H113.521V10.1758H111.692V16.0791H110.486ZM116.634 15V13.9844L119.82 10.7725C120.83 9.7251 121.331 9.14111 121.331 8.33496C121.331 7.42725 120.595 6.84961 119.63 6.84961C118.608 6.84961 117.96 7.49707 117.954 8.47461H116.634C116.621 6.79248 117.903 5.68164 119.655 5.68164C121.426 5.68164 122.651 6.80518 122.664 8.29688C122.651 9.3252 122.169 10.144 120.442 11.8389L118.576 13.7305V13.8066H122.816V15H116.634ZM127.064 15.127C124.938 15.127 123.688 13.4131 123.688 10.4043C123.688 7.41455 124.951 5.68164 127.064 5.68164C129.172 5.68164 130.435 7.41455 130.441 10.4043C130.435 13.4131 129.191 15.127 127.064 15.127ZM125.084 10.4043C125.078 12.6958 125.82 13.9209 127.064 13.9209C128.302 13.9209 129.045 12.6958 129.045 10.4043C129.045 8.11914 128.296 6.86865 127.064 6.8623C125.827 6.86865 125.084 8.11914 125.084 10.4043ZM131.389 15V13.9844L134.575 10.7725C135.584 9.7251 136.086 9.14111 136.086 8.33496C136.086 7.42725 135.35 6.84961 134.385 6.84961C133.363 6.84961 132.715 7.49707 132.709 8.47461H131.389C131.376 6.79248 132.658 5.68164 134.41 5.68164C136.181 5.68164 137.406 6.80518 137.419 8.29688C137.406 9.3252 136.924 10.144 135.197 11.8389L133.331 13.7305V13.8066H137.571V15H131.389ZM141.743 15.127C140.004 15.127 138.696 14.0669 138.633 12.6006H139.991C140.067 13.3813 140.816 13.9526 141.743 13.959C142.86 13.9526 143.66 13.1465 143.66 12.0547C143.66 10.9375 142.835 10.125 141.68 10.1123C140.943 10.1123 140.378 10.3599 140.067 10.9248H138.747L139.344 5.80859H144.549V7.00195H140.499L140.194 9.5791H140.283C140.664 9.21094 141.312 8.96338 142.01 8.95703C143.743 8.96338 145.019 10.2456 145.019 12.0166C145.019 13.8257 143.66 15.127 141.743 15.127ZM48.1816 24.7041V36.0791H47.0264V24.7041H48.1816ZM38.2539 32.9434C39.8662 31.9722 40.6851 29.9028 40.6914 27.8779V26.9639H38.5967V25.9863H43.8018V26.9639H41.8467V27.8779C41.8467 29.8203 42.6338 31.769 44.2334 32.6895L43.5098 33.5781C42.4243 32.9307 41.6816 31.769 41.2817 30.3979C40.8755 31.8833 40.1011 33.1528 38.9902 33.8447L38.2539 32.9434ZM42.9639 29.7188V28.7285H44.7285V24.9453H45.8711V35.5078H44.7285V29.7188H42.9639ZM59.5264 30.1504V31.1152H54.9307V32.334H58.2568V35.9395H50.3984V32.334H53.7373V31.1152H49.1543V30.1504H59.5264ZM50.1064 26.0371V25.0596H58.5488V26.0371H56.8984V28.208H58.498V29.1855H50.1572V28.208H51.7695V26.0371H50.1064ZM51.5918 34.9619H57.0889V33.2861H51.5918V34.9619ZM52.9629 28.208H55.6924V26.0371H52.9629V28.208ZM70.2998 33.6162V34.6064H59.8896V33.6162H70.2998ZM61.083 31.458V25.4912H62.2891V27.5352H67.875V25.4912H69.0684V31.458H61.083ZM62.2891 30.5059H67.875V28.4873H62.2891V30.5059ZM80.3242 24.7168V33.1719H79.1816V29.0459H77.7852V32.8672H76.6553V24.9199H77.7852V28.0557H79.1816V24.7168H80.3242ZM71.1074 26.6338V25.6689H75.4238V29.0078H72.3008V30.5439C73.71 30.5376 74.7827 30.4678 76.0332 30.2266L76.1602 31.1914C74.7256 31.458 73.5449 31.5151 71.8818 31.5088H71.1328V28.0938H74.2686V26.6338H71.1074ZM72.7832 35.8379V32.3848H73.9766V34.8604H80.6543V35.8379H72.7832ZM90.5771 30.0996V31.0898H82.6553V25.7197H90.4756V26.71H83.8486V30.0996H90.5771ZM81.3604 34.5811V33.5781H91.7705V34.5811H81.3604ZM101.181 25.8086V26.7861H94.7822V25.8086H97.4482V24.6025H98.6416V25.8086H101.181ZM95.417 29.4775C95.417 28.208 96.5088 27.3447 98.0322 27.332C99.5557 27.3447 100.654 28.208 100.66 29.4775C100.654 30.7407 99.5557 31.6167 98.0322 31.623C96.5088 31.6167 95.417 30.7407 95.417 29.4775ZM96.5469 33.5146V32.5371H104.253V36.0791H103.047V33.5146H96.5469ZM96.5469 29.4775C96.5405 30.2075 97.1499 30.6836 98.0322 30.6836C98.9019 30.6836 99.5303 30.2075 99.543 29.4775C99.5303 28.7476 98.9019 28.2651 98.0322 28.2588C97.1499 28.2651 96.5405 28.7476 96.5469 29.4775ZM101.206 30.5566V29.5664H103.047V28.3857H101.219V27.4209H103.047V24.7041H104.253V31.915H103.047V30.5566H101.206ZM114.938 24.7168V33.0449H113.731V24.7168H114.938ZM105.568 30.4805C107.352 29.8203 108.406 28.1826 108.412 26.4688V25.3389H109.644V26.4688C109.637 28.1318 110.691 29.6553 112.449 30.2646L111.827 31.2295C110.513 30.7407 109.542 29.7759 109.034 28.5444C108.533 29.8647 107.549 30.9185 106.216 31.4326L105.568 30.4805ZM107.498 35.8379V32.2578H108.717V34.8604H115.28V35.8379H107.498ZM126.003 24.7041V36.0791H124.848V30.2012H123.375V35.4951H122.271V24.9326H123.375V29.2109H124.848V24.7041H126.003ZM116.621 33.3496V26.0752H120.887V27.0527H117.827V32.3213C119.224 32.3149 120.277 32.2515 121.496 32.0166L121.585 33.0068C120.22 33.2925 119.04 33.3369 117.383 33.3496H116.621ZM130.898 26.5195C130.892 28.0112 131.946 29.4014 133.641 29.96L132.993 30.9121C131.749 30.4741 130.816 29.5854 130.321 28.4619C129.826 29.7378 128.861 30.7407 127.534 31.2295L126.887 30.2646C128.664 29.6362 129.692 28.1191 129.705 26.418V25.3008H130.898V26.5195ZM128.423 33.9463C128.423 32.6133 129.876 31.8325 132.244 31.8389C134.58 31.8325 136.015 32.6133 136.015 33.9463C136.015 35.292 134.58 36.0601 132.244 36.0537C129.876 36.0601 128.423 35.292 128.423 33.9463ZM129.629 33.9463C129.623 34.6953 130.6 35.1016 132.244 35.1143C133.875 35.1016 134.84 34.6953 134.834 33.9463C134.84 33.2227 133.875 32.791 132.244 32.791C130.6 32.791 129.623 33.2227 129.629 33.9463ZM134.707 31.5723V24.7041H135.913V27.5605H137.563V28.5762H135.913V31.5723H134.707Z" fill="#171819"/>
<defs>
<clipPath id="clip0_17529_21582">
<rect width="30" height="40" fill="white"/>
</clipPath>
</defs>
</svg>
