<svg width="180" height="22" viewBox="0 0 180 22" fill="none" xmlns="http://www.w3.org/2000/svg">
<path d="M10.6475 20.9147C16.5251 20.9147 21.2984 16.2368 21.2984 10.4606C21.2984 4.6844 16.5251 0 10.6475 0C4.76993 0 0 4.68113 0 10.4606C0 16.2401 4.76328 20.9147 10.6475 20.9147Z" fill="#BC1E44"/>
<path d="M10.2218 5.87102L10.2218 15.047H13.1888V14.2199H11.0766L11.0766 5.87102L10.2218 5.87102Z" fill="white"/>
<path d="M7.24803 8.37504C7.95321 8.37504 8.52201 7.80951 8.52201 7.12303C8.52201 6.43655 7.95321 5.86776 7.24803 5.86776C6.54285 5.86776 5.97405 6.43328 5.97405 7.12303C5.97405 7.81278 6.54285 8.37504 7.24803 8.37504Z" fill="white"/>
<path d="M11.0766 1.70639C10.9668 1.69985 10.754 1.69331 10.6542 1.69331C5.73789 1.69331 1.73966 5.62585 1.73966 10.4541C1.73966 12.7979 2.6677 14.9979 4.34749 16.6487C6.03393 18.2963 8.27254 19.2083 10.6575 19.2083C13.0425 19.2083 15.2711 18.2963 16.9542 16.6487C18.6373 14.9946 19.5687 12.7979 19.5687 10.4541V10.0651H13.2021V10.8725H18.7172C18.7172 10.8889 18.7172 10.9738 18.7138 10.9967C18.4344 15.1254 14.9252 18.3944 10.6542 18.3944C8.49207 18.3944 6.46635 17.5673 4.93957 16.0669C3.40947 14.573 2.56791 12.5822 2.56791 10.4541C2.56791 8.326 3.40947 6.33848 4.93957 4.84131C6.46635 3.34413 8.49207 2.51709 10.6542 2.51709C10.7473 2.51709 10.9735 2.51709 11.0766 2.52363V1.70639Z" fill="white"/>
<path d="M29.3115 3.52065L26.1115 3.52065L26.1115 17.1456H35.9441V14.4912H29.3115V3.52065Z" fill="#6D6E71"/>
<path d="M42.9893 11.9513H45.5971V14.3343C45.1181 14.5141 44.1801 14.6939 43.2853 14.6939C40.4047 14.6939 39.4434 13.2556 39.4434 10.3331C39.4434 7.4107 40.3581 5.90698 43.2387 5.90698C44.842 5.90698 45.7567 6.40059 46.5085 7.34532L48.5009 5.5474C47.2902 3.83774 45.1613 3.32125 43.1722 3.32125C38.6883 3.32125 36.3333 5.72392 36.3333 10.3103C36.3333 14.8966 38.4621 17.345 43.1489 17.345C45.2977 17.345 47.4033 16.8056 48.5475 16.0178V9.41129H42.9893V11.9513Z" fill="#6D6E71"/>
<path d="M56.2379 11.3105H62.2153V9.00268H56.2379V5.88737L62.4216 5.88737V3.55988L53.3939 3.55988V17.162H62.6511V14.7985H56.2379V11.3105Z" fill="#6D6E71"/>
<path d="M69.5432 7.48261C68.4754 7.48261 67.3279 7.74413 66.4896 8.29004V7.70817H63.7587V17.162H66.5262V10.2024C66.8688 9.95721 67.5574 9.7153 68.1295 9.7153C69.4833 9.7153 69.7727 10.2416 69.7727 11.2909V17.162L72.5402 17.162V10.6339C72.5402 8.73789 71.8517 7.48261 69.5432 7.48261Z" fill="#6D6E71"/>
<path d="M88.8624 7.463C87.9843 7.463 86.84 7.87489 86.3045 8.47637V7.70817H83.6334V17.162H86.4009V10.6535C86.8766 10.052 87.7547 9.67608 88.6528 9.67608C89.1485 9.67608 89.704 9.80683 90.01 9.97682L90.6386 7.78336C90.2195 7.5578 89.511 7.463 88.8624 7.463Z" fill="#6D6E71"/>
<path d="M78.4012 7.463C75.3276 7.463 73.7244 9.26419 73.7244 12.3795C73.7244 15.6811 74.9451 17.3875 78.5342 17.3875C80.234 17.3875 81.7973 16.8808 82.5424 16.3938L82.0268 14.6122C81.2052 15.0241 80.0044 15.3248 79.0298 15.3248C78.0552 15.3248 77.3301 15.0437 77.0241 14.7233C76.6615 14.3278 76.4885 13.6903 76.4885 13.0333L82.7121 13.0333V12.1899C82.7121 9.48975 81.4713 7.463 78.3978 7.463H78.4012ZM76.4918 11.2909C76.5284 9.97682 77.1804 9.33938 78.3246 9.33938C79.4689 9.33938 79.9845 10.1468 79.9845 11.2909L76.4918 11.2909Z" fill="#6D6E71"/>
<path d="M97.1083 8.06449C96.6127 7.72779 95.678 7.463 94.8764 7.463C91.4203 7.463 90.3526 9.60089 90.3526 12.7522C90.3526 15.5471 91.6299 17.3842 94.5504 17.3842C95.3154 17.3842 96.1537 17.2894 96.6693 17.1227V17.9661C96.6693 19.4273 95.8277 19.9177 94.2278 19.9177C93.2332 19.9177 92.2619 19.6169 91.8428 19.3914L91.1941 21.3429C91.9592 21.7189 93.0835 22 94.4007 22C97.2447 22 99.46 20.7611 99.46 17.4039V7.64933L97.2647 7.64933L97.1117 8.06122L97.1083 8.06449ZM96.6493 15.2104C96.3832 15.3052 95.9608 15.3608 95.5416 15.3608C94.0515 15.3608 93.1567 14.6678 93.1567 12.4906C93.1567 10.3135 93.9384 9.50936 95.4651 9.50936C95.9042 9.50936 96.3233 9.60416 96.6493 9.75453V15.2137V15.2104Z" fill="#6D6E71"/>
<path d="M105.318 13.9911L103.275 7.7049H100.335L104.21 17.1783C103.638 19.205 102.873 19.5777 101.443 19.5777C101.156 19.5777 100.887 19.5581 100.697 19.5221L100.375 21.6437C100.814 21.7548 101.329 21.7744 101.825 21.7744C104.343 21.7744 105.547 20.4996 106.502 17.9661L110.34 7.7049H107.593L105.684 13.9911H105.318Z" fill="#6D6E71"/>
<path d="M177.003 7.48261C175.935 7.48261 174.788 7.74413 173.949 8.29004V7.70817H171.219V17.162H173.986V10.2024C174.329 9.95721 175.017 9.7153 175.589 9.7153C176.943 9.7153 177.233 10.2416 177.233 11.2909V17.162H180V10.6339C180 8.73789 179.311 7.48261 177.003 7.48261Z" fill="#6D6E71"/>
<path d="M120.958 9.79049C120.442 9.58455 119.468 9.2838 118.952 9.13343C117.236 8.66597 116.298 8.2312 116.298 7.1263C116.298 6.30253 116.853 5.66181 118.743 5.66181C120.096 5.66181 121.434 6.11293 122.352 6.63923L123.346 4.46211C122.049 3.71352 120.083 3.35394 118.689 3.35394C115.004 3.35394 113.307 4.9688 113.307 7.2734C113.307 9.26092 114.834 10.4639 116.494 11.1013C117.316 11.4021 118.23 11.7028 118.919 11.8892C120.027 12.1899 120.466 12.7162 120.466 13.4648C120.466 14.403 119.797 14.9652 118.041 14.9652C116.627 14.9652 115.273 14.4978 114.146 13.8571L113.095 16.1453C114.525 16.9527 116.454 17.3842 118.057 17.3842C121.494 17.3842 123.499 15.6975 123.499 13.3504C123.499 11.1373 122.295 10.3495 120.961 9.78722L120.958 9.79049Z" fill="#6D6E71"/>
<path d="M129.377 7.463C125.864 7.463 124.374 9.0942 124.374 12.3958C124.374 15.4915 125.442 17.3875 128.974 17.3875C132.507 17.3875 133.994 15.7923 133.994 12.4906C133.994 9.189 132.926 7.463 129.374 7.463H129.377ZM129.031 15.4163C127.581 15.4163 127.182 14.3082 127.182 12.4155C127.182 10.2776 127.641 9.43091 129.32 9.43091C130.867 9.43091 131.19 10.5554 131.19 12.3207C131.19 14.4978 130.771 15.4163 129.031 15.4163Z" fill="#6D6E71"/>
<path d="M165.823 7.463C162.311 7.463 160.821 9.0942 160.821 12.3958C160.821 15.4915 161.888 17.3875 165.421 17.3875C168.953 17.3875 170.44 15.7923 170.44 12.4906C170.44 9.189 169.372 7.463 165.82 7.463H165.823ZM165.477 15.4163C164.027 15.4163 163.625 14.3082 163.625 12.4155C163.625 10.2776 164.084 9.43091 165.763 9.43091C167.31 9.43091 167.633 10.5554 167.633 12.3207C167.633 14.4978 167.214 15.4163 165.474 15.4163H165.477Z" fill="#6D6E71"/>
<path d="M137.829 3.50431L135.042 3.50431V17.162H137.829V3.50431Z" fill="#6D6E71"/>
<path d="M159.972 7.70817H157.205V17.162L159.972 17.162V7.70817Z" fill="#6D6E71"/>
<path d="M159.992 3.46835L157.185 3.46835V5.66181H159.992V3.46835Z" fill="#6D6E71"/>
<path d="M154.051 15.1548C153.133 15.1548 152.797 14.8541 152.797 13.6544V9.84606H155.957V7.70817L152.797 7.70817V5.43952L150.123 5.96582V7.71144L148.497 7.71144V9.82972H150.123V13.9944C150.123 16.4886 150.888 17.3908 153.06 17.3908C154.278 17.3908 155.435 17.1293 156.337 16.6389L155.944 14.6874C155.362 14.9881 154.597 15.1581 154.055 15.1581L154.051 15.1548Z" fill="#6D6E71"/>
<path d="M145.05 14.6318C144.808 14.8377 144.152 15.1581 143.497 15.1581C142.243 15.1581 141.964 14.841 141.964 13.6184V7.70817L139.289 7.70817V14.2363C139.289 16.129 139.945 17.3875 142.246 17.3875C143.424 17.3875 144.525 17.0377 145.147 16.5964L145.14 17.162H147.728V7.70817H145.054V14.6318H145.05Z" fill="#6D6E71"/>
</svg>
