<svg width="20" height="20" viewBox="0 0 20 20" fill="none" xmlns="http://www.w3.org/2000/svg">
<g clip-path="url(#clip0_15417_34036)">
<g clip-path="url(#clip1_15417_34036)">
<path d="M2.91323 7.06628C3.14795 6.8577 3.51024 6.81883 3.79213 6.95397L3.90688 7.02233L3.9614 7.06628L9.86228 12.3104C9.94122 12.3805 10.0601 12.3805 10.139 12.3104L16.0301 7.0736L16.0968 7.01989C16.388 6.8113 16.8201 6.82894 17.0872 7.06628L17.1719 7.15742C17.3435 7.38047 17.3292 7.6734 17.136 7.88415L17.0872 7.93298L10.5247 13.7663C10.2555 14.0056 9.82169 14.0212 9.53188 13.8119L9.47573 13.7663L2.91323 7.93298L2.86114 7.8809C2.64379 7.6402 2.65768 7.29352 2.91323 7.06628Z" fill="white"/>
</g>
</g>
<defs>
<clipPath id="clip0_15417_34036">
<rect width="20" height="20" fill="white"/>
</clipPath>
<clipPath id="clip1_15417_34036">
<rect width="20" height="20" fill="white"/>
</clipPath>
</defs>
</svg>
