<svg width="24" height="24" viewBox="0 0 24 24" fill="none" xmlns="http://www.w3.org/2000/svg">
<g clip-path="url(#clip0_16189_845)">
<path d="M3.49509 8.47953C3.77676 8.22925 4.21151 8.1826 4.54978 8.34477L4.68747 8.4268L4.7529 8.47953L11.834 14.7725C11.9287 14.8566 12.0713 14.8567 12.166 14.7725L19.2353 8.48832L19.3154 8.42387C19.6648 8.17356 20.1833 8.19473 20.5039 8.47953L20.6054 8.58891C20.8114 8.85657 20.7942 9.20807 20.5625 9.46098L20.5039 9.51957L12.6289 16.5196C12.3059 16.8067 11.7852 16.8254 11.4375 16.5743L11.3701 16.5196L3.49509 9.51957L3.43259 9.45707C3.17177 9.16824 3.18843 8.75223 3.49509 8.47953Z" fill="#171819"/>
</g>
<defs>
<clipPath id="clip0_16189_845">
<rect width="24" height="24" fill="white"/>
</clipPath>
</defs>
</svg>
