<svg width="48" height="48" viewBox="0 0 48 48" fill="none" xmlns="http://www.w3.org/2000/svg">
<rect x="0.5" y="0.5" width="47" height="47" rx="23.5" fill="white"/>
<rect x="0.5" y="0.5" width="47" height="47" rx="23.5" stroke="#171819"/>
<g clip-path="url(#clip0_16142_9873)">
<g clip-path="url(#clip1_16142_9873)">
<path d="M23.4475 15.1543C23.7911 14.874 24.2983 14.8944 24.6187 15.2147L32.7854 23.3813L32.8457 23.4474C33.1073 23.7682 33.1074 24.2318 32.8457 24.5526L32.7854 24.6187L24.6187 32.7853C24.2983 33.1056 23.7911 33.126 23.4475 32.8457L23.3814 32.7853C23.0398 32.4436 23.0398 31.8897 23.3814 31.548L29.5565 25.3729C29.6398 25.2895 29.6653 25.1639 29.6203 25.055C29.5752 24.9461 29.4682 24.875 29.3503 24.875H15.8334C15.3802 24.875 15.0075 24.5303 14.9629 24.0889L14.9584 24C14.9585 23.5168 15.3502 23.125 15.8334 23.125H29.3503C29.4683 23.125 29.5752 23.054 29.6203 22.945C29.6654 22.8361 29.6398 22.7105 29.5565 22.6271L23.3814 16.452C23.0398 16.1103 23.0398 15.5563 23.3814 15.2147L23.4475 15.1543Z" fill="#171819"/>
</g>
</g>
<defs>
<clipPath id="clip0_16142_9873">
<rect width="28" height="28" fill="white" transform="translate(10 10)"/>
</clipPath>
<clipPath id="clip1_16142_9873">
<rect width="28" height="28" fill="white" transform="translate(10 10)"/>
</clipPath>
</defs>
</svg>
