<svg width="24" height="25" viewBox="0 0 24 25" fill="none" xmlns="http://www.w3.org/2000/svg">
<g clip-path="url(#clip0_6114_23194)">
<path d="M4.2191 11.9398C4.8791 13.2998 5.7791 14.6598 6.9591 16.1098L7.6791 16.9298C9.4791 18.8798 11.5791 20.4298 13.9291 21.5498C14.8791 21.9998 16.1291 22.5298 17.4491 22.6498C17.6091 22.6598 17.7591 22.6698 17.9091 22.6698C18.3791 22.6698 18.7891 22.5998 19.1691 22.4498C19.6791 22.2498 20.0291 21.8998 20.4191 21.5098L20.7991 21.1298C21.0691 20.8698 21.3191 20.6198 21.5391 20.3298C21.8991 19.8398 22.0491 19.3698 21.9891 18.8498C21.9591 18.5798 21.8391 18.3098 21.6291 18.0298L21.5491 17.9398C21.4091 17.7598 21.2291 17.5798 21.0291 17.3998L20.8591 17.2398C20.7391 17.1298 20.6091 17.0098 20.4291 16.8298L19.0291 15.4298C18.4491 14.8198 17.6891 14.6998 16.9191 15.2898L15.6391 16.5198C14.6791 15.9798 13.7691 15.4598 12.9291 14.7598C12.1291 14.0898 11.3291 13.2698 10.5091 12.2798C10.1791 11.8598 9.8791 11.4498 9.5991 10.9798C9.3891 10.6398 9.1791 10.2898 9.1091 9.84982L9.1591 9.73982C9.1591 9.73982 9.2391 9.65982 9.2791 9.61982L9.4291 9.49982C9.4891 9.44982 9.5391 9.40982 9.5791 9.36982C9.7891 9.16982 9.9891 8.97982 10.1691 8.77982C10.4991 8.41982 10.6691 8.04982 10.6691 7.66982C10.6691 7.30982 10.5291 6.95982 10.2091 6.60982L8.8491 5.24982C8.8491 5.24982 8.7891 5.18982 8.7491 5.14982L8.4291 4.82982C8.1391 4.52982 7.8791 4.25982 7.5691 3.97982L7.3991 3.83982C6.7591 3.34982 5.9891 3.37982 5.2791 4.00982L3.7291 5.55982L3.5791 5.72982C3.2791 6.15982 3.0691 6.70982 3.0191 7.30982C2.9491 8.23982 3.1191 9.19982 3.5691 10.4398L4.0991 11.7098L4.2191 11.9398ZM18.1691 21.2698C16.3791 21.4498 14.9291 20.6698 13.4791 19.7798C11.8791 18.7998 10.4691 17.7398 9.2991 16.6198C7.7791 15.1798 5.7491 12.8098 4.7391 9.73982C4.4991 9.02982 4.2691 8.20982 4.3291 7.48982L4.3491 7.33982C4.3991 7.01982 4.5391 6.72982 4.7591 6.49982L6.2991 4.95982C6.4191 4.83982 6.5091 4.81982 6.5591 4.81982C6.5591 4.81982 6.5691 4.81982 6.5791 4.81982C6.6591 4.81982 6.7491 4.86982 6.8591 4.94982C6.9791 5.03982 7.0791 5.15982 7.1691 5.26982L7.2391 5.34982C7.3291 5.45982 7.4091 5.54982 7.4791 5.61982L9.4791 7.63982V7.73982C9.4791 7.73982 9.4491 7.78982 9.4291 7.80982L9.2991 7.92982C9.1891 8.02982 9.0791 8.12982 8.9591 8.23982C8.8391 8.34982 8.7191 8.44982 8.6091 8.54982C8.3091 8.83982 8.1291 9.07982 8.0091 9.34982L7.9691 9.45982C7.8791 9.73982 7.8891 10.0498 7.9791 10.3998C8.0391 10.6198 8.1291 10.8498 8.2791 11.1298L8.3891 11.3398C8.6991 11.9198 9.0991 12.5198 9.6491 13.1998L10.5991 14.2798C11.8691 15.6298 13.2091 16.6798 14.5991 17.4098C15.7991 18.0398 16.5291 17.5898 16.8591 17.2598L17.9791 16.1398L20.2091 18.3798C20.2091 18.3798 20.2991 18.4598 20.3691 18.5198L20.5291 18.6598C20.5291 18.6598 20.6991 18.8098 20.7391 18.9198C20.7591 18.9698 20.7591 19.0298 20.7591 19.0798C20.7591 19.2398 20.6891 19.3898 20.5591 19.5498C20.4791 19.6598 20.3691 19.7698 20.2791 19.8598L20.1491 19.9998C19.9191 20.2498 19.5791 20.6198 19.2391 20.9298C19.1291 21.0298 18.9791 21.0998 18.7791 21.1498C18.5991 21.1898 18.4091 21.2098 18.2191 21.2298L18.1691 21.2698Z" fill="black"/>
</g>
<defs>
<clipPath id="clip0_6114_23194">
<rect width="24" height="24" fill="white" transform="translate(0 0.5)"/>
</clipPath>
</defs>
</svg>
