<svg width="24" height="24" viewBox="0 0 24 24" fill="none" xmlns="http://www.w3.org/2000/svg">
<g clip-path="url(#clip0_8830_9891)">
<g clip-path="url(#clip1_8830_9891)">
<path d="M11.5266 6.41803C11.8212 6.17778 12.2559 6.19528 12.5305 6.46979L17.5305 11.4698L17.5823 11.5264C17.8064 11.8014 17.8065 12.1988 17.5823 12.4737L17.5305 12.5303C17.2559 12.8048 16.8211 12.8223 16.5266 12.5821L16.47 12.5303L13.177 9.23737C13.1055 9.16595 12.9979 9.14409 12.9045 9.18268C12.8112 9.2214 12.7502 9.31305 12.7502 9.41413V17.0001C12.7502 17.3884 12.4548 17.7079 12.0764 17.7462L12.0002 17.7501C11.5861 17.75 11.2503 17.4142 11.2502 17.0001V9.41413C11.2502 9.31301 11.1894 9.22138 11.0959 9.18268C11.0025 9.14405 10.8949 9.1659 10.8235 9.23737L7.53051 12.5303C7.25593 12.8048 6.82113 12.8223 6.5266 12.5821L6.46996 12.5303C6.17715 12.2375 6.17718 11.7627 6.46996 11.4698L11.47 6.46979L11.5266 6.41803Z" fill="#554596"/>
</g>
</g>
<defs>
<clipPath id="clip0_8830_9891">
<rect width="24" height="24" fill="white"/>
</clipPath>
<clipPath id="clip1_8830_9891">
<rect width="24" height="24" fill="white"/>
</clipPath>
</defs>
</svg>
