<svg width="84" height="84" viewBox="0 0 84 84" fill="none" xmlns="http://www.w3.org/2000/svg">
<path d="M42 1C64.6437 1 83 19.3563 83 42C83 64.6437 64.6437 83 42 83C19.3563 83 1 64.6437 1 42C1 19.3563 19.3563 1 42 1Z" fill="black" fill-opacity="0.2"/>
<path d="M42 1C64.6437 1 83 19.3563 83 42C83 64.6437 64.6437 83 42 83C19.3563 83 1 64.6437 1 42C1 19.3563 19.3563 1 42 1Z" stroke="white" stroke-width="2"/>
<path d="M30.333 21.582C31.2995 21.582 32.083 22.3655 32.083 23.332V60.6654C32.083 61.6319 31.2995 62.4154 30.333 62.4154C29.3665 62.4154 28.583 61.6319 28.583 60.6654V23.332C28.583 22.3655 29.3665 21.582 30.333 21.582Z" fill="white"/>
<path d="M53.6663 21.582C54.6328 21.582 55.4163 22.3655 55.4163 23.332V60.6654C55.4163 61.6319 54.6328 62.4154 53.6663 62.4154C52.6998 62.4154 51.9163 61.6319 51.9163 60.6654V23.332C51.9163 22.3655 52.6998 21.582 53.6663 21.582Z" fill="white"/>
</svg>
