<svg width="40" height="41" viewBox="0 0 40 41" fill="none" xmlns="http://www.w3.org/2000/svg">
<rect y="0.5" width="40" height="40" rx="20" fill="#343A40"/>
<g clip-path="url(#clip0_7381_844)">
<g clip-path="url(#clip1_7381_844)">
<path d="M27.8156 16.3557C27.7334 15.7078 27.5147 15.0847 27.1741 14.5274C26.963 14.2782 26.6962 14.0822 26.3953 13.9554C26.0943 13.8286 25.7677 13.7746 25.442 13.7977C23.0363 13.6133 19.5 13.6133 19.5 13.6133C19.5 13.6133 15.9396 13.6133 13.566 13.7977C13.2391 13.7746 12.9113 13.8286 12.6091 13.9553C12.3068 14.0821 12.0386 14.278 11.8259 14.5274C11.4476 15.066 11.2256 15.6988 11.1844 16.3557C11.0708 17.3247 11.0092 18.299 11 19.2746V20.6458C11.0013 21.6236 11.0548 22.6006 11.1604 23.5727C11.248 24.2193 11.4663 24.8414 11.8019 25.401C12.3207 25.8994 13.0072 26.1855 13.7264 26.2029C15.0896 26.3873 19.4759 26.3873 19.4759 26.3873C19.4759 26.3873 23.0443 26.3873 25.4179 26.2029C25.7477 26.2124 26.076 26.1539 26.3822 26.0311C26.6885 25.9084 26.9662 25.7239 27.1981 25.4892C27.5799 24.9524 27.8023 24.3186 27.8396 23.6609C27.9452 22.6888 27.9987 21.7118 28 20.734V19.2746C27.9908 18.299 27.9292 17.3247 27.8156 16.3557ZM17.3108 23.2038V16.7888L22.6113 19.9963L17.3108 23.2038Z" fill="white"/>
</g>
</g>
<defs>
<clipPath id="clip0_7381_844">
<rect width="24" height="24" fill="white" transform="translate(8 8.5)"/>
</clipPath>
<clipPath id="clip1_7381_844">
<rect width="24" height="24" fill="white" transform="translate(8 8.5)"/>
</clipPath>
</defs>
</svg>
