<svg width="20" height="20" viewBox="0 0 20 20" fill="none" xmlns="http://www.w3.org/2000/svg">
<g clip-path="url(#clip0_8418_1313)">
<path d="M9.0625 1.875C9.40768 1.875 9.6875 2.15482 9.6875 2.5C9.6875 2.84518 9.40768 3.125 9.0625 3.125H5.3125C4.10437 3.125 3.125 4.10439 3.125 5.3125V14.6875C3.125 15.8956 4.10437 16.875 5.3125 16.875H14.6875C15.8956 16.875 16.875 15.8956 16.875 14.6875V10.9375C16.875 10.5923 17.1548 10.3125 17.5 10.3125C17.8452 10.3125 18.125 10.5923 18.125 10.9375V14.6875C18.125 16.586 16.586 18.125 14.6875 18.125H5.3125C3.47324 18.125 1.97097 16.6805 1.87907 14.8641L1.875 14.6875V5.3125C1.875 3.41403 3.41402 1.875 5.3125 1.875H9.0625Z" fill="white"/>
<path d="M17.6221 1.88721C17.7424 1.91117 17.8539 1.97011 17.9419 2.05811L18.02 2.15332C18.088 2.25524 18.125 2.3757 18.125 2.5V6.71875C18.125 7.06393 17.8452 7.34375 17.5 7.34375C17.1548 7.34375 16.875 7.06393 16.875 6.71875V4.00879L9.97233 10.9106C9.72826 11.1545 9.33255 11.1546 9.08854 10.9106C8.84455 10.6666 8.84468 10.2709 9.08854 10.0269L15.9912 3.125H12.8117C12.4883 3.12482 12.222 2.87928 12.1899 2.56429L12.1867 2.5C12.1868 2.15505 12.4667 1.87519 12.8117 1.875H17.5L17.6221 1.88721Z" fill="white"/>
</g>
<defs>
<clipPath id="clip0_8418_1313">
<rect width="20" height="20" fill="white"/>
</clipPath>
</defs>
</svg>
