<svg width="72" height="72" viewBox="0 0 72 72" fill="none" xmlns="http://www.w3.org/2000/svg">
<g clip-path="url(#clip0_10853_3076)">
<path d="M36.2288 12.7617C37.3638 12.8766 38.2503 13.8348 38.2503 15V49.7578C38.2503 50.0612 38.433 50.3361 38.7132 50.4521C38.9932 50.5677 39.3164 50.5023 39.5306 50.2881L55.4095 34.4092L55.5794 34.2539C56.4631 33.5334 57.7675 33.5855 58.5911 34.4092L58.7464 34.5791C59.4189 35.4038 59.4189 36.5962 58.7464 37.4209L58.5911 37.5908L37.5911 58.5908C36.7675 59.4145 35.4631 59.4666 34.5794 58.7461L34.4095 58.5908L13.4095 37.5908C12.5308 36.7121 12.5308 35.2879 13.4095 34.4092L13.5794 34.2539C14.4631 33.5334 15.7675 33.5855 16.5911 34.4092L32.47 50.2881C32.6845 50.5023 33.0074 50.568 33.2874 50.4521C33.5675 50.336 33.7503 50.061 33.7503 49.7578V15C33.7503 13.7574 34.7577 12.75 36.0003 12.75L36.2288 12.7617Z" fill="white"/>
</g>
<defs>
<clipPath id="clip0_10853_3076">
<rect width="72" height="72" fill="white"/>
</clipPath>
</defs>
</svg>
