<svg width="40" height="41" viewBox="0 0 40 41" fill="none" xmlns="http://www.w3.org/2000/svg">
<rect y="0.5" width="40" height="40" rx="20" fill="#343A40"/>
<g clip-path="url(#clip0_7381_834)">
<g clip-path="url(#clip1_7381_834)">
<path d="M25.2278 16.2178C25.2278 16.4728 25.1265 16.7173 24.9462 16.8976C24.7659 17.0779 24.5214 17.1792 24.2664 17.1792C24.0114 17.1792 23.7669 17.0779 23.5866 16.8976C23.4063 16.7173 23.305 16.4728 23.305 16.2178C23.305 15.9628 23.4063 15.7182 23.5866 15.5379C23.7669 15.3576 24.0114 15.2563 24.2664 15.2563C24.5214 15.2563 24.7659 15.3576 24.9462 15.5379C25.1265 15.7182 25.2278 15.9628 25.2278 16.2178ZM19.996 23.1482C19.3147 23.1108 18.6737 22.8138 18.2046 22.3183C17.7355 21.8228 17.4741 21.1665 17.4741 20.4842C17.4741 19.8019 17.7355 19.1455 18.2046 18.65C18.6737 18.1545 19.3147 17.8576 19.996 17.8202C20.3581 17.8003 20.7205 17.8545 21.061 17.9794C21.4015 18.1043 21.7129 18.2973 21.9763 18.5466C22.2397 18.796 22.4495 19.0964 22.5928 19.4295C22.7362 19.7626 22.8101 20.1215 22.8101 20.4842C22.8101 20.8469 22.7362 21.2057 22.5928 21.5389C22.4495 21.872 22.2397 22.1724 21.9763 22.4217C21.7129 22.671 21.4015 22.8641 21.061 22.989C20.7205 23.1139 20.3581 23.168 19.996 23.1482ZM19.996 16.378C19.1864 16.3812 18.3958 16.6239 17.7239 17.0755C17.0519 17.5271 16.5286 18.1675 16.2199 18.9159C15.9112 19.6644 15.8308 20.4874 15.989 21.2814C16.1471 22.0755 16.5367 22.8049 17.1086 23.378C17.6805 23.951 18.4093 24.342 19.203 24.5017C19.9967 24.6614 20.8199 24.5826 21.5689 24.2754C22.318 23.9681 22.9594 23.4461 23.4123 22.775C23.8652 22.1039 24.1094 21.3138 24.1142 20.5042C24.1142 19.9648 24.0078 19.4307 23.8011 18.9325C23.5945 18.4343 23.2916 17.9817 22.9098 17.6007C22.5281 17.2197 22.0749 16.9177 21.5763 16.712C21.0777 16.5063 20.5434 16.401 20.004 16.4021L19.996 16.378ZM19.996 13.9744C22.1352 13.9744 22.3996 13.9744 23.2008 14.0225C23.7071 14.0245 24.2091 14.1168 24.683 14.2949C25.044 14.4168 25.3708 14.6228 25.6365 14.8958C25.9021 15.1518 26.1074 15.4639 26.2374 15.8092C26.41 16.2711 26.5048 16.7584 26.5178 17.2513C26.5578 18.0525 26.5658 18.349 26.5658 20.4561C26.5658 22.5633 26.5658 22.8597 26.5178 23.6609C26.5158 24.1699 26.4236 24.6745 26.2454 25.1512C26.1195 25.5145 25.9111 25.8436 25.6365 26.1126C25.3788 26.3801 25.0637 26.5856 24.7151 26.7135C24.2401 26.8878 23.7388 26.98 23.2328 26.9859C22.4316 27.026 22.1352 27.034 20.028 27.034C17.9209 27.034 17.6244 27.034 16.8232 26.9859C16.304 26.983 15.789 26.8908 15.301 26.7135C14.947 26.5867 14.6265 26.3813 14.3635 26.1126C14.0957 25.8584 13.8901 25.5458 13.7626 25.1993C13.5857 24.7219 13.4909 24.218 13.4822 23.709C13.4822 22.8678 13.4422 22.6194 13.4422 20.5042C13.4422 18.389 13.4422 18.1006 13.4822 17.2994C13.4909 16.793 13.5857 16.2918 13.7626 15.8172C13.896 15.4639 14.1017 15.1424 14.3666 14.8734C14.6315 14.6043 14.9498 14.3936 15.301 14.2548C15.7779 14.0773 16.2823 13.985 16.7912 13.9824C17.5924 13.9344 17.8808 13.9344 19.996 13.9344V13.9744ZM19.996 12.5322C17.8247 12.5322 17.5523 12.5322 16.7031 12.5803C16.0377 12.5903 15.3791 12.715 14.7561 12.9489C14.2241 13.1533 13.7409 13.4672 13.3379 13.8702C12.9349 14.2732 12.621 14.7564 12.4166 15.2884C12.1821 15.9084 12.0573 16.5645 12.0481 17.2273C12.0481 18.0766 12 18.349 12 20.5202C12 22.6915 12 22.9639 12.0481 23.8132C12.0573 24.476 12.1821 25.1321 12.4166 25.7521C12.621 26.2841 12.9349 26.7673 13.3379 27.1703C13.7409 27.5733 14.2241 27.8872 14.7561 28.0916C15.3791 28.3255 16.0377 28.4502 16.7031 28.4601C17.5523 28.5002 17.8247 28.5082 19.996 28.5082C22.1673 28.5082 22.4477 28.5082 23.2969 28.4601C23.9623 28.4502 24.6209 28.3255 25.2439 28.0916C25.7739 27.8854 26.2551 27.5708 26.6565 27.1679C27.058 26.7651 27.371 26.2828 27.5754 25.7521C27.8087 25.1315 27.936 24.476 27.9519 23.8132C27.9519 22.9639 28 22.6915 28 20.5202C28 18.349 28 18.1166 27.9519 17.2273C27.936 16.5644 27.8087 15.909 27.5754 15.2884C27.3763 14.7536 27.0617 14.2694 26.654 13.8703C26.2522 13.4657 25.7687 13.1516 25.2359 12.9489C24.622 12.7069 23.9722 12.5688 23.313 12.5403C22.4397 12.4922 22.1673 12.4922 19.996 12.4922V12.5322Z" fill="white"/>
</g>
</g>
<defs>
<clipPath id="clip0_7381_834">
<rect width="24" height="24" fill="white" transform="translate(8 8.5)"/>
</clipPath>
<clipPath id="clip1_7381_834">
<rect width="24" height="24" fill="white" transform="translate(8 8.5)"/>
</clipPath>
</defs>
</svg>
