<svg width="24" height="24" viewBox="0 0 24 24" fill="none" xmlns="http://www.w3.org/2000/svg">
<g clip-path="url(#clip0_8426_1359)">
<g clip-path="url(#clip1_8426_1359)">
<path d="M8.44693 4.45929C8.67885 4.1984 9.02985 4.18408 9.27506 4.4046L9.32975 4.45929L15.5524 11.4593L15.6383 11.5784C15.811 11.8745 15.7825 12.2825 15.5524 12.5413L9.32975 19.5413L9.27506 19.595C9.06076 19.788 8.76566 19.8021 8.53971 19.6282L8.44693 19.5413C8.20271 19.2666 8.1835 18.8202 8.39811 18.5198L8.45572 18.4495L14.0407 12.1663C14.1248 12.0717 14.1247 11.929 14.0407 11.8343L8.45572 5.55109L8.39811 5.4798C8.18384 5.17952 8.20301 4.73395 8.44693 4.45929Z" fill="white"/>
</g>
</g>
<defs>
<clipPath id="clip0_8426_1359">
<rect width="24" height="24" fill="white"/>
</clipPath>
<clipPath id="clip1_8426_1359">
<rect width="24" height="24" fill="white"/>
</clipPath>
</defs>
</svg>
