<svg width="20" height="21" viewBox="0 0 20 21" fill="none" xmlns="http://www.w3.org/2000/svg">
<g clip-path="url(#clip0_7528_103288)">
<path d="M16.6667 12.5451C17.0118 12.5451 17.2916 12.825 17.2917 13.1701V16.2438C17.2917 16.7874 17.1123 17.3161 16.7823 17.7404L16.6317 17.9162C16.2048 18.3659 15.6185 18.625 15 18.625H5.00004C4.45871 18.625 3.94192 18.4268 3.5352 18.0757L3.36837 17.9162C2.99576 17.5235 2.76958 17.0133 2.71895 16.4757L2.70837 16.2438V13.1701C2.7085 12.825 2.98828 12.5451 3.33337 12.5451C3.67847 12.5451 3.95824 12.825 3.95837 13.1701V16.2438C3.95839 16.5541 4.07582 16.8453 4.27494 17.0552L4.35225 17.1292C4.53875 17.2903 4.76799 17.375 5.00004 17.375H15C15.2653 17.375 15.5269 17.2641 15.7251 17.0552L15.7959 16.973C15.9518 16.7724 16.0417 16.5154 16.0417 16.2438V13.1701C16.0418 12.825 16.3216 12.5451 16.6667 12.5451Z" fill="white"/>
<path d="M10.0009 2.375C10.346 2.375 10.6259 2.65482 10.6259 3V10.9427C10.6259 11.0269 10.6766 11.1033 10.7544 11.1356C10.8322 11.1678 10.9219 11.1495 10.9815 11.09L13.3692 8.70719L13.4164 8.66406C13.662 8.46409 14.0244 8.47899 14.253 8.70801L14.2961 8.75521C14.4827 8.9845 14.4824 9.31568 14.2953 9.5446L14.2522 9.5918L10.4427 13.3947C10.214 13.623 9.8523 13.6368 9.60697 13.437L9.55977 13.3947L5.74955 9.5918C5.50549 9.34801 5.50518 8.95227 5.74874 8.70801L5.79675 8.66488C6.04205 8.46457 6.40436 8.47863 6.63334 8.70719L9.02022 11.09C9.07976 11.1494 9.16954 11.1677 9.24727 11.1356C9.32508 11.1033 9.37585 11.0269 9.37585 10.9427V3C9.37585 2.65486 9.65573 2.37506 10.0009 2.375Z" fill="white"/>
</g>
<defs>
<clipPath id="clip0_7528_103288">
<rect width="20" height="20" fill="white" transform="translate(0 0.5)"/>
</clipPath>
</defs>
</svg>
