<svg width="40" height="41" viewBox="0 0 40 41" fill="none" xmlns="http://www.w3.org/2000/svg">
<rect y="0.5" width="40" height="40" rx="20" fill="#343A40"/>
<g clip-path="url(#clip0_7381_849)">
<g clip-path="url(#clip1_7381_849)">
<path d="M17.4851 18.5913V12.4824H14V28.324H17.4851V26.7596C17.872 27.3258 18.3969 27.7839 19.0103 28.0906C19.6236 28.3973 20.305 28.5424 20.9901 28.5121C23.7723 28.5121 26 26.225 26 22.6408C26 19.0567 23.802 16.8191 20.9901 16.8191C20.3032 16.791 19.6206 16.9391 19.0071 17.2493C18.3936 17.5595 17.8697 18.0215 17.4851 18.5913ZM22.4356 22.6408C22.5079 23.3181 22.3088 23.9963 21.8819 24.5271C21.4551 25.0578 20.8354 25.3978 20.1584 25.4725H20C19.665 25.4661 19.3345 25.3936 19.0276 25.2591C18.7207 25.1246 18.4433 24.9308 18.2115 24.6889C17.9797 24.4469 17.7979 24.1616 17.6767 23.8492C17.5554 23.5368 17.4971 23.2036 17.505 22.8686C17.5 22.7993 17.5 22.7299 17.505 22.6606C17.4693 22.3282 17.4998 21.9921 17.5947 21.6715C17.6895 21.3509 17.8468 21.0523 18.0576 20.7928C18.2683 20.5332 18.5283 20.318 18.8226 20.1594C19.1169 20.0007 19.4396 19.9019 19.7723 19.8686H19.9901C20.323 19.8712 20.652 19.9393 20.9586 20.0691C21.2651 20.1988 21.5431 20.3877 21.7766 20.6249C22.0101 20.8621 22.1946 21.143 22.3196 21.4515C22.4446 21.76 22.5076 22.0902 22.505 22.423C22.4927 22.4965 22.4762 22.5693 22.4554 22.6408H22.4356Z" fill="white"/>
</g>
</g>
<defs>
<clipPath id="clip0_7381_849">
<rect width="24" height="24" fill="white" transform="translate(8 8.5)"/>
</clipPath>
<clipPath id="clip1_7381_849">
<rect width="24" height="24" fill="white" transform="translate(8 8.5)"/>
</clipPath>
</defs>
</svg>
