<svg width="32" height="32" viewBox="0 0 32 32" fill="none" xmlns="http://www.w3.org/2000/svg">
<rect width="32" height="32" rx="16" fill="#555758"/>
<g clip-path="url(#clip0_15897_5987)">
<path d="M16.0381 8.50098C16.3257 8.50806 16.6116 8.59488 16.8584 8.76172L22.8584 12.8184L22.9307 12.8711C23.1067 13.0062 23.2475 13.1786 23.3457 13.373L23.4229 13.4248V13.5518C23.4552 13.6457 23.4782 13.7435 23.4902 13.8438L23.5 14.0127V21.6064C23.4999 22.6112 22.7044 23.396 21.7344 23.4902L21.5391 23.5H10.4609C9.40455 23.4997 8.50006 22.6781 8.5 21.6064V14.0127C8.50012 13.5295 8.74612 13.0859 9.1416 12.8184L15.1416 8.76172L15.2402 8.7002C15.4575 8.57648 15.6998 8.51279 15.9434 8.50391L15.9922 8.4707L16.0381 8.50098ZM12.5381 19.8457C12.2198 19.8459 11.9622 20.1046 11.9619 20.4229C11.9619 20.7414 12.2196 20.9998 12.5381 21H19.4619C19.7804 20.9998 20.0381 20.7414 20.0381 20.4229C20.0378 20.1046 19.7802 19.8459 19.4619 19.8457H12.5381Z" fill="white"/>
</g>
<defs>
<clipPath id="clip0_15897_5987">
<rect width="20" height="20" fill="white" transform="translate(6 6)"/>
</clipPath>
</defs>
</svg>
