<svg width="24" height="24" viewBox="0 0 24 24" fill="none" xmlns="http://www.w3.org/2000/svg">
<g clip-path="url(#clip0_6649_212)">
<path fill-rule="evenodd" clip-rule="evenodd" d="M12.9992 2.25C17.8312 2.25025 21.7483 6.16772 21.7483 11C21.7483 12.1553 21.5243 13.2601 21.1164 14.2715C21.1 14.3123 21.0946 14.3569 21.1008 14.4004L21.7424 18.8936L21.7502 18.9854C21.7542 19.2009 21.6644 19.4102 21.5022 19.5566C21.34 19.7027 21.1231 19.7701 20.9094 19.7441L20.8186 19.7266L17.1057 18.7988C17.0621 18.7879 17.0164 18.7892 16.9738 18.8018L16.9328 18.8184C15.7499 19.4147 14.4125 19.7499 12.9992 19.75C12.8809 19.75 12.7691 19.7222 12.6701 19.6738C12.5935 19.6364 12.5044 19.6414 12.4338 19.6826L12.3703 19.7363C11.3156 20.9691 9.749 21.7499 8.00021 21.75C7.12014 21.75 6.28429 21.5518 5.53732 21.1973C5.51143 21.185 5.48338 21.1767 5.45529 21.1738L5.36935 21.1807L3.18185 21.7275C2.93993 21.7879 2.68357 21.7235 2.49826 21.5566C2.31283 21.3894 2.22273 21.1408 2.25803 20.8936L2.64474 18.1836C2.65073 18.1416 2.64621 18.0982 2.63107 18.0586C2.38569 17.4187 2.25119 16.7243 2.25119 16C2.25119 14.2512 3.03155 12.6849 4.26388 11.6299C4.35026 11.5557 4.37641 11.4314 4.32638 11.3291C4.27784 11.23 4.25021 11.1186 4.25021 11C4.25021 6.16762 8.16713 2.25008 12.9992 2.25ZM8.00021 11.75C5.65366 11.75 3.75119 13.6527 3.75119 16C3.75119 16.6123 3.87993 17.1928 4.11154 17.7168L4.14767 17.8154C4.16662 17.8824 4.17615 17.9519 4.17599 18.0215L4.16818 18.126L3.95334 19.6328C3.94157 19.7152 3.9716 19.7987 4.03342 19.8545C4.09515 19.9098 4.18049 19.9312 4.26095 19.9111L5.37131 19.6338L5.51193 19.6123C5.65342 19.6046 5.79591 19.6366 5.92111 19.707L6.15549 19.8301C6.71264 20.0991 7.33818 20.25 8.00021 20.25C10.3466 20.2498 12.2492 18.3472 12.2492 16C12.2492 13.6528 10.3466 11.7502 8.00021 11.75ZM12.9992 3.75C9.22948 3.75008 6.13161 6.62771 5.78244 10.3066C5.7744 10.3914 5.81023 10.4748 5.87717 10.5273C5.94405 10.5797 6.03325 10.5942 6.11349 10.5664C6.70399 10.3614 7.33911 10.25 8.00021 10.25C11.1753 10.2502 13.7492 12.8246 13.7492 16C13.7492 16.6611 13.6378 17.2961 13.4328 17.8867C13.405 17.967 13.4204 18.0562 13.4729 18.123C13.5254 18.1896 13.6082 18.2257 13.6926 18.2178C14.7228 18.1201 15.6893 17.8066 16.5471 17.3242L16.677 17.2666C16.8114 17.2217 16.9575 17.2151 17.0969 17.25L19.7395 17.9111C19.8198 17.931 19.9054 17.9098 19.967 17.8545C20.0286 17.7988 20.0588 17.7151 20.0471 17.6328L19.5764 14.3379C19.5565 14.199 19.5764 14.0571 19.633 13.9287L19.7737 13.5889C20.0807 12.7858 20.2483 11.9131 20.2483 11C20.2483 6.99603 17.0027 3.75025 12.9992 3.75Z" fill="#3EC2CF" stroke="#3EC2CF" stroke-width="0.5" stroke-linecap="round" stroke-linejoin="round"/>
</g>
<defs>
<clipPath id="clip0_6649_212">
<rect width="24" height="24" fill="white"/>
</clipPath>
</defs>
</svg>
