<svg width="14" height="14" viewBox="0 0 14 14" fill="none" xmlns="http://www.w3.org/2000/svg">
<g clip-path="url(#clip0_9005_3914)">
<path d="M13.4167 7.00065C13.4167 10.5445 10.5439 13.4173 7.00004 13.4173C3.45621 13.4173 0.583374 10.5445 0.583374 7.00065C0.583374 3.45682 3.45621 0.583984 7.00004 0.583984C10.5439 0.583984 13.4167 3.45682 13.4167 7.00065ZM7.00004 3.79232C6.5706 3.79232 6.23504 4.16311 6.27777 4.59042L6.55909 7.40368C6.58175 7.63022 6.77237 7.80274 7.00004 7.80274C7.22771 7.80274 7.41833 7.63022 7.44099 7.40368L7.72232 4.59042C7.76505 4.16311 7.42949 3.79232 7.00004 3.79232ZM7.00128 8.60482C6.5583 8.60482 6.19919 8.96392 6.19919 9.4069C6.19919 9.84988 6.5583 10.209 7.00128 10.209C7.44426 10.209 7.80336 9.84988 7.80336 9.4069C7.80336 8.96392 7.44426 8.60482 7.00128 8.60482Z" fill="#33B0C6"/>
</g>
<defs>
<clipPath id="clip0_9005_3914">
<rect width="14" height="14" fill="white"/>
</clipPath>
</defs>
</svg>
