<svg width="32" height="32" viewBox="0 0 32 32" fill="none" xmlns="http://www.w3.org/2000/svg">
<rect width="32" height="32" rx="16" fill="#555758"/>
<g clip-path="url(#clip0_15897_3098)">
<g clip-path="url(#clip1_15897_3098)">
<path d="M23.5951 12.6712C23.5201 12.0794 23.3204 11.5103 23.0092 11.0014C22.8165 10.7738 22.5728 10.5948 22.298 10.479C22.0231 10.3632 21.7248 10.3138 21.4273 10.3349C19.2302 10.1665 16.0004 10.1665 16.0004 10.1665C16.0004 10.1665 12.7487 10.1665 10.5809 10.3349C10.2823 10.3138 9.98294 10.3632 9.7069 10.4789C9.43086 10.5947 9.18587 10.7736 8.99165 11.0014C8.64608 11.4933 8.44331 12.0712 8.40575 12.6712C8.30195 13.5562 8.24572 14.4461 8.2373 15.337V16.5894C8.23847 17.4824 8.28736 18.3747 8.38378 19.2625C8.46382 19.8531 8.66316 20.4212 8.96968 20.9324C9.44349 21.3875 10.0705 21.6488 10.7274 21.6647C11.9724 21.8332 15.9785 21.8332 15.9785 21.8332C15.9785 21.8332 19.2375 21.8332 21.4053 21.6647C21.7065 21.6734 22.0063 21.62 22.286 21.5079C22.5657 21.3957 22.8194 21.2272 23.0312 21.0129C23.3799 20.5226 23.583 19.9438 23.6171 19.3431C23.7135 18.4553 23.7624 17.563 23.7636 16.67V15.337C23.7552 14.4461 23.6989 13.5562 23.5951 12.6712ZM14.0011 18.9257V13.0667L18.842 15.9962L14.0011 18.9257Z" fill="white"/>
</g>
</g>
<defs>
<clipPath id="clip0_15897_3098">
<rect width="20" height="20" fill="white" transform="translate(6 6)"/>
</clipPath>
<clipPath id="clip1_15897_3098">
<rect width="20" height="20" fill="white" transform="translate(6 6)"/>
</clipPath>
</defs>
</svg>
