<svg width="22" height="23" viewBox="0 0 22 23" fill="none" xmlns="http://www.w3.org/2000/svg">
<rect y="0.5" width="22" height="22" rx="11" fill="#555758"/>
<g clip-path="url(#clip0_2523_7918)">
<path d="M13.641 8.24352C13.8128 8.10341 14.0665 8.11355 14.2266 8.27371L14.2568 8.30675C14.3876 8.46712 14.3876 8.69894 14.2568 8.85933L14.2266 8.89237L11.7224 11.3966C11.6951 11.4239 11.6797 11.4611 11.6797 11.4997C11.6797 11.5384 11.6951 11.5755 11.7224 11.6028L14.2266 14.107C14.3974 14.2779 14.3974 14.5548 14.2266 14.7257C14.0558 14.8965 13.7788 14.8965 13.608 14.7257L11.1037 12.2215C11.0764 12.1942 11.0392 12.1788 11.0006 12.1787C10.9717 12.1787 10.9435 12.1874 10.9197 12.2032L10.8975 12.2215L8.39328 14.7257C8.2331 14.8859 7.9795 14.896 7.80767 14.7559L7.77463 14.7257C7.60377 14.5548 7.60377 14.2779 7.77463 14.107L10.2789 11.6028C10.3061 11.5755 10.3216 11.5383 10.3216 11.4997C10.3216 11.4611 10.3062 11.4239 10.2789 11.3966L7.77463 8.89237C7.60377 8.72151 7.60377 8.44457 7.77463 8.27371L7.80767 8.24352C7.9795 8.10341 8.23312 8.11355 8.39328 8.27371L10.8975 10.7779C10.9249 10.8053 10.962 10.8207 11.0006 10.8207C11.0392 10.8206 11.0764 10.8052 11.1037 10.7779L13.608 8.27371L13.641 8.24352Z" fill="white" stroke="white" stroke-width="0.5" stroke-linecap="round" stroke-linejoin="round"/>
</g>
<defs>
<clipPath id="clip0_2523_7918">
<rect width="14" height="14" fill="white" transform="translate(4 4.5)"/>
</clipPath>
</defs>
</svg>
