<svg width="40" height="41" viewBox="0 0 40 41" fill="none" xmlns="http://www.w3.org/2000/svg">
<rect y="0.5" width="40" height="40" rx="20" fill="#343A40"/>
<g clip-path="url(#clip0_7381_839)">
<g clip-path="url(#clip1_7381_839)">
<path d="M23.8862 26.2694L26 23.7218H14L16.1323 26.2694H23.8862Z" fill="white"/>
<path d="M17.2583 27.6079L20.0275 30.8848L22.7967 27.6079H17.2583Z" fill="white"/>
<path d="M14 11.5V22.2538H26V11.5H14ZM23.3231 20.0108C22.5846 20.0108 21.8554 20.0108 21.1169 20.0108C20.72 19.3277 20.2585 18.6815 19.8523 18.0077C19.6031 17.6569 19.3908 17.2785 19.1508 16.9185C19.1508 17.9523 19.1508 18.9862 19.1508 20.02H16.9446V13.7523C17.6738 13.7523 18.4031 13.7523 19.1323 13.7523C19.8246 14.7677 20.4708 15.82 21.1446 16.8446C21.1446 15.8108 21.1446 14.7677 21.1446 13.7338H23.3231C23.3231 15.7185 23.3231 17.7031 23.3231 19.6969C23.3231 19.7892 23.3231 19.8908 23.3231 19.9923V20.0108Z" fill="white"/>
</g>
</g>
<defs>
<clipPath id="clip0_7381_839">
<rect width="24" height="24" fill="white" transform="translate(8 8.5)"/>
</clipPath>
<clipPath id="clip1_7381_839">
<rect width="24" height="24" fill="white" transform="translate(8 8.5)"/>
</clipPath>
</defs>
</svg>
