<svg width="32" height="32" viewBox="0 0 32 32" fill="none" xmlns="http://www.w3.org/2000/svg">
<rect width="32" height="32" rx="16" fill="#555758"/>
<g clip-path="url(#clip0_15897_3092)">
<g clip-path="url(#clip1_15897_3092)">
<path d="M8.65902 13.2074H11.5986V22.6671H8.65902V13.2074ZM10.1334 8.50051C10.4724 8.50052 10.8039 8.60119 11.0857 8.78976C11.3675 8.97833 11.587 9.24632 11.7163 9.55977C11.8457 9.87321 11.879 10.218 11.8122 10.5504C11.7454 10.8828 11.5814 11.188 11.341 11.4271C11.1006 11.6662 10.7946 11.8286 10.4618 11.8936C10.129 11.9586 9.78442 11.9234 9.47167 11.7924C9.15893 11.6614 8.89212 11.4405 8.70506 11.1577C8.518 10.8749 8.41911 10.5429 8.42092 10.2038C8.42092 9.97935 8.46528 9.75711 8.55145 9.54986C8.63762 9.34261 8.7639 9.15443 8.92304 8.99614C9.08217 8.83786 9.27102 8.71259 9.47873 8.62753C9.68644 8.54247 9.90892 8.49931 10.1334 8.50051Z" fill="white"/>
<path d="M13.4486 13.2075H16.2599V14.4987H16.3057C16.5845 14.021 16.9866 13.627 17.4699 13.358C17.9532 13.0889 18.5 12.9547 19.0529 12.9694C22.0291 12.9694 22.5785 14.9291 22.5785 17.4749V22.6672H19.6756V18.0884C19.6756 16.9895 19.6756 15.5793 18.1463 15.5793C16.617 15.5793 16.3881 16.7423 16.3881 17.9877V22.6672H13.4486V13.2075Z" fill="white"/>
</g>
</g>
<defs>
<clipPath id="clip0_15897_3092">
<rect width="20" height="20" fill="white" transform="translate(6 6)"/>
</clipPath>
<clipPath id="clip1_15897_3092">
<rect width="20" height="20" fill="white" transform="translate(6 6)"/>
</clipPath>
</defs>
</svg>
