<svg width="29" height="29" viewBox="0 0 29 29" fill="none" xmlns="http://www.w3.org/2000/svg">
<g clip-path="url(#clip0_8951_177)">
<path fill-rule="evenodd" clip-rule="evenodd" d="M15.6658 2.86816C21.3031 2.86845 25.873 7.43884 25.873 13.0765C25.873 14.4243 25.6117 15.7133 25.1359 16.8932C25.1168 16.9408 25.1104 16.9928 25.1177 17.0436L25.8662 22.2856L25.8753 22.3927C25.88 22.6442 25.7752 22.8884 25.5859 23.0592C25.3968 23.2296 25.1436 23.3083 24.8944 23.278L24.7884 23.2575L20.4567 22.1751C20.4059 22.1624 20.3525 22.1639 20.3029 22.1785L20.255 22.1979C18.8749 22.8936 17.3146 23.2847 15.6658 23.2848C15.5278 23.2848 15.3973 23.2524 15.2819 23.196C15.1925 23.1523 15.0886 23.1581 15.0062 23.2062L14.9321 23.2689C13.7016 24.7071 11.8739 25.618 9.83365 25.6182C8.8069 25.6182 7.83175 25.387 6.96028 24.9733C6.93008 24.959 6.89735 24.9494 6.86458 24.946L6.76432 24.9539L4.21223 25.592C3.92999 25.6624 3.6309 25.5872 3.41471 25.3926C3.19837 25.1975 3.09326 24.9074 3.13443 24.619L3.58561 21.4574C3.59259 21.4083 3.58732 21.3578 3.56966 21.3115C3.28338 20.565 3.12646 19.7548 3.12646 18.9098C3.12646 16.8695 4.03688 15.0422 5.4746 13.8114C5.57538 13.7249 5.60589 13.5798 5.54752 13.4605C5.49089 13.3448 5.45865 13.2149 5.45865 13.0765C5.45865 7.43872 10.0284 2.86826 15.6658 2.86816ZM9.83365 13.9515C7.096 13.9515 4.87646 16.1713 4.87646 18.9098C4.87646 19.6242 5.02665 20.3014 5.29687 20.9128L5.33902 21.0278C5.36113 21.106 5.37225 21.187 5.37206 21.2682L5.36295 21.3901L5.1123 23.1481C5.09857 23.2442 5.13361 23.3417 5.20572 23.4067C5.27774 23.4713 5.37731 23.4962 5.47119 23.4728L6.7666 23.1493L6.93066 23.1242C7.09573 23.1152 7.26196 23.1526 7.40803 23.2347L7.68147 23.3783C8.33149 23.6921 9.06128 23.8682 9.83365 23.8682C12.5711 23.8679 14.7908 21.6482 14.7908 18.9098C14.7908 16.1714 12.5711 13.9518 9.83365 13.9515ZM15.6658 4.61816C11.2678 4.61825 7.65362 7.97549 7.24625 12.2676C7.23687 12.3664 7.27867 12.4638 7.35676 12.5251C7.43479 12.5861 7.53886 12.6031 7.63248 12.5706C8.3214 12.3314 9.06236 12.2015 9.83365 12.2015C13.5379 12.2018 16.5408 15.2052 16.5408 18.9098C16.5408 19.6812 16.4108 20.422 16.1717 21.111C16.1393 21.2047 16.1572 21.3087 16.2184 21.3867C16.2797 21.4643 16.3763 21.5065 16.4748 21.4972C17.6766 21.3833 18.8043 21.0176 19.805 20.4548L19.9565 20.3875C20.1134 20.3352 20.2838 20.3275 20.4464 20.3682L23.5295 21.1395C23.6232 21.1627 23.723 21.1379 23.7949 21.0734C23.8668 21.0084 23.902 20.9108 23.8883 20.8148L23.3392 16.9707C23.316 16.8086 23.3392 16.6431 23.4053 16.4933L23.5693 16.0968C23.9275 15.1599 24.123 14.1418 24.123 13.0765C24.123 8.4052 20.3365 4.61845 15.6658 4.61816Z" fill="white"/>
</g>
<defs>
<clipPath id="clip0_8951_177">
<rect width="28" height="28" fill="white" transform="translate(0.5 0.243164)"/>
</clipPath>
</defs>
</svg>
