<svg width="24" height="24" viewBox="0 0 24 24" fill="none" xmlns="http://www.w3.org/2000/svg">
<g clip-path="url(#clip0_14306_28199)">
<g clip-path="url(#clip1_14306_28199)">
<path d="M7.4509 2.46176C7.6917 2.19732 8.06097 2.18489 8.31516 2.41293L8.36594 2.46176L16.5486 11.4618C16.7831 11.7199 16.8122 12.1258 16.6364 12.4207L16.5486 12.5399L8.36594 21.5399L8.31125 21.5936C8.05712 21.8182 7.6905 21.8032 7.4509 21.5399C7.20034 21.2643 7.18313 20.8186 7.405 20.5194L7.45969 20.452L14.99 12.1688C15.0762 12.0735 15.0763 11.9281 14.99 11.8329L7.45969 3.54965L7.405 3.48325C7.18313 3.18402 7.20034 2.73737 7.4509 2.46176Z" fill="#858889"/>
</g>
</g>
<defs>
<clipPath id="clip0_14306_28199">
<rect width="24" height="24" fill="white"/>
</clipPath>
<clipPath id="clip1_14306_28199">
<rect width="24" height="24" fill="white"/>
</clipPath>
</defs>
</svg>
