<svg width="24" height="24" viewBox="0 0 24 24" fill="none" xmlns="http://www.w3.org/2000/svg">
<path d="M3 12C3 7.02944 7.02944 3 12 3C16.9706 3 21 7.02944 21 12C21 16.9706 16.9706 21 12 21C7.02944 21 3 16.9706 3 12Z" fill="#999C9D"/>
<path fill-rule="evenodd" clip-rule="evenodd" d="M8.23431 8.23431C8.54673 7.9219 9.05327 7.9219 9.36569 8.23431L12 10.8686L14.6343 8.23432C14.9467 7.9219 15.4533 7.9219 15.7657 8.23432C16.0781 8.54674 16.0781 9.05327 15.7657 9.36569L13.1314 12L15.7657 14.6343C16.0781 14.9467 16.0781 15.4533 15.7657 15.7657C15.4533 16.0781 14.9467 16.0781 14.6343 15.7657L12 13.1314L9.36569 15.7657C9.05327 16.0781 8.54673 16.0781 8.23431 15.7657C7.9219 15.4533 7.9219 14.9467 8.23431 14.6343L10.8686 12L8.23431 9.36569C7.9219 9.05327 7.9219 8.54673 8.23431 8.23431Z" fill="white"/>
</svg>
