<svg width="20" height="20" viewBox="0 0 20 20" fill="none" xmlns="http://www.w3.org/2000/svg">
<g clip-path="url(#clip0_8536_6834)">
<g clip-path="url(#clip1_8536_6834)">
<path d="M19.1666 9.99967C19.1666 15.0623 15.0625 19.1663 9.99992 19.1663C4.93731 19.1663 0.833252 15.0623 0.833252 9.99967C0.833252 4.93706 4.93731 0.833008 9.99992 0.833008C15.0625 0.833008 19.1666 4.93706 19.1666 9.99967ZM9.99992 5.41634C9.38643 5.41634 8.90705 5.94604 8.9681 6.55649L9.36999 10.5754C9.40236 10.8991 9.67468 11.1455 9.99992 11.1455C10.3252 11.1455 10.5975 10.8991 10.6298 10.5754L11.0317 6.55649C11.0928 5.94604 10.6134 5.41634 9.99992 5.41634ZM10.0017 12.2913C9.36886 12.2913 8.85585 12.8043 8.85585 13.4372C8.85585 14.07 9.36886 14.583 10.0017 14.583C10.6345 14.583 11.1475 14.07 11.1475 13.4372C11.1475 12.8043 10.6345 12.2913 10.0017 12.2913Z" fill="#33B0C6"/>
</g>
</g>
<defs>
<clipPath id="clip0_8536_6834">
<rect width="20" height="20" fill="white"/>
</clipPath>
<clipPath id="clip1_8536_6834">
<rect width="20" height="20" fill="white"/>
</clipPath>
</defs>
</svg>
