<svg width="24" height="25" viewBox="0 0 24 25" fill="none" xmlns="http://www.w3.org/2000/svg">
<g clip-path="url(#clip0_6114_23190)">
<path fill-rule="evenodd" clip-rule="evenodd" d="M18.75 4.75C20.4069 4.75 21.75 6.09315 21.75 7.75V16.5547C21.7498 18.2114 20.4067 19.5547 18.75 19.5547H5.25C3.59326 19.5547 2.25018 18.2114 2.25 16.5547V7.75C2.25 6.09315 3.59315 4.75 5.25 4.75H18.75ZM4.13574 7.52344C4.0593 7.4743 3.96188 7.47064 3.88184 7.51367C3.82184 7.54595 3.77818 7.60037 3.75977 7.66406L3.75 7.73047V16.5547C3.75018 17.383 4.42169 18.0547 5.25 18.0547H18.75C19.5783 18.0547 20.2498 17.383 20.25 16.5547V8.05371C20.25 7.96364 20.2014 7.88031 20.123 7.83594C20.0447 7.79167 19.9483 7.79256 19.8711 7.83887L12.3857 12.3311C12.1718 12.4593 11.9102 12.4713 11.6875 12.3691L11.5947 12.3184L4.13574 7.52344ZM5.78027 6.25C5.66934 6.25 5.5713 6.32325 5.54004 6.42969C5.50886 6.53602 5.55139 6.64995 5.64453 6.70996L11.8828 10.7207L11.9463 10.75C12.0126 10.7699 12.0853 10.7613 12.1465 10.7246L18.8311 6.71484L18.8936 6.66113C18.9455 6.59944 18.9657 6.51459 18.9434 6.43359C18.9134 6.3253 18.8145 6.25 18.7021 6.25H5.78027Z" fill="#171819"/>
</g>
<defs>
<clipPath id="clip0_6114_23190">
<rect width="24" height="24" fill="white" transform="translate(0 0.5)"/>
</clipPath>
</defs>
</svg>
