<svg width="24" height="25" viewBox="0 0 24 25" fill="none" xmlns="http://www.w3.org/2000/svg">
<g clip-path="url(#clip0_6114_23203)">
<g clip-path="url(#clip1_6114_23203)">
<path fill-rule="evenodd" clip-rule="evenodd" d="M12.001 6.79004C14.0453 6.79004 15.7012 8.44592 15.7012 10.4902C15.7012 12.5345 14.0453 14.1904 12.001 14.1904C9.95666 14.1904 8.30078 12.5345 8.30078 10.4902C8.30078 8.44592 9.95666 6.79004 12.001 6.79004ZM12.001 8.19043C10.7353 8.19043 9.70117 9.22455 9.70117 10.4902C9.70117 11.7559 10.7353 12.79 12.001 12.79C13.2667 12.79 14.3008 11.7559 14.3008 10.4902C14.3008 9.22455 13.2667 8.19043 12.001 8.19043Z" fill="#171819"/>
<path fill-rule="evenodd" clip-rule="evenodd" d="M12.4717 0.811523C14.8669 0.930184 17.1389 1.93282 18.8486 3.64258C20.6715 5.45573 21.6913 7.92923 21.6914 10.5L21.6846 10.8535C21.541 14.492 19.2097 17.7714 17.0029 20.1035L16.5703 20.5498C15.5627 21.5644 14.588 22.3971 13.834 22.9951C13.4007 23.3299 13.0463 23.5958 12.79 23.7832L12.4863 23.9961L12.3906 24.0566C12.3906 24.0566 12.2055 24.1707 11.9814 24.1709C11.871 24.1709 11.7727 24.1429 11.7002 24.1133C11.6645 24.0987 11.6366 24.0841 11.6191 24.0742L11.6172 24.0732C11.5937 24.0499 11.5585 24.0185 11.5049 23.9863L11.2021 23.7734C11.0758 23.686 10.9239 23.576 10.749 23.4443L10.1572 22.9863L9.46094 22.417C8.84337 21.8968 8.14073 21.264 7.4209 20.5391L6.98828 20.0928C4.71099 17.696 2.30078 14.2696 2.30078 10.4902L2.3125 10.0098C2.43099 7.61286 3.4336 5.3327 5.14258 3.63281L5.14355 3.63184L5.49121 3.2998C7.26501 1.68726 9.58053 0.799805 11.9912 0.799805L12.4717 0.811523ZM12.001 2.19043C9.93931 2.19043 7.94995 2.95566 6.42676 4.33398L6.12891 4.61816C4.57231 6.17476 3.70117 8.29114 3.70117 10.4902L3.70703 10.792C3.83186 13.9029 5.86129 16.8674 8.01367 19.1367L8.42285 19.5596C9.10385 20.2472 9.77446 20.8513 10.3662 21.3496L11.0342 21.8955C11.3373 22.138 11.6138 22.3415 11.8193 22.498L12.001 22.6367L12.1826 22.498C12.3881 22.3415 12.6646 22.138 12.9678 21.8955C13.7959 21.2391 14.8965 20.2891 15.9883 19.1367L16.4033 18.6875C18.3946 16.4764 20.1781 13.7019 20.2949 10.792L20.3008 10.4902C20.3008 8.42857 19.5355 6.43921 18.1572 4.91602L17.873 4.61816C16.3165 3.06157 14.2001 2.19043 12.001 2.19043Z" fill="#171819"/>
</g>
</g>
<defs>
<clipPath id="clip0_6114_23203">
<rect width="24" height="24" fill="white" transform="translate(0 0.5)"/>
</clipPath>
<clipPath id="clip1_6114_23203">
<rect width="24" height="24" fill="white" transform="translate(0 0.5)"/>
</clipPath>
</defs>
</svg>
