<svg width="28" height="28" viewBox="0 0 28 28" fill="none" xmlns="http://www.w3.org/2000/svg">
<g clip-path="url(#clip0_939_2833)">
<path fill-rule="evenodd" clip-rule="evenodd" d="M12.834 4.66683C8.32366 4.66683 4.66732 8.32317 4.66732 12.8335C4.66732 17.3438 8.32366 21.0002 12.834 21.0002C15.0343 21.0002 17.0313 20.13 18.4998 18.7151C18.5305 18.6752 18.5641 18.6368 18.6007 18.6002C18.6373 18.5636 18.6757 18.53 18.7156 18.4993C20.1305 17.0308 21.0007 15.0338 21.0007 12.8335C21.0007 8.32317 17.3443 4.66683 12.834 4.66683ZM21.0379 19.3875C22.4748 17.5912 23.334 15.3127 23.334 12.8335C23.334 7.03451 18.633 2.3335 12.834 2.3335C7.03499 2.3335 2.33398 7.03451 2.33398 12.8335C2.33398 18.6325 7.03499 23.3335 12.834 23.3335C15.3132 23.3335 17.5917 22.4743 19.388 21.0374L23.6757 25.3251C24.1313 25.7807 24.87 25.7807 25.3256 25.3251C25.7812 24.8695 25.7812 24.1308 25.3256 23.6752L21.0379 19.3875Z" fill="#171819"/>
</g>
<defs>
<clipPath id="clip0_939_2833">
<rect width="28" height="28" fill="white"/>
</clipPath>
</defs>
</svg>
