<svg width="18" height="18" viewBox="0 0 18 18" fill="none" xmlns="http://www.w3.org/2000/svg">
<g clip-path="url(#clip0_6618_1016)">
<g clip-path="url(#clip1_6618_1016)">
<path d="M2.62132 6.35956C2.83257 6.17184 3.15863 6.13686 3.41233 6.25849L3.5156 6.32001L3.56468 6.35956L8.87547 11.0793C8.94651 11.1423 9.05349 11.1424 9.12449 11.0793L14.4265 6.36615L14.4866 6.31781C14.7486 6.13008 15.1375 6.14595 15.3779 6.35956L15.4541 6.44159C15.6085 6.64234 15.5957 6.90596 15.4219 7.09564L15.3779 7.13959L9.47166 12.3896C9.2294 12.6049 8.83893 12.619 8.5781 12.4306L8.52757 12.3896L2.62132 7.13959L2.57444 7.09271C2.37883 6.87609 2.39132 6.56408 2.62132 6.35956Z" fill="#858889"/>
</g>
</g>
<defs>
<clipPath id="clip0_6618_1016">
<rect width="18" height="18" fill="white"/>
</clipPath>
<clipPath id="clip1_6618_1016">
<rect width="18" height="18" fill="white"/>
</clipPath>
</defs>
</svg>
