<svg width="20" height="20" viewBox="0 0 20 20" fill="none" xmlns="http://www.w3.org/2000/svg">
<g clip-path="url(#clip0_8921_726)">
<g clip-path="url(#clip1_8921_726)">
<path d="M7.64719 8.21412V2.49902H4.38672V17.3194H7.64719V15.8559C8.0091 16.3855 8.50019 16.8141 9.07399 17.101C9.64778 17.3879 10.2853 17.5236 10.9262 17.4954C13.529 17.4954 15.6131 15.3557 15.6131 12.0026C15.6131 8.64946 13.5568 6.55609 10.9262 6.55609C10.2836 6.52982 9.64496 6.66837 9.07102 6.95858C8.49709 7.24879 8.00694 7.68101 7.64719 8.21412ZM12.2786 12.0026C12.3461 12.6361 12.1599 13.2707 11.7605 13.7672C11.3612 14.2637 10.7814 14.5818 10.1481 14.6517H9.99992C9.6865 14.6457 9.37734 14.5778 9.09021 14.452C8.80308 14.3262 8.54362 14.1449 8.32674 13.9186C8.10985 13.6922 7.93981 13.4253 7.82638 13.133C7.71294 12.8408 7.65834 12.529 7.66572 12.2156C7.66111 12.1509 7.66111 12.0858 7.66572 12.0211C7.63239 11.7101 7.66092 11.3956 7.74965 11.0957C7.83837 10.7958 7.98555 10.5164 8.18271 10.2736C8.37987 10.0308 8.62311 9.82945 8.89842 9.68106C9.17374 9.53267 9.47569 9.44021 9.78688 9.40901H9.99066C10.3021 9.41143 10.6099 9.47517 10.8967 9.59658C11.1835 9.71799 11.4435 9.8947 11.662 10.1166C11.8805 10.3385 12.0531 10.6013 12.17 10.8899C12.2869 11.1786 12.3458 11.4874 12.3434 11.7988C12.3319 11.8676 12.3165 11.9356 12.2971 12.0026H12.2786Z" fill="white"/>
</g>
</g>
<defs>
<clipPath id="clip0_8921_726">
<rect width="20" height="20" fill="white"/>
</clipPath>
<clipPath id="clip1_8921_726">
<rect width="20" height="20" fill="white"/>
</clipPath>
</defs>
</svg>
