<svg width="32" height="32" viewBox="0 0 32 32" fill="none" xmlns="http://www.w3.org/2000/svg">
<rect width="32" height="32" rx="16" fill="#555758"/>
<g clip-path="url(#clip0_15897_3104)">
<g clip-path="url(#clip1_15897_3104)">
<path d="M13.6472 14.2146V8.49951H10.3867V23.3199H13.6472V21.8563C14.0091 22.386 14.5002 22.8146 15.074 23.1015C15.6478 23.3884 16.2853 23.5241 16.9262 23.4958C19.529 23.4958 21.6131 21.3562 21.6131 18.0031C21.6131 14.65 19.5568 12.5566 16.9262 12.5566C16.2836 12.5303 15.645 12.6689 15.071 12.9591C14.4971 13.2493 14.0069 13.6815 13.6472 14.2146ZM18.2786 18.0031C18.3461 18.6366 18.1599 19.2712 17.7605 19.7677C17.3612 20.2642 16.7814 20.5823 16.1481 20.6522H15.9999C15.6865 20.6462 15.3773 20.5783 15.0902 20.4525C14.8031 20.3267 14.5436 20.1454 14.3267 19.9191C14.1099 19.6927 13.9398 19.4258 13.8264 19.1335C13.7129 18.8413 13.6583 18.5295 13.6657 18.2161C13.6611 18.1513 13.6611 18.0863 13.6657 18.0216C13.6324 17.7106 13.6609 17.3961 13.7496 17.0962C13.8384 16.7963 13.9856 16.5169 14.1827 16.2741C14.3799 16.0313 14.6231 15.8299 14.8984 15.6815C15.1737 15.5332 15.4757 15.4407 15.7869 15.4095H15.9907C16.3021 15.4119 16.6099 15.4757 16.8967 15.5971C17.1835 15.7185 17.4435 15.8952 17.662 16.1171C17.8805 16.339 18.0531 16.6018 18.17 16.8904C18.2869 17.179 18.3458 17.4879 18.3434 17.7993C18.3319 17.868 18.3165 17.9361 18.2971 18.0031H18.2786Z" fill="white"/>
</g>
</g>
<defs>
<clipPath id="clip0_15897_3104">
<rect width="20" height="20" fill="white" transform="translate(6 6)"/>
</clipPath>
<clipPath id="clip1_15897_3104">
<rect width="20" height="20" fill="white" transform="translate(6 6)"/>
</clipPath>
</defs>
</svg>
