<svg width="29" height="28" viewBox="0 0 29 28" fill="none" xmlns="http://www.w3.org/2000/svg">
<g clip-path="url(#clip0_7854_23977)">
<path d="M13.9468 7.48706C14.2904 7.20675 14.7976 7.22717 15.118 7.54744L20.9513 13.3808L21.0117 13.4469C21.2733 13.7676 21.2734 14.2312 21.0117 14.552L20.9513 14.6181L15.118 20.4514C14.7976 20.7717 14.2904 20.7921 13.9468 20.5118L13.8807 20.4514C13.5391 20.1097 13.5391 19.5558 13.8807 19.2141L17.7225 15.3723C17.8058 15.289 17.8313 15.1633 17.7863 15.0544C17.7411 14.9455 17.6342 14.8744 17.5163 14.8744H8.66602C8.21282 14.8744 7.84018 14.5297 7.79557 14.0883L7.79102 13.9994C7.79112 13.5162 8.18287 13.1244 8.66602 13.1244H17.5163C17.6342 13.1244 17.7412 13.0534 17.7863 12.9444C17.8314 12.8355 17.8058 12.7099 17.7225 12.6265L13.8807 8.78475C13.5391 8.44304 13.5391 7.88911 13.8807 7.54744L13.9468 7.48706Z" fill="#554596"/>
</g>
<defs>
<clipPath id="clip0_7854_23977">
<rect width="28" height="28" fill="white" transform="translate(0.5)"/>
</clipPath>
</defs>
</svg>
