<svg width="40" height="40" viewBox="0 0 40 40" fill="none" xmlns="http://www.w3.org/2000/svg">
<rect width="40" height="40" rx="20" fill="#858889"/>
<g clip-path="url(#clip0_7554_3717)">
<g clip-path="url(#clip1_7554_3717)">
<path d="M12.2523 16.9831H15.3667V27.0056H12.2523V16.9831ZM13.8144 11.9961C14.1736 11.9961 14.5248 12.1028 14.8233 12.3026C15.1219 12.5024 15.3545 12.7863 15.4915 13.1184C15.6285 13.4505 15.6639 13.8158 15.5931 14.168C15.5223 14.5202 15.3485 14.8435 15.0938 15.0968C14.8391 15.3502 14.5149 15.5222 14.1623 15.5911C13.8097 15.66 13.4446 15.6227 13.1133 15.4839C12.7819 15.3451 12.4993 15.111 12.3011 14.8114C12.1029 14.5117 11.9981 14.16 12 13.8007C12 13.5629 12.047 13.3275 12.1383 13.1079C12.2296 12.8883 12.3634 12.6889 12.532 12.5212C12.7006 12.3535 12.9007 12.2208 13.1208 12.1307C13.3408 12.0406 13.5766 11.9948 13.8144 11.9961Z" fill="white"/>
<path d="M17.3268 16.9832H20.3054V18.3512H20.3539C20.6493 17.8451 21.0754 17.4276 21.5874 17.1426C22.0995 16.8575 22.6788 16.7153 23.2646 16.7309C26.4179 16.7309 27 18.8072 27 21.5044V27.0057H23.9244V22.1545C23.9244 20.9902 23.9244 19.4961 22.3041 19.4961C20.6838 19.4961 20.4412 20.7283 20.4412 22.0478V27.0057H17.3268V16.9832Z" fill="white"/>
</g>
</g>
<defs>
<clipPath id="clip0_7554_3717">
<rect width="24" height="24" fill="white" transform="translate(8 8)"/>
</clipPath>
<clipPath id="clip1_7554_3717">
<rect width="24" height="24" fill="white" transform="translate(8 8)"/>
</clipPath>
</defs>
</svg>
