<svg width="24" height="24" viewBox="0 0 24 24" fill="none" xmlns="http://www.w3.org/2000/svg">
<g clip-path="url(#clip0_8830_9912)">
<g clip-path="url(#clip1_8830_9912)">
<path d="M12.0762 6.25391C12.4546 6.29221 12.7501 6.61161 12.7501 7V14.5859C12.7501 14.6871 12.8109 14.7787 12.9044 14.8174C12.9977 14.8559 13.1054 14.8341 13.1768 14.7627L16.4698 11.4697L16.5264 11.418C16.821 11.1778 17.2558 11.1952 17.5303 11.4697L17.5821 11.5264C17.8063 11.8013 17.8063 12.1987 17.5821 12.4736L17.5303 12.5303L12.5303 17.5303C12.2558 17.8048 11.821 17.8222 11.5264 17.582L11.4698 17.5303L6.46979 12.5303C6.1769 12.2374 6.1769 11.7626 6.46979 11.4697L6.52643 11.418C6.82101 11.1778 7.25579 11.1952 7.53034 11.4697L10.8233 14.7627C10.8948 14.8341 11.0024 14.856 11.0958 14.8174C11.1891 14.7787 11.2501 14.687 11.2501 14.5859V7C11.2501 6.58579 11.5859 6.25 12.0001 6.25L12.0762 6.25391Z" fill="#554596"/>
</g>
</g>
<defs>
<clipPath id="clip0_8830_9912">
<rect width="24" height="24" fill="white"/>
</clipPath>
<clipPath id="clip1_8830_9912">
<rect width="24" height="24" fill="white"/>
</clipPath>
</defs>
</svg>
