<svg width="24" height="24" viewBox="0 0 24 24" fill="none" xmlns="http://www.w3.org/2000/svg">
<g clip-path="url(#clip0_6556_9734)">
<path fill-rule="evenodd" clip-rule="evenodd" d="M18.75 4.25C20.4069 4.25 21.75 5.59315 21.75 7.25V16.0547C21.7498 17.7114 20.4067 19.0547 18.75 19.0547H5.25C3.59326 19.0547 2.25018 17.7114 2.25 16.0547V7.25C2.25 5.59315 3.59315 4.25 5.25 4.25H18.75ZM4.13574 7.02344C4.0593 6.9743 3.96188 6.97064 3.88184 7.01367C3.82184 7.04595 3.77818 7.10037 3.75977 7.16406L3.75 7.23047V16.0547C3.75018 16.883 4.42169 17.5547 5.25 17.5547H18.75C19.5783 17.5547 20.2498 16.883 20.25 16.0547V7.55371C20.25 7.46364 20.2014 7.38031 20.123 7.33594C20.0447 7.29167 19.9483 7.29256 19.8711 7.33887L12.3857 11.8311C12.1718 11.9593 11.9102 11.9713 11.6875 11.8691L11.5947 11.8184L4.13574 7.02344ZM5.78027 5.75C5.66934 5.75 5.5713 5.82325 5.54004 5.92969C5.50886 6.03602 5.55139 6.14995 5.64453 6.20996L11.8828 10.2207L11.9463 10.25C12.0126 10.2699 12.0853 10.2613 12.1465 10.2246L18.8311 6.21484L18.8936 6.16113C18.9455 6.09944 18.9657 6.01459 18.9434 5.93359C18.9134 5.8253 18.8145 5.75 18.7021 5.75H5.78027Z" fill="#171819"/>
</g>
<defs>
<clipPath id="clip0_6556_9734">
<rect width="24" height="24" fill="white"/>
</clipPath>
</defs>
</svg>
