<svg width="24" height="24" viewBox="0 0 24 24" fill="none" xmlns="http://www.w3.org/2000/svg">
<g clip-path="url(#clip0_18233_8827)">
<path d="M11.0986 3.0538C11.5127 3.05393 11.8486 3.38967 11.8486 3.8038C11.8485 4.2178 11.5126 4.55367 11.0986 4.5538H5.41211C3.94196 4.5538 2.75 5.74587 2.75 7.21591V18.588C2.75014 20.0579 3.94205 21.2501 5.41211 21.2501H16.7852C18.1632 21.25 19.2962 20.2024 19.4326 18.8604L19.4473 18.588V12.9015C19.4475 12.4875 19.7832 12.1515 20.1973 12.1515C20.6111 12.1517 20.947 12.4876 20.9473 12.9015V18.588L20.9414 18.8028C20.8296 21.0014 19.0115 22.7499 16.7852 22.7501H5.41211C3.18562 22.7501 1.36765 21.0015 1.25586 18.8028L1.25 18.588V7.21591C1.25 4.91739 3.11358 3.0538 5.41211 3.0538H11.0986Z" fill="#171819"/>
<path fill-rule="evenodd" clip-rule="evenodd" d="M17.709 1.67392C18.4499 1.0692 19.5431 1.11146 20.2344 1.80185L22.1963 3.76181L22.3262 3.90536C22.8908 4.59706 22.8914 5.59608 22.3271 6.28817L22.1973 6.43173L12.9346 15.6993C12.7045 15.9294 12.4193 16.0956 12.1074 16.1827L11.9727 16.2149L7.83496 17.0489C7.61935 17.0923 7.39672 17.0386 7.22559 16.9054L7.15625 16.8438C6.97874 16.6662 6.90153 16.4113 6.95117 16.1651L7.78613 12.0323L7.81934 11.8975C7.90642 11.5864 8.07229 11.302 8.30176 11.0724L17.5654 1.80282L17.709 1.67392ZM19.1133 2.81356C18.9845 2.72878 18.8162 2.72874 18.6875 2.81356L18.627 2.86337L9.3623 12.1319C9.32205 12.1722 9.29167 12.2214 9.27246 12.2745L9.25684 12.3292L8.71973 14.9864C8.70324 15.0684 8.72895 15.1538 8.78809 15.213C8.84726 15.272 8.93269 15.2978 9.01465 15.2813L11.6758 14.7452L11.7314 14.7296C11.7847 14.7103 11.8337 14.6791 11.874 14.6388L21.1367 5.37118L21.1865 5.31063C21.2716 5.18181 21.2715 5.01271 21.1865 4.88388L21.1367 4.82333L19.1738 2.86337L19.1133 2.81356Z" fill="#171819"/>
</g>
<defs>
<clipPath id="clip0_18233_8827">
<rect width="24" height="24" fill="white"/>
</clipPath>
</defs>
</svg>
