<svg width="16" height="16" viewBox="0 0 16 16" fill="none" xmlns="http://www.w3.org/2000/svg">
<g clip-path="url(#clip0_1092_4848)">
<path fill-rule="evenodd" clip-rule="evenodd" d="M8.00033 1.99984C4.68662 1.99984 2.00033 4.68613 2.00033 7.99984C2.00033 11.3135 4.68662 13.9998 8.00033 13.9998C11.314 13.9998 14.0003 11.3135 14.0003 7.99984C14.0003 4.68613 11.314 1.99984 8.00033 1.99984ZM0.666992 7.99984C0.666992 3.94975 3.95024 0.666504 8.00033 0.666504C12.0504 0.666504 15.3337 3.94975 15.3337 7.99984C15.3337 12.0499 12.0504 15.3332 8.00033 15.3332C3.95024 15.3332 0.666992 12.0499 0.666992 7.99984Z" fill="#555758"/>
<path fill-rule="evenodd" clip-rule="evenodd" d="M8.00033 7.33317C8.36852 7.33317 8.66699 7.63165 8.66699 7.99984V10.6665C8.66699 11.0347 8.36852 11.3332 8.00033 11.3332C7.63214 11.3332 7.33366 11.0347 7.33366 10.6665V7.99984C7.33366 7.63165 7.63214 7.33317 8.00033 7.33317Z" fill="#555758"/>
<path fill-rule="evenodd" clip-rule="evenodd" d="M7.33366 5.33317C7.33366 4.96498 7.63214 4.6665 8.00033 4.6665H8.00699C8.37518 4.6665 8.67366 4.96498 8.67366 5.33317C8.67366 5.70136 8.37518 5.99984 8.00699 5.99984H8.00033C7.63214 5.99984 7.33366 5.70136 7.33366 5.33317Z" fill="#555758"/>
</g>
<defs>
<clipPath id="clip0_1092_4848">
<rect width="16" height="16" fill="white"/>
</clipPath>
</defs>
</svg>
