<svg width="28" height="28" viewBox="0 0 28 28" fill="none" xmlns="http://www.w3.org/2000/svg">
<path d="M20.125 12.25C20.125 7.90076 16.5992 4.375 12.25 4.375C7.90076 4.375 4.375 7.90076 4.375 12.25C4.375 16.5992 7.90076 20.125 12.25 20.125C14.0998 20.125 15.4891 19.5461 16.4142 18.9743C16.8782 18.6874 17.2255 18.4025 17.4521 18.1938C17.5651 18.0899 17.6476 18.0054 17.6994 17.95C17.7252 17.9224 17.7438 17.9014 17.7541 17.8896C17.7588 17.8843 17.7619 17.8809 17.7632 17.8794C17.9198 17.6905 18.1491 17.5758 18.3944 17.5638C18.641 17.5517 18.8817 17.6444 19.0563 17.819L23.952 22.7147L24.0124 22.7808C24.2927 23.1244 24.2724 23.6316 23.952 23.952C23.6316 24.2723 23.1244 24.2927 22.7808 24.0124L22.7147 23.952L18.4274 19.6647C18.1484 19.9036 17.7849 20.1851 17.3348 20.4634C16.1872 21.1728 14.483 21.875 12.25 21.875C6.93426 21.875 2.625 17.5657 2.625 12.25C2.625 6.93426 6.93426 2.625 12.25 2.625C17.5657 2.625 21.875 6.93426 21.875 12.25C21.875 12.9081 21.8088 13.5519 21.6825 14.1743L21.6608 14.2609C21.5292 14.6843 21.0952 14.9477 20.6514 14.8579C20.1778 14.7618 19.8716 14.2993 19.9678 13.8257L20.0361 13.4417C20.095 13.0535 20.125 12.6556 20.125 12.25Z" fill="white"/>
</svg>
