<svg width="14" height="14" viewBox="0 0 14 14" fill="none" xmlns="http://www.w3.org/2000/svg">
<path d="M6.15576 0.196044C6.4994 -0.0842631 7.00662 -0.0638433 7.32699 0.256428L13.1603 6.08976L13.2207 6.15584C13.4823 6.47659 13.4824 6.94022 13.2207 7.26099L13.1603 7.32707L7.32699 13.1604C7.00663 13.4807 6.49939 13.5011 6.15576 13.2208L6.08968 13.1604C5.74807 12.8187 5.7481 12.2648 6.08968 11.9231L9.93148 8.0813C10.0148 7.99796 10.0402 7.87233 9.99528 7.76343C9.95012 7.65448 9.8432 7.58341 9.72526 7.58341H0.875C0.421806 7.58341 0.0491667 7.23871 0.00455729 6.79728L0 6.70841C0.00010132 6.22521 0.391858 5.83341 0.875 5.83341H9.72526C9.84323 5.83341 9.95014 5.76239 9.99528 5.6534C10.0404 5.54447 10.0148 5.41892 9.93148 5.33553L6.08968 1.49373C5.74807 1.15202 5.7481 0.59809 6.08968 0.256428L6.15576 0.196044Z" fill="#555758"/>
</svg>
