<svg width="28" height="28" viewBox="0 0 28 28" fill="none" xmlns="http://www.w3.org/2000/svg">
<g clip-path="url(#clip0_6396_4483)">
<path d="M23.3332 16.8631C23.8163 16.8631 24.208 17.255 24.2082 17.7381V22.0413C24.2082 22.8024 23.957 23.5425 23.495 24.1366L23.2842 24.3827C22.6865 25.0123 21.8657 25.375 20.9998 25.375H6.99984C6.24198 25.375 5.51847 25.0975 4.94906 24.606L4.71549 24.3827C4.19385 23.833 3.87719 23.1186 3.80632 22.366L3.7915 22.0413V17.7381C3.79169 17.255 4.18337 16.8631 4.6665 16.8631C5.14964 16.8631 5.54132 17.255 5.5415 17.7381V22.0413C5.54153 22.4757 5.70593 22.8834 5.9847 23.1772L6.09294 23.2809C6.35403 23.5064 6.67497 23.625 6.99984 23.625H20.9998C21.3712 23.625 21.7374 23.4697 22.015 23.1772L22.1141 23.0622C22.3323 22.7813 22.4582 22.4215 22.4582 22.0413V17.7381C22.4584 17.255 22.85 16.8631 23.3332 16.8631Z" fill="white"/>
<path d="M14.001 2.625C14.4842 2.625 14.876 3.01675 14.876 3.5V14.6198C14.876 14.7377 14.9471 14.8446 15.056 14.8898C15.1649 14.9349 15.2904 14.9093 15.3739 14.826L18.7166 11.4901L18.7827 11.4297C19.1266 11.1497 19.6339 11.1706 19.9539 11.4912L20.0143 11.5573C20.2755 11.8783 20.2751 12.342 20.0132 12.6624L19.9528 12.7285L14.6196 18.0526C14.2994 18.3722 13.793 18.3915 13.4495 18.1118L13.3835 18.0526L8.04915 12.7285C7.70747 12.3872 7.70704 11.8332 8.04801 11.4912L8.11523 11.4308C8.45865 11.1504 8.96588 11.1701 9.28646 11.4901L12.6281 14.826C12.7115 14.9092 12.8371 14.9348 12.946 14.8898C13.0549 14.8446 13.126 14.7377 13.126 14.6198V3.5C13.126 3.0168 13.5178 2.62509 14.001 2.625Z" fill="white"/>
</g>
<defs>
<clipPath id="clip0_6396_4483">
<rect width="28" height="28" fill="white"/>
</clipPath>
</defs>
</svg>
