<svg width="24" height="24" viewBox="0 0 24 24" fill="none" xmlns="http://www.w3.org/2000/svg">
<g clip-path="url(#clip0_9010_11978)">
<g clip-path="url(#clip1_9010_11978)">
<path fill-rule="evenodd" clip-rule="evenodd" d="M16 1.25C16.4142 1.25 16.75 1.58579 16.75 2V3C16.75 3.13807 16.8619 3.25 17 3.25H19C20.5188 3.25 21.75 4.48122 21.75 6V20C21.75 21.5188 20.5188 22.75 19 22.75H5C3.48122 22.75 2.25 21.5188 2.25 20V6C2.25 4.48122 3.48122 3.25 5 3.25H7C7.13807 3.25 7.25 3.13807 7.25 3V2C7.25 1.58579 7.58579 1.25 8 1.25C8.41421 1.25 8.75 1.58579 8.75 2V3C8.75 3.13807 8.86193 3.25 9 3.25H15C15.1381 3.25 15.25 3.13807 15.25 3V2C15.25 1.58579 15.5858 1.25 16 1.25ZM4 10.75C3.86193 10.75 3.75 10.8619 3.75 11V20C3.75 20.6904 4.30964 21.25 5 21.25H19C19.6904 21.25 20.25 20.6904 20.25 20V11C20.25 10.8619 20.1381 10.75 20 10.75H4ZM5 4.75C4.30964 4.75 3.75 5.30964 3.75 6V9C3.75 9.13807 3.86193 9.25 4 9.25H20C20.1381 9.25 20.25 9.13807 20.25 9V6C20.25 5.30964 19.6904 4.75 19 4.75H17C16.8619 4.75 16.75 4.86193 16.75 5V6C16.75 6.41421 16.4142 6.75 16 6.75C15.5858 6.75 15.25 6.41421 15.25 6V5C15.25 4.86193 15.1381 4.75 15 4.75H9C8.86193 4.75 8.75 4.86193 8.75 5V6C8.75 6.41421 8.41421 6.75 8 6.75C7.58579 6.75 7.25 6.41421 7.25 6V5C7.25 4.86193 7.13807 4.75 7 4.75H5Z" fill="#171819"/>
</g>
</g>
<defs>
<clipPath id="clip0_9010_11978">
<rect width="24" height="24" fill="white"/>
</clipPath>
<clipPath id="clip1_9010_11978">
<rect width="24" height="24" fill="white"/>
</clipPath>
</defs>
</svg>
