<svg width="17" height="16" viewBox="0 0 17 16" fill="none" xmlns="http://www.w3.org/2000/svg">
<path d="M8.02637 0.417855C8.32091 0.177591 8.75567 0.195094 9.03027 0.469613L16.0303 7.46961L16.082 7.52625C16.3063 7.80118 16.3063 8.19858 16.082 8.47352L16.0303 8.53016L9.03027 15.5302C8.75568 15.8047 8.32091 15.8222 8.02637 15.5819L7.96973 15.5302C7.67692 15.2373 7.67695 14.7625 7.96973 14.4696L13.2627 9.17664C13.3341 9.10521 13.3559 8.99753 13.3174 8.90418C13.2787 8.8108 13.187 8.74989 13.0859 8.74989H1.5C1.11155 8.74989 0.792143 8.45443 0.753906 8.07606L0.75 7.99989C0.750087 7.58571 1.08588 7.24989 1.5 7.24989H13.0859C13.1871 7.24989 13.2787 7.18901 13.3174 7.09559C13.356 7.00222 13.3341 6.89461 13.2627 6.82313L7.96973 1.53016C7.67692 1.23726 7.67695 0.762465 7.96973 0.469613L8.02637 0.417855Z" fill="#171819"/>
</svg>
