<svg width="20" height="20" viewBox="0 0 20 20" fill="none" xmlns="http://www.w3.org/2000/svg">
<g clip-path="url(#clip0_8921_730)">
<g clip-path="url(#clip1_8921_730)">
<path d="M17.5946 6.6717C17.5196 6.07993 17.3199 5.51081 17.0087 5.00189C16.816 4.77426 16.5723 4.59528 16.2975 4.47948C16.0226 4.36368 15.7243 4.31433 15.4268 4.33544C13.2297 4.16699 9.99995 4.16699 9.99995 4.16699C9.99995 4.16699 6.74822 4.16699 4.5804 4.33544C4.28182 4.31433 3.98245 4.36365 3.70641 4.47941C3.43037 4.59516 3.18538 4.77413 2.99116 5.00189C2.64559 5.49381 2.44282 6.07171 2.40526 6.6717C2.30146 7.55666 2.24523 8.44655 2.23682 9.33753V10.5899C2.23798 11.4829 2.28687 12.3752 2.38329 13.263C2.46333 13.8536 2.66267 14.4217 2.96919 14.9328C3.443 15.388 4.07005 15.6493 4.72688 15.6652C5.97191 15.8337 9.97797 15.8337 9.97797 15.8337C9.97797 15.8337 13.237 15.8337 15.4048 15.6652C15.7061 15.6739 16.0058 15.6205 16.2855 15.5083C16.5652 15.3962 16.8189 15.2277 17.0307 15.0134C17.3794 14.5231 17.5825 13.9443 17.6166 13.3436C17.713 12.4558 17.7619 11.5635 17.7631 10.6704V9.33753C17.7547 8.44655 17.6984 7.55666 17.5946 6.6717ZM8.00057 12.9261V7.06718L12.8415 9.99666L8.00057 12.9261Z" fill="white"/>
</g>
</g>
<defs>
<clipPath id="clip0_8921_730">
<rect width="20" height="20" fill="white"/>
</clipPath>
<clipPath id="clip1_8921_730">
<rect width="20" height="20" fill="white"/>
</clipPath>
</defs>
</svg>
