<svg width="8" height="8" viewBox="0 0 8 8" fill="none" xmlns="http://www.w3.org/2000/svg">
<path d="M3.68408 0.279017C3.88045 0.118842 4.17029 0.13051 4.35335 0.313523L7.68669 3.64686L7.72119 3.68462C7.87067 3.8679 7.87072 4.13283 7.72119 4.31613L7.68669 4.35389L4.35335 7.68722C4.17029 7.87023 3.88044 7.88189 3.68408 7.72173L3.64632 7.68722C3.45112 7.49196 3.45113 7.17542 3.64632 6.98019L5.84163 4.78488C5.88924 4.73725 5.90379 4.66547 5.87809 4.60324C5.85229 4.54098 5.79119 4.50037 5.7238 4.50037H0.666504C0.407536 4.50037 0.194599 4.3034 0.169108 4.05115L0.166504 4.00037C0.166562 3.72425 0.390423 3.50037 0.666504 3.50037H5.7238C5.79121 3.50037 5.8523 3.45979 5.87809 3.39751C5.90385 3.33526 5.88925 3.26352 5.84163 3.21587L3.64632 1.02055C3.45112 0.82529 3.45113 0.508758 3.64632 0.313523L3.68408 0.279017Z" fill="white"/>
</svg>
