<svg width="18" height="19" viewBox="0 0 18 19" fill="none" xmlns="http://www.w3.org/2000/svg">
<g clip-path="url(#clip0_289_5089)">
<path fill-rule="evenodd" clip-rule="evenodd" d="M1.5 9.5C1.5 5.35786 4.85786 2 9 2C10.1754 2 11.2896 2.2709 12.2817 2.75436C12.654 2.93581 12.8088 3.38476 12.6273 3.75712C12.4459 4.12947 11.9969 4.28423 11.6246 4.10278C10.8327 3.71688 9.94273 3.5 9 3.5C5.68629 3.5 3 6.18629 3 9.5C3 12.8137 5.68629 15.5 9 15.5C12.3137 15.5 15 12.8137 15 9.5C15 9.08579 15.3358 8.75 15.75 8.75C16.1642 8.75 16.5 9.08579 16.5 9.5C16.5 13.6421 13.1421 17 9 17C4.85786 17 1.5 13.6421 1.5 9.5ZM15.0147 4.75092C15.3076 5.04381 15.3076 5.51869 15.0147 5.81158L9.10845 11.7178C8.81556 12.0107 8.34069 12.0107 8.0478 11.7178L6.3603 10.0303C6.0674 9.73744 6.0674 9.26256 6.3603 8.96967C6.65319 8.67678 7.12806 8.67678 7.42095 8.96967L8.57812 10.1268L13.954 4.75092C14.2469 4.45803 14.7218 4.45803 15.0147 4.75092Z" fill="#00983F"/>
</g>
<defs>
<clipPath id="clip0_289_5089">
<rect width="18" height="18" fill="white" transform="translate(0 0.5)"/>
</clipPath>
</defs>
</svg>
