<svg width="48" height="49" viewBox="0 0 48 49" fill="none" xmlns="http://www.w3.org/2000/svg">
<g clip-path="url(#clip0_7132_7949)">
<path d="M24 9C24.8284 9 25.5 9.67157 25.5 10.5V22.5C25.5 22.7761 25.7239 23 26 23H38C38.8284 23 39.5 23.6716 39.5 24.5C39.5 25.3284 38.8284 26 38 26H26C25.7239 26 25.5 26.2239 25.5 26.5V38.5C25.5 39.3284 24.8284 40 24 40C23.1716 40 22.5 39.3284 22.5 38.5V26.5C22.5 26.2239 22.2761 26 22 26H10C9.17157 26 8.5 25.3284 8.5 24.5C8.5 23.6716 9.17157 23 10 23H22C22.2761 23 22.5 22.7761 22.5 22.5V10.5C22.5 9.67157 23.1716 9 24 9Z" fill="#171819"/>
</g>
<defs>
<clipPath id="clip0_7132_7949">
<rect width="48" height="48" fill="white" transform="translate(0 0.5)"/>
</clipPath>
</defs>
</svg>
