<svg width="21" height="20" viewBox="0 0 21 20" fill="none" xmlns="http://www.w3.org/2000/svg">
<g clip-path="url(#clip0_765_115)">
<g clip-path="url(#clip1_765_115)">
<path d="M10.5001 3.54199C10.8453 3.54199 11.1251 3.82181 11.1251 4.16699V9.16699C11.1251 9.28205 11.2184 9.37533 11.3334 9.37533H16.3334C16.6786 9.37533 16.9584 9.65515 16.9584 10.0003C16.9584 10.3455 16.6786 10.6253 16.3334 10.6253H11.3334C11.2184 10.6253 11.1251 10.7186 11.1251 10.8337V15.8337C11.1251 16.1788 10.8453 16.4587 10.5001 16.4587C10.1549 16.4587 9.87508 16.1788 9.87508 15.8337V10.8337C9.87508 10.7186 9.78181 10.6253 9.66675 10.6253H4.66675C4.32157 10.6253 4.04175 10.3455 4.04175 10.0003C4.04175 9.65515 4.32157 9.37533 4.66675 9.37533H9.66675C9.78181 9.37533 9.87508 9.28205 9.87508 9.16699V4.16699C9.87508 3.82181 10.1549 3.54199 10.5001 3.54199Z" fill="#171819"/>
</g>
</g>
<defs>
<clipPath id="clip0_765_115">
<rect width="20" height="20" fill="white" transform="translate(0.5)"/>
</clipPath>
<clipPath id="clip1_765_115">
<rect width="20" height="20" fill="white" transform="translate(0.5)"/>
</clipPath>
</defs>
</svg>
