<svg width="20" height="20" viewBox="0 0 20 20" fill="none" xmlns="http://www.w3.org/2000/svg">
<g clip-path="url(#clip0_11755_3464)">
<path d="M9.60539 3.683C9.85084 3.48278 10.2131 3.49737 10.442 3.72613L16.2753 9.55946L16.3184 9.60667C16.5053 9.83577 16.5053 10.1669 16.3184 10.3961L16.2753 10.4433L10.442 16.2766C10.2132 16.5054 9.85084 16.5199 9.60539 16.3197L9.55819 16.2766C9.31418 16.0325 9.3142 15.6368 9.55819 15.3928L13.969 10.982C14.0285 10.9225 14.0467 10.8327 14.0146 10.7549C13.9823 10.6771 13.9059 10.6264 13.8217 10.6264H4.16675C3.84304 10.6264 3.57687 10.3801 3.545 10.0648L3.54175 10.0014C3.54182 9.65621 3.82165 9.37636 4.16675 9.37636H13.8217C13.906 9.37636 13.9823 9.32563 14.0146 9.24778C14.0468 9.16997 14.0285 9.08029 13.969 9.02073L9.55819 4.60992C9.31418 4.36584 9.3142 3.97018 9.55819 3.72613L9.60539 3.683Z" fill="#13BD99"/>
</g>
<defs>
<clipPath id="clip0_11755_3464">
<rect width="20" height="20" fill="white"/>
</clipPath>
</defs>
</svg>
