<svg width="48" height="48" viewBox="0 0 48 48" fill="none" xmlns="http://www.w3.org/2000/svg">
<g clip-path="url(#clip0_2822_2740)">
<path d="M37.0526 8.83605C37.6418 8.35566 38.5113 8.39044 39.0604 8.93957L39.1639 9.05285C39.6125 9.60268 39.6123 10.3975 39.1639 10.9474L39.0604 11.0607L26.4745 23.6466C26.3809 23.7403 26.3281 23.8676 26.328 24.0001C26.328 24.1326 26.3808 24.2599 26.4745 24.3536L39.0604 36.9396L39.1639 37.0528C39.6125 37.6027 39.6123 38.3975 39.1639 38.9474L39.0604 39.0607C38.5113 39.6098 37.6418 39.6447 37.0526 39.1642L36.9393 39.0607L24.3534 26.4747C24.2597 26.3811 24.1323 26.3283 23.9999 26.3282C23.9006 26.3282 23.804 26.3581 23.7225 26.4122L23.6464 26.4747L11.0604 39.0607C10.5113 39.6098 9.64178 39.6447 9.05262 39.1642L8.93934 39.0607C8.35355 38.4749 8.35355 37.5254 8.93934 36.9396L21.5253 24.3536C21.7201 24.1584 21.7202 23.8417 21.5253 23.6466L8.93934 11.0607C8.35355 10.4749 8.35355 9.52535 8.93934 8.93957L9.05262 8.83605C9.64178 8.35566 10.5113 8.39044 11.0604 8.93957L23.6464 21.5255C23.8416 21.7205 24.1582 21.7205 24.3534 21.5255L36.9393 8.93957L37.0526 8.83605Z" fill="white"/>
</g>
<defs>
<clipPath id="clip0_2822_2740">
<rect width="48" height="48" fill="white"/>
</clipPath>
</defs>
</svg>
