<svg width="24" height="25" viewBox="0 0 24 25" fill="none" xmlns="http://www.w3.org/2000/svg">
<g clip-path="url(#clip0_6114_23199)">
<g clip-path="url(#clip1_6114_23199)">
<path fill-rule="evenodd" clip-rule="evenodd" d="M18 1.75C18.4142 1.75 18.75 2.08579 18.75 2.5V8.5C18.75 8.63807 18.8619 8.75 19 8.75H20C20.7293 8.75 21.4286 9.03994 21.9443 9.55566L22.127 9.75684C22.5281 10.2462 22.75 10.8617 22.75 11.5V16.5C22.75 17.1383 22.5281 17.7538 22.127 18.2432L21.9443 18.4443C21.4286 18.9601 20.7293 19.25 20 19.25H19C18.8619 19.25 18.75 19.3619 18.75 19.5V22.5C18.75 22.9142 18.4142 23.25 18 23.25H6C5.58579 23.25 5.25 22.9142 5.25 22.5V19.5C5.25 19.3619 5.13807 19.25 5 19.25H4C3.36168 19.25 2.74624 19.0281 2.25684 18.627L2.05566 18.4443C1.53994 17.9286 1.25 17.2293 1.25 16.5V11.5C1.25 10.7707 1.53994 10.0714 2.05566 9.55566L2.25684 9.37305C2.74624 8.97192 3.36168 8.75 4 8.75H5C5.13807 8.75 5.25 8.63807 5.25 8.5V2.5C5.25 2.08579 5.58579 1.75 6 1.75H18ZM7 15.25C6.86193 15.25 6.75 15.3619 6.75 15.5V21.5C6.75 21.6381 6.86193 21.75 7 21.75H17C17.1381 21.75 17.25 21.6381 17.25 21.5V15.5C17.25 15.3619 17.1381 15.25 17 15.25H7ZM4 10.25C3.70995 10.25 3.43043 10.351 3.20801 10.5332L3.11621 10.6162C2.88179 10.8506 2.75 11.1685 2.75 11.5V16.5C2.75 16.8315 2.88179 17.1494 3.11621 17.3838L3.20801 17.4668C3.43043 17.649 3.70995 17.75 4 17.75H5C5.13807 17.75 5.25 17.6381 5.25 17.5V14.5C5.25 14.0858 5.58579 13.75 6 13.75H18C18.4142 13.75 18.75 14.0858 18.75 14.5V17.5C18.75 17.6381 18.8619 17.75 19 17.75H20C20.3315 17.75 20.6494 17.6182 20.8838 17.3838L20.9668 17.292C21.149 17.0696 21.25 16.7901 21.25 16.5V11.5C21.25 11.2099 21.149 10.9304 20.9668 10.708L20.8838 10.6162C20.6494 10.3818 20.3315 10.25 20 10.25H4ZM7 3.25C6.86193 3.25 6.75 3.36193 6.75 3.5V8.5C6.75 8.63807 6.86193 8.75 7 8.75H17C17.1381 8.75 17.25 8.63807 17.25 8.5V3.5C17.25 3.36193 17.1381 3.25 17 3.25H7Z" fill="#171819"/>
</g>
</g>
<defs>
<clipPath id="clip0_6114_23199">
<rect width="24" height="24" fill="white" transform="translate(0 0.5)"/>
</clipPath>
<clipPath id="clip1_6114_23199">
<rect width="24" height="24" fill="white" transform="translate(0 0.5)"/>
</clipPath>
</defs>
</svg>
