<svg width="28" height="28" viewBox="0 0 28 28" fill="none" xmlns="http://www.w3.org/2000/svg">
<g clip-path="url(#clip0_2655_715)">
<path d="M13.4475 7.48706C13.7911 7.20675 14.2984 7.22717 14.6187 7.54744L20.4521 13.3808L20.5125 13.4469C20.774 13.7676 20.7741 14.2312 20.5125 14.552L20.4521 14.6181L14.6187 20.4514C14.2984 20.7717 13.7911 20.7921 13.4475 20.5118L13.3814 20.4514C13.0398 20.1097 13.0399 19.5558 13.3814 19.2141L17.2232 15.3723C17.3065 15.289 17.332 15.1633 17.287 15.0544C17.2419 14.9455 17.135 14.8744 17.017 14.8744H8.16675C7.71355 14.8744 7.34091 14.5297 7.29631 14.0883L7.29175 13.9994C7.29185 13.5162 7.68361 13.1244 8.16675 13.1244H17.017C17.135 13.1244 17.2419 13.0534 17.287 12.9444C17.3321 12.8355 17.3066 12.7099 17.2232 12.6265L13.3814 8.78475C13.0398 8.44304 13.0399 7.88911 13.3814 7.54744L13.4475 7.48706Z" fill="#171819"/>
</g>
<defs>
<clipPath id="clip0_2655_715">
<rect width="28" height="28" fill="white"/>
</clipPath>
</defs>
</svg>
