<svg width="24" height="24" viewBox="0 0 24 24" fill="none" xmlns="http://www.w3.org/2000/svg">
<g clip-path="url(#clip0_6284_29587)">
<path d="M17.126 6.34473C17.2221 6.3639 17.314 6.40172 17.3955 6.45605L17.5098 6.5498C17.6502 6.69033 17.7294 6.88142 17.7295 7.08008V15.4805C17.7295 15.8689 17.4341 16.1893 17.0557 16.2275L16.9795 16.2305C16.5655 16.2303 16.2295 15.8946 16.2295 15.4805L16.2305 9.49512L16.2295 8.89062L7.61037 17.5098C7.31754 17.8026 6.84273 17.8025 6.54982 17.5098C6.25727 17.2168 6.25704 16.742 6.54982 16.4492L15.169 7.83008H8.45705C8.04322 7.82972 7.70815 7.49397 7.70802 7.08008L7.71193 7.00293C7.75066 6.62531 8.06927 6.33139 8.45705 6.33105L16.9795 6.33008L17.126 6.34473Z" fill="white"/>
</g>
<defs>
<clipPath id="clip0_6284_29587">
<rect width="24" height="24" fill="white"/>
</clipPath>
</defs>
</svg>
