<svg width="20" height="28" viewBox="0 0 20 28" fill="none" xmlns="http://www.w3.org/2000/svg">
<g clip-path="url(#clip0_5017_11757)">
<path fill-rule="evenodd" clip-rule="evenodd" d="M4.91156 7.37832L3.62817 8.65909C3.45126 8.83564 3.36487 9.02085 3.34326 9.27014C3.29964 9.80454 3.39249 10.4154 3.72075 11.2925L3.72163 11.2948C4.25855 12.7426 5.07418 14.1089 6.3277 15.6169C7.82895 17.4049 9.6312 18.8116 11.6817 19.8026C12.4528 20.1705 13.3853 20.5518 14.351 20.6135L14.3533 20.6136C14.378 20.6152 14.4108 20.6156 14.4735 20.6156C14.8426 20.6156 15.0718 20.5128 15.2895 20.285C15.4411 20.1103 15.7556 19.7908 16.0081 19.5376C16.1453 19.3999 16.2748 19.2713 16.3699 19.1772L16.4014 19.146C16.4154 19.1035 16.4288 19.056 16.4379 19.0086C16.4426 18.9841 16.4457 18.9626 16.4474 18.9441L14.4372 16.938L13.7111 17.6627C13.7093 17.6645 13.7074 17.6664 13.7053 17.6685C13.6132 17.7608 13.206 18.169 12.5423 18.169C12.2708 18.169 12.0221 18.1007 11.7924 17.9861C11.7647 17.9722 11.7423 17.9594 11.7283 17.9511C11.7213 17.9469 11.7147 17.9429 11.7097 17.9398C11.6996 17.9341 11.6897 17.9283 11.6799 17.9222C11.6081 17.8777 11.5152 17.8306 11.3688 17.7576L11.3571 17.7517C11.2109 17.6788 11.0187 17.5829 10.8263 17.4612C9.52038 16.6369 8.34906 15.5699 7.25218 14.2251C7.24267 14.2142 7.23345 14.2031 7.22452 14.1918C6.61285 13.4167 6.18468 12.7334 5.87592 11.9869C5.8685 11.969 5.86172 11.9508 5.85557 11.9324L5.84412 11.8982L5.84002 11.8856C5.79341 11.7382 5.7197 11.47 5.75713 11.1473C5.79565 10.8152 5.94275 10.4944 6.21159 10.2132C6.25148 10.1678 6.28512 10.139 6.29897 10.1272M6.29988 10.1264C6.38435 10.0509 6.43845 10.0041 6.47723 9.97191C6.48965 9.96159 6.50036 9.95288 6.50982 9.94531C6.52138 9.93353 6.5351 9.91947 6.55343 9.90067C6.57788 9.87561 6.61055 9.84211 6.65729 9.79436C6.66298 9.78854 6.66876 9.78281 6.67462 9.77716C6.7417 9.71253 6.80195 9.65167 6.86963 9.58331C6.90741 9.54515 6.94751 9.50465 6.9924 9.45985V9.4589L5.95052 8.41915L5.94151 8.41002C5.88314 8.34995 5.82444 8.29044 5.7636 8.22878C5.70339 8.16774 5.64055 8.10404 5.57867 8.04029C5.34745 7.80198 5.13803 7.58965 4.92132 7.38757C4.91804 7.38451 4.91479 7.38143 4.91156 7.37832M17.1106 19.617L17.8606 19.9802C17.8189 20.0663 17.7628 20.1445 17.6946 20.2115L17.6536 20.2518L17.5423 20.3618C17.4489 20.4542 17.3223 20.58 17.1885 20.7142C16.9081 20.9955 16.6351 21.2753 16.5431 21.3834C16.5345 21.3935 16.5256 21.4035 16.5165 21.4132C15.9666 22 15.2889 22.2822 14.4735 22.2822L14.4659 22.2822C14.4133 22.2823 14.3281 22.2823 14.2426 22.2766L14.2979 21.4451L14.2448 22.2767L14.2426 22.2766C12.943 22.1931 11.7703 21.6916 10.9622 21.3059L10.9586 21.3042C8.69037 20.2084 6.70022 18.6529 5.04985 16.6869L5.0473 16.6839C3.69902 15.0621 2.77485 13.5346 2.15938 11.8755L2.15983 11.8767L2.94029 11.5846L2.15896 11.8743L2.15938 11.8755C1.77842 10.8573 1.61177 9.99103 1.68232 9.13217L1.68255 9.12928C1.73747 8.48804 1.99457 7.93473 2.45086 7.47937L3.75226 6.18064C3.75847 6.17444 3.76477 6.16835 3.77117 6.16235C4.05369 5.89767 4.44588 5.66675 4.92101 5.66675C5.49521 5.66675 5.89269 6.00301 6.06686 6.17683L6.06849 6.17846C6.31341 6.40738 6.54351 6.64129 6.77455 6.87941M17.1106 19.617C17.8606 19.9802 17.8606 19.9802 17.8606 19.9802L17.861 19.9794L17.8626 19.9762L17.8651 19.9709L17.8718 19.9565C17.8769 19.9454 17.8834 19.931 17.8909 19.9137C17.9059 19.8793 17.9252 19.8327 17.9461 19.7764C17.9872 19.6663 18.039 19.5077 18.0743 19.3246C18.1325 19.0236 18.2063 18.3416 17.6943 17.8339L17.6926 17.8321L15.5965 15.7403C15.4099 15.541 15.014 15.2073 14.4468 15.2073C13.861 15.2073 13.4491 15.5695 13.2818 15.7365L12.5338 16.483C12.5319 16.4848 12.5303 16.4864 12.5289 16.4878C12.3929 16.4059 12.246 16.3326 12.1281 16.2738L12.113 16.2663C11.9554 16.1876 11.8323 16.1255 11.7171 16.0526L11.7162 16.052C10.5786 15.334 9.53397 14.389 8.52896 13.1535C8.52483 13.1484 8.52063 13.1434 8.51638 13.1384C7.98605 12.4639 7.6573 11.9251 7.42697 11.3762C7.42504 11.3699 7.42336 11.3643 7.42191 11.3592L7.42429 11.3568C7.49264 11.2958 7.52647 11.267 7.54213 11.254C7.54942 11.2479 7.55312 11.2451 7.55312 11.2451L7.56067 11.2392C7.56502 11.2358 7.57405 11.2288 7.58474 11.22C7.63206 11.1813 7.67028 11.1423 7.6927 11.1195C7.6939 11.1183 7.69617 11.1159 7.69617 11.1159C7.70829 11.1036 7.72556 11.0859 7.74811 11.0628C7.77253 11.0378 7.80314 11.0064 7.84015 10.9686C7.91791 10.8934 7.99916 10.8114 8.07264 10.7372C8.10709 10.7024 8.13983 10.6694 8.1697 10.6396C8.45112 10.3587 8.71779 9.96453 8.71779 9.45938C8.71779 8.95423 8.45112 8.56002 8.1697 8.27918L7.1323 7.2439C7.07101 7.18087 7.0101 7.11912 6.95202 7.06026L6.9497 7.0579C6.88879 6.99616 6.83093 6.93749 6.77455 6.87941" fill="#555758"/>
</g>
<defs>
<clipPath id="clip0_5017_11757">
<rect width="20" height="20" fill="white" transform="translate(0 4)"/>
</clipPath>
</defs>
</svg>
