<svg width="20" height="20" viewBox="0 0 20 20" fill="none" xmlns="http://www.w3.org/2000/svg">
<g clip-path="url(#clip0_6700_54909)">
<path fill-rule="evenodd" clip-rule="evenodd" d="M10.0007 2.37451C14.2115 2.37491 17.6252 5.78891 17.6252 9.99984V16.9993C17.6252 17.3444 17.3452 17.6241 17.0002 17.6243H15.0007C14.1032 17.6243 13.3755 16.8966 13.3755 15.9992V13.9997C13.3755 13.1022 14.1032 12.3745 15.0007 12.3745H16.1668C16.2817 12.3743 16.3752 12.2811 16.3752 12.1662V9.99984C16.3752 6.47927 13.5211 3.62491 10.0007 3.62451C6.47984 3.62451 3.62533 6.47902 3.62533 9.99984V12.1662C3.62533 12.2812 3.7186 12.3745 3.83366 12.3745H5.00065C5.89778 12.3749 6.625 13.1025 6.625 13.9997V15.9992C6.625 16.8964 5.89778 17.624 5.00065 17.6243H3.00033C2.65515 17.6243 2.37451 17.3445 2.37451 16.9993V9.99984C2.37451 5.78867 5.78948 2.37451 10.0007 2.37451ZM3.83366 13.6245C3.7186 13.6245 3.62533 13.7178 3.62533 13.8328V16.166C3.62533 16.2811 3.7186 16.3743 3.83366 16.3743H5.00065C5.20742 16.374 5.375 16.206 5.375 15.9992V13.9997C5.375 13.7928 5.20742 13.6249 5.00065 13.6245H3.83366ZM15.0007 13.6245C14.7935 13.6245 14.6255 13.7926 14.6255 13.9997V15.9992C14.6255 16.2063 14.7935 16.3743 15.0007 16.3743H16.1668C16.2817 16.3741 16.3752 16.2809 16.3752 16.166V13.8328C16.3752 13.7179 16.2817 13.6247 16.1668 13.6245H15.0007Z" fill="#171819"/>
</g>
<defs>
<clipPath id="clip0_6700_54909">
<rect width="20" height="20" fill="white"/>
</clipPath>
</defs>
</svg>
