<svg width="22" height="22" viewBox="0 0 22 22" fill="none" xmlns="http://www.w3.org/2000/svg">
<path d="M7.27902 7.50787C7.96568 7.29294 8.68755 7.20835 9.40695 7.25983L9.71457 7.2901C10.4281 7.37989 11.12 7.60189 11.7527 7.94733C12.476 8.34254 13.1064 8.89068 13.6003 9.55084L13.6433 9.61432C13.826 9.9184 13.7694 10.3108 13.5085 10.5508L13.4499 10.5997C13.1386 10.8326 12.7051 10.7878 12.448 10.5079L12.3991 10.4493C12.0798 10.0224 11.6835 9.6596 11.2312 9.37994L11.0339 9.26569L10.8308 9.16119C10.4196 8.96444 9.97935 8.83531 9.52707 8.77838L9.30051 8.75592C8.76896 8.71786 8.23493 8.77984 7.72727 8.93854L7.51145 9.01178C7.01191 9.19812 6.55252 9.47774 6.15695 9.83307L5.99094 9.98932L2.9968 12.9835L2.99387 12.9874C2.2238 13.788 1.79689 14.8586 1.80637 15.9698L1.8132 16.1788C1.87327 17.2168 2.31303 18.1999 3.05148 18.9385L3.20285 19.0821C3.97341 19.7805 4.97567 20.1736 6.02023 20.1827L6.22824 20.1797C7.26445 20.1379 8.25295 19.7182 9.00363 18.9962L9.00656 18.9922L10.7097 17.2891L10.7673 17.2383C11.0617 16.9984 11.4956 17.015 11.7702 17.2891L11.822 17.3467C12.046 17.6216 12.0461 18.0182 11.822 18.293L11.7702 18.3497L10.0603 20.0596L10.0534 20.0674L10.0515 20.0694C9.03487 21.0512 7.69462 21.6221 6.28879 21.6788L6.00656 21.6827C4.59323 21.6703 3.23735 21.1383 2.19504 20.1934L1.99094 19.9991C0.991771 18.9998 0.397469 17.6699 0.316133 16.2657L0.306367 15.9835C0.293332 14.476 0.873327 13.023 1.92063 11.9385L1.92453 11.9346L1.93625 11.9219L4.92941 8.92975L5.15402 8.71783C5.68934 8.23702 6.31128 7.85959 6.98703 7.60748L7.27902 7.50787Z" fill="#171819"/>
<path d="M15.9939 0.316467C17.5012 0.329622 18.9434 0.935143 20.0095 2.00104L20.2038 2.20514C21.1487 3.2474 21.6806 4.60341 21.6931 6.01666L21.6892 6.29889C21.6326 7.7033 21.0627 9.0424 20.0827 10.0587L20.0779 10.0635L17.07 13.0704C16.56 13.5805 15.9592 13.99 15.2995 14.2774L15.0134 14.3926C14.3374 14.6447 13.6206 14.7677 12.9011 14.7549L12.5935 14.7413C11.8739 14.6897 11.1704 14.5032 10.5212 14.1924L10.2468 14.0518C9.61381 13.7059 9.05182 13.2445 8.59055 12.6924L8.39914 12.4503C8.15126 12.1187 8.21976 11.6476 8.55149 11.3995L8.61496 11.3565C8.9406 11.1613 9.36778 11.2411 9.60031 11.5518L9.74191 11.7305C10.0828 12.1386 10.4978 12.4798 10.9655 12.7354L11.1696 12.8389C11.6496 13.0685 12.1691 13.2071 12.7009 13.2452L12.9284 13.2549C13.4603 13.2644 13.9904 13.1737 14.49 12.9874L14.7009 12.9024C15.1886 12.69 15.6325 12.3869 16.0095 12.0098L19.0027 9.01666L19.0066 9.01373C19.7286 8.26305 20.1483 7.27451 20.1902 6.23834L20.1931 6.03033C20.184 4.98585 19.7908 3.98345 19.0925 3.21295L18.9489 3.06158C18.2103 2.32313 17.2272 1.88337 16.1892 1.8233L15.9802 1.81647C14.9381 1.80753 13.9317 2.18253 13.1501 2.86432L12.9968 3.00494L12.9939 3.00787L11.279 4.71295C11.0038 4.98627 10.569 5.00186 10.2751 4.7608L10.2185 4.70905C9.92657 4.41513 9.9279 3.94029 10.2214 3.6485L11.9421 1.93854L11.9489 1.93073C12.9656 0.948982 14.3061 0.37818 15.7116 0.32135L15.9939 0.316467Z" fill="#171819"/>
</svg>
