<svg width="32" height="32" viewBox="0 0 32 32" fill="none" xmlns="http://www.w3.org/2000/svg">
<rect width="32" height="32" rx="16" fill="#555758"/>
<g clip-path="url(#clip0_15897_6002)">
<g clip-path="url(#clip1_15897_6002)">
<path d="M20.8965 11.9892C20.8965 12.2281 20.8016 12.4571 20.6328 12.626C20.4639 12.7948 20.2349 12.8897 19.9961 12.8897C19.7572 12.8897 19.5282 12.7948 19.3593 12.626C19.1905 12.4571 19.0956 12.2281 19.0956 11.9892C19.0956 11.7504 19.1905 11.5214 19.3593 11.3525C19.5282 11.1837 19.7572 11.0888 19.9961 11.0888C20.2349 11.0888 20.4639 11.1837 20.6328 11.3525C20.8016 11.5214 20.8965 11.7504 20.8965 11.9892ZM15.9966 18.48C15.3585 18.445 14.7581 18.1669 14.3188 17.7028C13.8795 17.2387 13.6347 16.624 13.6347 15.985C13.6347 15.346 13.8795 14.7312 14.3188 14.2672C14.7581 13.8031 15.3585 13.525 15.9966 13.49C16.3357 13.4714 16.6751 13.5221 16.994 13.6391C17.3129 13.7561 17.6046 13.9369 17.8512 14.1704C18.0979 14.4039 18.2944 14.6852 18.4287 14.9972C18.5629 15.3092 18.6322 15.6453 18.6322 15.985C18.6322 16.3247 18.5629 16.6608 18.4287 16.9728C18.2944 17.2848 18.0979 17.5661 17.8512 17.7996C17.6046 18.0331 17.3129 18.2139 16.994 18.3309C16.6751 18.4479 16.3357 18.4986 15.9966 18.48ZM15.9966 12.1393C15.2383 12.1423 14.4979 12.3696 13.8686 12.7925C13.2392 13.2155 12.7491 13.8152 12.46 14.5162C12.1709 15.2172 12.0956 15.988 12.2437 16.7317C12.3918 17.4753 12.7567 18.1585 13.2923 18.6952C13.828 19.2319 14.5105 19.5981 15.2538 19.7477C15.9972 19.8972 16.7682 19.8235 17.4697 19.5357C18.1713 19.2479 18.7719 18.759 19.1961 18.1305C19.6203 17.502 19.849 16.762 19.8535 16.0038C19.8535 15.4986 19.7539 14.9984 19.5603 14.5318C19.3668 14.0652 19.0831 13.6413 18.7256 13.2844C18.368 12.9276 17.9436 12.6448 17.4766 12.4521C17.0096 12.2595 16.5092 12.1608 16.0041 12.1618L15.9966 12.1393ZM15.9966 9.88819C18.0001 9.88819 18.2477 9.88819 18.9981 9.93322C19.4723 9.93513 19.9423 10.0215 20.3862 10.1883C20.7243 10.3025 21.0304 10.4954 21.2792 10.7511C21.528 10.9909 21.7203 11.2831 21.842 11.6066C22.0037 12.0391 22.0924 12.4956 22.1046 12.9572C22.1421 13.7076 22.1496 13.9852 22.1496 15.9587C22.1496 17.9322 22.1496 18.2099 22.1046 18.9602C22.1028 19.4369 22.0164 19.9094 21.8495 20.3559C21.7316 20.6962 21.5364 21.0044 21.2792 21.2564C21.0379 21.5069 20.7428 21.6994 20.4163 21.8192C19.9714 21.9824 19.5019 22.0687 19.0281 22.0743C18.2777 22.1118 18.0001 22.1193 16.0266 22.1193C14.0531 22.1193 13.7754 22.1193 13.0251 22.0743C12.5387 22.0715 12.0565 21.9852 11.5994 21.8192C11.2679 21.7004 10.9677 21.508 10.7214 21.2564C10.4706 21.0183 10.278 20.7255 10.1586 20.401C9.99296 19.9539 9.90416 19.482 9.89601 19.0053C9.89601 18.2174 9.85849 17.9847 9.85849 16.0038C9.85849 14.0228 9.85849 13.7526 9.89601 13.0023C9.90414 12.528 9.99295 12.0585 10.1586 11.6141C10.2835 11.2832 10.4762 10.9821 10.7243 10.7301C10.9724 10.4781 11.2705 10.2808 11.5994 10.1508C12.046 9.98451 12.5185 9.89815 12.9951 9.8957C13.7454 9.85068 14.0156 9.85068 15.9966 9.85068V9.88819ZM15.9966 8.53752C13.963 8.53752 13.7079 8.53752 12.9125 8.58254C12.2894 8.59187 11.6725 8.70864 11.0891 8.92771C10.5908 9.11916 10.1383 9.41313 9.76087 9.79058C9.38342 10.168 9.08946 10.6205 8.89801 11.1188C8.67832 11.6995 8.56151 12.314 8.55283 12.9347C8.55283 13.7301 8.50781 13.9852 8.50781 16.0188C8.50781 18.0523 8.50781 18.3074 8.55283 19.1028C8.56151 19.7236 8.67832 20.3381 8.89801 20.9187C9.08946 21.417 9.38342 21.8695 9.76087 22.2469C10.1383 22.6244 10.5908 22.9184 11.0891 23.1098C11.6725 23.3289 12.2894 23.4457 12.9125 23.455C13.7079 23.4925 13.963 23.5 15.9966 23.5C18.0301 23.5 18.2927 23.5 19.0881 23.455C19.7112 23.4457 20.3281 23.3289 20.9115 23.1098C21.4079 22.9167 21.8586 22.622 22.2346 22.2447C22.6106 21.8674 22.9037 21.4158 23.0951 20.9187C23.3136 20.3375 23.4329 19.7236 23.4478 19.1028C23.4478 18.3074 23.4928 18.0523 23.4928 16.0188C23.4928 13.9852 23.4928 13.7676 23.4478 12.9347C23.4329 12.3139 23.3136 11.7001 23.0951 11.1188C22.9087 10.618 22.614 10.1645 22.2322 9.79065C21.8559 9.41177 21.4031 9.11757 20.904 8.92771C20.3291 8.70109 19.7205 8.57176 19.1031 8.54502C18.2852 8.5 18.0301 8.5 15.9966 8.5V8.53752Z" fill="white"/>
</g>
</g>
<defs>
<clipPath id="clip0_15897_6002">
<rect width="20" height="20" fill="white" transform="translate(6 6)"/>
</clipPath>
<clipPath id="clip1_15897_6002">
<rect width="20" height="20" fill="white" transform="translate(6 6)"/>
</clipPath>
</defs>
</svg>
