<svg width="32" height="32" viewBox="0 0 32 32" fill="none" xmlns="http://www.w3.org/2000/svg">
<g clip-path="url(#clip0_363_4296)">
<path d="M8.77358 23.5724C8.40924 23.9369 8.40914 24.5277 8.77358 24.8922C9.13804 25.2565 9.72892 25.2565 10.0934 24.8922L18.4095 16.576C18.7512 16.2343 18.7728 15.6933 18.4739 15.3267L18.4095 15.2562L10.0934 6.94009L10.0229 6.87568C9.6563 6.57663 9.11531 6.59836 8.77358 6.94009C8.43185 7.28182 8.41012 7.8228 8.70917 8.18939L8.77358 8.25988L16.4298 15.9161L8.77358 23.5724Z" fill="#B4B8BA"/>
<path d="M22.5 24.3998C22.5 24.9153 22.0821 25.3332 21.5667 25.3332C21.0512 25.3332 20.6333 24.9153 20.6333 24.3998L20.6333 7.59984C20.6333 7.08437 21.0512 6.6665 21.5667 6.6665C22.0821 6.6665 22.5 7.08437 22.5 7.59984L22.5 24.3998Z" fill="#B4B8BA"/>
</g>
<defs>
<clipPath id="clip0_363_4296">
<rect width="32" height="32" fill="white"/>
</clipPath>
</defs>
</svg>
