<svg width="24" height="24" viewBox="0 0 24 24" fill="none" xmlns="http://www.w3.org/2000/svg">
<path d="M20 14.4541C20.4141 14.4541 20.7498 14.79 20.75 15.2041V18.8926C20.75 19.5449 20.5347 20.1793 20.1387 20.6885L19.958 20.8994C19.4457 21.4391 18.7422 21.75 18 21.75H6C5.3504 21.75 4.73026 21.5121 4.24219 21.0908L4.04199 20.8994C3.59487 20.4283 3.32344 19.816 3.2627 19.1709L3.25 18.8926V15.2041C3.25016 14.79 3.58588 14.4541 4 14.4541C4.41412 14.4541 4.74984 14.79 4.75 15.2041V18.8926C4.75002 19.2649 4.89093 19.6144 5.12988 19.8662L5.22266 19.9551C5.44645 20.1483 5.72154 20.25 6 20.25H18C18.3183 20.25 18.6322 20.1169 18.8701 19.8662L18.9551 19.7676C19.1422 19.5268 19.25 19.2184 19.25 18.8926V15.2041C19.2502 14.79 19.5859 14.4541 20 14.4541Z" fill="#171819"/>
<path d="M12.001 2.25C12.4152 2.25 12.751 2.58579 12.751 3V12.5312C12.751 12.6323 12.8119 12.724 12.9053 12.7627C12.9986 12.8014 13.1062 12.7794 13.1777 12.708L16.043 9.84863L16.0996 9.79688C16.3944 9.55691 16.8292 9.57478 17.1035 9.84961L17.1553 9.90625C17.3792 10.1814 17.3788 10.5788 17.1543 10.8535L17.1025 10.9102L12.5312 15.4736C12.2568 15.7476 11.8227 15.7642 11.5283 15.5244L11.4717 15.4736L6.89941 10.9102C6.60654 10.6176 6.60617 10.1427 6.89844 9.84961L6.95605 9.79785C7.25041 9.55748 7.68518 9.57435 7.95996 9.84863L10.8242 12.708C10.8957 12.7793 11.0034 12.8012 11.0967 12.7627C11.19 12.724 11.251 12.6323 11.251 12.5312V3C11.251 2.58583 11.5868 2.25008 12.001 2.25Z" fill="#171819"/>
</svg>
