<svg width="28" height="28" viewBox="0 0 28 28" fill="none" xmlns="http://www.w3.org/2000/svg">
<g clip-path="url(#clip0_8745_10751)">
<g clip-path="url(#clip1_8745_10751)">
<path d="M13.4474 5.15405C13.791 4.87374 14.2983 4.89416 14.6186 5.21444L22.7853 13.3811L22.8457 13.4472C23.1073 13.7679 23.1074 14.2316 22.8457 14.5523L22.7853 14.6184L14.6186 22.7851C14.2983 23.1054 13.791 23.1257 13.4474 22.8455L13.3813 22.7851C13.0397 22.4434 13.0398 21.8894 13.3813 21.5478L19.5565 15.3726C19.6398 15.2893 19.6652 15.1637 19.6203 15.0548C19.5751 14.9458 19.4682 14.8748 19.3502 14.8748H5.83331C5.38012 14.8748 5.00748 14.5301 4.96287 14.0886L4.95831 13.9998C4.95841 13.5166 5.35017 13.1248 5.83331 13.1248H19.3502C19.4682 13.1248 19.5751 13.0537 19.6203 12.9447C19.6653 12.8358 19.6398 12.7103 19.5565 12.6269L13.3813 6.45174C13.0397 6.11003 13.0398 5.5561 13.3813 5.21444L13.4474 5.15405Z" fill="white"/>
</g>
</g>
<defs>
<clipPath id="clip0_8745_10751">
<rect width="28" height="28" fill="white"/>
</clipPath>
<clipPath id="clip1_8745_10751">
<rect width="28" height="28" fill="white"/>
</clipPath>
</defs>
</svg>
