<svg width="36" height="36" viewBox="0 0 36 36" fill="none" xmlns="http://www.w3.org/2000/svg">
<path d="M0 18C0 8.05888 8.05888 0 18 0C27.9411 0 36 8.05888 36 18C36 27.9411 27.9411 36 18 36C8.05888 36 0 27.9411 0 18Z" fill="#555758"/>
<g clip-path="url(#clip0_6267_4628)">
<path d="M22.1496 13.2754L22.2727 13.2871C22.3525 13.3031 22.4285 13.3347 22.4963 13.3799L22.592 13.458C22.709 13.5752 22.7756 13.7348 22.7756 13.9004L22.7746 20.9004C22.7746 21.2241 22.5284 21.4906 22.2131 21.5225L22.1496 21.5254C21.8046 21.5252 21.5246 21.2455 21.5246 20.9004L21.5256 15.9121L21.5246 15.4092L14.342 22.5918C14.098 22.8356 13.7023 22.8356 13.4582 22.5918C13.2145 22.3478 13.2144 21.952 13.4582 21.708L20.6408 14.5244L15.0481 14.5254C14.703 14.5253 14.4232 14.2454 14.4231 13.9004L14.427 13.8359C14.4592 13.5211 14.7247 13.2755 15.0481 13.2754H22.1496Z" fill="white"/>
</g>
<defs>
<clipPath id="clip0_6267_4628">
<rect width="20" height="20" fill="white" transform="translate(8 8)"/>
</clipPath>
</defs>
</svg>
