<svg width="32" height="32" viewBox="0 0 32 32" fill="none" xmlns="http://www.w3.org/2000/svg">
<g clip-path="url(#clip0_363_4243)">
<path d="M22.2264 23.5724C22.5908 23.9369 22.5909 24.5277 22.2264 24.8922C21.862 25.2565 21.2711 25.2565 20.9066 24.8922L12.5905 16.576C12.2488 16.2343 12.2272 15.6933 12.5261 15.3267L12.5905 15.2562L20.9066 6.94009L20.9771 6.87568C21.3437 6.57663 21.8847 6.59836 22.2264 6.94009C22.5681 7.28182 22.5899 7.8228 22.2908 8.18939L22.2264 8.25988L14.5702 15.9161L22.2264 23.5724Z" fill="#171819"/>
<path d="M8.5 24.3998C8.5 24.9153 8.91787 25.3332 9.43333 25.3332C9.9488 25.3332 10.3667 24.9153 10.3667 24.3998L10.3667 7.59984C10.3667 7.08437 9.9488 6.6665 9.43333 6.6665C8.91787 6.6665 8.5 7.08437 8.5 7.59984L8.5 24.3998Z" fill="#171819"/>
</g>
<defs>
<clipPath id="clip0_363_4243">
<rect width="32" height="32" fill="white"/>
</clipPath>
</defs>
</svg>
