<svg width="18" height="19" viewBox="0 0 18 19" fill="none" xmlns="http://www.w3.org/2000/svg">
<g clip-path="url(#clip0_289_5072)">
<path fill-rule="evenodd" clip-rule="evenodd" d="M9 3.5C5.68629 3.5 3 6.18629 3 9.5C3 12.8137 5.68629 15.5 9 15.5C12.3137 15.5 15 12.8137 15 9.5C15 6.18629 12.3137 3.5 9 3.5ZM1.5 9.5C1.5 5.35786 4.85786 2 9 2C13.1421 2 16.5 5.35786 16.5 9.5C16.5 13.6421 13.1421 17 9 17C4.85786 17 1.5 13.6421 1.5 9.5ZM9 5.375C9.41421 5.375 9.75 5.71079 9.75 6.125V9.5C9.75 9.91421 9.41421 10.25 9 10.25C8.58579 10.25 8.25 9.91421 8.25 9.5V6.125C8.25 5.71079 8.58579 5.375 9 5.375ZM9 11.2516C9.41421 11.2516 9.75 11.5874 9.75 12.0016V12.0312C9.75 12.4455 9.41421 12.7812 9 12.7812C8.58579 12.7812 8.25 12.4455 8.25 12.0312V12.0016C8.25 11.5874 8.58579 11.2516 9 11.2516Z" fill="#F3342D"/>
</g>
<defs>
<clipPath id="clip0_289_5072">
<rect width="18" height="18" fill="white" transform="translate(0 0.5)"/>
</clipPath>
</defs>
</svg>
