<svg width="20" height="20" viewBox="0 0 20 20" fill="none" xmlns="http://www.w3.org/2000/svg">
<g clip-path="url(#clip0_6267_4629)">
<path d="M14.1496 5.27539L14.2727 5.28711C14.3525 5.3031 14.4285 5.33475 14.4963 5.37988L14.592 5.45801C14.709 5.57518 14.7756 5.73477 14.7756 5.90039L14.7746 12.9004C14.7746 13.2241 14.5284 13.4906 14.2131 13.5225L14.1496 13.5254C13.8046 13.5252 13.5246 13.2455 13.5246 12.9004L13.5256 7.91211L13.5246 7.40918L6.342 14.5918C6.098 14.8356 5.70225 14.8356 5.45821 14.5918C5.21448 14.3478 5.21442 13.952 5.45821 13.708L12.6408 6.52441L7.04806 6.52539C6.70303 6.52529 6.42316 6.24542 6.42306 5.90039L6.42696 5.83594C6.45918 5.52107 6.7247 5.27549 7.04806 5.27539H14.1496Z" fill="white"/>
</g>
<defs>
<clipPath id="clip0_6267_4629">
<rect width="20" height="20" fill="white"/>
</clipPath>
</defs>
</svg>
