<svg width="40" height="40" viewBox="0 0 40 40" fill="none" xmlns="http://www.w3.org/2000/svg">
<rect width="40" height="40" rx="20" fill="#858889"/>
<g clip-path="url(#clip0_7554_1329)">
<path d="M19.0127 10.5098C19.6652 10.1383 20.4884 10.1654 21.1162 10.5899L28.916 15.8643L29.0098 15.9317C29.4111 16.2397 29.677 16.6945 29.7373 17.1973L29.75 17.416V27.2881C29.75 28.5944 28.7161 29.6148 27.4551 29.7373L27.2002 29.75H12.7998C11.4262 29.7499 10.25 28.6815 10.25 27.2881V17.416C10.2502 16.788 10.5699 16.212 11.084 15.8643L18.8838 10.5899L19.0127 10.5098ZM15.5 25C15.0859 25 14.7502 25.336 14.75 25.75C14.75 26.1642 15.0858 26.5 15.5 26.5H24.5C24.9142 26.5 25.25 26.1642 25.25 25.75C25.2498 25.336 24.9141 25 24.5 25H15.5Z" fill="white"/>
</g>
<defs>
<clipPath id="clip0_7554_1329">
<rect width="24" height="24" fill="white" transform="translate(8 8)"/>
</clipPath>
</defs>
</svg>
