<svg width="24" height="24" viewBox="0 0 24 24" fill="none" xmlns="http://www.w3.org/2000/svg">
<g clip-path="url(#clip0_1637_7045)">
<path fill-rule="evenodd" clip-rule="evenodd" d="M12.5537 1.26367C18.0558 1.54275 22.467 5.95938 22.7373 11.4639L22.75 12C22.75 17.9371 17.9371 22.75 12 22.75C6.06294 22.75 1.25 17.9371 1.25 12C1.25 6.06424 6.06083 1.25211 11.9961 1.25L12.5537 1.26367ZM8.64746 12.75C8.57924 12.75 8.51396 12.7779 8.4668 12.8271C8.41963 12.8765 8.39436 12.9435 8.39746 13.0117C8.50058 15.2807 8.94579 17.2915 9.59277 18.7705L9.73438 19.0781C10.0699 19.7747 10.4411 20.31 10.8184 20.6748L10.958 20.8018C11.2799 21.0766 11.5841 21.2102 11.8662 21.2422L11.8809 21.2441L11.9863 21.25H12C12.3554 21.25 12.7536 21.0886 13.1816 20.6748L13.3428 20.5078C13.7175 20.0946 14.0825 19.5126 14.4072 18.7705L14.5254 18.4863C15.1078 17.0385 15.5059 15.1388 15.6025 13.0117C15.6056 12.9435 15.5804 12.8765 15.5332 12.8271C15.486 12.7779 15.4208 12.75 15.3525 12.75H8.64746ZM3.05664 12.75C2.98555 12.75 2.91754 12.7801 2.87012 12.833C2.82273 12.8859 2.80081 12.9567 2.80859 13.0273L2.84766 13.3379C3.31049 16.5318 5.40419 19.1949 8.25684 20.459C8.35449 20.5023 8.46938 20.4787 8.54199 20.4004C8.61442 20.3221 8.62942 20.2063 8.5791 20.1123C8.51555 19.994 8.45352 19.8726 8.39355 19.749L8.21973 19.3711C7.47682 17.6729 6.9986 15.443 6.89648 12.9893C6.89074 12.8555 6.7804 12.75 6.64648 12.75H3.05664ZM17.3535 12.75C17.2364 12.75 17.1371 12.8307 17.1104 12.9404L17.1035 12.9893C17.0078 15.2897 16.582 17.3936 15.917 19.0469L15.7803 19.3711C15.6681 19.6274 15.5472 19.8753 15.4199 20.1123C15.3696 20.2063 15.3846 20.3221 15.457 20.4004C15.5296 20.4787 15.6445 20.5022 15.7422 20.459C18.6872 19.1543 20.823 16.3589 21.1914 13.0273C21.1992 12.9567 21.1773 12.8859 21.1299 12.833C21.0825 12.7801 21.0144 12.75 20.9434 12.75H17.3535ZM8.25684 3.54004C5.31204 4.84486 3.17693 7.64132 2.80859 10.9727C2.80081 11.0433 2.82273 11.1141 2.87012 11.167C2.91754 11.2199 2.98555 11.25 3.05664 11.25H6.64648C6.7804 11.25 6.89074 11.1445 6.89648 11.0107C6.9986 8.55699 7.47682 6.32712 8.21973 4.62891L8.39355 4.25C8.45346 4.12627 8.51558 4.00496 8.5791 3.88672L8.60449 3.81348C8.61835 3.7375 8.59643 3.65745 8.54199 3.59863C8.46938 3.52029 8.3545 3.49677 8.25684 3.54004ZM12 2.75C11.689 2.75 11.3453 2.87355 10.9775 3.18164L10.8184 3.3252C10.4411 3.68997 10.0699 4.22529 9.73438 4.92188L9.59277 5.22949C8.94579 6.70848 8.50058 8.71927 8.39746 10.9883C8.39436 11.0565 8.41963 11.1235 8.4668 11.1729C8.51396 11.2221 8.57924 11.25 8.64746 11.25H15.3525C15.4208 11.25 15.486 11.2221 15.5332 11.1729C15.5804 11.1235 15.6056 11.0565 15.6025 10.9883C15.5059 8.86116 15.1078 6.96148 14.5254 5.51367L14.4072 5.22949C14.0825 4.48739 13.7175 3.9054 13.3428 3.49219L13.1816 3.3252C12.7536 2.9114 12.3554 2.75 12 2.75ZM15.7422 3.54004C15.6445 3.49678 15.5296 3.52029 15.457 3.59863C15.3846 3.67689 15.3696 3.79273 15.4199 3.88672C15.5473 4.12372 15.6679 4.37203 15.7803 4.62891L15.917 4.95312C16.582 6.60638 17.0078 8.71031 17.1035 11.0107C17.1093 11.1445 17.2196 11.25 17.3535 11.25H20.9434C21.0144 11.25 21.0825 11.2199 21.1299 11.167C21.1773 11.1141 21.1992 11.0433 21.1914 10.9727C20.823 7.64099 18.6874 4.84469 15.7422 3.54004Z" fill="#171819"/>
</g>
<defs>
<clipPath id="clip0_1637_7045">
<rect width="24" height="24" fill="white"/>
</clipPath>
</defs>
</svg>
