<svg width="21" height="20" viewBox="0 0 21 20" fill="none" xmlns="http://www.w3.org/2000/svg">
<g clip-path="url(#clip0_8921_568)">
<g clip-path="url(#clip1_8921_568)">
<path d="M3.32601 7.20793H6.26555V16.6676H3.32601V7.20793ZM4.80036 2.501C5.13944 2.50101 5.47088 2.60167 5.75269 2.79025C6.03449 2.97882 6.25397 3.24681 6.38331 3.56025C6.51265 3.8737 6.54602 4.21848 6.4792 4.55091C6.41238 4.88334 6.24837 5.18845 6.00796 5.42757C5.76756 5.66669 5.46157 5.82906 5.12879 5.89409C4.79601 5.95913 4.45141 5.92391 4.13866 5.79289C3.82592 5.66188 3.55911 5.44096 3.37205 5.15815C3.18499 4.87534 3.0861 4.54336 3.08792 4.20429C3.08791 3.97984 3.13227 3.7576 3.21844 3.55035C3.30461 3.34309 3.43089 3.15492 3.59003 2.99663C3.74917 2.83835 3.93802 2.71308 4.14573 2.62802C4.35344 2.54296 4.57591 2.49979 4.80036 2.501Z" fill="white"/>
<path d="M8.11555 7.20799H10.9269V8.49919H10.9727C11.2515 8.02148 11.6536 7.62748 12.1369 7.35844C12.6202 7.0894 13.167 6.95521 13.7199 6.9699C16.6961 6.9699 17.2455 8.92959 17.2455 11.4754V16.6676H14.3426V12.0889C14.3426 10.99 14.3426 9.57977 12.8133 9.57977C11.284 9.57977 11.0551 10.7428 11.0551 11.9882V16.6676H8.11555V7.20799Z" fill="white"/>
</g>
</g>
<defs>
<clipPath id="clip0_8921_568">
<rect width="20" height="20" fill="white" transform="translate(0.666748)"/>
</clipPath>
<clipPath id="clip1_8921_568">
<rect width="20" height="20" fill="white" transform="translate(0.666748)"/>
</clipPath>
</defs>
</svg>
