<svg width="40" height="40" viewBox="0 0 40 40" fill="none" xmlns="http://www.w3.org/2000/svg">
<rect width="40" height="40" rx="20" fill="#858889"/>
<g clip-path="url(#clip0_7554_1353)">
<g clip-path="url(#clip1_7554_1353)">
<path d="M17.4851 18.0913V11.9824H14V27.824H17.4851V26.2596C17.872 26.8258 18.3969 27.2839 19.0103 27.5906C19.6236 27.8973 20.305 28.0424 20.9901 28.0121C23.7723 28.0121 26 25.725 26 22.1408C26 18.5567 23.802 16.3191 20.9901 16.3191C20.3032 16.291 19.6206 16.4391 19.0071 16.7493C18.3936 17.0595 17.8697 17.5215 17.4851 18.0913ZM22.4356 22.1408C22.5079 22.8181 22.3088 23.4963 21.8819 24.0271C21.4551 24.5578 20.8354 24.8978 20.1584 24.9725H20C19.665 24.9661 19.3345 24.8936 19.0276 24.7591C18.7207 24.6246 18.4433 24.4308 18.2115 24.1889C17.9797 23.9469 17.7979 23.6616 17.6767 23.3492C17.5554 23.0368 17.4971 22.7036 17.505 22.3686C17.5 22.2993 17.5 22.2299 17.505 22.1606C17.4693 21.8282 17.4998 21.4921 17.5947 21.1715C17.6895 20.8509 17.8468 20.5523 18.0576 20.2928C18.2683 20.0332 18.5283 19.818 18.8226 19.6594C19.1169 19.5007 19.4396 19.4019 19.7723 19.3686H19.9901C20.323 19.3712 20.652 19.4393 20.9586 19.5691C21.2651 19.6988 21.5431 19.8877 21.7766 20.1249C22.0101 20.3621 22.1946 20.643 22.3196 20.9515C22.4446 21.26 22.5076 21.5902 22.505 21.923C22.4927 21.9965 22.4762 22.0693 22.4554 22.1408H22.4356Z" fill="white"/>
</g>
</g>
<defs>
<clipPath id="clip0_7554_1353">
<rect width="24" height="24" fill="white" transform="translate(8 8)"/>
</clipPath>
<clipPath id="clip1_7554_1353">
<rect width="24" height="24" fill="white" transform="translate(8 8)"/>
</clipPath>
</defs>
</svg>
