<svg width="21" height="20" viewBox="0 0 21 20" fill="none" xmlns="http://www.w3.org/2000/svg">
<path fill-rule="evenodd" clip-rule="evenodd" d="M11.4987 0.25C16.3307 0.250248 20.2478 4.16772 20.2478 9C20.2478 10.1553 20.0238 11.2601 19.6159 12.2715C19.5995 12.3123 19.5941 12.3569 19.6003 12.4004L20.2419 16.8936L20.2497 16.9854C20.2537 17.2009 20.1639 17.4102 20.0017 17.5566C19.8395 17.7027 19.6226 17.7701 19.4089 17.7441L19.3181 17.7266L15.6052 16.7988C15.5616 16.7879 15.5159 16.7892 15.4734 16.8018L15.4323 16.8184C14.2494 17.4147 12.912 17.7499 11.4987 17.75C11.3804 17.75 11.2686 17.7222 11.1696 17.6738C11.093 17.6364 11.004 17.6414 10.9333 17.6826L10.8698 17.7363C9.81513 18.9691 8.24851 19.7499 6.49972 19.75C5.61965 19.75 4.7838 19.5518 4.03683 19.1973C4.01095 19.185 3.98289 19.1767 3.9548 19.1738L3.86887 19.1807L1.68137 19.7275C1.43944 19.7879 1.18308 19.7235 0.997771 19.5566C0.812337 19.3894 0.722242 19.1408 0.757537 18.8936L1.14426 16.1836C1.15025 16.1416 1.14572 16.0982 1.13058 16.0586C0.885205 15.4187 0.750701 14.7243 0.750701 14C0.750701 12.2512 1.53106 10.6849 2.7634 9.62988C2.84978 9.55574 2.87593 9.43137 2.8259 9.3291C2.77735 9.22999 2.74972 9.11865 2.74972 9C2.74972 4.16762 6.66664 0.25008 11.4987 0.25ZM6.49972 9.75C4.15317 9.75004 2.2507 11.6527 2.2507 14C2.2507 14.6123 2.37944 15.1928 2.61105 15.7168L2.64719 15.8154C2.66613 15.8824 2.67566 15.9519 2.67551 16.0215L2.66769 16.126L2.45285 17.6328C2.44108 17.7152 2.47111 17.7987 2.53293 17.8545C2.59466 17.9098 2.68 17.9312 2.76047 17.9111L3.87082 17.6338L4.01144 17.6123C4.15293 17.6046 4.29542 17.6366 4.42062 17.707L4.655 17.8301C5.21215 18.0991 5.83769 18.25 6.49972 18.25C8.8461 18.2498 10.7487 16.3472 10.7487 14C10.7487 11.6528 8.8461 9.75025 6.49972 9.75ZM11.4987 1.75C7.72899 1.75008 4.63112 4.62771 4.28195 8.30664C4.27391 8.39136 4.30974 8.4748 4.37668 8.52734C4.44356 8.57968 4.53276 8.59425 4.61301 8.56641C5.20351 8.36138 5.83862 8.25001 6.49972 8.25C9.67478 8.25025 12.2487 10.8246 12.2487 14C12.2487 14.6611 12.1373 15.2961 11.9323 15.8867C11.9046 15.967 11.9199 16.0562 11.9724 16.123C12.0249 16.1896 12.1077 16.2257 12.1921 16.2178C13.2223 16.1201 14.1888 15.8066 15.0466 15.3242L15.1765 15.2666C15.311 15.2217 15.457 15.2151 15.5964 15.25L18.239 15.9111C18.3194 15.931 18.4049 15.9098 18.4665 15.8545C18.5281 15.7988 18.5583 15.7151 18.5466 15.6328L18.0759 12.3379C18.0561 12.199 18.0759 12.0571 18.1325 11.9287L18.2732 11.5889C18.5802 10.7858 18.7478 9.91315 18.7478 9C18.7478 4.99603 15.5022 1.75025 11.4987 1.75Z" fill="#171819"/>
</svg>
