<svg width="40" height="41" viewBox="0 0 40 41" fill="none" xmlns="http://www.w3.org/2000/svg">
<rect y="0.5" width="40" height="40" rx="20" fill="#343A40"/>
<g clip-path="url(#clip0_7381_829)">
<g clip-path="url(#clip1_7381_829)">
<path d="M12.2523 17.4831H15.3667V27.5056H12.2523V17.4831ZM13.8144 12.4961C14.1736 12.4961 14.5248 12.6028 14.8233 12.8026C15.1219 13.0024 15.3545 13.2863 15.4915 13.6184C15.6285 13.9505 15.6639 14.3158 15.5931 14.668C15.5223 15.0202 15.3485 15.3435 15.0938 15.5968C14.8391 15.8502 14.5149 16.0222 14.1623 16.0911C13.8097 16.16 13.4446 16.1227 13.1133 15.9839C12.7819 15.8451 12.4993 15.611 12.3011 15.3114C12.1029 15.0117 11.9981 14.66 12 14.3007C12 14.0629 12.047 13.8275 12.1383 13.6079C12.2296 13.3883 12.3634 13.1889 12.532 13.0212C12.7006 12.8535 12.9007 12.7208 13.1208 12.6307C13.3408 12.5406 13.5766 12.4948 13.8144 12.4961Z" fill="white"/>
<path d="M17.3268 17.4832H20.3054V18.8512H20.3539C20.6493 18.3451 21.0754 17.9276 21.5874 17.6426C22.0995 17.3575 22.6788 17.2153 23.2646 17.2309C26.4179 17.2309 27 19.3072 27 22.0044V27.5057H23.9244V22.6545C23.9244 21.4902 23.9244 19.9961 22.3041 19.9961C20.6838 19.9961 20.4412 21.2283 20.4412 22.5478V27.5057H17.3268V17.4832Z" fill="white"/>
</g>
</g>
<defs>
<clipPath id="clip0_7381_829">
<rect width="24" height="24" fill="white" transform="translate(8 8.5)"/>
</clipPath>
<clipPath id="clip1_7381_829">
<rect width="24" height="24" fill="white" transform="translate(8 8.5)"/>
</clipPath>
</defs>
</svg>
