<svg width="20" height="20" viewBox="0 0 20 20" fill="none" xmlns="http://www.w3.org/2000/svg">
<g clip-path="url(#clip0_8921_115)">
<g clip-path="url(#clip1_8921_115)">
<path d="M14.8963 5.98924C14.8963 6.22806 14.8014 6.45709 14.6325 6.62596C14.4637 6.79483 14.2346 6.8897 13.9958 6.8897C13.757 6.8897 13.528 6.79483 13.3591 6.62596C13.1902 6.45709 13.0954 6.22806 13.0954 5.98924C13.0954 5.75043 13.1902 5.5214 13.3591 5.35253C13.528 5.18366 13.757 5.08879 13.9958 5.08879C14.2346 5.08879 14.4637 5.18366 14.6325 5.35253C14.8014 5.5214 14.8963 5.75043 14.8963 5.98924ZM9.99631 12.48C9.35826 12.445 8.75786 12.1669 8.31856 11.7028C7.87926 11.2387 7.63444 10.624 7.63444 9.98499C7.63444 9.34598 7.87926 8.73125 8.31856 8.26719C8.75786 7.80312 9.35826 7.525 9.99631 7.49C10.3355 7.47139 10.6749 7.52212 10.9937 7.6391C11.3126 7.75608 11.6043 7.93685 11.851 8.17036C12.0977 8.40387 12.2941 8.68522 12.4284 8.99722C12.5627 9.30922 12.6319 9.64533 12.6319 9.98499C12.6319 10.3247 12.5627 10.6608 12.4284 10.9728C12.2941 11.2848 12.0977 11.5661 11.851 11.7996C11.6043 12.0331 11.3126 12.2139 10.9937 12.3309C10.6749 12.4479 10.3355 12.4986 9.99631 12.48ZM9.99631 6.13932C9.23806 6.1423 8.49764 6.36958 7.86831 6.79254C7.23898 7.21551 6.74889 7.81524 6.45975 8.51621C6.17061 9.21718 6.09536 9.98803 6.24348 10.7317C6.39159 11.4753 6.75645 12.1585 7.2921 12.6952C7.82775 13.2319 8.51023 13.5981 9.25359 13.7477C9.99695 13.8972 10.768 13.8235 11.4695 13.5357C12.171 13.2479 12.7717 12.759 13.1959 12.1305C13.6201 11.502 13.8488 10.762 13.8532 10.0038C13.8532 9.49859 13.7536 8.99839 13.5601 8.53178C13.3665 8.06517 13.0829 7.6413 12.7253 7.28445C12.3678 6.92759 11.9433 6.64476 11.4764 6.45212C11.0094 6.25949 10.509 6.16084 10.0038 6.16183L9.99631 6.13932ZM9.99631 3.88819C11.9998 3.88819 12.2474 3.88819 12.9978 3.93322C13.472 3.93513 13.9421 4.02152 14.386 4.18834C14.724 4.30252 15.0301 4.49542 15.279 4.75113C15.5278 4.99093 15.72 5.28315 15.8417 5.60655C16.0034 6.03914 16.0922 6.49557 16.1044 6.95723C16.1419 7.7076 16.1494 7.98524 16.1494 9.95873C16.1494 11.9322 16.1494 12.2099 16.1044 12.9602C16.1025 13.4369 16.0162 13.9094 15.8492 14.3559C15.7314 14.6962 15.5362 15.0044 15.279 15.2564C15.0377 15.5069 14.7426 15.6994 14.416 15.8192C13.9711 15.9824 13.5017 16.0687 13.0278 16.0743C12.2775 16.1118 11.9998 16.1193 10.0263 16.1193C8.05284 16.1193 7.7752 16.1193 7.02483 16.0743C6.53849 16.0715 6.05624 15.9852 5.59911 15.8192C5.26765 15.7004 4.96746 15.508 4.72117 15.2564C4.47036 15.0183 4.27779 14.7255 4.15839 14.401C3.99272 13.9539 3.90392 13.482 3.89576 13.0053C3.89576 12.2174 3.85824 11.9847 3.85824 10.0038C3.85824 8.02276 3.85824 7.75263 3.89576 7.00225C3.9039 6.52797 3.99271 6.05853 4.15839 5.61406C4.28326 5.2832 4.47593 4.9821 4.72405 4.73011C4.97216 4.47812 5.27023 4.2808 5.59911 4.15083C6.04576 3.98451 6.51821 3.89815 6.99481 3.8957C7.74519 3.85068 8.01532 3.85068 9.99631 3.85068V3.88819ZM9.99631 2.53752C7.9628 2.53752 7.70767 2.53752 6.91227 2.58254C6.28914 2.59187 5.67229 2.70864 5.08886 2.92771C4.59058 3.11916 4.13807 3.41313 3.76063 3.79058C3.38318 4.16802 3.08921 4.62053 2.89776 5.11881C2.67807 5.69946 2.56127 6.31396 2.55259 6.93472C2.55259 7.73011 2.50757 7.98524 2.50757 10.0188C2.50757 12.0523 2.50757 12.3074 2.55259 13.1028C2.56127 13.7236 2.67807 14.3381 2.89776 14.9187C3.08921 15.417 3.38318 15.8695 3.76063 16.2469C4.13807 16.6244 4.59058 16.9184 5.08886 17.1098C5.67229 17.3289 6.28914 17.4457 6.91227 17.455C7.70767 17.4925 7.9628 17.5 9.99631 17.5C12.0298 17.5 12.2925 17.5 13.0879 17.455C13.711 17.4457 14.3278 17.3289 14.9113 17.1098C15.4077 16.9167 15.8583 16.622 16.2343 16.2447C16.6103 15.8674 16.9034 15.4158 17.0949 14.9187C17.3134 14.3375 17.4326 13.7236 17.4475 13.1028C17.4475 12.3074 17.4926 12.0523 17.4926 10.0188C17.4926 7.98524 17.4926 7.76763 17.4475 6.93472C17.4326 6.31392 17.3134 5.70006 17.0949 5.11881C16.9084 4.61799 16.6138 4.16449 16.2319 3.79065C15.8557 3.41177 15.4028 3.11757 14.9038 2.92771C14.3289 2.70109 13.7202 2.57176 13.1029 2.54502C12.285 2.5 12.0298 2.5 9.99631 2.5V2.53752Z" fill="white"/>
</g>
</g>
<defs>
<clipPath id="clip0_8921_115">
<rect width="20" height="20" fill="white"/>
</clipPath>
<clipPath id="clip1_8921_115">
<rect width="20" height="20" fill="white"/>
</clipPath>
</defs>
</svg>
