<svg width="24" height="24" viewBox="0 0 24 24" fill="none" xmlns="http://www.w3.org/2000/svg">
<g clip-path="url(#clip0_23_751)">
<path d="M11.0986 3.05374C11.5127 3.05387 11.8486 3.3896 11.8486 3.80374C11.8485 4.21774 11.5126 4.55361 11.0986 4.55374H5.41211C3.94196 4.55374 2.75 5.74581 2.75 7.21585V18.5879C2.75014 20.0578 3.94205 21.25 5.41211 21.25H16.7852C18.1632 21.2499 19.2962 20.2024 19.4326 18.8604L19.4473 18.5879V12.9014C19.4475 12.4874 19.7832 12.1514 20.1973 12.1514C20.6111 12.1517 20.947 12.4876 20.9473 12.9014V18.5879L20.9414 18.8028C20.8296 21.0014 19.0115 22.7499 16.7852 22.75H5.41211C3.18562 22.75 1.36765 21.0014 1.25586 18.8028L1.25 18.5879V7.21585C1.25 4.91733 3.11358 3.05374 5.41211 3.05374H11.0986Z" fill="white"/>
<path fill-rule="evenodd" clip-rule="evenodd" d="M17.709 1.67385C18.4499 1.06914 19.5431 1.1114 20.2344 1.80178L22.1963 3.76175L22.3262 3.9053C22.8908 4.59699 22.8914 5.59602 22.3271 6.28811L22.1973 6.43167L12.9346 15.6992C12.7045 15.9293 12.4193 16.0955 12.1074 16.1826L11.9727 16.2149L7.83496 17.0489C7.61935 17.0923 7.39672 17.0386 7.22559 16.9053L7.15625 16.8438C6.97874 16.6662 6.90153 16.4112 6.95117 16.1651L7.78613 12.0323L7.81934 11.8975C7.90642 11.5863 8.07229 11.302 8.30176 11.0723L17.5654 1.80276L17.709 1.67385ZM19.1133 2.8135C18.9845 2.72871 18.8162 2.72868 18.6875 2.8135L18.627 2.86331L9.3623 12.1319C9.32205 12.1722 9.29167 12.2213 9.27246 12.2744L9.25684 12.3291L8.71973 14.9864C8.70324 15.0684 8.72895 15.1537 8.78809 15.2129C8.84726 15.272 8.93269 15.2978 9.01465 15.2813L11.6758 14.7451L11.7314 14.7295C11.7847 14.7103 11.8337 14.679 11.874 14.6387L21.1367 5.37112L21.1865 5.31057C21.2716 5.18175 21.2715 5.01265 21.1865 4.88382L21.1367 4.82327L19.1738 2.86331L19.1133 2.8135Z" fill="white"/>
</g>
<defs>
<clipPath id="clip0_23_751">
<rect width="24" height="24" fill="white"/>
</clipPath>
</defs>
</svg>
