<svg width="12" height="13" viewBox="0 0 12 13" fill="none" xmlns="http://www.w3.org/2000/svg">
<path d="M10.5264 0.917872C10.821 0.677679 11.2558 0.695069 11.5303 0.96963L11.5821 1.02627C11.8063 1.30119 11.8063 1.69859 11.5821 1.97354L11.5303 2.03018L7.23737 6.32315C7.19055 6.37 7.16415 6.43367 7.16413 6.4999C7.16413 6.56617 7.19053 6.62978 7.23737 6.67666L11.5303 10.9696C11.8232 11.2625 11.8231 11.7373 11.5303 12.0302C11.2375 12.3231 10.7627 12.323 10.4698 12.0302L6.17682 7.73721C6.12998 7.69041 6.06628 7.66401 6.00007 7.66397C5.95044 7.66397 5.90211 7.67887 5.86139 7.70596L5.82331 7.73721L1.53034 12.0302C1.25575 12.3048 0.821013 12.3222 0.526433 12.0819L0.469792 12.0302C0.176899 11.7373 0.176899 11.2625 0.469792 10.9696L4.76276 6.67666C4.80952 6.6298 4.836 6.56611 4.836 6.4999C4.83598 6.43368 4.80956 6.37 4.76276 6.32315L0.469792 2.03018C0.176899 1.73728 0.176899 1.26252 0.469792 0.96963L0.526433 0.917872C0.821012 0.677679 1.25578 0.695069 1.53034 0.96963L5.82331 5.2626C5.87018 5.30942 5.93381 5.33584 6.00007 5.33584C6.06628 5.3358 6.12998 5.3094 6.17682 5.2626L10.4698 0.96963L10.5264 0.917872Z" fill="white"/>
</svg>
