<svg width="20" height="20" viewBox="0 0 20 20" fill="none" xmlns="http://www.w3.org/2000/svg">
<g clip-path="url(#clip0_8921_230)">
<path d="M10.0381 2.50195C10.3257 2.50905 10.6116 2.59488 10.8584 2.76172L16.8584 6.81836L16.9307 6.87109C17.1067 7.00624 17.2475 7.1786 17.3457 7.37305L17.4229 7.4248V7.55176C17.4552 7.64573 17.4782 7.74346 17.4902 7.84375L17.5 8.0127V15.6064C17.4999 16.6112 16.7044 17.396 15.7344 17.4902L15.5391 17.5H4.46094C3.40455 17.4997 2.50006 16.6781 2.5 15.6064V8.0127C2.50012 7.5295 2.74612 7.08589 3.1416 6.81836L9.1416 2.76172L9.24023 2.7002C9.45749 2.57649 9.69977 2.51377 9.94336 2.50488L9.99219 2.4707L10.0381 2.50195ZM6.53809 13.8457C6.21981 13.8459 5.9622 14.1046 5.96191 14.4229C5.96191 14.7414 6.21963 14.9998 6.53809 15H13.4619C13.7804 14.9998 14.0381 14.7414 14.0381 14.4229C14.0378 14.1046 13.7802 13.8459 13.4619 13.8457H6.53809Z" fill="white"/>
</g>
<defs>
<clipPath id="clip0_8921_230">
<rect width="20" height="20" fill="white"/>
</clipPath>
</defs>
</svg>
