<svg width="28" height="28" viewBox="0 0 28 28" fill="none" xmlns="http://www.w3.org/2000/svg">
<g clip-path="url(#clip0_5017_11739)">
<g clip-path="url(#clip1_5017_11739)">
<path fill-rule="evenodd" clip-rule="evenodd" d="M7.34171 7.34171C7.79732 6.8861 8.53601 6.8861 8.99162 7.34171L14 12.3501L19.0084 7.34171C19.464 6.8861 20.2027 6.8861 20.6583 7.34171C21.1139 7.79732 21.1139 8.53601 20.6583 8.99162L15.6499 14L20.6583 19.0084C21.1139 19.464 21.1139 20.2027 20.6583 20.6583C20.2027 21.1139 19.464 21.1139 19.0084 20.6583L14 15.6499L8.99162 20.6583C8.53601 21.1139 7.79732 21.1139 7.34171 20.6583C6.8861 20.2027 6.8861 19.464 7.34171 19.0084L12.3501 14L7.34171 8.99162C6.8861 8.53601 6.8861 7.79732 7.34171 7.34171Z" fill="#171819"/>
</g>
</g>
<defs>
<clipPath id="clip0_5017_11739">
<rect width="28" height="28" fill="white"/>
</clipPath>
<clipPath id="clip1_5017_11739">
<rect width="28" height="28" fill="white"/>
</clipPath>
</defs>
</svg>
