<svg width="24" height="24" viewBox="0 0 24 24" fill="none" xmlns="http://www.w3.org/2000/svg">
<g clip-path="url(#clip0_5016_8768)">
<g clip-path="url(#clip1_5016_8768)">
<path fill-rule="evenodd" clip-rule="evenodd" d="M11.4774 1.33611C11.8197 1.24343 12.1805 1.24343 12.5228 1.33611C12.9202 1.4437 13.2548 1.70636 13.5218 1.91599C13.5473 1.93601 13.5721 1.95554 13.5964 1.9744L20.3787 7.24953C20.4048 7.26983 20.4307 7.28994 20.4564 7.30989C20.833 7.60217 21.1648 7.85967 21.4121 8.19396C21.6291 8.48735 21.7907 8.81786 21.8891 9.16926C22.0012 9.56967 22.0007 9.98969 22.0002 10.4664C22.0002 10.499 22.0001 10.5317 22.0001 10.5648V17.8383C22.0002 18.3654 22.0002 18.8202 21.9696 19.1948C21.9373 19.5901 21.866 19.9833 21.6732 20.3617C21.3855 20.9262 20.9266 21.3851 20.3621 21.6728C19.9837 21.8656 19.5905 21.9369 19.1952 21.9692C18.8206 21.9998 18.3658 21.9998 17.8387 21.9997H6.16157C5.63443 21.9998 5.17968 21.9998 4.80511 21.9692C4.40977 21.9369 4.01655 21.8656 3.63817 21.6728C3.07368 21.3851 2.61474 20.9262 2.32712 20.3617C2.13433 19.9833 2.06301 19.5901 2.03071 19.1948C2.00011 18.8202 2.00012 18.3654 2.00014 17.8383L2.00014 10.5648C2.00014 10.5317 2.0001 10.499 2.00007 10.4664C1.99955 9.98968 1.9991 9.56967 2.11118 9.16926C2.20954 8.81785 2.37119 8.48735 2.58818 8.19396C2.83544 7.85966 3.16725 7.60216 3.54389 7.30987C3.56958 7.28993 3.59549 7.26983 3.62159 7.24953L10.4039 1.9744C10.4282 1.95554 10.453 1.936 10.4785 1.91599C10.7455 1.70636 11.0801 1.4437 11.4774 1.33611ZM11.9928 3.28128C11.9177 3.33149 11.8187 3.40773 11.6318 3.55311L4.84947 8.82823C4.3514 9.21562 4.25864 9.29877 4.19615 9.38326C4.12382 9.48105 4.06994 9.59122 4.03715 9.70836C4.00883 9.80956 4.00014 9.93382 4.00014 10.5648V17.7997C4.00014 18.3763 4.00092 18.7486 4.02407 19.0319C4.04626 19.3036 4.08394 19.4043 4.10913 19.4537C4.20501 19.6419 4.35799 19.7949 4.54615 19.8907C4.59559 19.9159 4.69631 19.9536 4.96798 19.9758C5.25131 19.999 5.62359 19.9997 6.20014 19.9997H17.8001C18.3767 19.9997 18.749 19.999 19.0323 19.9758C19.304 19.9536 19.4047 19.9159 19.4541 19.8907C19.6423 19.7949 19.7953 19.6419 19.8911 19.4537C19.9163 19.4043 19.954 19.3036 19.9762 19.0319C19.9994 18.7486 20.0001 18.3763 20.0001 17.7997V10.5648C20.0001 9.93382 19.9915 9.80956 19.9631 9.70836C19.9303 9.59122 19.8765 9.48105 19.8041 9.38326C19.7416 9.29877 19.6489 9.21562 19.1508 8.82823L12.3685 3.55311C12.1816 3.40773 12.0826 3.33149 12.0074 3.28128C12.0049 3.27958 12.0025 3.27797 12.0001 3.27645C11.9978 3.27797 11.9954 3.27958 11.9928 3.28128ZM12.0001 12C12.5524 12 13.0001 12.4477 13.0001 13V18C13.0001 18.5523 12.5524 19 12.0001 19C11.4479 19 11.0001 18.5523 11.0001 18V13C11.0001 12.4477 11.4479 12 12.0001 12Z" fill="#171819"/>
</g>
</g>
<defs>
<clipPath id="clip0_5016_8768">
<rect width="24" height="24" fill="white"/>
</clipPath>
<clipPath id="clip1_5016_8768">
<rect width="24" height="24" fill="white"/>
</clipPath>
</defs>
</svg>
