<svg width="20" height="28" viewBox="0 0 20 28" fill="none" xmlns="http://www.w3.org/2000/svg">
<g clip-path="url(#clip0_5017_11761)">
<g clip-path="url(#clip1_5017_11761)">
<path fill-rule="evenodd" clip-rule="evenodd" d="M5.52794 7.09196C5.75785 6.69326 6.26744 6.55644 6.66613 6.78635L14.1661 11.1114C14.5648 11.3413 14.7017 11.8509 14.4717 12.2495C14.2418 12.6482 13.7322 12.7851 13.3335 12.5552L5.83354 8.23015C5.43485 8.00024 5.29802 7.49065 5.52794 7.09196Z" fill="#555758"/>
<path fill-rule="evenodd" clip-rule="evenodd" d="M8.75162 5.16887C9.13123 4.95011 9.56168 4.83496 9.99984 4.83496C10.438 4.83496 10.8685 4.95012 11.2481 5.16889L11.2498 5.1699L17.0832 8.50322C17.4628 8.72243 17.7782 9.03762 17.9976 9.41718C18.217 9.79674 18.3327 10.2273 18.3332 10.6657V17.3341C18.3327 17.7725 18.217 18.2031 17.9976 18.5827C17.7782 18.9622 17.4628 19.2774 17.0832 19.4966L17.08 19.4985L11.2498 22.8299L11.2483 22.8308C10.8687 23.0497 10.4381 23.1649 9.99984 23.1649C9.56159 23.1649 9.13105 23.0497 8.75138 22.8308L8.74984 22.8299L2.91972 19.4985L2.9165 19.4966C2.53683 19.2774 2.22148 18.9622 2.00208 18.5827C1.78268 18.2031 1.66695 17.7725 1.6665 17.3341V10.6657C1.66695 10.2273 1.78268 9.79674 2.00208 9.41718C2.22148 9.03762 2.53683 8.72243 2.9165 8.50323L2.91972 8.50138L8.75162 5.16887ZM9.99984 6.50163C9.85356 6.50163 9.70985 6.54013 9.58317 6.61327L9.57996 6.61513L3.74984 9.94661L3.74852 9.94737C3.62255 10.0204 3.51791 10.1252 3.44503 10.2513C3.37196 10.3777 3.33338 10.5211 3.33317 10.6671V17.3328C3.33338 17.4788 3.37196 17.6222 3.44503 17.7486C3.51791 17.8747 3.62255 17.9794 3.74852 18.0525L3.74984 18.0532L9.58317 21.3866C9.70985 21.4597 9.85356 21.4982 9.99984 21.4982C10.1461 21.4982 10.2898 21.4597 10.4165 21.3866L10.4197 21.3847L16.2498 18.0532L16.2512 18.0525C16.3771 17.9794 16.4818 17.8747 16.5546 17.7486C16.6278 17.6221 16.6664 17.4785 16.6665 17.3324V10.6674C16.6664 10.5213 16.6278 10.3778 16.5546 10.2513C16.4818 10.1252 16.3771 10.0204 16.2512 9.94737L16.2498 9.94661L10.4165 6.61328C10.2898 6.54014 10.1461 6.50163 9.99984 6.50163Z" fill="#555758"/>
<path fill-rule="evenodd" clip-rule="evenodd" d="M2.0035 9.38265C2.23395 8.98426 2.74372 8.84813 3.14211 9.07858L9.99984 13.0455L16.8576 9.07858C17.256 8.84813 17.7657 8.98426 17.9962 9.38265C18.2266 9.78103 18.0905 10.2908 17.6921 10.5213L10.4171 14.7296C10.159 14.8789 9.84071 14.8789 9.58257 14.7296L2.30757 10.5213C1.90918 10.2908 1.77305 9.78103 2.0035 9.38265Z" fill="#555758"/>
<path fill-rule="evenodd" clip-rule="evenodd" d="M9.99984 13.1666C10.4601 13.1666 10.8332 13.5397 10.8332 13.9999V22.3999C10.8332 22.8602 10.4601 23.2333 9.99984 23.2333C9.5396 23.2333 9.1665 22.8602 9.1665 22.3999V13.9999C9.1665 13.5397 9.5396 13.1666 9.99984 13.1666Z" fill="#555758"/>
</g>
</g>
<defs>
<clipPath id="clip0_5017_11761">
<rect width="20" height="20" fill="white" transform="translate(0 4)"/>
</clipPath>
<clipPath id="clip1_5017_11761">
<rect width="20" height="20" fill="white" transform="translate(0 4)"/>
</clipPath>
</defs>
</svg>
