<svg width="40" height="40" viewBox="0 0 40 40" fill="none" xmlns="http://www.w3.org/2000/svg">
<rect width="40" height="40" rx="20" fill="#858889"/>
<path d="M28.6158 16.6169C28.5339 15.9704 28.3157 15.3488 27.9758 14.7929C27.7653 14.5442 27.4991 14.3487 27.1989 14.2222C26.8987 14.0957 26.5728 14.0418 26.2478 14.0649C23.8478 13.8809 20.3198 13.8809 20.3198 13.8809C20.3198 13.8809 16.7678 13.8809 14.3998 14.0649C14.0737 14.0418 13.7467 14.0957 13.4451 14.2221C13.1436 14.3486 12.876 14.5441 12.6638 14.7929C12.2864 15.3302 12.0649 15.9615 12.0238 16.6169C11.9105 17.5835 11.849 18.5556 11.8398 19.5289V20.8969C11.8411 21.8723 11.8945 22.8471 11.9998 23.8169C12.0873 24.462 12.305 25.0826 12.6398 25.6409C13.1574 26.1381 13.8424 26.4235 14.5598 26.4409C15.9198 26.6249 20.2958 26.6249 20.2958 26.6249C20.2958 26.6249 23.8558 26.6249 26.2238 26.4409C26.5529 26.4503 26.8803 26.392 27.1859 26.2695C27.4914 26.147 27.7685 25.963 27.9998 25.7289C28.3808 25.1933 28.6026 24.561 28.6398 23.9049C28.7452 22.9351 28.7986 21.9603 28.7998 20.9849V19.5289C28.7907 18.5556 28.7292 17.5835 28.6158 16.6169ZM18.1358 23.4489V17.0489L23.4238 20.2489L18.1358 23.4489Z" fill="white"/>
</svg>
