<svg width="20" height="28" viewBox="0 0 20 28" fill="none" xmlns="http://www.w3.org/2000/svg">
<g clip-path="url(#clip0_5017_11753)">
<g clip-path="url(#clip1_5017_11753)">
<path fill-rule="evenodd" clip-rule="evenodd" d="M9.99984 5.66667C8.23173 5.66667 6.53603 6.36905 5.28579 7.61929C4.03555 8.86953 3.33317 10.5652 3.33317 12.3333C3.33317 14.915 5.01295 17.4202 6.8548 19.3644C7.75868 20.3185 8.66539 21.0996 9.34707 21.6424C9.60077 21.8444 9.82236 22.0127 9.99984 22.1438C10.1773 22.0127 10.3989 21.8444 10.6526 21.6424C11.3343 21.0996 12.241 20.3185 13.1449 19.3644C14.9867 17.4202 16.6665 14.915 16.6665 12.3333C16.6665 10.5652 15.9641 8.86953 14.7139 7.61929C13.4636 6.36905 11.7679 5.66667 9.99984 5.66667ZM9.99984 23.1667C9.53759 23.86 9.53714 23.8597 9.53714 23.8597L9.53475 23.8582L9.5292 23.8544L9.5101 23.8415C9.49388 23.8305 9.47073 23.8147 9.44114 23.7942C9.38195 23.7532 9.29689 23.6934 9.18966 23.616C8.97529 23.4612 8.6718 23.2352 8.30886 22.9462C7.58428 22.3692 6.61599 21.5357 5.64488 20.5106C3.73672 18.4965 1.6665 15.585 1.6665 12.3333C1.6665 10.1232 2.54448 8.00358 4.10728 6.44078C5.67008 4.87797 7.7897 4 9.99984 4C12.21 4 14.3296 4.87797 15.8924 6.44078C17.4552 8.00358 18.3332 10.1232 18.3332 12.3333C18.3332 15.585 16.263 18.4965 14.3548 20.5106C13.3837 21.5357 12.4154 22.3692 11.6908 22.9462C11.3279 23.2352 11.0244 23.4612 10.81 23.616C10.7028 23.6934 10.6177 23.7532 10.5585 23.7942C10.5289 23.8147 10.5058 23.8305 10.4896 23.8415L10.4705 23.8544L10.4649 23.8582L10.4632 23.8593C10.4632 23.8593 10.4621 23.86 9.99984 23.1667ZM9.99984 23.1667L10.4621 23.86C10.1822 24.0467 9.81705 24.0464 9.53714 23.8597L9.99984 23.1667Z" fill="#555758"/>
<path fill-rule="evenodd" clip-rule="evenodd" d="M9.99984 10.6667C9.07936 10.6667 8.33317 11.4129 8.33317 12.3333C8.33317 13.2538 9.07936 14 9.99984 14C10.9203 14 11.6665 13.2538 11.6665 12.3333C11.6665 11.4129 10.9203 10.6667 9.99984 10.6667ZM6.6665 12.3333C6.6665 10.4924 8.15889 9 9.99984 9C11.8408 9 13.3332 10.4924 13.3332 12.3333C13.3332 14.1743 11.8408 15.6667 9.99984 15.6667C8.15889 15.6667 6.6665 14.1743 6.6665 12.3333Z" fill="#555758"/>
</g>
</g>
<defs>
<clipPath id="clip0_5017_11753">
<rect width="20" height="20" fill="white" transform="translate(0 4)"/>
</clipPath>
<clipPath id="clip1_5017_11753">
<rect width="20" height="20" fill="white" transform="translate(0 4)"/>
</clipPath>
</defs>
</svg>
