<svg width="40" height="40" viewBox="0 0 40 40" fill="none" xmlns="http://www.w3.org/2000/svg">
<rect width="40" height="40" rx="20" fill="#858889"/>
<path d="M25.1142 15.72C25.1142 15.9746 25.0131 16.2188 24.8331 16.3988C24.653 16.5789 24.4089 16.68 24.1543 16.68C23.8996 16.68 23.6555 16.5789 23.4754 16.3988C23.2954 16.2188 23.1943 15.9746 23.1943 15.72C23.1943 15.4654 23.2954 15.2212 23.4754 15.0412C23.6555 14.8611 23.8996 14.76 24.1543 14.76C24.4089 14.76 24.653 14.8611 24.8331 15.0412C25.0131 15.2212 25.1142 15.4654 25.1142 15.72ZM19.8903 22.64C19.21 22.6027 18.5699 22.3062 18.1015 21.8114C17.6332 21.3167 17.3722 20.6613 17.3722 19.98C17.3722 19.2987 17.6332 18.6433 18.1015 18.1486C18.5699 17.6538 19.21 17.3573 19.8903 17.32C20.2518 17.3002 20.6137 17.3543 20.9536 17.479C21.2936 17.6037 21.6046 17.7964 21.8676 18.0454C22.1306 18.2943 22.34 18.5943 22.4832 18.9269C22.6263 19.2595 22.7002 19.6179 22.7002 19.98C22.7002 20.3421 22.6263 20.7005 22.4832 21.0331C22.34 21.3657 22.1306 21.6657 21.8676 21.9146C21.6046 22.1636 21.2936 22.3563 20.9536 22.481C20.6137 22.6057 20.2518 22.6598 19.8903 22.64ZM19.8903 15.88C19.0819 15.8832 18.2925 16.1255 17.6215 16.5764C16.9506 17.0274 16.4281 17.6668 16.1198 18.4141C15.8115 19.1614 15.7313 19.9832 15.8892 20.7761C16.0471 21.5689 16.4361 22.2973 17.0072 22.8695C17.5783 23.4416 18.3059 23.832 19.0984 23.9915C19.8909 24.151 20.7129 24.0723 21.4608 23.7655C22.2088 23.4587 22.8492 22.9374 23.3014 22.2674C23.7537 21.5973 23.9975 20.8084 24.0022 20C24.0023 19.4614 23.896 18.9282 23.6897 18.4307C23.4834 17.9332 23.1809 17.4813 22.7997 17.1009C22.4185 16.7204 21.9661 16.4189 21.4682 16.2135C20.9703 16.0081 20.4368 15.9029 19.8983 15.904L19.8903 15.88ZM19.8903 13.48C22.0262 13.48 22.2902 13.48 23.0903 13.528C23.5958 13.53 24.097 13.6221 24.5702 13.8C24.9306 13.9217 25.257 14.1274 25.5223 14.4C25.7875 14.6557 25.9925 14.9672 26.1222 15.312C26.2946 15.7732 26.3893 16.2598 26.4022 16.752C26.4422 17.552 26.4503 17.848 26.4503 19.952C26.4503 22.056 26.4502 22.352 26.4022 23.152C26.4003 23.6602 26.3082 24.164 26.1302 24.64C26.0046 25.0027 25.7965 25.3314 25.5223 25.6C25.265 25.8671 24.9504 26.0723 24.6022 26.2C24.1279 26.3741 23.6274 26.466 23.1222 26.472C22.3222 26.512 22.0262 26.52 19.9222 26.52C17.8182 26.52 17.5222 26.52 16.7222 26.472C16.2037 26.469 15.6896 26.377 15.2023 26.2C14.8489 26.0734 14.5288 25.8683 14.2662 25.6C13.9988 25.3461 13.7935 25.0341 13.6662 24.688C13.4896 24.2114 13.3949 23.7082 13.3862 23.2C13.3862 22.36 13.3463 22.112 13.3463 20C13.3463 17.888 13.3462 17.6 13.3862 16.8C13.3949 16.2944 13.4896 15.7939 13.6662 15.32C13.7994 14.9673 14.0048 14.6463 14.2693 14.3776C14.5338 14.1089 14.8516 13.8986 15.2023 13.76C15.6784 13.5827 16.1821 13.4906 16.6902 13.488C17.4902 13.44 17.7783 13.44 19.8903 13.44V13.48ZM19.8903 12.04C17.7222 12.04 17.4502 12.04 16.6023 12.088C15.9379 12.0979 15.2803 12.2224 14.6582 12.456C14.127 12.6601 13.6446 12.9735 13.2422 13.3759C12.8398 13.7783 12.5264 14.2608 12.3222 14.792C12.088 15.4111 11.9635 16.0662 11.9542 16.728C11.9542 17.576 11.9062 17.848 11.9062 20.016C11.9062 22.184 11.9062 22.456 11.9542 23.304C11.9635 23.9658 12.088 24.6209 12.3222 25.24C12.5264 25.7712 12.8398 26.2537 13.2422 26.6561C13.6446 27.0585 14.127 27.3719 14.6582 27.576C15.2803 27.8096 15.9379 27.9341 16.6023 27.944C17.4502 27.984 17.7222 27.992 19.8903 27.992C22.0583 27.992 22.3382 27.992 23.1862 27.944C23.8506 27.9341 24.5082 27.8096 25.1302 27.576C25.6595 27.3701 26.1399 27.056 26.5408 26.6537C26.9417 26.2515 27.2541 25.7699 27.4582 25.24C27.6912 24.6203 27.8183 23.9659 27.8342 23.304C27.8342 22.456 27.8823 22.184 27.8823 20.016C27.8823 17.848 27.8822 17.616 27.8342 16.728C27.8183 16.0662 27.6912 15.4117 27.4582 14.792C27.2595 14.2581 26.9454 13.7746 26.5382 13.376C26.1371 12.9721 25.6543 12.6584 25.1222 12.456C24.5093 12.2144 23.8605 12.0765 23.2022 12.048C22.3302 12 22.0583 12 19.8903 12V12.04Z" fill="white"/>
</svg>
