<svg width="226" height="36" viewBox="0 0 226 36" fill="none" xmlns="http://www.w3.org/2000/svg">
<path d="M17.9191 36C27.82 36 35.8438 27.9412 35.8438 17.9972C35.8438 8.05315 27.82 0 17.9191 0C8.0182 0 0 8.05878 0 17.9972C0 27.9356 8.0238 36 17.9191 36Z" fill="#C00C3F"/>
<path d="M17.2075 10.1016V25.8815H22.2055V24.469H18.6419V10.1016H17.2075Z" fill="white"/>
<path d="M12.1982 14.4068C13.3861 14.4068 14.3498 13.4388 14.3498 12.2457C14.3498 11.0527 13.3861 10.0904 12.1982 10.0904C11.0103 10.0904 10.0522 11.0583 10.0522 12.2457C10.0522 13.4332 11.0103 14.4068 12.1982 14.4068Z" fill="white"/>
<path d="M18.6419 2.93763C18.457 2.92637 18.0984 2.92637 17.9191 2.92637C9.65434 2.92637 2.91927 9.69079 2.91927 17.9972C2.91927 22.0209 4.48257 25.8083 7.31219 28.6503C10.1474 31.4979 13.9184 33.0624 17.9191 33.0624C21.9198 33.0624 25.6963 31.4979 28.5372 28.6503C31.3612 25.8027 32.9301 22.0153 32.9301 17.9972V17.3106H22.2167V18.7119H31.5013V18.9201C31.0194 26.0222 25.1248 31.6555 17.9247 31.6555C14.2994 31.6555 10.8814 30.2317 8.31517 27.6542C5.74329 25.0768 4.33128 21.6439 4.33128 17.9972C4.33128 14.3505 5.74329 10.9176 8.31517 8.33453C10.887 5.75707 14.2994 4.33328 17.9247 4.33328C18.0872 4.33328 18.4738 4.33328 18.6475 4.34454V2.93763H18.6419Z" fill="white"/>
<path d="M49.4035 6.13413H44.0076V29.5845H60.5763V25.0149H49.4035V6.13413Z" fill="#6D6E71"/>
<path d="M76.8313 20.6478V24.7504C76.0244 25.0599 74.4443 25.3694 72.937 25.3694C68.0846 25.3694 66.4653 22.8932 66.4653 17.8621C66.4653 12.831 68.0062 10.2423 72.8586 10.2423C75.5593 10.2423 77.1002 11.0921 78.3665 12.7185L81.7229 9.62326C79.6777 6.68001 76.0972 5.79084 72.7409 5.79084C65.1878 5.79084 61.2207 9.92715 61.2207 17.8227C61.2207 25.7183 64.8068 29.9334 72.7017 29.9334C76.3214 29.9334 79.8682 29.0048 81.7957 27.6486V16.2751H72.4327V20.6478H76.8313Z" fill="#6D6E71"/>
<path d="M172.091 13.6752H167.973V15.7968H158.806V18.8526H181.18V15.7968H172.091V13.6752Z" fill="#6D6E71"/>
<path d="M170.069 11.1765C171.576 13.315 174.826 14.2436 178.429 14.4461L179.527 11.0977C174.798 10.7375 171.957 9.49945 171.957 6.58996V5.71205H167.738V6.64061C167.738 9.49945 164.903 11.1202 160.526 11.6605L161.496 14.5474C164.819 14.3167 168.349 13.2869 170.063 11.1709L170.069 11.1765Z" fill="#6D6E71"/>
<path d="M165.911 26.7876V26.1741H177.723C178.21 25.4763 178.361 24.2495 178.361 22.9326V19.8599H161.826V22.5612H174.338V23.6305H161.877V28.3914C161.877 29.4832 162.493 30.0685 163.799 30.0685L178.995 30.046V27.1984H166.371C166.04 27.1984 165.911 27.0971 165.911 26.7819V26.7876Z" fill="#6D6E71"/>
<path d="M107.458 29.7758H110.938C111.269 28.4139 111.425 26.0278 111.425 24.075V5.81335H107.464V29.7758H107.458Z" fill="#6D6E71"/>
<path d="M102.141 11.925H100.566C100.057 8.75661 98.0562 6.38737 94.0555 6.38737C89.3713 6.38737 87.483 9.66265 87.483 13.6695C87.483 17.6764 89.3713 21.0023 94.0555 21.0023C98.1123 21.0023 100.113 18.6669 100.589 15.3353H102.135V28.9992H105.587C105.817 27.6655 105.968 25.4819 105.968 23.8105V5.88651H102.13V11.925H102.141ZM94.0836 17.547C92.4362 17.547 91.691 16.2639 91.691 13.6977C91.691 11.2609 92.4362 9.94966 94.0836 9.94966C95.7309 9.94966 96.4257 11.2609 96.4257 13.6977C96.4257 16.2639 95.7365 17.547 94.0836 17.547Z" fill="#6D6E71"/>
<path d="M121.584 19.1283H118.861C118.452 19.1283 118.323 19.027 118.323 18.5881V6.19603H114.255V20.3833C114.255 21.8746 114.972 22.5162 116.3 22.5162H121.399C123.775 22.5162 126.666 21.9028 127.613 21.3344L127.075 18.3574C125.719 18.847 123.825 19.1283 121.579 19.1283H121.584Z" fill="#6D6E71"/>
<path d="M129.821 11.1033H122.94V14.4912H129.821V29.7758H133.502C133.782 28.3633 133.99 26.3092 133.99 24.5872V5.81335H129.821V11.1033Z" fill="#6D6E71"/>
<path d="M152.738 29.7758H156.447C156.705 28.3633 156.907 26.3092 156.907 24.5872V5.81335H152.738V29.7758Z" fill="#6D6E71"/>
<path d="M145.706 11.3228V9.68516H150.39V6.31984H136.909V9.68516H141.481V11.3453C141.481 15.6336 140.26 18.3517 135.833 20.3045L137.52 23.3266C140.052 22.3755 142.759 20.5127 143.863 18.2279C144.961 20.3833 147.684 22.156 149.443 22.9383L151.388 19.5335C147.561 18.0084 145.706 15.4028 145.706 11.3228Z" fill="#6D6E71"/>
<path d="M221.248 23.2928H225.047C225.305 22.0491 225.541 19.9162 225.541 18.6725V5.87525H221.248V7.91246H216.262V10.9007H221.248V12.3133H216.262V15.3297H221.248V23.2928Z" fill="#6D6E71"/>
<path d="M213.847 26.4274C213.51 26.4274 213.41 26.3486 213.41 25.9884V21.3231H209.095V27.7274C209.095 29.2581 209.846 29.9334 211.32 29.9334H226V26.4274H213.847Z" fill="#6D6E71"/>
<path d="M211.633 16.4383C212.743 18.4868 215.203 20.2257 217.371 20.7716L219.142 17.1924C215.472 16.3877 213.443 14.3111 213.443 10.5743V6.24105H209.179V10.5743C209.179 14.3617 208.12 16.3652 203.907 17.7665L205.33 20.7772C208.277 20.0006 210.524 18.5431 211.633 16.444V16.4383Z" fill="#6D6E71"/>
<path d="M186.34 18.5431H201.318V15.1158H188.868C188.705 15.1158 188.604 15.0933 188.559 15.0483C188.514 15.0033 188.492 14.947 188.492 14.75V13.6245H200.136C200.382 13.2531 200.55 12.634 200.64 11.9925C200.73 11.3509 200.774 10.7994 200.774 10.1241V5.80772H184.503V9.10552H196.785V10.58H184.503V16.4721C184.503 17.1136 184.654 17.8002 184.956 18.0985C185.259 18.3911 185.719 18.5374 186.34 18.5374V18.5431Z" fill="#6D6E71"/>
<path d="M181.606 23.1802H190.711V29.7758H194.538C194.678 29.1005 194.796 28.307 194.885 27.3953C194.975 26.4837 195.02 25.6114 195.02 24.7729V23.1802H203.419V19.8599H181.611V23.1802H181.606Z" fill="#6D6E71"/>
</svg>
