<svg width="193" height="43" viewBox="0 0 193 43" fill="none" xmlns="http://www.w3.org/2000/svg">
<path d="M20.9969 42.4961C32.595 42.4961 42.002 33.0891 42.002 21.491C42.002 9.8929 32.595 0.494141 20.9969 0.494141C9.39876 0.494141 0 9.90114 0 21.491C0 33.0809 9.39876 42.4961 20.9969 42.4961Z" fill="#C00C3F"/>
<path d="M20.1649 12.2817V30.6839H26.0216V29.0446H21.8371V12.2817H20.1649Z" fill="white"/>
<path d="M14.2917 17.3065C15.6838 17.3065 16.8123 16.178 16.8123 14.7859C16.8123 13.3938 15.6838 12.2735 14.2917 12.2735C12.8996 12.2735 11.7793 13.402 11.7793 14.7859C11.7793 16.1697 12.9079 17.3065 14.2917 17.3065Z" fill="white"/>
<path d="M21.8371 3.92086C21.6147 3.90438 21.2028 3.90438 20.9886 3.90438C11.3098 3.90438 3.41848 11.804 3.41848 21.491C3.41848 26.1863 5.24716 30.6015 8.56679 33.9211C11.8864 37.2407 16.3016 39.0694 20.9969 39.0694C25.6921 39.0694 30.1073 37.2407 33.4352 33.9211C36.7466 30.6015 38.5753 26.1863 38.5753 21.491V20.692H26.0134V22.3312H36.8949V22.5701C36.3347 30.8568 29.4236 37.4302 20.9886 37.4302C16.7382 37.4302 12.7349 35.7663 9.72825 32.7597C6.7134 29.753 5.0577 25.7497 5.0577 21.491C5.0577 17.2323 6.7134 13.2372 9.72825 10.2224C12.7431 7.21578 16.7382 5.55184 20.9886 5.55184C21.1781 5.55184 21.6312 5.55184 21.8371 5.56832V3.92086Z" fill="white"/>
<path d="M106.393 26.6558C105.652 28.7481 104.614 30.8486 103.197 32.1913L100.124 30.1484C101.376 29.0034 102.538 27.0594 103.123 25.6509L106.393 26.6558Z" fill="white"/>
<path d="M127.958 20.725V35.0084H123.568V20.725H121.319V24.0858C121.319 28.641 120.965 31.3593 118.84 35.0167L115.009 33.3774C116.327 30.8651 117.003 29.5883 117.003 23.0726V9.71992C122.209 9.37395 125.742 8.62436 128.568 7.28168L130.059 11.2438C127.917 12.1664 124.507 13.0066 121.335 13.2784V16.8864H130.915V20.725H127.958Z" fill="white"/>
<path d="M116.261 20.3955V17.0676H101.607V20.3955H106.978V21.6311H102.291V24.8766H106.978V30.9227C106.978 31.244 106.805 31.5817 106.286 31.5817L104.803 31.5982L105.882 35.0084H108.757C110.306 35.0084 111.261 34.16 111.261 32.5043V24.8766H115.685V21.6311H111.261V20.3955H116.27H116.261Z" fill="white"/>
<path d="M115.792 13.2784V9.76111H111.368C111.055 8.70673 110.726 7.71002 110.33 6.911L106.105 7.71002C106.418 8.369 106.698 8.96209 106.904 9.76111H102.266V13.2784H115.792Z" fill="white"/>
<path d="M104.54 17.7678H108.436C108.321 16.977 107.851 15.2307 107.324 13.8633H103.337C103.872 15.1071 104.342 16.5486 104.54 17.7678Z" fill="white"/>
<path d="M113.749 17.7678H109.787C110.339 16.7134 110.825 15.206 111.039 13.8633H114.943C114.853 15.3048 114.177 17.1005 113.741 17.7678H113.749Z" fill="white"/>
<path d="M111.698 27.4795C111.698 27.4795 113.213 29.6212 114.597 31.5241L117.489 29.4977C116.281 27.7624 115.289 26.4087 114.515 25.4367L111.69 27.4795H111.698Z" fill="white"/>
<path d="M133.568 17.7678V35.0084H137.802V29.9425H142.225V30.585C142.225 31.2275 141.904 31.4829 141.352 31.4829H139.309L140.627 35.0084H143.362C145.158 35.0084 146.27 33.987 146.27 32.0595V17.7678H133.568ZM142.225 26.8453H137.802V25.5026H142.225V26.8453ZM142.225 22.4877H137.802V21.2192H142.225V22.4877Z" fill="white"/>
<path d="M151.369 20.4614C148.749 20.4614 147.678 19.0857 147.678 16.3839V7.3311H151.789V10.8237C153.263 10.3624 155.421 9.25039 156.583 8.32782L158.733 11.3674C156.616 12.7183 154.186 13.8139 151.789 14.514V15.7743C151.789 16.5981 152.291 16.9276 153.082 16.9276H155.281C156.089 16.9276 156.443 16.6393 156.443 15.7414V14.4976L159.96 15.4613V17.6772C159.96 19.8271 158.453 20.4696 156.608 20.4696H151.369V20.4614Z" fill="white"/>
<path d="M151.369 35.0084C148.749 35.0084 147.678 33.6328 147.678 30.931V21.4334H151.789V25.0001C153.263 24.5388 155.421 23.5751 157.003 22.3889L159.153 25.6509C156.616 27.2654 154.186 28.3609 151.789 29.0611V30.272C151.789 31.0957 152.291 31.4746 153.082 31.4746H155.281C156.089 31.4746 156.443 31.2358 156.443 30.3297V29.0364L159.96 30.0002V32.216C159.96 34.3659 158.873 35.0084 156.608 35.0084H151.369Z" fill="white"/>
<path d="M136.97 6.911L141.039 7.95714C140.627 9.51399 136.962 15.9391 134.383 16.5981L132.472 13.262C134.35 11.944 136.014 9.57165 136.978 6.911H136.97Z" fill="white"/>
<path d="M134.383 16.5981L143.551 16.1121L142.761 12.3476L136.896 12.5947L134.383 16.5981Z" fill="white"/>
<path d="M141.352 10.2389L142.967 17.0676L146.904 15.9556L145.174 9.30805L141.352 10.2389Z" fill="white"/>
<path d="M166.245 6.911C166.245 6.911 169.178 9.14331 170.413 10.6672L167.835 13.7891C167.835 13.7891 164.903 11.0049 163.313 9.96704L166.253 6.91924L166.245 6.911Z" fill="white"/>
<path d="M165.627 14.2587C165.627 14.2587 168.618 16.6228 170.109 18.3773L167.39 21.6393C167.39 21.6393 164.219 18.435 162.678 17.43L165.627 14.2587Z" fill="white"/>
<path d="M191.748 8.22073V11.6474H175.611V21.9029C175.611 25.0166 174.763 30.1731 171.525 35.0084L167.703 33.2457C170.257 29.0199 171.254 25.8403 171.254 21.2439V8.22073H191.748Z" fill="white"/>
<path d="M180.661 13.4761H176.665V25.692H180.661V13.4761Z" fill="white"/>
<path d="M190.364 16.6145V13.4761H177.819V16.6145H190.364Z" fill="white"/>
<path d="M190.364 20.9474V18.0396H177.819V20.9474H190.364Z" fill="white"/>
<path d="M190.372 25.7003V22.463H177.827V25.7003H190.372Z" fill="white"/>
<path d="M191.031 13.4761H186.946V25.692H191.031V13.4761Z" fill="white"/>
<path d="M185.776 14.3987L181.328 14.341L181.946 10.7743L186.493 10.832L185.776 14.3987Z" fill="white"/>
<path d="M165.99 22.949L169.812 24.0199C169.466 26.384 168.469 29.4894 165.677 33.5504L161.978 31.6147C161.978 31.6147 165.084 27.8173 165.99 22.949Z" fill="white"/>
<path d="M190.463 26.6888L187.069 28.155C187.069 28.155 188.502 30.9227 189.376 33.7564L193 32.356C193 32.356 191.863 28.7975 190.463 26.6888Z" fill="white"/>
<path d="M176.583 27.01C176.204 28.4186 175.636 30.0825 174.466 32.1336L178.123 33.7564C179.178 31.6888 179.796 29.8354 180.323 27.8585L176.583 27.01Z" fill="white"/>
<path d="M182.003 25.2225V30.6097C182.003 31.244 181.657 31.5735 181.056 31.5735H180.076L180.965 35.0084H183.947C185.372 35.0084 186.229 33.9129 186.229 32.529V25.2225H182.003Z" fill="white"/>
<path d="M57.8835 7.65236H51.5655V35.0084H70.9726V29.6789H57.8835V7.65236Z" fill="white"/>
<path d="M84.8772 24.58H90.0255V29.3659C89.0782 29.7283 87.2248 30.0908 85.462 30.0908C79.77 30.0908 77.8755 27.1995 77.8755 21.3345C77.8755 15.4696 79.6794 12.4382 85.3714 12.4382C88.5345 12.4382 90.3385 13.4267 91.8295 15.3295L95.7586 11.7216C93.3616 8.28663 89.1688 7.24873 85.2396 7.24873C76.3927 7.24873 71.7387 12.0758 71.7387 21.2933C71.7387 30.5109 75.9397 35.4203 85.1902 35.4203C89.4324 35.4203 93.5922 34.333 95.8493 32.7597V19.4894H84.8772V24.5882V24.58Z" fill="white"/>
</svg>
