<svg width="147" height="32" viewBox="0 0 147 32" fill="none" xmlns="http://www.w3.org/2000/svg">
<path d="M15.9924 32C24.8262 32 31.9912 24.8331 31.9912 15.9969C31.9912 7.16062 24.8262 0 15.9924 0C7.15864 0 0 7.1669 0 15.9969C0 24.8268 7.15864 32 15.9924 32Z" fill="#C00C3F"/>
<path d="M15.3588 8.98058V23.0006H19.8196V21.7517H16.6324V8.98058H15.3588Z" fill="white"/>
<path d="M10.8854 12.8088C11.9457 12.8088 12.8052 11.949 12.8052 10.8884C12.8052 9.82781 11.9457 8.97431 10.8854 8.97431C9.8251 8.97431 8.97183 9.83409 8.97183 10.8884C8.97183 11.9427 9.83137 12.8088 10.8854 12.8088Z" fill="white"/>
<path d="M16.6324 2.61071C16.463 2.59816 16.1493 2.59816 15.9862 2.59816C8.61421 2.59816 2.60371 8.61659 2.60371 15.9969C2.60371 19.574 3.99654 22.9378 6.52497 25.467C9.05339 27.9961 12.4163 29.3893 15.9924 29.3893C19.5686 29.3893 22.9315 27.9961 25.4662 25.467C27.9883 22.9378 29.3812 19.574 29.3812 15.9969V15.3881H19.8133V16.637H28.1013V16.819C27.6746 23.1324 22.4108 28.1404 15.9862 28.1404C12.7488 28.1404 9.69962 26.8727 7.4096 24.5821C5.11332 22.2914 3.85224 19.2414 3.85224 15.9969C3.85224 12.7523 5.11332 9.70857 7.4096 7.41165C9.70589 5.121 12.7488 3.8533 15.9862 3.8533C16.1305 3.8533 16.4755 3.8533 16.6324 3.86586V2.61071Z" fill="white"/>
<path d="M81.0351 19.9317C80.4704 21.5258 79.6799 23.1261 78.6008 24.149L76.2606 22.5927C77.2142 21.7203 78.0988 20.2393 78.5443 19.1661L81.0351 19.9317Z" fill="#6D6E71"/>
<path d="M97.4604 15.4132V26.2954H94.1164V15.4132H92.4036V17.9737C92.4036 21.4442 92.1338 23.5152 90.5151 26.3016L87.5977 25.0528C88.6015 23.1387 89.116 22.1659 89.116 17.2018V7.02883C93.0812 6.76525 95.7727 6.19416 97.9247 5.17121L99.0603 8.18984C97.4291 8.89272 94.8316 9.53285 92.4161 9.73995V12.4887H99.7128V15.4132H97.4604Z" fill="#6D6E71"/>
<path d="M88.5513 15.1622V12.6268H77.3899V15.1622H81.4805V16.1035H77.9106V18.5762H81.4805V23.1826C81.4805 23.4273 81.3488 23.6846 80.9535 23.6846L79.8242 23.6972L80.6461 26.2954H82.8357C84.0152 26.2954 84.743 25.649 84.743 24.3875V18.5762H88.1122V16.1035H84.743V15.1622H88.5576H88.5513Z" fill="#6D6E71"/>
<path d="M88.1937 9.73995V7.06021H84.8246C84.5862 6.25691 84.3352 5.49755 84.0341 4.8888L80.8155 5.49755C81.0539 5.99961 81.2672 6.45146 81.4241 7.06021H77.8918V9.73995H88.1937Z" fill="#6D6E71"/>
<path d="M79.6234 13.1602H82.591C82.5032 12.5578 82.1456 11.2273 81.744 10.1855H78.7074C79.1152 11.1332 79.4729 12.2314 79.6234 13.1602Z" fill="#6D6E71"/>
<path d="M86.6378 13.1602H83.62C84.0403 12.3569 84.4105 11.2085 84.5736 10.1855H87.5475C87.4785 11.2838 86.964 12.6519 86.6315 13.1602H86.6378Z" fill="#6D6E71"/>
<path d="M85.0755 20.5593C85.0755 20.5593 86.23 22.191 87.284 23.6407L89.4862 22.0969C88.566 20.7748 87.811 19.7435 87.2213 19.0029L85.0693 20.5593H85.0755Z" fill="#6D6E71"/>
<path d="M101.733 13.1602V26.2954H104.958V22.4358H108.327V22.9253C108.327 23.4148 108.082 23.6093 107.662 23.6093H106.106L107.11 26.2954H109.193C110.561 26.2954 111.408 25.5172 111.408 24.0486V13.1602H101.733ZM108.327 20.0761H104.958V19.0531H108.327V20.0761ZM108.327 16.7562H104.958V15.7898H108.327V16.7562Z" fill="#6D6E71"/>
<path d="M115.291 15.2124C113.296 15.2124 112.48 14.1643 112.48 12.1059V5.20886H115.611V7.86978C116.734 7.51834 118.378 6.67111 119.263 5.96823L120.9 8.28398C119.288 9.3132 117.437 10.1479 115.611 10.6813V11.6415C115.611 12.2691 115.994 12.5201 116.596 12.5201H118.271C118.886 12.5201 119.156 12.3005 119.156 11.6164V10.6688L121.835 11.403V13.0912C121.835 14.7292 120.687 15.2187 119.281 15.2187H115.291V15.2124Z" fill="#6D6E71"/>
<path d="M115.291 26.2954C113.296 26.2954 112.48 25.2473 112.48 23.1889V15.9529H115.611V18.6703C116.734 18.3189 118.378 17.5846 119.583 16.6809L121.22 19.1661C119.288 20.3962 117.437 21.2308 115.611 21.7643V22.6868C115.611 23.3144 115.994 23.6031 116.596 23.6031H118.271C118.886 23.6031 119.156 23.4211 119.156 22.7307V21.7454L121.835 22.4797V24.1679C121.835 25.8058 121.007 26.2954 119.281 26.2954H115.291Z" fill="#6D6E71"/>
<path d="M104.324 4.8888L107.424 5.68582C107.11 6.87194 104.318 11.767 102.354 12.2691L100.899 9.7274C102.329 8.72328 103.596 6.91587 104.33 4.8888H104.324Z" fill="#6D6E71"/>
<path d="M102.354 12.2691L109.337 11.8988L108.735 9.03079L104.268 9.21906L102.354 12.2691Z" fill="#6D6E71"/>
<path d="M107.662 7.4242L108.892 12.6268L111.891 11.7796L110.573 6.71504L107.662 7.4242Z" fill="#6D6E71"/>
<path d="M126.622 4.8888C126.622 4.8888 128.856 6.58953 129.797 7.75054L127.833 10.129C127.833 10.129 125.599 8.00784 124.388 7.2171L126.628 4.89508L126.622 4.8888Z" fill="#6D6E71"/>
<path d="M126.151 10.4868C126.151 10.4868 128.429 12.2879 129.565 13.6246L127.494 16.1098C127.494 16.1098 125.079 13.6686 123.905 12.9029L126.151 10.4868Z" fill="#6D6E71"/>
<path d="M146.046 5.88664V8.49735H133.756V16.3106C133.756 18.6829 133.109 22.6115 130.644 26.2954L127.733 24.9523C129.677 21.7329 130.437 19.3105 130.437 15.8086V5.88664H146.046Z" fill="#6D6E71"/>
<path d="M137.602 9.89057H134.559V19.1975H137.602V9.89057Z" fill="#6D6E71"/>
<path d="M144.992 12.2816V9.89057H135.437V12.2816H144.992Z" fill="#6D6E71"/>
<path d="M144.992 15.5827V13.3673H135.437V15.5827H144.992Z" fill="#6D6E71"/>
<path d="M144.999 19.2038V16.7374H135.443V19.2038H144.999Z" fill="#6D6E71"/>
<path d="M145.501 9.89057H142.389V19.1975H145.501V9.89057Z" fill="#6D6E71"/>
<path d="M141.498 10.5934L138.11 10.5495L138.58 7.83212L142.044 7.87605L141.498 10.5934Z" fill="#6D6E71"/>
<path d="M126.428 17.1077L129.339 17.9235C129.075 19.7247 128.316 22.0906 126.189 25.1845L123.372 23.7097C123.372 23.7097 125.737 20.8166 126.428 17.1077Z" fill="#6D6E71"/>
<path d="M145.068 19.9569L142.483 21.0739C142.483 21.0739 143.574 23.1826 144.239 25.3414L147 24.2746C147 24.2746 146.134 21.5634 145.068 19.9569Z" fill="#6D6E71"/>
<path d="M134.496 20.2016C134.207 21.2748 133.774 22.5425 132.883 24.1051L135.669 25.3414C136.472 23.7662 136.943 22.3542 137.344 20.848L134.496 20.2016Z" fill="#6D6E71"/>
<path d="M138.624 18.8398V22.9441C138.624 23.4273 138.361 23.6784 137.903 23.6784H137.156L137.834 26.2954H140.105C141.19 26.2954 141.843 25.4607 141.843 24.4064V18.8398H138.624Z" fill="#6D6E71"/>
<path d="M44.0874 5.45362H39.2753V26.2954H54.0569V22.2349H44.0874V5.45362Z" fill="#6D6E71"/>
<path d="M64.6474 18.3503H68.5686V21.9965C67.8471 22.2726 66.4355 22.5487 65.0928 22.5487C60.7575 22.5487 59.3145 20.3459 59.3145 15.8776C59.3145 11.4093 60.6885 9.09982 65.0238 9.09982C67.433 9.09982 68.807 9.85291 69.9426 11.3026L72.9353 8.55383C71.1096 5.93685 67.9161 5.14611 64.9234 5.14611C58.1852 5.14611 54.6403 8.82369 54.6403 15.8462C54.6403 22.8688 57.8401 26.6091 64.8858 26.6091C68.1169 26.6091 71.2853 25.7807 73.0043 24.5821V14.4719H64.6474V18.3565V18.3503Z" fill="#6D6E71"/>
</svg>
