<svg width="338" height="42" viewBox="0 0 338 42" fill="none" xmlns="http://www.w3.org/2000/svg">
<path d="M19.9937 39.9281C31.0305 39.9281 39.9936 30.9976 39.9936 19.9703C39.9936 8.94294 31.0305 0 19.9937 0C8.95687 0 0 8.9367 0 19.9703C0 31.0039 8.94438 39.9281 19.9937 39.9281Z" fill="#BC1E44"/>
<path d="M19.1942 11.2083V28.726H24.7657V27.1471H20.7994V11.2083H19.1942Z" fill="white"/>
<path d="M13.6102 15.9887C14.9344 15.9887 16.0024 14.9091 16.0024 13.5985C16.0024 12.288 14.9344 11.2021 13.6102 11.2021C12.286 11.2021 11.2179 12.2817 11.2179 13.5985C11.2179 14.9153 12.286 15.9887 13.6102 15.9887Z" fill="white"/>
<path d="M20.7994 3.25765C20.5933 3.24517 20.1936 3.23269 20.0062 3.23269C10.7745 3.23269 3.2667 10.7403 3.2667 19.9578C3.2667 24.4324 5.00935 28.6324 8.16362 31.784C11.3304 34.9293 15.534 36.6704 20.0124 36.6704C24.4909 36.6704 28.6757 34.9293 31.8362 31.784C34.9967 28.6262 36.7456 24.4324 36.7456 19.9578V19.2152H24.7907V20.7566H35.1467C35.1467 20.7878 35.1466 20.9501 35.1404 20.9938C34.6157 28.8758 28.0261 35.1165 20.0062 35.1165C15.9462 35.1165 12.1424 33.5376 9.27542 30.6731C6.40222 27.8211 4.82197 24.0205 4.82197 19.9578C4.82197 15.8951 6.40222 12.1007 9.27542 9.2425C12.1424 6.38425 15.9462 4.80535 20.0062 4.80535C20.1811 4.80535 20.6058 4.80535 20.7994 4.81783V3.25765Z" fill="white"/>
<path d="M55.0404 6.72125H49.0317V32.7325H67.4951V27.6651H55.0404V6.72125Z" fill="white"/>
<path d="M80.7242 22.816H85.6212V27.3655C84.7217 27.7088 82.9603 28.052 81.2801 28.052C75.871 28.052 74.0659 25.3061 74.0659 19.7269C74.0659 14.1477 75.7836 11.277 81.1927 11.277C84.2033 11.277 85.921 12.2193 87.3326 14.0229L91.074 10.5905C88.8004 7.3266 84.8029 6.34056 81.0678 6.34056C72.6481 6.34056 68.2259 10.9275 68.2259 19.6832C68.2259 28.4389 72.2233 33.1132 81.0241 33.1132C85.059 33.1132 89.0128 32.0835 91.1614 30.5795V17.967H80.7242V22.816Z" fill="white"/>
<path d="M105.602 21.5929H116.827V17.1869H105.602V11.2395H117.214V6.79614H100.262V32.7637H117.645V28.2517H105.602V21.5929Z" fill="white"/>
<path d="M130.587 14.285C128.582 14.285 126.427 14.7842 124.853 15.8264V14.7156H119.725V32.7637H124.921V19.4773C125.565 19.0092 126.858 18.5474 127.932 18.5474C130.474 18.5474 131.018 19.5522 131.018 21.5554V32.7637H136.214V20.301C136.214 16.6814 134.921 14.285 130.587 14.285Z" fill="white"/>
<path d="M166.864 14.2475C165.215 14.2475 163.066 15.0339 162.061 16.1822V14.7156H157.045V32.7637H162.242V20.3385C163.135 19.1902 164.784 18.4725 166.47 18.4725C167.401 18.4725 168.444 18.7221 169.019 19.0467L170.199 14.8591C169.412 14.4285 168.082 14.2475 166.864 14.2475Z" fill="white"/>
<path d="M147.22 14.2475C141.449 14.2475 138.438 17.6862 138.438 23.6336C138.438 29.9367 140.73 33.1944 147.47 33.1944C150.662 33.1944 153.597 32.227 154.996 31.2972L154.028 27.896C152.485 28.6823 150.231 29.2565 148.4 29.2565C146.57 29.2565 145.209 28.7198 144.634 28.1082C143.953 27.353 143.628 26.1361 143.628 24.8817H155.315V23.2716C155.315 18.1168 152.985 14.2475 147.214 14.2475H147.22ZM143.635 21.5554C143.703 19.0467 144.928 17.8297 147.076 17.8297C149.225 17.8297 150.193 19.3712 150.193 21.5554H143.635Z" fill="white"/>
<path d="M182.348 15.3958C181.417 14.753 179.662 14.2475 178.157 14.2475C171.667 14.2475 169.662 18.329 169.662 24.345C169.662 29.6808 172.061 33.1881 177.545 33.1881C178.981 33.1881 180.555 33.0071 181.523 32.6889V34.299C181.523 37.0886 179.943 38.0247 176.939 38.0247C175.071 38.0247 173.247 37.4505 172.46 37.0199L171.242 40.7456C172.679 41.4633 174.79 42 177.264 42C182.604 42 186.764 39.6348 186.764 33.2256V14.6033H182.641L182.354 15.3896L182.348 15.3958ZM181.486 29.038C180.986 29.219 180.193 29.3251 179.406 29.3251C176.608 29.3251 174.928 28.0021 174.928 23.8458C174.928 19.6894 176.395 18.1542 179.262 18.1542C180.087 18.1542 180.874 18.3352 181.486 18.6223V29.0443V29.038Z" fill="white"/>
<path d="M197.763 26.7103L193.928 14.7094H188.407L195.683 32.7949C194.609 36.6642 193.172 37.3756 190.486 37.3756C189.949 37.3756 189.443 37.3382 189.087 37.2695L188.481 41.3198C189.306 41.5319 190.274 41.5694 191.205 41.5694C195.933 41.5694 198.194 39.1355 199.987 34.299L207.195 14.7094H202.035L198.45 26.7103H197.763Z" fill="white"/>
<path d="M332.372 14.285C330.367 14.285 328.212 14.7842 326.638 15.8264V14.7156H321.51V32.7637H326.707V19.4773C327.35 19.0092 328.643 18.5474 329.718 18.5474C332.26 18.5474 332.803 19.5522 332.803 21.5554V32.7637H338V20.301C338 16.6814 336.707 14.285 332.372 14.285Z" fill="white"/>
<path d="M227.132 18.6909C226.164 18.2978 224.334 17.7236 223.366 17.4366C220.143 16.5441 218.381 15.7141 218.381 13.6048C218.381 12.0321 219.425 10.8089 222.972 10.8089C225.514 10.8089 228.025 11.6701 229.749 12.6749L231.617 8.51857C229.181 7.08945 225.489 6.40297 222.872 6.40297C215.952 6.40297 212.766 9.48588 212.766 13.8856C212.766 17.6799 215.633 19.9765 218.75 21.1935C220.293 21.7676 222.01 22.3418 223.303 22.6975C225.383 23.2716 226.208 24.2764 226.208 25.7055C226.208 27.4966 224.952 28.57 221.654 28.57C219 28.57 216.458 27.6776 214.34 26.4544L212.366 30.8229C215.052 32.3643 218.675 33.1881 221.686 33.1881C228.138 33.1881 231.904 29.9679 231.904 25.4871C231.904 21.2621 229.643 19.7581 227.138 18.6847L227.132 18.6909Z" fill="white"/>
<path d="M242.941 14.2475C236.345 14.2475 233.547 17.3617 233.547 23.6648C233.547 29.5747 235.552 33.1944 242.185 33.1944C248.819 33.1944 251.611 30.1489 251.611 23.8458C251.611 17.5426 249.606 14.2475 242.935 14.2475H242.941ZM242.291 29.4312C239.568 29.4312 238.819 27.3156 238.819 23.7022C238.819 19.6208 239.681 18.0045 242.835 18.0045C245.739 18.0045 246.345 20.1513 246.345 23.5212C246.345 27.6776 245.558 29.4312 242.291 29.4312Z" fill="white"/>
<path d="M311.379 14.2475C304.783 14.2475 301.985 17.3617 301.985 23.6648C301.985 29.5747 303.99 33.1944 310.623 33.1944C317.257 33.1944 320.049 30.1489 320.049 23.8458C320.049 17.5426 318.044 14.2475 311.373 14.2475H311.379ZM310.73 29.4312C308.006 29.4312 307.251 27.3156 307.251 23.7022C307.251 19.6208 308.113 18.0045 311.267 18.0045C314.171 18.0045 314.777 20.1513 314.777 23.5212C314.777 27.6776 313.99 29.4312 310.723 29.4312H310.73Z" fill="white"/>
<path d="M258.812 6.69004H253.578V32.7637H258.812V6.69004Z" fill="white"/>
<path d="M300.392 14.7156H295.196V32.7637H300.392V14.7156Z" fill="white"/>
<path d="M300.43 6.6214H295.158V10.8089H300.43V6.6214Z" fill="white"/>
<path d="M289.274 28.9319C287.55 28.9319 286.92 28.3578 286.92 26.0675V18.797H292.853V14.7156H286.92V10.3845L281.898 11.3893V14.7218H278.843V18.7658H281.898V26.7165C281.898 31.4782 283.334 33.2006 287.413 33.2006C289.699 33.2006 291.873 32.7013 293.565 31.7652L292.828 28.0395C291.735 28.6137 290.299 28.9382 289.281 28.9382L289.274 28.9319Z" fill="white"/>
<path d="M272.372 27.9334C271.917 28.3266 270.686 28.9382 269.456 28.9382C267.101 28.9382 266.576 28.3328 266.576 25.9988V14.7156H261.554V27.1783C261.554 30.7917 262.785 33.1944 267.107 33.1944C269.318 33.1944 271.386 32.5266 272.554 31.6841L272.541 32.7637H277.401V14.7156H272.379V27.9334H272.372Z" fill="white"/>
</svg>
