<svg width="220" height="27" viewBox="0 0 220 27" fill="none" xmlns="http://www.w3.org/2000/svg">
<path d="M13.0136 25.6681C20.1974 25.6681 26.0313 19.927 26.0313 12.838C26.0313 5.74903 20.1974 0 13.0136 0C5.82991 0 0 5.74502 0 12.838C0 19.9311 5.82178 25.6681 13.0136 25.6681Z" fill="#BC1E44"/>
<path d="M12.4933 7.20535V18.4667H16.1197V17.4517H13.5381V7.20535H12.4933Z" fill="white"/>
<path d="M8.85871 10.2785C9.72059 10.2785 10.4158 9.5844 10.4158 8.7419C10.4158 7.89941 9.72059 7.20134 8.85871 7.20134C7.99682 7.20134 7.30162 7.89539 7.30162 8.7419C7.30162 9.58841 7.99682 10.2785 8.85871 10.2785Z" fill="white"/>
<path d="M13.5381 2.0942C13.4039 2.08618 13.1437 2.07816 13.0218 2.07816C7.01297 2.07816 2.12625 6.90446 2.12625 12.83C2.12625 15.7065 3.26052 18.4065 5.3136 20.4325C7.3748 22.4545 10.1109 23.5738 13.0258 23.5738C15.9408 23.5738 18.6647 22.4545 20.7218 20.4325C22.7789 18.4025 23.9173 15.7065 23.9173 12.83V12.3526H16.1359V13.3435H22.8765C22.8765 13.3636 22.8765 13.4679 22.8725 13.496C22.531 18.563 18.2419 22.5749 13.0218 22.5749C10.3792 22.5749 7.90332 21.5599 6.03725 19.7184C4.16713 17.885 3.13856 15.4418 3.13856 12.83C3.13856 10.2183 4.16713 7.77905 6.03725 5.94161C7.90332 4.10416 10.3792 3.08915 13.0218 3.08915C13.1356 3.08915 13.4121 3.08915 13.5381 3.09718V2.0942Z" fill="white"/>
<path d="M35.8251 4.3208H31.9141V21.0423H43.9317V17.7847H35.8251V4.3208Z" fill="#6D6E71"/>
<path d="M52.5424 14.6675H55.7298V17.5921C55.1443 17.8128 53.9979 18.0334 52.9042 18.0334C49.3835 18.0334 48.2086 16.2682 48.2086 12.6816C48.2086 9.09495 49.3266 7.24948 52.8473 7.24948C54.8069 7.24948 55.9249 7.85527 56.8437 9.01471L59.2789 6.80817C57.7991 4.70996 55.1972 4.07608 52.766 4.07608C47.2857 4.07608 44.4074 7.02481 44.4074 12.6535C44.4074 18.2822 47.0093 21.2871 52.7376 21.2871C55.3639 21.2871 57.9373 20.6251 59.3358 19.6582V11.5502H52.5424V14.6675Z" fill="#6D6E71"/>
<path d="M68.7353 13.8811H76.0409V11.0487H68.7353V7.22541H76.293V4.36895H65.2593V21.0624H76.5735V18.1618H68.7353V13.8811Z" fill="#6D6E71"/>
<path d="M84.9972 9.18321C83.6922 9.18321 82.2896 9.50416 81.2651 10.1741V9.46003H77.9273V21.0624H81.3098V12.5211C81.7286 12.2202 82.5701 11.9233 83.2694 11.9233C84.924 11.9233 85.2777 12.5692 85.2777 13.8571V21.0624H88.6602V13.0507C88.6602 10.7238 87.8187 9.18321 84.9972 9.18321Z" fill="#6D6E71"/>
<path d="M108.61 9.15914C107.536 9.15914 106.138 9.66464 105.483 10.4028V9.46003H102.219V21.0624H105.601V13.0747C106.183 12.3366 107.256 11.8752 108.353 11.8752C108.959 11.8752 109.638 12.0357 110.012 12.2443L110.781 9.5523C110.268 9.27548 109.402 9.15914 108.61 9.15914Z" fill="#6D6E71"/>
<path d="M95.8236 9.15914C92.0671 9.15914 90.1076 11.3697 90.1076 15.193C90.1076 19.245 91.5996 21.3392 95.9863 21.3392C98.0637 21.3392 99.9745 20.7174 100.885 20.1196L100.255 17.9331C99.2508 18.4386 97.7832 18.8077 96.592 18.8077C95.4008 18.8077 94.5145 18.4627 94.1405 18.0695C93.6974 17.5841 93.486 16.8018 93.486 15.9954H101.093V14.9603C101.093 11.6465 99.5761 9.15914 95.8196 9.15914H95.8236ZM93.49 13.8571C93.5348 12.2443 94.3316 11.462 95.7301 11.462C97.1287 11.462 97.7588 12.4529 97.7588 13.8571H93.49Z" fill="#6D6E71"/>
<path d="M118.688 9.89733C118.082 9.4841 116.94 9.15914 115.96 9.15914C111.736 9.15914 110.431 11.7829 110.431 15.6504C110.431 19.0805 111.992 21.3352 115.562 21.3352C116.497 21.3352 117.521 21.2189 118.151 21.0143V22.0493C118.151 23.8426 117.123 24.4444 115.167 24.4444C113.952 24.4444 112.765 24.0753 112.252 23.7985L111.46 26.1936C112.395 26.655 113.769 27 115.379 27C118.855 27 121.562 25.4795 121.562 21.3593V9.38782H118.879L118.692 9.89331L118.688 9.89733ZM118.127 18.6673C117.802 18.7837 117.285 18.8519 116.773 18.8519C114.952 18.8519 113.858 18.0013 113.858 15.3294C113.858 12.6575 114.814 11.6706 116.68 11.6706C117.216 11.6706 117.728 11.7869 118.127 11.9715V18.6713V18.6673Z" fill="#6D6E71"/>
<path d="M128.722 17.1709L126.225 9.45602H122.631L127.368 21.0825C126.669 23.5698 125.733 24.0272 123.985 24.0272C123.636 24.0272 123.306 24.0031 123.075 23.959L122.68 26.5627C123.217 26.6991 123.847 26.7232 124.453 26.7232C127.53 26.7232 129.002 25.1585 130.169 22.0493L134.86 9.45602H131.502L129.169 17.1709H128.722Z" fill="#6D6E71"/>
<path d="M216.337 9.18321C215.032 9.18321 213.629 9.50416 212.605 10.1741V9.46003H209.267V21.0624H212.65V12.5211C213.068 12.2202 213.91 11.9233 214.609 11.9233C216.264 11.9233 216.618 12.5692 216.618 13.8571V21.0624H220V13.0507C220 10.7238 219.158 9.18321 216.337 9.18321Z" fill="#6D6E71"/>
<path d="M147.838 12.0156C147.207 11.7629 146.016 11.3938 145.386 11.2092C143.288 10.6355 142.142 10.1019 142.142 8.74591C142.142 7.73492 142.821 6.94859 145.13 6.94859C146.785 6.94859 148.419 7.50223 149.541 8.14814L150.757 5.47623C149.171 4.5575 146.768 4.1162 145.065 4.1162C140.56 4.1162 138.487 6.09807 138.487 8.92645C138.487 11.3657 140.353 12.842 142.382 13.6244C143.386 13.9935 144.504 14.3626 145.345 14.5912C146.699 14.9603 147.236 15.6062 147.236 16.525C147.236 17.6764 146.419 18.3664 144.272 18.3664C142.544 18.3664 140.89 17.7927 139.511 17.0064L138.227 19.8147C139.975 20.8056 142.333 21.3352 144.292 21.3352C148.492 21.3352 150.944 19.2651 150.944 16.3845C150.944 13.6685 149.472 12.7016 147.842 12.0116L147.838 12.0156Z" fill="#6D6E71"/>
<path d="M158.127 9.15914C153.834 9.15914 152.013 11.1611 152.013 15.2131C152.013 19.0123 153.318 21.3392 157.635 21.3392C161.953 21.3392 163.77 19.3814 163.77 15.3294C163.77 11.2774 162.465 9.15914 158.123 9.15914H158.127ZM157.704 18.9201C155.932 18.9201 155.444 17.56 155.444 15.2371C155.444 12.6134 156.005 11.5743 158.058 11.5743C159.949 11.5743 160.343 12.9544 160.343 15.1208C160.343 17.7927 159.831 18.9201 157.704 18.9201Z" fill="#6D6E71"/>
<path d="M202.673 9.15914C198.38 9.15914 196.558 11.1611 196.558 15.2131C196.558 19.0123 197.863 21.3392 202.181 21.3392C206.498 21.3392 208.316 19.3814 208.316 15.3294C208.316 11.2774 207.011 9.15914 202.669 9.15914H202.673ZM202.25 18.9201C200.478 18.9201 199.986 17.56 199.986 15.2371C199.986 12.6134 200.547 11.5743 202.6 11.5743C204.49 11.5743 204.885 12.9544 204.885 15.1208C204.885 17.7927 204.372 18.9201 202.246 18.9201H202.25Z" fill="#6D6E71"/>
<path d="M168.458 4.30074H165.051V21.0624H168.458V4.30074Z" fill="#6D6E71"/>
<path d="M195.522 9.46003H192.139V21.0624H195.522V9.46003Z" fill="#6D6E71"/>
<path d="M195.546 4.25661H192.115V6.94859H195.546V4.25661Z" fill="#6D6E71"/>
<path d="M188.285 18.5991C187.163 18.5991 186.752 18.23 186.752 16.7577V12.0838H190.615V9.46003H186.752V6.67578L183.484 7.32169V9.46404H181.496V12.0637H183.484V17.1749C183.484 20.236 184.419 21.3432 187.074 21.3432C188.562 21.3432 189.976 21.0223 191.078 20.4205L190.598 18.0254C189.887 18.3945 188.952 18.6031 188.289 18.6031L188.285 18.5991Z" fill="#6D6E71"/>
<path d="M177.284 17.9572C176.987 18.21 176.186 18.6031 175.385 18.6031C173.853 18.6031 173.511 18.214 173.511 16.7135V9.46003H170.242V17.4718C170.242 19.7946 171.043 21.3392 173.857 21.3392C175.296 21.3392 176.642 20.91 177.402 20.3684L177.394 21.0624H180.557V9.46003H177.288V17.9572H177.284Z" fill="#6D6E71"/>
</svg>
