<svg width="450" height="56" viewBox="0 0 450 56" fill="none" xmlns="http://www.w3.org/2000/svg">
<path d="M26.6188 53.2374C41.3128 53.2374 53.2459 41.3302 53.2459 26.627C53.2459 11.9239 41.3128 0 26.6188 0C11.9248 0 0 11.9156 0 26.627C0 41.3385 11.9082 53.2374 26.6188 53.2374Z" fill="#BC1E44"/>
<path d="M25.5544 14.9444V38.3013H32.9721V36.1961H27.6915V14.9444H25.5544Z" fill="white"/>
<path d="M18.1201 21.3183C19.883 21.3183 21.305 19.8788 21.305 18.1314C21.305 16.384 19.883 14.9361 18.1201 14.9361C16.3571 14.9361 14.9351 16.3756 14.9351 18.1314C14.9351 19.8871 16.3571 21.3183 18.1201 21.3183Z" fill="white"/>
<path d="M27.6915 4.34354C27.4171 4.32689 26.8849 4.31025 26.6354 4.31025C14.3447 4.31025 4.34915 14.3204 4.34915 26.6104C4.34915 32.5765 6.66925 38.1765 10.8687 42.3786C15.0848 46.5724 20.6813 48.8939 26.6438 48.8939C32.6062 48.8939 38.1777 46.5724 42.3855 42.3786C46.5933 38.1682 48.9217 32.5765 48.9217 26.6104V25.6202H33.0053V27.6755H46.7929C46.7929 27.7171 46.7929 27.9334 46.7846 27.9917C46.086 38.501 37.3129 46.822 26.6354 46.822C21.2302 46.822 16.1659 44.7168 12.3489 40.8975C8.52367 37.0948 6.41978 32.0273 6.41978 26.6104C6.41978 21.1935 8.52367 16.1343 12.3489 12.3233C16.1659 8.51233 21.2302 6.40713 26.6354 6.40713C26.8683 6.40713 27.4338 6.40713 27.6915 6.42377V4.34354Z" fill="white"/>
<path d="M73.2786 8.96166H65.2789V43.6434H89.8603V36.8868H73.2786V8.96166Z" fill="#6D6E71"/>
<path d="M107.473 30.4214H113.993V36.4874C112.795 36.945 110.45 37.4027 108.213 37.4027C101.012 37.4027 98.6085 33.7415 98.6085 26.3025C98.6085 18.8636 100.895 15.036 108.097 15.036C112.105 15.036 114.392 16.2924 116.271 18.6972L121.252 14.1207C118.225 9.7688 112.903 8.45409 107.93 8.45409C96.7208 8.45409 90.8332 14.57 90.8332 26.2443C90.8332 37.9186 96.1553 44.151 107.872 44.151C113.244 44.151 118.508 42.778 121.369 40.7727V23.956H107.473V30.4214Z" fill="#6D6E71"/>
<path d="M140.595 28.7905H155.538V22.9159H140.595V14.986H156.054V9.06152H133.485V43.685H156.628V37.6689H140.595V28.7905Z" fill="#6D6E71"/>
<path d="M173.858 19.0467C171.189 19.0467 168.32 19.7123 166.224 21.1019V19.6208H159.397V43.685H166.316V25.9697C167.172 25.3456 168.893 24.7299 170.324 24.7299C173.708 24.7299 174.432 26.0695 174.432 28.7406V43.685H181.35V27.0681C181.35 22.2419 179.629 19.0467 173.858 19.0467Z" fill="#6D6E71"/>
<path d="M222.156 18.9967C219.961 18.9967 217.1 20.0452 215.761 21.5762V19.6208H209.084V43.685H216.002V27.118C217.191 25.5869 219.387 24.63 221.632 24.63C222.871 24.63 224.26 24.9629 225.025 25.3955L226.597 19.8122C225.549 19.238 223.778 18.9967 222.156 18.9967Z" fill="#6D6E71"/>
<path d="M196.003 18.9967C188.319 18.9967 184.311 23.5816 184.311 31.5114C184.311 39.9156 187.363 44.2591 196.336 44.2591C200.585 44.2591 204.493 42.9694 206.356 41.7296L205.067 37.1947C203.013 38.2431 200.011 39.0086 197.575 39.0086C195.138 39.0086 193.325 38.293 192.56 37.4776C191.654 36.4707 191.221 34.8481 191.221 33.1756H206.78V31.0288C206.78 24.1557 203.678 18.9967 195.995 18.9967H196.003ZM191.23 28.7406C191.321 25.3955 192.951 23.773 195.812 23.773C198.672 23.773 199.961 25.8282 199.961 28.7406H191.23Z" fill="#6D6E71"/>
<path d="M242.771 20.5278C241.532 19.6707 239.195 18.9967 237.191 18.9967C228.551 18.9967 225.881 24.4386 225.881 32.46C225.881 39.5744 229.075 44.2508 236.376 44.2508C238.289 44.2508 240.384 44.0095 241.673 43.5851V45.7319C241.673 49.4514 239.569 50.6996 235.569 50.6996C233.083 50.6996 230.655 49.934 229.607 49.3599L227.985 54.3275C229.898 55.2844 232.709 56 236.002 56C243.112 56 248.65 52.8464 248.65 44.3007V19.471H243.162L242.779 20.5195L242.771 20.5278ZM241.623 38.7174C240.958 38.9587 239.902 39.1002 238.854 39.1002C235.129 39.1002 232.892 37.3361 232.892 31.7944C232.892 26.2526 234.846 24.2056 238.663 24.2056C239.76 24.2056 240.808 24.447 241.623 24.8297V38.7257V38.7174Z" fill="#6D6E71"/>
<path d="M263.294 35.6137L258.188 19.6125H250.837L260.525 43.7266C259.095 48.8856 257.182 49.8342 253.606 49.8342C252.891 49.8342 252.218 49.7843 251.744 49.6927L250.937 55.093C252.035 55.3759 253.324 55.4259 254.563 55.4259C260.858 55.4259 263.868 52.1807 266.255 45.7319L275.851 19.6125H268.982L264.209 35.6137H263.294Z" fill="#6D6E71"/>
<path d="M442.507 19.0467C439.838 19.0467 436.969 19.7123 434.874 21.1019V19.6208H428.046V43.685H434.965V25.9697C435.822 25.3456 437.543 24.7299 438.973 24.7299C442.358 24.7299 443.081 26.0695 443.081 28.7406V43.685H450V27.0681C450 22.2419 448.279 19.0467 442.507 19.0467Z" fill="#6D6E71"/>
<path d="M302.395 24.9212C301.106 24.397 298.669 23.6315 297.381 23.2487C293.09 22.0588 290.745 20.9522 290.745 18.1397C290.745 16.0428 292.133 14.4119 296.857 14.4119C300.241 14.4119 303.584 15.5602 305.879 16.8999L308.366 11.3581C305.123 9.4526 300.208 8.5373 296.724 8.5373C287.51 8.5373 283.269 12.6478 283.269 18.5141C283.269 23.5733 287.086 26.6354 291.235 28.2579C293.289 29.0235 295.576 29.789 297.297 30.2633C300.067 31.0288 301.164 32.3685 301.164 34.274C301.164 36.6621 299.493 38.0933 295.102 38.0933C291.568 38.0933 288.183 36.9034 285.364 35.2725L282.736 41.0972C286.312 43.1525 291.135 44.2508 295.144 44.2508C303.734 44.2508 308.748 39.9572 308.748 33.9828C308.748 28.3495 305.738 26.3441 302.403 24.9129L302.395 24.9212Z" fill="#6D6E71"/>
<path d="M323.442 18.9967C314.661 18.9967 310.935 23.1489 310.935 31.553C310.935 39.433 313.605 44.2591 322.436 44.2591C331.267 44.2591 334.984 40.1985 334.984 31.7944C334.984 23.3902 332.315 18.9967 323.434 18.9967H323.442ZM322.577 39.2416C318.952 39.2416 317.954 36.4208 317.954 31.603C317.954 26.1611 319.101 24.0059 323.301 24.0059C327.168 24.0059 327.974 26.8683 327.974 31.3617C327.974 36.9034 326.926 39.2416 322.577 39.2416Z" fill="#6D6E71"/>
<path d="M414.558 18.9967C405.777 18.9967 402.051 23.1489 402.051 31.553C402.051 39.433 404.721 44.2591 413.552 44.2591C422.383 44.2591 426.1 40.1985 426.1 31.7944C426.1 23.3902 423.431 18.9967 414.55 18.9967H414.558ZM413.693 39.2416C410.068 39.2416 409.061 36.4208 409.061 31.603C409.061 26.1611 410.209 24.0059 414.408 24.0059C418.275 24.0059 419.082 26.8683 419.082 31.3617C419.082 36.9034 418.034 39.2416 413.685 39.2416H413.693Z" fill="#6D6E71"/>
<path d="M344.573 8.92006H337.604V43.685H344.573V8.92006Z" fill="#6D6E71"/>
<path d="M399.931 19.6208H393.012V43.685H399.931V19.6208Z" fill="#6D6E71"/>
<path d="M399.981 8.82853H392.962V14.4119H399.981V8.82853Z" fill="#6D6E71"/>
<path d="M385.129 38.5759C382.833 38.5759 381.994 37.8104 381.994 34.7566V25.0627H389.894V19.6208H381.994V13.8461L375.308 15.1857V19.6291H371.241V25.0211H375.308V35.622C375.308 41.9709 377.22 44.2675 382.65 44.2675C385.694 44.2675 388.588 43.6018 390.842 42.3536L389.86 37.386C388.405 38.1516 386.492 38.5842 385.137 38.5842L385.129 38.5759Z" fill="#6D6E71"/>
<path d="M362.626 37.2446C362.019 37.7688 360.381 38.5842 358.743 38.5842C355.608 38.5842 354.909 37.7771 354.909 34.6651V19.6208H348.223V36.2377C348.223 41.0556 349.861 44.2591 355.616 44.2591C358.56 44.2591 361.312 43.3688 362.867 42.2455L362.851 43.685H369.32V19.6208H362.634V37.2446H362.626Z" fill="#6D6E71"/>
</svg>
