<svg width="169" height="21" viewBox="0 0 169 21" fill="none" xmlns="http://www.w3.org/2000/svg">
<path d="M9.99684 19.964C15.5152 19.964 19.9968 15.4988 19.9968 9.98514C19.9968 4.47147 15.5152 0 9.99684 0C4.47843 0 0 4.46835 0 9.98514C0 15.5019 4.47219 19.964 9.99684 19.964Z" fill="#BC1E44"/>
<path d="M9.59709 5.60416V14.363H12.3828V13.5736H10.3997V5.60416H9.59709Z" fill="white"/>
<path d="M6.8051 7.99435C7.46718 7.99435 8.00122 7.45453 8.00122 6.79926C8.00122 6.14398 7.46718 5.60104 6.8051 5.60104C6.14301 5.60104 5.60897 6.14086 5.60897 6.79926C5.60897 7.45765 6.14301 7.99435 6.8051 7.99435Z" fill="white"/>
<path d="M10.3997 1.62883C10.2967 1.62259 10.0968 1.61634 10.0031 1.61634C5.38724 1.61634 1.63335 5.37013 1.63335 9.9789C1.63335 12.2162 2.50467 14.3162 4.08181 15.892C5.66519 17.4646 7.76699 18.3352 10.0062 18.3352C12.2454 18.3352 14.3379 17.4646 15.9181 15.892C17.4984 14.3131 18.3728 12.2162 18.3728 9.9789V9.60758H12.3953V10.3783H17.5733C17.5733 10.3939 17.5733 10.475 17.5702 10.4969C17.3079 14.4379 14.0131 17.5582 10.0031 17.5582C7.97311 17.5582 6.07118 16.7688 4.63771 15.3366C3.20111 13.9106 2.41098 12.0103 2.41098 9.9789C2.41098 7.94755 3.20111 6.05037 4.63771 4.62125C6.07118 3.19213 7.97311 2.40267 10.0031 2.40267C10.0905 2.40267 10.3029 2.40267 10.3997 2.40892V1.62883Z" fill="white"/>
<path d="M27.5202 3.36062H24.5158V16.3663H33.7475V13.8325H27.5202V3.36062Z" fill="#6D6E71"/>
<path d="M40.3621 11.408H42.8106V13.6828C42.3609 13.8544 41.4802 14.026 40.6401 14.026C37.9355 14.026 37.033 12.653 37.033 9.86345C37.033 7.07385 37.8918 5.63848 40.5964 5.63848C42.1017 5.63848 42.9605 6.10966 43.6663 7.01144L45.537 5.29524C44.4002 3.6633 42.4015 3.17028 40.5339 3.17028C36.324 3.17028 34.1129 5.46374 34.1129 9.8416C34.1129 14.2195 36.1117 16.5566 40.512 16.5566C42.5295 16.5566 44.5064 16.0418 45.5807 15.2897V8.98351H40.3621V11.408Z" fill="#6D6E71"/>
<path d="M52.8012 10.7964H58.4133V8.59346H52.8012V5.61976H58.6069V3.39807H50.131V16.3819H58.8224V14.1259H52.8012V10.7964Z" fill="#6D6E71"/>
<path d="M65.2933 7.1425C64.2908 7.1425 63.2134 7.39212 62.4264 7.91322V7.3578H59.8624V16.3819H62.4607V9.73863C62.7824 9.50461 63.4289 9.2737 63.966 9.2737C65.2371 9.2737 65.5088 9.77608 65.5088 10.7777V16.3819H68.1072V10.1505C68.1072 8.34071 67.4607 7.1425 65.2933 7.1425Z" fill="#6D6E71"/>
<path d="M83.4319 7.12377C82.6074 7.12377 81.5331 7.51694 81.0303 8.09108V7.3578H78.5225V16.3819H81.1209V10.1692C81.5675 9.5951 82.3919 9.23626 83.2352 9.23626C83.7005 9.23626 84.222 9.36107 84.5094 9.52333L85.0996 7.42957C84.7061 7.21426 84.0409 7.12377 83.4319 7.12377Z" fill="#6D6E71"/>
<path d="M73.61 7.12377C70.7243 7.12377 69.219 8.84309 69.219 11.8168C69.219 14.9683 70.3651 16.5972 73.7349 16.5972C75.3308 16.5972 76.7986 16.1135 77.4981 15.6486L77.0141 13.948C76.2427 14.3412 75.1153 14.6282 74.2002 14.6282C73.2852 14.6282 72.6043 14.3599 72.317 14.0541C71.9766 13.6765 71.8142 13.0681 71.8142 12.4409H77.6574V11.6358C77.6574 9.0584 76.4925 7.12377 73.6068 7.12377H73.61ZM71.8173 10.7777C71.8517 9.52333 72.4638 8.91486 73.5381 8.91486C74.6125 8.91486 75.0965 9.68559 75.0965 10.7777H71.8173Z" fill="#6D6E71"/>
<path d="M91.1739 7.69792C90.7086 7.37652 89.831 7.12377 89.0784 7.12377C85.8335 7.12377 84.831 9.16449 84.831 12.1725C84.831 14.8404 86.0303 16.5941 88.7723 16.5941C89.4906 16.5941 90.2776 16.5036 90.7617 16.3444V17.1495C90.7617 18.5443 89.9715 19.0123 88.4694 19.0123C87.5356 19.0123 86.6237 18.7253 86.2301 18.51L85.6212 20.3728C86.3395 20.7316 87.395 21 88.6318 21C91.302 21 93.3819 19.8174 93.3819 16.6128V7.30163H91.3207L91.177 7.6948L91.1739 7.69792ZM90.7429 14.519C90.4931 14.6095 90.0965 14.6626 89.703 14.6626C88.3039 14.6626 87.4638 14.001 87.4638 11.9229C87.4638 9.84472 88.1977 9.07712 89.6311 9.07712C90.0434 9.07712 90.4369 9.16761 90.7429 9.31114V14.5221V14.519Z" fill="#6D6E71"/>
<path d="M98.8816 13.3551L96.964 7.35468H94.2033L97.8416 16.3975C97.3044 18.3321 96.5861 18.6878 95.2432 18.6878C94.9747 18.6878 94.7217 18.6691 94.5437 18.6348L94.2407 20.6599C94.653 20.766 95.1371 20.7847 95.6024 20.7847C97.9665 20.7847 99.0971 19.5678 99.9934 17.1495L103.597 7.35468H101.018L99.2251 13.3551H98.8816Z" fill="#6D6E71"/>
<path d="M166.186 7.1425C165.184 7.1425 164.106 7.39212 163.319 7.91322V7.3578H160.755V16.3819H163.354V9.73863C163.675 9.50461 164.322 9.2737 164.859 9.2737C166.13 9.2737 166.402 9.77608 166.402 10.7777V16.3819H169V10.1505C169 8.34071 168.354 7.1425 166.186 7.1425Z" fill="#6D6E71"/>
<path d="M113.566 9.34547C113.082 9.14889 112.167 8.86181 111.683 8.71828C110.071 8.27207 109.191 7.85706 109.191 6.80238C109.191 6.01605 109.712 5.40446 111.486 5.40446C112.757 5.40446 114.013 5.83507 114.875 6.33744L115.808 4.25929C114.59 3.54472 112.745 3.20149 111.436 3.20149C107.976 3.20149 106.383 4.74294 106.383 6.94279C106.383 8.83997 107.817 9.98826 109.375 10.5967C110.146 10.8838 111.005 11.1709 111.652 11.3487C112.692 11.6358 113.104 12.1382 113.104 12.8527C113.104 13.7483 112.476 14.285 110.827 14.285C109.5 14.285 108.229 13.8388 107.17 13.2272L106.183 15.4114C107.526 16.1822 109.338 16.5941 110.843 16.5941C114.069 16.5941 115.952 14.984 115.952 12.7435C115.952 10.6311 114.822 9.87905 113.569 9.34235L113.566 9.34547Z" fill="#6D6E71"/>
<path d="M121.471 7.12377C118.173 7.12377 116.773 8.68083 116.773 11.8324C116.773 14.7874 117.776 16.5972 121.093 16.5972C124.409 16.5972 125.805 15.0744 125.805 11.9229C125.805 8.77132 124.803 7.12377 121.467 7.12377H121.471ZM121.146 14.7156C119.784 14.7156 119.409 13.6578 119.409 11.8511C119.409 9.8104 119.84 9.00223 121.417 9.00223C122.87 9.00223 123.173 10.0756 123.173 11.7606C123.173 13.8388 122.779 14.7156 121.146 14.7156Z" fill="#6D6E71"/>
<path d="M155.69 7.12377C152.392 7.12377 150.993 8.68083 150.993 11.8324C150.993 14.7874 151.995 16.5972 155.312 16.5972C158.628 16.5972 160.024 15.0744 160.024 11.9229C160.024 8.77132 159.022 7.12377 155.686 7.12377H155.69ZM155.365 14.7156C154.003 14.7156 153.625 13.6578 153.625 11.8511C153.625 9.8104 154.056 9.00223 155.633 9.00223C157.086 9.00223 157.389 10.0756 157.389 11.7606C157.389 13.8388 156.995 14.7156 155.362 14.7156H155.365Z" fill="#6D6E71"/>
<path d="M129.406 3.34502H126.789V16.3819H129.406V3.34502Z" fill="#6D6E71"/>
<path d="M150.196 7.3578H147.598V16.3819H150.196V7.3578Z" fill="#6D6E71"/>
<path d="M150.215 3.3107H147.579V5.40446H150.215V3.3107Z" fill="#6D6E71"/>
<path d="M144.637 14.466C143.775 14.466 143.46 14.1789 143.46 13.0337V9.39851H146.427V7.3578H143.46V5.19227L140.949 5.69465V7.36092H139.422V9.38291H140.949V13.3582C140.949 15.7391 141.667 16.6003 143.707 16.6003C144.85 16.6003 145.936 16.3507 146.783 15.8826L146.414 14.0198C145.868 14.3068 145.149 14.4691 144.64 14.4691L144.637 14.466Z" fill="#6D6E71"/>
<path d="M136.186 13.9667C135.958 14.1633 135.343 14.4691 134.728 14.4691C133.55 14.4691 133.288 14.1664 133.288 12.9994V7.3578H130.777V13.5892C130.777 15.3958 131.392 16.5972 133.554 16.5972C134.659 16.5972 135.693 16.2633 136.277 15.8421L136.271 16.3819H138.7V7.3578H136.189V13.9667H136.186Z" fill="#6D6E71"/>
</svg>
