<svg width="354" height="56" viewBox="0 0 354 56" fill="none" xmlns="http://www.w3.org/2000/svg">
<path d="M28.4886 56C43.9533 56 56.486 43.4641 56.486 27.9956C56.486 12.5271 43.9533 0 28.4886 0C13.024 0 0.5 12.5359 0.5 27.9956C0.5 43.4554 13.0328 56 28.4886 56Z" fill="#C00C3F"/>
<path d="M27.3772 15.7136V40.2601H35.1839V38.0628H29.6176V15.7136H27.3772Z" fill="white"/>
<path d="M19.5529 22.4105C21.4083 22.4105 22.9137 20.9048 22.9137 19.0489C22.9137 17.1931 21.4083 15.6961 19.5529 15.6961C17.6975 15.6961 16.2009 17.2018 16.2009 19.0489C16.2009 20.896 17.6975 22.4105 19.5529 22.4105Z" fill="white"/>
<path d="M29.6176 4.56964C29.3288 4.55213 28.7687 4.55213 28.4886 4.55213C15.5796 4.55213 5.05975 15.0746 5.05975 27.9956C5.05975 34.2548 7.50154 40.1463 11.9213 44.5671C16.3497 48.9967 22.2398 51.4304 28.4886 51.4304C34.7375 51.4304 40.6363 48.9967 45.0735 44.5671C49.4845 40.1376 51.935 34.2461 51.935 27.9956V26.9276H35.2014V29.1074H49.7033V29.4313C48.9506 40.479 39.7436 49.2418 28.4974 49.2418C22.8349 49.2418 17.4962 47.027 13.4879 43.0177C9.47072 39.0083 7.26524 33.6683 7.26524 27.9956C7.26524 22.323 9.47072 16.983 13.4879 12.9648C17.505 8.95545 22.8349 6.74066 28.4974 6.74066C28.7512 6.74066 29.3551 6.74066 29.6264 6.75817V4.56964H29.6176Z" fill="white"/>
<path d="M77.6657 9.54197H69.2376V46.0203H95.117V38.912H77.6657V9.54197Z" fill="#6D6E71"/>
<path d="M120.506 32.1188V38.5005C119.246 38.982 116.778 39.4635 114.424 39.4635C106.845 39.4635 104.315 35.6117 104.315 27.7855C104.315 19.9594 106.722 15.9325 114.301 15.9325C118.52 15.9325 120.926 17.2543 122.904 19.7843L128.147 14.9695C124.952 10.3911 119.36 9.00797 114.117 9.00797C102.32 9.00797 96.1235 15.4422 96.1235 27.7242C96.1235 40.0063 101.725 46.5631 114.056 46.5631C119.71 46.5631 125.25 45.1186 128.261 43.0089V25.3169H113.636V32.1188H120.506Z" fill="#6D6E71"/>
<path d="M269.298 21.2725H262.865V24.5728H248.547V29.3262H283.493V24.5728H269.298V21.2725Z" fill="#6D6E71"/>
<path d="M266.138 17.3856C268.493 20.7122 273.569 22.1566 279.196 22.4718L280.912 17.2631C273.525 16.7028 269.088 14.7769 269.088 10.2511V8.88541H262.498V10.3298C262.498 14.7769 258.069 17.2981 251.234 18.1385L252.748 22.6294C257.938 22.2704 263.452 20.6684 266.13 17.3769L266.138 17.3856Z" fill="#6D6E71"/>
<path d="M259.644 41.6695V40.7153H278.093C278.855 39.6298 279.091 37.7214 279.091 35.673V30.8932H253.264V35.0952H272.807V36.7585H253.343V44.1645C253.343 45.8627 254.306 46.7732 256.345 46.7732L280.08 46.7382V42.3086H260.362C259.846 42.3086 259.644 42.151 259.644 41.6608V41.6695Z" fill="#6D6E71"/>
<path d="M168.344 46.318H173.779C174.296 44.1995 174.541 40.4877 174.541 37.4501V9.04299H168.353V46.318H168.344Z" fill="#6D6E71"/>
<path d="M160.039 18.5499H157.579C156.783 13.6214 153.659 9.93591 147.41 9.93591C140.093 9.93591 137.144 15.0308 137.144 21.2637C137.144 27.4966 140.093 32.6703 147.41 32.6703C153.746 32.6703 156.871 29.0374 157.615 23.8549H160.03V45.1099H165.421C165.78 43.0352 166.016 39.6386 166.016 37.0386V9.15679H160.021V18.5499H160.039ZM147.454 27.2953C144.88 27.2953 143.716 25.2994 143.716 21.3075C143.716 17.517 144.88 15.4773 147.454 15.4773C150.027 15.4773 151.112 17.517 151.112 21.3075C151.112 25.2994 150.035 27.2953 147.454 27.2953Z" fill="#6D6E71"/>
<path d="M190.408 29.7552H186.155C185.516 29.7552 185.314 29.5976 185.314 28.9148V9.63827H178.96V31.7074C178.96 34.0272 180.081 35.0252 182.155 35.0252H190.119C193.83 35.0252 198.346 34.071 199.825 33.1868L198.985 28.5559C196.867 29.3175 193.909 29.7552 190.399 29.7552H190.408Z" fill="#6D6E71"/>
<path d="M203.273 17.2718H192.526V22.5418H203.273V46.318H209.023C209.461 44.1207 209.785 40.9254 209.785 38.2467V9.04299H203.273V17.2718Z" fill="#6D6E71"/>
<path d="M239.069 46.318H244.862C245.265 44.1207 245.58 40.9254 245.58 38.2467V9.04299H239.069V46.318Z" fill="#6D6E71"/>
<path d="M228.085 17.6133V15.0658H235.402V9.83086H214.344V15.0658H221.486V17.6483C221.486 24.3189 219.578 28.5471 212.664 31.5848L215.298 36.2858C219.254 34.8063 223.481 31.9087 225.206 28.3545C226.921 31.7074 231.174 34.4649 233.923 35.6817L236.959 30.3855C230.982 28.0131 228.085 23.96 228.085 17.6133Z" fill="#6D6E71"/>
<path d="M346.078 36.2332H352.012C352.415 34.2986 352.782 30.9808 352.782 29.0461V9.13928H346.078V12.3083H338.289V16.9567H346.078V19.154H338.289V23.8462H346.078V36.2332Z" fill="#6D6E71"/>
<path d="M334.517 41.1093C333.992 41.1093 333.834 40.9867 333.834 40.4264V33.1693H327.095V43.1315C327.095 45.5126 328.268 46.5631 330.57 46.5631H353.5V41.1093H334.517Z" fill="#6D6E71"/>
<path d="M331.06 25.5707C332.793 28.7572 336.635 31.4622 340.022 32.3114L342.788 26.7438C337.055 25.4919 333.887 22.2617 333.887 16.449V9.7083H327.227V16.449C327.227 22.3405 325.573 25.4569 318.991 27.6367L321.214 32.3201C325.818 31.1121 329.327 28.8448 331.06 25.5795V25.5707Z" fill="#6D6E71"/>
<path d="M291.554 28.8448H314.948V23.5135H295.501C295.247 23.5135 295.09 23.4785 295.02 23.4085C294.95 23.3384 294.915 23.2509 294.915 22.9445V21.1937H313.101C313.486 20.6159 313.749 19.653 313.889 18.655C314.029 17.657 314.099 16.7991 314.099 15.7486V9.03423H288.683V14.1641H307.867V16.4577H288.683V25.6233C288.683 26.6212 288.92 27.6892 289.392 28.1532C289.865 28.6084 290.582 28.836 291.554 28.836V28.8448Z" fill="#6D6E71"/>
<path d="M284.159 36.0582H298.38V46.318H304.358C304.577 45.2675 304.761 44.0331 304.901 42.615C305.041 41.1968 305.111 39.8399 305.111 38.5356V36.0582H318.23V30.8932H284.167V36.0582H284.159Z" fill="#6D6E71"/>
</svg>
