<svg width="353" height="56" viewBox="0 0 353 56" fill="none" xmlns="http://www.w3.org/2000/svg">
<path d="M27.9886 56C43.4533 56 55.986 43.4641 55.986 27.9956C55.986 12.5271 43.4533 0 27.9886 0C12.524 0 0 12.5359 0 27.9956C0 43.4554 12.5328 56 27.9886 56Z" fill="#A50034"/>
<path d="M26.8772 15.7136V40.2601H34.6839V38.0628H29.1176V15.7136H26.8772Z" fill="white"/>
<path d="M19.0529 22.4105C20.9083 22.4105 22.4137 20.9048 22.4137 19.0489C22.4137 17.1931 20.9083 15.6961 19.0529 15.6961C17.1975 15.6961 15.7009 17.2018 15.7009 19.0489C15.7009 20.896 17.1975 22.4105 19.0529 22.4105Z" fill="white"/>
<path d="M29.1176 4.56964C28.8288 4.55213 28.2687 4.55213 27.9886 4.55213C15.0796 4.55213 4.55975 15.0746 4.55975 27.9956C4.55975 34.2548 7.00154 40.1463 11.4213 44.5671C15.8497 48.9967 21.7398 51.4304 27.9886 51.4304C34.2375 51.4304 40.1363 48.9967 44.5735 44.5671C48.9845 40.1376 51.435 34.2461 51.435 27.9956V26.9276H34.7014V29.1074H49.2033V29.4313C48.4506 40.479 39.2436 49.2418 27.9974 49.2418C22.3349 49.2418 16.9962 47.027 12.9879 43.0177C8.97072 39.0083 6.76524 33.6683 6.76524 27.9956C6.76524 22.323 8.97072 16.983 12.9879 12.9648C17.005 8.95545 22.3349 6.74066 27.9974 6.74066C28.2512 6.74066 28.8551 6.74066 29.1264 6.75817V4.56964H29.1176Z" fill="white"/>
<path d="M77.1657 9.54197H68.7376V46.0203H94.617V38.912H77.1657V9.54197Z" fill="#6B6B6B"/>
<path d="M120.006 32.1188V38.5005C118.746 38.982 116.278 39.4635 113.924 39.4635C106.345 39.4635 103.815 35.6117 103.815 27.7855C103.815 19.9594 106.222 15.9325 113.801 15.9325C118.02 15.9325 120.426 17.2543 122.404 19.7843L127.647 14.9695C124.452 10.3911 118.86 9.00797 113.617 9.00797C101.82 9.00797 95.6235 15.4422 95.6235 27.7242C95.6235 40.0063 101.225 46.5631 113.556 46.5631C119.21 46.5631 124.75 45.1186 127.761 43.0089V25.3169H113.136V32.1188H120.006Z" fill="#6B6B6B"/>
<path d="M268.798 21.2725H262.365V24.5728H248.047V29.3262H282.993V24.5728H268.798V21.2725Z" fill="#6B6B6B"/>
<path d="M265.638 17.3856C267.993 20.7122 273.069 22.1566 278.696 22.4718L280.412 17.2631C273.025 16.7028 268.588 14.7769 268.588 10.2511V8.88541H261.998V10.3298C261.998 14.7769 257.569 17.2981 250.734 18.1385L252.248 22.6294C257.438 22.2704 262.952 20.6684 265.63 17.3769L265.638 17.3856Z" fill="#6B6B6B"/>
<path d="M259.144 41.6695V40.7153H277.593C278.355 39.6298 278.591 37.7214 278.591 35.673V30.8932H252.764V35.0952H272.307V36.7585H252.843V44.1645C252.843 45.8627 253.806 46.7732 255.845 46.7732L279.58 46.7382V42.3086H259.862C259.346 42.3086 259.144 42.151 259.144 41.6608V41.6695Z" fill="#6B6B6B"/>
<path d="M167.844 46.318H173.279C173.796 44.1995 174.041 40.4877 174.041 37.4501V9.04299H167.853V46.318H167.844Z" fill="#6B6B6B"/>
<path d="M159.539 18.5499H157.079C156.283 13.6214 153.159 9.93591 146.91 9.93591C139.593 9.93591 136.644 15.0308 136.644 21.2637C136.644 27.4966 139.593 32.6703 146.91 32.6703C153.246 32.6703 156.371 29.0374 157.115 23.8549H159.53V45.1099H164.921C165.28 43.0352 165.516 39.6386 165.516 37.0386V9.15679H159.521V18.5499H159.539ZM146.954 27.2953C144.38 27.2953 143.216 25.2994 143.216 21.3075C143.216 17.517 144.38 15.4773 146.954 15.4773C149.527 15.4773 150.612 17.517 150.612 21.3075C150.612 25.2994 149.535 27.2953 146.954 27.2953Z" fill="#6B6B6B"/>
<path d="M189.908 29.7552H185.655C185.016 29.7552 184.814 29.5976 184.814 28.9148V9.63827H178.46V31.7074C178.46 34.0272 179.581 35.0252 181.655 35.0252H189.619C193.33 35.0252 197.846 34.071 199.325 33.1868L198.485 28.5559C196.367 29.3175 193.409 29.7552 189.899 29.7552H189.908Z" fill="#6B6B6B"/>
<path d="M202.773 17.2718H192.026V22.5418H202.773V46.318H208.523C208.961 44.1207 209.285 40.9254 209.285 38.2467V9.04299H202.773V17.2718Z" fill="#6B6B6B"/>
<path d="M238.569 46.318H244.362C244.765 44.1207 245.08 40.9254 245.08 38.2467V9.04299H238.569V46.318Z" fill="#6B6B6B"/>
<path d="M227.585 17.6133V15.0658H234.902V9.83086H213.844V15.0658H220.986V17.6483C220.986 24.3189 219.078 28.5471 212.164 31.5848L214.798 36.2858C218.754 34.8063 222.981 31.9087 224.706 28.3545C226.421 31.7074 230.674 34.4649 233.423 35.6817L236.459 30.3855C230.482 28.0131 227.585 23.96 227.585 17.6133Z" fill="#6B6B6B"/>
<path d="M345.578 36.2332H351.512C351.915 34.2986 352.282 30.9808 352.282 29.0461V9.13928H345.578V12.3083H337.789V16.9567H345.578V19.154H337.789V23.8462H345.578V36.2332Z" fill="#6B6B6B"/>
<path d="M334.017 41.1093C333.492 41.1093 333.334 40.9867 333.334 40.4264V33.1693H326.595V43.1315C326.595 45.5126 327.768 46.5631 330.07 46.5631H353V41.1093H334.017Z" fill="#6B6B6B"/>
<path d="M330.56 25.5707C332.293 28.7572 336.135 31.4622 339.522 32.3114L342.288 26.7438C336.555 25.4919 333.387 22.2617 333.387 16.449V9.7083H326.727V16.449C326.727 22.3405 325.073 25.4569 318.491 27.6367L320.714 32.3201C325.318 31.1121 328.827 28.8448 330.56 25.5795V25.5707Z" fill="#6B6B6B"/>
<path d="M291.054 28.8448H314.448V23.5135H295.001C294.747 23.5135 294.59 23.4785 294.52 23.4085C294.45 23.3384 294.415 23.2509 294.415 22.9445V21.1937H312.601C312.986 20.6159 313.249 19.653 313.389 18.655C313.529 17.657 313.599 16.7991 313.599 15.7486V9.03423H288.183V14.1641H307.367V16.4577H288.183V25.6233C288.183 26.6212 288.42 27.6892 288.892 28.1532C289.365 28.6084 290.082 28.836 291.054 28.836V28.8448Z" fill="#6B6B6B"/>
<path d="M283.659 36.0582H297.88V46.318H303.858C304.077 45.2675 304.261 44.0331 304.401 42.615C304.541 41.1968 304.611 39.8399 304.611 38.5356V36.0582H317.73V30.8932H283.667V36.0582H283.659Z" fill="#6B6B6B"/>
</svg>
