<svg width="240" height="38" viewBox="0 0 240 38" fill="none" xmlns="http://www.w3.org/2000/svg">
<path d="M19.0291 38C29.5433 38 38.0642 29.4935 38.0642 18.997C38.0642 8.50055 29.5433 0 19.0291 0C8.5149 0 0 8.50649 0 18.997C0 29.4876 8.52085 38 19.0291 38Z" fill="#C00C3F"/>
<path d="M18.2734 10.6628V27.3194H23.5811V25.8284H19.7967V10.6628H18.2734Z" fill="white"/>
<path d="M12.9538 15.2071C14.2153 15.2071 15.2388 14.1854 15.2388 12.9261C15.2388 11.6667 14.2153 10.6509 12.9538 10.6509C11.6924 10.6509 10.6749 11.6727 10.6749 12.9261C10.6749 14.1795 11.6924 15.2071 12.9538 15.2071Z" fill="white"/>
<path d="M19.7967 3.10083C19.6003 3.08895 19.2195 3.08895 19.0291 3.08895C10.2524 3.08895 3.10011 10.2292 3.10011 18.997C3.10011 23.2443 4.76025 27.2421 7.76516 30.242C10.776 33.2478 14.7806 34.8992 19.0291 34.8992C23.2776 34.8992 27.2881 33.2478 30.305 30.242C33.3039 27.2362 34.97 23.2384 34.97 18.997V18.2723H23.593V19.7514H33.4527V19.9712C32.9409 27.4679 26.6812 33.4141 19.0351 33.4141C15.1852 33.4141 11.5555 31.9112 8.83027 29.1906C6.09907 26.4699 4.59959 22.8463 4.59959 18.997C4.59959 15.1477 6.09907 11.5242 8.83027 8.79756C11.5615 6.07691 15.1852 4.57402 19.0351 4.57402C19.2076 4.57402 19.6182 4.57402 19.8026 4.5859V3.10083H19.7967Z" fill="white"/>
<path d="M52.4639 6.47491H46.7338V31.2281H64.3289V26.4046H52.4639V6.47491Z" fill="white"/>
<path d="M81.5907 21.7949V26.1254C80.7339 26.4521 79.0559 26.7788 77.4552 26.7788C72.3023 26.7788 70.5826 24.1651 70.5826 18.8545C70.5826 13.5438 72.219 10.8113 77.3719 10.8113C80.24 10.8113 81.8763 11.7083 83.2211 13.425L86.7853 10.1579C84.6135 7.05112 80.8112 6.11255 77.247 6.11255C69.226 6.11255 65.0131 10.4787 65.0131 18.8129C65.0131 27.1471 68.8213 31.5964 77.2053 31.5964C81.0492 31.5964 84.8158 30.6162 86.8627 29.1846V17.1793H76.9197V21.7949H81.5907Z" fill="white"/>
<path d="M182.752 14.4349H178.379V16.6744H168.644V19.9H192.403V16.6744H182.752V14.4349Z" fill="white"/>
<path d="M180.604 11.7974C182.205 14.0547 185.656 15.0349 189.482 15.2487L190.648 11.7142C185.626 11.3341 182.609 10.0272 182.609 6.95607V6.02939H178.129V7.00954C178.129 10.0272 175.118 11.738 170.471 12.3083L171.5 15.3556C175.029 15.1121 178.777 14.025 180.598 11.7915L180.604 11.7974Z" fill="white"/>
<path d="M176.189 28.2758V27.6283H188.732C189.25 26.8917 189.41 25.5967 189.41 24.2067V20.9633H171.851V23.8146H185.138V24.9433H171.905V29.9687C171.905 31.1211 172.559 31.7389 173.946 31.7389L190.083 31.7152V28.7094H176.677C176.326 28.7094 176.189 28.6025 176.189 28.2698V28.2758Z" fill="white"/>
<path d="M114.115 31.43H117.81C118.161 29.9925 118.328 27.4738 118.328 25.4125V6.13631H114.121V31.43H114.115Z" fill="white"/>
<path d="M108.468 12.5875H106.796C106.255 9.24308 104.131 6.74222 99.882 6.74222C94.9075 6.74222 92.9023 10.1995 92.9023 14.429C92.9023 18.6584 94.9075 22.1691 99.882 22.1691C104.19 22.1691 106.314 19.7039 106.82 16.1873H108.462V30.6103H112.128C112.372 29.2024 112.532 26.8976 112.532 25.1333V6.21354H108.456V12.5875H108.468ZM99.9117 18.5218C98.1623 18.5218 97.371 17.1674 97.371 14.4587C97.371 11.8865 98.1623 10.5024 99.9117 10.5024C101.661 10.5024 102.399 11.8865 102.399 14.4587C102.399 17.1674 101.667 18.5218 99.9117 18.5218Z" fill="white"/>
<path d="M129.116 20.191H126.224C125.79 20.191 125.653 20.0841 125.653 19.6208V6.54025H121.333V21.5157C121.333 23.0899 122.095 23.7671 123.505 23.7671H128.92C131.442 23.7671 134.513 23.1196 135.518 22.5196L134.947 19.3772C133.507 19.894 131.496 20.191 129.11 20.191H129.116Z" fill="white"/>
<path d="M137.863 11.7202H130.556V15.2962H137.863V31.43H141.772C142.07 29.939 142.29 27.7708 142.29 25.9531V6.13631H137.863V11.7202Z" fill="white"/>
<path d="M162.2 31.43H166.139C166.412 29.939 166.627 27.7708 166.627 25.9531V6.13631H162.2V31.43Z" fill="white"/>
<path d="M154.732 11.9519V10.2232H159.706V6.67094H145.39V10.2232H150.245V11.9756C150.245 16.5021 148.948 19.3713 144.248 21.4325L146.039 24.6225C148.728 23.6186 151.602 21.6523 152.774 19.2406C153.941 21.5157 156.832 23.3869 158.701 24.2126L160.766 20.6187C156.702 19.0089 154.732 16.2586 154.732 11.9519Z" fill="white"/>
<path d="M234.954 24.5868H238.988C239.262 23.274 239.512 21.0227 239.512 19.7099V6.20166H234.954V8.35204H229.658V11.5063H234.954V12.9973H229.658V16.1813H234.954V24.5868Z" fill="white"/>
<path d="M227.094 27.8956C226.737 27.8956 226.63 27.8124 226.63 27.4322V22.5077H222.048V29.2678C222.048 30.8835 222.845 31.5964 224.41 31.5964H240V27.8956H227.094Z" fill="white"/>
<path d="M224.743 17.3516C225.922 19.5138 228.534 21.3494 230.837 21.9256L232.717 18.1476C228.819 17.2981 226.665 15.1061 226.665 11.1618V6.58778H222.137V11.1618C222.137 15.1596 221.013 17.2743 216.538 18.7535L218.049 21.9315C221.179 21.1118 223.565 19.5732 224.743 17.3575V17.3516Z" fill="white"/>
<path d="M197.884 19.5732H213.789V15.9556H200.567C200.395 15.9556 200.288 15.9318 200.24 15.8843C200.192 15.8368 200.169 15.7774 200.169 15.5695V14.3814H212.533C212.795 13.9894 212.974 13.3359 213.069 12.6587C213.164 11.9816 213.212 11.3994 213.212 10.6866V6.13037H195.932V9.61138H208.975V11.1677H195.932V17.3872C195.932 18.0644 196.093 18.7891 196.414 19.104C196.735 19.4128 197.223 19.5673 197.884 19.5673V19.5732Z" fill="white"/>
<path d="M192.856 24.468H202.525V31.43H206.589C206.738 30.7172 206.863 29.8796 206.958 28.9173C207.053 27.955 207.101 27.0342 207.101 26.1491V24.468H216.02V20.9633H192.862V24.468H192.856Z" fill="white"/>
</svg>
