<svg width="40" height="54" viewBox="0 0 40 54" fill="none" xmlns="http://www.w3.org/2000/svg">
<mask id="path-1-inside-1_2708_8768" fill="white">
<rect y="8.1001" width="39.5252" height="28.9545" rx="1.54286"/>
</mask>
<rect y="8.1001" width="39.5252" height="28.9545" rx="1.54286" stroke="#C9C0F2" stroke-width="6.17143" mask="url(#path-1-inside-1_2708_8768)"/>
<path d="M0 29.7012H39.5252V35.5118C39.5252 36.3639 38.8344 37.0547 37.9823 37.0547H1.54286C0.690764 37.0547 0 36.3639 0 35.5118V29.7012Z" fill="#6242E2"/>
<rect x="9.19141" y="38.8931" width="21.1414" height="3.67676" rx="1.83838" fill="#6242E2"/>
<rect x="27.2227" y="14.0796" width="5.22844" height="5.22844" rx="1.54286" fill="#C9C0F2"/>
<rect x="20.8438" y="20.458" width="5.22844" height="5.22844" rx="1.54286" fill="#C9C0F2"/>
<circle cx="29.8369" cy="23.0722" r="2.61422" fill="#6242E2"/>
<path d="M23.2473 14.625C23.3409 14.4551 23.575 14.4551 23.6687 14.625L26.0392 18.9255C26.1329 19.0954 26.0158 19.3077 25.8285 19.3077H21.0874C20.9001 19.3077 20.7831 19.0954 20.8767 18.9255L23.2473 14.625Z" fill="#554596"/>
</svg>
