<svg width="40" height="48" viewBox="0 0 40 48" fill="none" xmlns="http://www.w3.org/2000/svg">
<rect x="5" y="4.81641" width="30.9606" height="40.2488" rx="2.75205" fill="#C9C0F2"/>
<path d="M7.75391 14.4483C7.75391 12.9284 8.98604 11.6963 10.506 11.6963H30.4584C31.9783 11.6963 33.2104 12.9284 33.2104 14.4483V39.5608C33.2104 41.0808 31.9783 42.3129 30.4584 42.3129H10.506C8.98604 42.3129 7.75391 41.0808 7.75391 39.5608V14.4483Z" fill="white"/>
<rect x="11.8828" y="3.09619" width="3.78408" height="1.72003" rx="0.688014" transform="rotate(90 11.8828 3.09619)" fill="#554596"/>
<rect x="30.457" y="3.09619" width="3.78408" height="1.72003" rx="0.688014" transform="rotate(90 30.457 3.09619)" fill="#554596"/>
<rect x="11.8828" y="19.6084" width="10.3202" height="1.37603" rx="0.688014" fill="#D9D9D9"/>
<rect x="11.8828" y="24.4248" width="7.56815" height="1.37603" rx="0.688014" fill="#D9D9D9"/>
<rect x="11.8828" y="29.2407" width="17.8884" height="1.37603" rx="0.688014" fill="#D9D9D9"/>
<rect x="11.8828" y="34.0566" width="14.4483" height="1.37603" rx="0.688014" fill="#D9D9D9"/>
<rect x="24.9531" y="19.6084" width="4.8161" height="6.19212" rx="1.37603" fill="#6242E2"/>
</svg>
