<svg width="50" height="50" viewBox="0 0 50 50" fill="none" xmlns="http://www.w3.org/2000/svg">
<mask id="path-1-inside-1_7728_9153" fill="white">
<path d="M7.8125 9.375C7.8125 7.64911 9.21161 6.25 10.9375 6.25H39.0625C40.7884 6.25 42.1875 7.64911 42.1875 9.375V40.625C42.1875 42.3509 40.7884 43.75 39.0625 43.75H10.9375C9.21161 43.75 7.8125 42.3509 7.8125 40.625V9.375Z"/>
</mask>
<path d="M7.8125 9.375C7.8125 7.64911 9.21161 6.25 10.9375 6.25H39.0625C40.7884 6.25 42.1875 7.64911 42.1875 9.375V40.625C42.1875 42.3509 40.7884 43.75 39.0625 43.75H10.9375C9.21161 43.75 7.8125 42.3509 7.8125 40.625V9.375Z" fill="white" stroke="#C9BFF2" stroke-width="7.8125" mask="url(#path-1-inside-1_7728_9153)"/>
<path d="M27.7344 31.25C28.3816 31.25 28.9062 31.7747 28.9062 32.4219C28.9062 33.0691 28.3816 33.5938 27.7344 33.5938H17.5781C16.9309 33.5938 16.4062 33.0691 16.4062 32.4219C16.4062 31.7747 16.9309 31.25 17.5781 31.25H27.7344ZM32.4219 25C33.0691 25 33.5938 25.5247 33.5938 26.1719C33.5938 26.8191 33.0691 27.3438 32.4219 27.3438H17.5781C16.9309 27.3438 16.4062 26.8191 16.4062 26.1719C16.4062 25.5247 16.9309 25 17.5781 25H32.4219ZM32.4219 18.75C33.0691 18.75 33.5938 19.2747 33.5938 19.9219C33.5938 20.5691 33.0691 21.0938 32.4219 21.0938H17.5781C16.9309 21.0938 16.4062 20.5691 16.4062 19.9219C16.4062 19.2747 16.9309 18.75 17.5781 18.75H32.4219Z" fill="#C9BFF2"/>
<path d="M25 1.5625C27.1574 1.5625 28.9062 3.31139 28.9062 5.46875H30.0781C31.5883 5.46875 32.8125 6.69297 32.8125 8.20312C32.8125 9.71328 31.5883 10.9375 30.0781 10.9375H19.9219C18.4117 10.9375 17.1875 9.71328 17.1875 8.20312C17.1875 6.69297 18.4117 5.46875 19.9219 5.46875H21.0938C21.0938 3.31139 22.8426 1.5625 25 1.5625Z" fill="#6242E2"/>
</svg>
