<svg width="80" height="80" viewBox="0 0 80 80" fill="none" xmlns="http://www.w3.org/2000/svg">
<rect width="80" height="80" fill="white"/>
<mask id="path-1-inside-1_7140_12234" fill="white">
<path d="M6.66602 16.6667C6.66602 13.9053 8.90459 11.6667 11.666 11.6667H68.3327C71.0941 11.6667 73.3327 13.9053 73.3327 16.6667V54.1667C73.3327 56.9282 71.0941 59.1667 68.3327 59.1667H11.666C8.90459 59.1667 6.66602 56.9282 6.66602 54.1667V16.6667Z"/>
</mask>
<path d="M6.66602 16.6667C6.66602 13.9053 8.90459 11.6667 11.666 11.6667H68.3327C71.0941 11.6667 73.3327 13.9053 73.3327 16.6667V54.1667C73.3327 56.9282 71.0941 59.1667 68.3327 59.1667H11.666C8.90459 59.1667 6.66602 56.9282 6.66602 54.1667V16.6667Z" fill="white" stroke="#C9BFF2" stroke-width="12.5" mask="url(#path-1-inside-1_7140_12234)"/>
<path d="M70.208 52.2917V54.1667C70.208 55.2022 69.3684 56.0416 68.333 56.0417H11.666C10.6305 56.0417 9.79102 55.2023 9.79102 54.1667V52.2917H70.208Z" fill="white" stroke="#6242E2" stroke-width="5"/>
<mask id="path-3-inside-2_7140_12234" fill="white">
<path d="M26.666 44.1667C26.666 43.2462 27.4122 42.5 28.3327 42.5H51.666C52.5865 42.5 53.3327 43.2462 53.3327 44.1667C53.3327 45.0871 52.5865 45.8333 51.666 45.8333H28.3327C27.4122 45.8333 26.666 45.0871 26.666 44.1667Z"/>
</mask>
<path d="M28.3327 42.5V48.75H51.666V42.5V36.25H28.3327V42.5ZM51.666 45.8333V39.5833H28.3327V45.8333V52.0833H51.666V45.8333ZM28.3327 45.8333V39.5833C30.864 39.5833 32.916 41.6354 32.916 44.1667H26.666H20.416C20.416 48.5389 23.9604 52.0833 28.3327 52.0833V45.8333ZM53.3327 44.1667H47.0827C47.0827 41.6354 49.1347 39.5833 51.666 39.5833V45.8333V52.0833C56.0383 52.0833 59.5827 48.5389 59.5827 44.1667H53.3327ZM51.666 42.5V48.75C49.1347 48.75 47.0827 46.698 47.0827 44.1667H53.3327H59.5827C59.5827 39.7944 56.0383 36.25 51.666 36.25V42.5ZM28.3327 42.5V36.25C23.9604 36.25 20.416 39.7944 20.416 44.1667H26.666H32.916C32.916 46.698 30.864 48.75 28.3327 48.75V42.5Z" fill="#C9BFF2" mask="url(#path-3-inside-2_7140_12234)"/>
<path d="M23.334 65.8333C23.334 64.4525 24.4533 63.3333 25.834 63.3333H54.1673C55.548 63.3333 56.6673 64.4525 56.6673 65.8333C56.6673 67.214 55.548 68.3333 54.1673 68.3333H25.834C24.4533 68.3333 23.334 67.214 23.334 65.8333Z" fill="#6242E2"/>
</svg>
