<svg width="160" height="160" viewBox="0 0 160 160" fill="none" xmlns="http://www.w3.org/2000/svg">
<g clip-path="url(#clip0_6549_18019)">
<path d="M79.9875 160C124.183 160 160 124.183 160 79.9875C160 35.7918 124.183 0 79.9875 0C35.7918 0 0 35.8168 0 79.9875C0 124.158 35.8168 160 79.9875 160Z" fill="#C00C3F"/>
<path d="M76.9023 44.8965V115.029H99.2394V108.751H83.313V44.8965H76.9023Z" fill="white"/>
<path d="M54.5157 64.0297C59.8245 64.0297 64.1317 59.7277 64.1317 54.4252C64.1317 49.1227 59.8245 44.8457 54.5157 44.8457C49.2069 44.8457 44.9248 49.1477 44.9248 54.4252C44.9248 59.7027 49.2069 64.0297 54.5157 64.0297Z" fill="white"/>
<path d="M83.3134 13.0559C82.4871 13.0059 80.8844 13.0059 80.0831 13.0059C43.1468 13.0059 13.0469 43.07 13.0469 79.9873C13.0469 97.8707 20.0335 114.704 32.6794 127.334C45.3505 139.99 62.2034 146.944 80.0831 146.944C97.9627 146.944 114.841 139.99 127.537 127.334C140.158 114.679 147.169 97.8457 147.169 79.9873V76.9359H144.49H99.2899V83.1638H140.784V84.0892C138.63 115.654 112.286 140.691 80.1081 140.691C63.9062 140.691 48.6309 134.363 37.1619 122.907C25.6678 111.452 19.3573 96.1949 19.3573 79.9873C19.3573 63.7797 25.6678 48.5225 37.1619 37.0421C48.6559 25.5868 63.9062 19.2588 80.1081 19.2588C80.8343 19.2588 82.5622 19.2588 83.3385 19.3088V13.0559H83.3134Z" fill="white"/>
</g>
<defs>
<clipPath id="clip0_6549_18019">
<rect width="160" height="160" fill="white"/>
</clipPath>
</defs>
</svg>
