<svg width="51" height="50" viewBox="0 0 51 50" fill="none" xmlns="http://www.w3.org/2000/svg">
<circle cx="17.1562" cy="18.75" r="12.1094" fill="white" stroke="#C9BFF2" stroke-width="3.90625"/>
<mask id="path-2-outside-1_7728_9185" maskUnits="userSpaceOnUse" x="13.1429" y="9.982" width="39.1147" height="38.7487" fill="black">
<rect fill="white" x="13.1429" y="9.982" width="39.1147" height="38.7487"/>
<path d="M31.226 34.5586L30.6949 34.8652L34.3954 38.6928C35.2059 39.5311 35.0123 40.9077 34.0025 41.4907C33.2902 41.9019 32.3892 41.776 31.8175 41.1847L27.4946 36.7129L27.142 36.9165C25.2736 37.9952 22.8846 37.355 21.8059 35.4867L20.7854 33.7191C19.7068 31.8508 20.3469 29.4618 22.2152 28.3831L26.2992 26.0252L31.226 34.5586ZM33.1682 16.614C33.7809 15.5924 35.2659 15.6048 35.8616 16.6366L38.8323 21.782C40.0071 21.1198 41.4988 21.5254 42.1747 22.6961C42.8503 23.8668 42.455 25.3599 41.2942 26.0461L44.2913 31.2372C44.8868 32.2689 44.1551 33.5612 42.9641 33.581L32.94 33.7461L28.0132 25.2127L33.1682 16.614Z"/>
</mask>
<path d="M31.226 34.5586L30.6949 34.8652L34.3954 38.6928C35.2059 39.5311 35.0123 40.9077 34.0025 41.4907C33.2902 41.9019 32.3892 41.776 31.8175 41.1847L27.4946 36.7129L27.142 36.9165C25.2736 37.9952 22.8846 37.355 21.8059 35.4867L20.7854 33.7191C19.7068 31.8508 20.3469 29.4618 22.2152 28.3831L26.2992 26.0252L31.226 34.5586ZM33.1682 16.614C33.7809 15.5924 35.2659 15.6048 35.8616 16.6366L38.8323 21.782C40.0071 21.1198 41.4988 21.5254 42.1747 22.6961C42.8503 23.8668 42.455 25.3599 41.2942 26.0461L44.2913 31.2372C44.8868 32.2689 44.1551 33.5612 42.9641 33.581L32.94 33.7461L28.0132 25.2127L33.1682 16.614Z" fill="#6242E2"/>
<path d="M31.226 34.5586L32.226 36.2906L33.958 35.2906L32.958 33.5586L31.226 34.5586ZM30.6949 34.8652L29.6949 33.1332L27.4766 34.4139L29.257 36.2554L30.6949 34.8652ZM34.3954 38.6928L35.8333 37.3027L35.8333 37.3026L34.3954 38.6928ZM34.0025 41.4907L35.0025 43.2227L35.0025 43.2227L34.0025 41.4907ZM31.8175 41.1847L30.3796 42.5748L30.3797 42.575L31.8175 41.1847ZM27.4946 36.7129L28.9326 35.3228L27.8471 34.2L26.4946 34.9808L27.4946 36.7129ZM21.8059 35.4867L20.0739 36.4867L21.8059 35.4867ZM20.7854 33.7191L19.0533 34.7191L19.0534 34.7191L20.7854 33.7191ZM26.2992 26.0252L28.0313 25.0252L27.0313 23.2931L25.2992 24.2931L26.2992 26.0252ZM33.1682 16.614L31.453 15.5854L31.4529 15.5857L33.1682 16.614ZM35.8616 16.6366L34.1296 17.6366L35.8616 16.6366ZM38.8323 21.782L37.1003 22.782L38.09 24.4962L39.8144 23.5243L38.8323 21.782ZM42.1747 22.6961L43.9069 21.6964L43.9067 21.6961L42.1747 22.6961ZM41.2942 26.0461L40.2764 24.3245L38.5725 25.3319L39.5622 27.0461L41.2942 26.0461ZM44.2913 31.2372L46.0234 30.2373L46.0233 30.2372L44.2913 31.2372ZM42.9641 33.581L42.997 35.5808L42.9974 35.5807L42.9641 33.581ZM32.94 33.7461L31.2079 34.7461L31.7963 35.7652L32.9729 35.7458L32.94 33.7461ZM28.0132 25.2127L26.2979 24.1843L25.6928 25.1936L26.2812 26.2127L28.0132 25.2127ZM31.226 34.5586L30.226 32.8265L29.6949 33.1332L30.6949 34.8652L31.6949 36.5973L32.226 36.2906L31.226 34.5586ZM30.6949 34.8652L29.257 36.2554L32.9576 40.0829L34.3954 38.6928L35.8333 37.3026L32.1327 33.4751L30.6949 34.8652ZM34.3954 38.6928L32.9575 40.0829C32.8629 39.985 32.8864 39.8256 33.0025 39.7586L34.0025 41.4907L35.0025 43.2227C37.1381 41.9897 37.5489 39.0771 35.8333 37.3027L34.3954 38.6928ZM34.0025 41.4907L33.0025 39.7586C33.0842 39.7115 33.1884 39.7253 33.2553 39.7945L31.8175 41.1847L30.3797 42.575C31.59 43.8267 33.4963 44.0923 35.0025 43.2227L34.0025 41.4907ZM31.8175 41.1847L33.2555 39.7947L28.9326 35.3228L27.4946 36.7129L26.0567 38.103L30.3796 42.5748L31.8175 41.1847ZM27.4946 36.7129L26.4946 34.9808L26.142 35.1845L27.142 36.9165L28.142 38.6486L28.4946 38.4449L27.4946 36.7129ZM27.142 36.9165L26.142 35.1845C25.2302 35.7108 24.0644 35.3985 23.538 34.4867L21.8059 35.4867L20.0739 36.4867C21.7048 39.3116 25.317 40.2795 28.142 38.6486L27.142 36.9165ZM21.8059 35.4867L23.538 34.4867L22.5175 32.7191L20.7854 33.7191L19.0534 34.7191L20.0739 36.4867L21.8059 35.4867ZM20.7854 33.7191L22.5175 32.7192C21.9911 31.8074 22.3036 30.6415 23.2152 30.1152L22.2152 28.3831L21.2152 26.6511C18.3903 28.282 17.4226 31.8943 19.0533 34.7191L20.7854 33.7191ZM22.2152 28.3831L23.2152 30.1152L27.2992 27.7573L26.2992 26.0252L25.2992 24.2931L21.2152 26.6511L22.2152 28.3831ZM26.2992 26.0252L24.5672 27.0252L29.4939 35.5586L31.226 34.5586L32.958 33.5586L28.0313 25.0252L26.2992 26.0252ZM33.1682 16.614L34.8834 17.6426C34.7116 17.9291 34.2961 17.9251 34.1296 17.6366L35.8616 16.6366L37.5937 15.6366C36.2358 13.2846 32.8501 13.2556 31.453 15.5854L33.1682 16.614ZM35.8616 16.6366L34.1296 17.6366L37.1003 22.782L38.8323 21.782L40.5644 20.782L37.5937 15.6366L35.8616 16.6366ZM38.8323 21.782L39.8144 23.5243C40.0354 23.3997 40.3158 23.4764 40.4426 23.6961L42.1747 22.6961L43.9067 21.6961C42.6818 19.5744 39.9789 18.8399 37.8503 20.0397L38.8323 21.782ZM42.1747 22.6961L40.4425 23.6958C40.5684 23.9141 40.4961 24.1946 40.2764 24.3245L41.2942 26.0461L42.3121 27.7678C44.4138 26.5252 45.1321 23.8194 43.9069 21.6964L42.1747 22.6961ZM41.2942 26.0461L39.5622 27.0461L42.5592 32.2372L44.2913 31.2372L46.0233 30.2372L43.0263 25.0461L41.2942 26.0461ZM44.2913 31.2372L42.5592 32.2371C42.3927 31.9487 42.5968 31.5869 42.9308 31.5813L42.9641 33.581L42.9974 35.5807C45.7135 35.5355 47.381 32.5891 46.0234 30.2373L44.2913 31.2372ZM42.9641 33.581L42.9312 31.5813L32.907 31.7463L32.94 33.7461L32.9729 35.7458L42.997 35.5808L42.9641 33.581ZM32.94 33.7461L34.672 32.7461L29.7453 24.2127L28.0132 25.2127L26.2812 26.2127L31.2079 34.7461L32.94 33.7461ZM28.0132 25.2127L29.7286 26.241L34.8836 17.6424L33.1682 16.614L31.4529 15.5857L26.2979 24.1843L28.0132 25.2127Z" fill="#F3F5F7" mask="url(#path-2-outside-1_7728_9185)"/>
<path d="M17.1562 21.875C18.4507 21.875 19.5 22.9243 19.5 24.2188C19.5 25.5132 18.4507 26.5625 17.1562 26.5625C15.8618 26.5625 14.8125 25.5132 14.8125 24.2188C14.8125 22.9243 15.8618 21.875 17.1562 21.875ZM17.1562 10.9375C18.4507 10.9375 19.5 11.9868 19.5 13.2812V17.9688C19.5 19.2632 18.4507 20.3125 17.1562 20.3125C15.8618 20.3125 14.8125 19.2632 14.8125 17.9688V13.2812C14.8125 11.9868 15.8618 10.9375 17.1562 10.9375Z" fill="#6242E2"/>
<path d="M43.9628 25.5673C44.1861 24.7338 45.0433 24.2385 45.8768 24.4618L48.1405 25.0683L48.2176 25.0917C49.0042 25.3459 49.4613 26.1749 49.245 26.9824C49.0286 27.7897 48.2182 28.2794 47.41 28.1064L47.3319 28.0868L45.0673 27.4804C44.2342 27.2569 43.7398 26.4006 43.9628 25.5673ZM47.4423 17.6171C48.1896 17.1857 49.1456 17.4421 49.577 18.1894C50.0081 18.9366 49.7518 19.8917 49.0048 20.3232L46.2987 21.8857C45.5515 22.3171 44.5955 22.0615 44.1639 21.3144C43.7325 20.5671 43.9889 19.6111 44.7362 19.1796L47.4423 17.6171ZM39.7616 14.8466C40.0158 14.0601 40.8448 13.6029 41.6522 13.8193C42.4595 14.0357 42.9493 14.8461 42.7762 15.6542L42.7567 15.7324L42.1503 17.997C41.9268 18.8301 41.0704 19.3245 40.2372 19.1015C39.4036 18.8781 38.9084 18.021 39.1317 17.1874L39.7382 14.9238L39.7616 14.8466Z" fill="#C9BFF2"/>
</svg>
