<svg width="130" height="155" viewBox="0 0 130 155" fill="none" xmlns="http://www.w3.org/2000/svg">
<path opacity="0.7" fill-rule="evenodd" clip-rule="evenodd" d="M129.745 52.6412L34.5377 154.778L0.231981 0.460802L129.745 52.6412ZM4.15677 12.3143L33.0708 142.378L31.9311 74.3859L4.15677 12.3143ZM34.3711 144.835L33.1855 74.107L4.29383 9.53842L42.4209 72.0539L34.3711 144.835ZM52.8913 69.7263L35.7247 144.047L43.7193 71.7653L5.85373 9.67858L52.8913 69.7263ZM37.2364 143.095L54.2531 69.4236L7.62644 9.90049L63.345 67.4024L37.2364 143.095ZM73.7845 65.0816L38.9491 141.989L64.7869 67.0819L9.64624 10.1764L73.7845 65.0816ZM40.8958 140.742L75.3206 64.7401L11.9382 10.4819L84.2122 62.7635L40.8958 140.742ZM94.6303 60.4475L43.1014 139.362L85.8544 62.3984L14.5204 10.7968L94.6303 60.4475ZM45.5841 137.861L96.3882 60.0567L17.4054 11.1046L105.041 58.1332L45.5841 137.861ZM117.178 55.435L46.5142 138.719L106.922 57.715L17.8846 9.93389L117.178 55.435ZM51.9747 134.227L119.211 54.983L24.7337 11.6887L127.576 53.1235L51.9747 134.227Z" fill="url(#paint0_linear_5156_2836)"/>
<defs>
<linearGradient id="paint0_linear_5156_2836" x1="1.20658" y1="4.84483" x2="88.4845" y2="99.6056" gradientUnits="userSpaceOnUse">
<stop offset="0.0384615" stop-color="white" stop-opacity="0"/>
<stop offset="0.519231" stop-color="white"/>
<stop offset="1" stop-color="white" stop-opacity="0"/>
</linearGradient>
</defs>
</svg>
