<svg width="81" height="80" viewBox="0 0 81 80" fill="none" xmlns="http://www.w3.org/2000/svg">
<rect width="80" height="80" transform="translate(0.666016)" fill="white"/>
<mask id="path-1-inside-1_7140_12273" fill="white">
<path d="M13.166 15C13.166 12.2386 15.4046 10 18.166 10H63.166C65.9274 10 68.166 12.2386 68.166 15V65C68.166 67.7614 65.9274 70 63.166 70H18.166C15.4046 70 13.166 67.7614 13.166 65V15Z"/>
</mask>
<path d="M13.166 15C13.166 12.2386 15.4046 10 18.166 10H63.166C65.9274 10 68.166 12.2386 68.166 15V65C68.166 67.7614 65.9274 70 63.166 70H18.166C15.4046 70 13.166 67.7614 13.166 65V15Z" fill="white" stroke="#C9BFF2" stroke-width="12.5" mask="url(#path-1-inside-1_7140_12273)"/>
<rect x="24.416" y="2.5" width="32.5" height="20" fill="white"/>
<path d="M45.041 50C46.0765 50 46.916 50.8395 46.916 51.875C46.916 52.9105 46.0765 53.75 45.041 53.75H28.791C27.7555 53.75 26.916 52.9105 26.916 51.875C26.916 50.8395 27.7555 50 28.791 50H45.041ZM52.541 40C53.5765 40 54.416 40.8395 54.416 41.875C54.416 42.9105 53.5765 43.75 52.541 43.75H28.791C27.7555 43.75 26.916 42.9105 26.916 41.875C26.916 40.8395 27.7555 40 28.791 40H52.541ZM52.541 30C53.5765 30 54.416 30.8395 54.416 31.875C54.416 32.9105 53.5765 33.75 52.541 33.75H28.791C27.7555 33.75 26.916 32.9105 26.916 31.875C26.916 30.8395 27.7555 30 28.791 30H52.541Z" fill="#C9BFF2"/>
<path d="M40.666 2.5C44.1178 2.5 46.916 5.29822 46.916 8.75H48.791C51.2073 8.75 53.166 10.7088 53.166 13.125C53.166 15.5412 51.2073 17.5 48.791 17.5H32.541C30.1248 17.5 28.166 15.5412 28.166 13.125C28.166 10.7088 30.1248 8.75 32.541 8.75H34.416C34.416 5.29822 37.2142 2.5 40.666 2.5Z" fill="#6242E2"/>
</svg>
