<svg width="49" height="48" viewBox="0 0 49 48" fill="none" xmlns="http://www.w3.org/2000/svg">
<g clip-path="url(#clip0_10892_4548)">
<path d="M29.125 17.5625C29.125 25.329 22.829 31.625 15.0625 31.625C7.296 31.625 1 25.329 1 17.5625C1 9.796 7.296 3.5 15.0625 3.5C22.829 3.5 29.125 9.796 29.125 17.5625Z" fill="white"/>
<path d="M25.2188 17.5625C25.2188 11.9534 20.6716 7.40625 15.0625 7.40625C9.45336 7.40625 4.90625 11.9534 4.90625 17.5625C4.90625 23.1716 9.45336 27.7188 15.0625 27.7188V31.625C7.296 31.625 1 25.329 1 17.5625C1 9.796 7.296 3.5 15.0625 3.5C22.829 3.5 29.125 9.796 29.125 17.5625C29.125 25.329 22.829 31.625 15.0625 31.625V27.7188C20.6716 27.7188 25.2188 23.1716 25.2188 17.5625Z" fill="#C9C0F2"/>
<path d="M29.131 33.3704L28.6007 33.6765L32.3013 37.5041C33.1115 38.3424 32.9181 39.719 31.9083 40.302C31.1961 40.7131 30.2959 40.5867 29.7242 39.9955L25.4005 35.5242L25.047 35.7283C23.1787 36.8069 20.7896 36.1668 19.7109 34.2985L18.6904 32.5309C17.6121 30.6627 18.2521 28.2735 20.1202 27.1949L24.2042 24.837L29.131 33.3704ZM31.0727 15.425C31.6854 14.4032 33.1704 14.4157 33.7661 15.4475L36.7373 20.5938C37.9122 19.9311 39.4045 20.3365 40.0805 21.5074C40.7564 22.6783 40.3605 24.1718 39.1992 24.8579L42.1953 30.0473C42.791 31.0791 42.0594 32.3715 40.8681 32.3911L30.844 32.5562L25.9172 24.0228L31.0727 15.425Z" fill="#7362BB"/>
<path fill-rule="evenodd" clip-rule="evenodd" d="M29.3566 14.3964C30.7539 12.066 34.1394 12.0959 35.4972 14.4472L37.712 18.2822C39.3335 18.1978 40.9433 19.0035 41.8117 20.5068C42.68 22.0108 42.5715 23.8069 41.6876 25.1689L43.9269 29.0478C45.2846 31.3996 43.6172 34.3467 40.9005 34.3916L32.2111 34.5341L33.7384 36.1132C35.3997 37.8315 35.0683 40.6199 33.1036 41.914L32.9083 42.0341C31.4952 42.8498 29.7316 42.6654 28.5206 41.6093L28.2863 41.3867L24.962 37.9492C22.4474 38.7905 19.6164 37.8446 18.1368 35.5576L17.9786 35.2988L16.9581 33.5312C15.3273 30.7063 16.2955 27.0938 19.1202 25.4629L24.6281 22.2832L29.3566 14.3964ZM20.1202 27.1953L19.9484 27.2998C18.2134 28.4224 17.6457 30.7213 18.6906 32.5312L19.7111 34.2988C20.756 36.1086 23.0306 36.7663 24.8702 35.8252L25.047 35.7285L25.4005 35.5244L29.7238 39.9961C30.2598 40.5501 31.0848 40.6949 31.7726 40.372L31.9083 40.3027C32.918 39.7197 33.1111 38.3422 32.3009 37.5039L28.6007 33.6767L29.131 33.3711L24.2042 24.8369L20.1202 27.1953ZM33.7658 15.4472C33.17 14.4156 31.685 14.403 31.0724 15.4248L25.9171 24.0234L30.8439 32.5566L40.8683 32.3916C41.985 32.3729 42.6974 31.2353 42.2911 30.2431L42.1954 30.0478L39.1993 24.8584C40.2881 24.215 40.703 22.8609 40.1935 21.7295L40.0802 21.5068C39.4042 20.3363 37.9122 19.9314 36.7374 20.5937L33.7658 15.4472Z" fill="#F3F5F7"/>
<path d="M15.0625 20.6875C16.3569 20.6875 17.4062 21.7368 17.4062 23.0312C17.4062 24.3257 16.3569 25.375 15.0625 25.375C13.7681 25.375 12.7188 24.3257 12.7188 23.0312C12.7188 21.7368 13.7681 20.6875 15.0625 20.6875ZM15.0625 9.75C16.3569 9.75 17.4062 10.7993 17.4062 12.0938V16.7812C17.4062 18.0757 16.3569 19.125 15.0625 19.125C13.7681 19.125 12.7188 18.0757 12.7188 16.7812V12.0938C12.7187 10.7993 13.7681 9.75 15.0625 9.75Z" fill="#7362BB"/>
<path d="M41.8691 24.3799C42.0925 23.5463 42.9497 23.0511 43.7832 23.2744L46.0469 23.8809L46.124 23.9043C46.9105 24.1585 47.3677 24.9875 47.1514 25.7949C46.935 26.6022 46.1245 27.092 45.3164 26.9189L45.2383 26.8994L42.9736 26.293C42.1405 26.0695 41.6461 25.2131 41.8691 24.3799ZM45.3486 16.4297C46.096 15.9983 47.0519 16.2546 47.4834 17.002C47.9145 17.7492 47.6582 18.7043 46.9111 19.1357L44.2051 20.6982C43.4578 21.1297 42.5019 20.8741 42.0703 20.127C41.6388 19.3796 41.8952 18.4237 42.6426 17.9922L45.3486 16.4297ZM37.668 13.6592C37.9221 12.8727 38.7512 12.4155 39.5586 12.6318C40.3659 12.8482 40.8557 13.6587 40.6826 14.4668L40.6631 14.5449L40.0566 16.8096C39.8331 17.6427 38.9768 18.1371 38.1436 17.9141C37.31 17.6907 36.8147 16.8335 37.0381 16L37.6445 13.7363L37.668 13.6592Z" fill="#C9C0F2"/>
</g>
<defs>
<clipPath id="clip0_10892_4548">
<rect width="48" height="48" fill="white" transform="translate(0.5)"/>
</clipPath>
</defs>
</svg>
