<svg width="51" height="50" viewBox="0 0 51 50" fill="none" xmlns="http://www.w3.org/2000/svg">
<mask id="path-1-inside-1_7728_9126" fill="white">
<path d="M4.66406 10.418C4.66406 8.69208 6.06317 7.29297 7.78906 7.29297H43.2057C44.9316 7.29297 46.3307 8.69208 46.3307 10.418V33.8555C46.3307 35.5814 44.9316 36.9805 43.2057 36.9805H7.78906C6.06317 36.9805 4.66406 35.5814 4.66406 33.8555V10.418Z"/>
</mask>
<path d="M4.66406 10.418C4.66406 8.69208 6.06317 7.29297 7.78906 7.29297H43.2057C44.9316 7.29297 46.3307 8.69208 46.3307 10.418V33.8555C46.3307 35.5814 44.9316 36.9805 43.2057 36.9805H7.78906C6.06317 36.9805 4.66406 35.5814 4.66406 33.8555V10.418Z" fill="white" stroke="#C9BFF2" stroke-width="7.8125" mask="url(#path-1-inside-1_7728_9126)"/>
<path d="M44.3779 32.6836V33.8555C44.3779 34.5026 43.8531 35.0272 43.2061 35.0273H7.78906C7.14185 35.0273 6.61719 34.5027 6.61719 33.8555V32.6836H44.3779Z" fill="white" stroke="#6242E2" stroke-width="3.125"/>
<mask id="path-3-inside-2_7728_9126" fill="white">
<path d="M17.1641 27.6042C17.1641 27.0289 17.6304 26.5625 18.2057 26.5625H32.7891C33.3644 26.5625 33.8307 27.0289 33.8307 27.6042C33.8307 28.1795 33.3644 28.6458 32.7891 28.6458H18.2057C17.6304 28.6458 17.1641 28.1795 17.1641 27.6042Z"/>
</mask>
<path d="M18.2057 26.5625V30.4688H32.7891V26.5625V22.6562H18.2057V26.5625ZM32.7891 28.6458V24.7396H18.2057V28.6458V32.5521H32.7891V28.6458ZM18.2057 28.6458V24.7396C19.7878 24.7396 21.0703 26.0221 21.0703 27.6042H17.1641H13.2578C13.2578 30.3368 15.4731 32.5521 18.2057 32.5521V28.6458ZM33.8307 27.6042H29.9245C29.9245 26.0221 31.207 24.7396 32.7891 24.7396V28.6458V32.5521C35.5217 32.5521 37.737 30.3368 37.737 27.6042H33.8307ZM32.7891 26.5625V30.4688C31.207 30.4688 29.9245 29.1862 29.9245 27.6042H33.8307H37.737C37.737 24.8715 35.5217 22.6562 32.7891 22.6562V26.5625ZM18.2057 26.5625V22.6562C15.4731 22.6562 13.2578 24.8715 13.2578 27.6042H17.1641H21.0703C21.0703 29.1862 19.7878 30.4688 18.2057 30.4688V26.5625Z" fill="#C9BFF2" mask="url(#path-3-inside-2_7728_9126)"/>
<path d="M15.0859 41.1445C15.0859 40.2816 15.7855 39.582 16.6484 39.582H34.3568C35.2197 39.582 35.9193 40.2816 35.9193 41.1445C35.9193 42.0075 35.2197 42.707 34.3568 42.707H16.6484C15.7855 42.707 15.0859 42.0075 15.0859 41.1445Z" fill="#6242E2"/>
</svg>
