<svg width="81" height="80" viewBox="0 0 81 80" fill="none" xmlns="http://www.w3.org/2000/svg">
<rect width="80" height="80" transform="translate(0.333984)" fill="white"/>
<circle cx="26.584" cy="30" r="19.375" fill="white" stroke="#C9BFF2" stroke-width="6.25"/>
<mask id="path-2-outside-1_7140_12308" maskUnits="userSpaceOnUse" x="18.0039" y="14.5309" width="65.9352" height="65.2032" fill="black">
<rect fill="white" x="18.0039" y="14.5309" width="65.9352" height="65.2032"/>
<path d="M49.0956 55.2935L48.2448 55.7847L54.1648 61.9077C55.4614 63.2489 55.1526 65.452 53.5371 66.3848C52.3974 67.0428 50.9559 66.8402 50.0412 65.8942L43.1239 58.7412L42.5615 59.0659C39.5723 60.7914 35.7497 59.7673 34.0238 56.7783L32.391 53.9501C30.6652 50.961 31.6896 47.1385 34.6786 45.4125L41.2127 41.64L49.0956 55.2935ZM52.2037 26.5812C53.1839 24.9464 55.5597 24.9662 56.5127 26.617L61.2647 34.8476C63.1442 33.7892 65.5299 34.4382 66.6111 36.3109C67.6919 38.1835 67.0603 40.5725 65.2041 41.6709L70 49.9777C70.9529 51.6283 69.7822 53.6956 67.8765 53.7273L51.8377 53.9922L43.9549 40.3388L52.2037 26.5812Z"/>
</mask>
<path d="M49.0956 55.2935L48.2448 55.7847L54.1648 61.9077C55.4614 63.2489 55.1526 65.452 53.5371 66.3848C52.3974 67.0428 50.9559 66.8402 50.0412 65.8942L43.1239 58.7412L42.5615 59.0659C39.5723 60.7914 35.7497 59.7673 34.0238 56.7783L32.391 53.9501C30.6652 50.961 31.6896 47.1385 34.6786 45.4125L41.2127 41.64L49.0956 55.2935ZM52.2037 26.5812C53.1839 24.9464 55.5597 24.9662 56.5127 26.617L61.2647 34.8476C63.1442 33.7892 65.5299 34.4382 66.6111 36.3109C67.6919 38.1835 67.0603 40.5725 65.2041 41.6709L70 49.9777C70.9529 51.6283 69.7822 53.6956 67.8765 53.7273L51.8377 53.9922L43.9549 40.3388L52.2037 26.5812Z" fill="#6242E2"/>
<path d="M49.0956 55.2935L51.5956 59.6236L55.9257 57.1236L53.4257 52.7935L49.0956 55.2935ZM48.2448 55.7847L45.7448 51.4545L40.199 54.6564L44.6502 59.2601L48.2448 55.7847ZM54.1648 61.9077L57.7596 58.4324L57.7594 58.4322L54.1648 61.9077ZM53.5371 66.3848L56.0371 70.715L56.0374 70.7148L53.5371 66.3848ZM50.0412 65.8942L53.6357 62.4186L53.6354 62.4184L50.0412 65.8942ZM43.1239 58.7412L46.7181 55.2654L44.0045 52.4593L40.6239 54.4111L43.1239 58.7412ZM42.5615 59.0659L45.0611 63.3962L45.0615 63.396L42.5615 59.0659ZM34.0238 56.7783L29.6937 59.2783L29.6938 59.2784L34.0238 56.7783ZM32.391 53.9501L28.0609 56.4501L32.391 53.9501ZM34.6786 45.4125L32.1786 41.0824L32.1783 41.0825L34.6786 45.4125ZM41.2127 41.64L45.5429 39.14L43.0429 34.8099L38.7127 37.3099L41.2127 41.64ZM52.2037 26.5812L47.9155 24.0098L47.9154 24.01L52.2037 26.5812ZM61.2647 34.8476L56.9346 37.3476L59.4078 41.6314L63.718 39.2043L61.2647 34.8476ZM66.6111 36.3109L70.9415 33.8114L70.9412 33.8109L66.6111 36.3109ZM65.2041 41.6709L62.6578 37.3679L58.4007 39.8871L60.874 44.1709L65.2041 41.6709ZM70 49.9777L74.3303 47.4779L74.3302 47.4777L70 49.9777ZM67.8765 53.7273L67.9591 58.7267L67.9598 58.7266L67.8765 53.7273ZM51.8377 53.9922L47.5076 56.4922L48.9786 59.0401L51.9202 58.9915L51.8377 53.9922ZM43.9549 40.3388L39.6666 37.7676L38.1537 40.2909L39.6248 42.8388L43.9549 40.3388ZM49.0956 55.2935L46.5956 50.9633L45.7448 51.4545L48.2448 55.7847L50.7448 60.1148L51.5956 59.6236L49.0956 55.2935ZM48.2448 55.7847L44.6502 59.2601L50.5702 65.3831L54.1648 61.9077L57.7594 58.4322L51.8393 52.3092L48.2448 55.7847ZM54.1648 61.9077L50.57 65.3829C49.6061 64.3858 49.8355 62.7486 51.0367 62.0549L53.5371 66.3848L56.0374 70.7148C60.4697 68.1553 61.3168 62.1119 57.7596 58.4324L54.1648 61.9077ZM53.5371 66.3848L51.0371 62.0547C51.8857 61.5648 52.9566 61.7163 53.6357 62.4186L50.0412 65.8942L46.4467 69.3698C48.9552 71.9641 52.9092 72.5208 56.0371 70.715L53.5371 66.3848ZM50.0412 65.8942L53.6354 62.4184L46.7181 55.2654L43.1239 58.7412L39.5296 62.217L46.4469 69.37L50.0412 65.8942ZM43.1239 58.7412L40.6239 54.4111L40.0615 54.7358L42.5615 59.0659L45.0615 63.396L45.6239 63.0713L43.1239 58.7412ZM42.5615 59.0659L40.0618 54.7356C39.4637 55.0808 38.6989 54.8757 38.3538 54.2781L34.0238 56.7783L29.6938 59.2784C32.8005 64.6589 39.6808 66.502 45.0611 63.3962L42.5615 59.0659ZM34.0238 56.7783L38.3539 54.2783L36.7211 51.4501L32.391 53.9501L28.0609 56.4501L29.6937 59.2783L34.0238 56.7783ZM32.391 53.9501L36.7211 51.4501C36.3762 50.8527 36.5807 50.0879 37.179 49.7424L34.6786 45.4125L32.1783 41.0825C26.7985 44.1891 24.9542 51.0692 28.0609 56.4501L32.391 53.9501ZM34.6786 45.4125L37.1786 49.7426L43.7127 45.9701L41.2127 41.64L38.7127 37.3099L32.1786 41.0824L34.6786 45.4125ZM41.2127 41.64L36.8826 44.14L44.7654 57.7935L49.0956 55.2935L53.4257 52.7935L45.5429 39.14L41.2127 41.64ZM52.2037 26.5812L56.4918 29.1525C55.5113 30.7877 53.1355 30.7674 52.1826 29.117L56.5127 26.617L60.8429 24.117C57.9838 19.165 50.8566 19.1052 47.9155 24.0098L52.2037 26.5812ZM56.5127 26.617L52.1826 29.117L56.9346 37.3476L61.2647 34.8476L65.5948 32.3476L60.8429 24.117L56.5127 26.617ZM61.2647 34.8476L63.718 39.2043C63.2136 39.4884 62.5723 39.3156 62.2809 38.8109L66.6111 36.3109L70.9412 33.8109C68.4875 29.5609 63.0747 28.0901 58.8114 30.4908L61.2647 34.8476ZM66.6111 36.3109L62.2806 38.8104C61.9881 38.3036 62.1617 37.6614 62.6578 37.3679L65.2041 41.6709L67.7505 45.9739C71.9589 43.4836 73.3957 38.0633 70.9415 33.8114L66.6111 36.3109ZM65.2041 41.6709L60.874 44.1709L65.6699 52.4777L70 49.9777L74.3302 47.4777L69.5343 39.1709L65.2041 41.6709ZM70 49.9777L65.6698 52.4774C64.7169 50.8267 65.8874 48.7598 67.7932 48.728L67.8765 53.7273L67.9598 58.7266C73.6769 58.6314 77.189 52.4299 74.3303 47.4779L70 49.9777ZM67.8765 53.7273L67.794 48.728L51.7551 48.9929L51.8377 53.9922L51.9202 58.9915L67.9591 58.7267L67.8765 53.7273ZM51.8377 53.9922L56.1678 51.4922L48.285 37.8388L43.9549 40.3388L39.6248 42.8388L47.5076 56.4922L51.8377 53.9922ZM43.9549 40.3388L48.2431 42.9099L56.4919 29.1523L52.2037 26.5812L47.9154 24.01L39.6666 37.7676L43.9549 40.3388Z" fill="white" mask="url(#path-2-outside-1_7140_12308)"/>
<path d="M26.584 35C28.6551 35 30.334 36.6789 30.334 38.75C30.334 40.8211 28.6551 42.5 26.584 42.5C24.5129 42.5 22.834 40.8211 22.834 38.75C22.834 36.6789 24.5129 35 26.584 35ZM26.584 17.5C28.6551 17.5 30.334 19.1789 30.334 21.25V28.75C30.334 30.8211 28.6551 32.5 26.584 32.5C24.5129 32.5 22.834 30.8211 22.834 28.75V21.25C22.834 19.1789 24.5129 17.5 26.584 17.5Z" fill="#6242E2"/>
<path d="M69.4783 40.9072C69.8357 39.5736 71.2062 38.7823 72.5399 39.1396L76.1619 40.1094L76.285 40.1465C77.5436 40.553 78.2757 41.8799 77.9295 43.1719C77.5832 44.4637 76.2861 45.2469 74.993 44.9697L74.868 44.9395L71.2459 43.9688C69.9123 43.6114 69.1211 42.2408 69.4783 40.9072ZM75.0447 28.1865C76.2405 27.4963 77.7695 27.9069 78.4598 29.1025C79.1499 30.2982 78.7404 31.8273 77.5447 32.5176L73.2147 35.0176C72.0191 35.7077 70.49 35.2979 69.7996 34.1025C69.1093 32.9068 69.5189 31.3769 70.7147 30.6865L75.0447 28.1865ZM62.7547 23.7549C63.1613 22.4965 64.4883 21.7644 65.7801 22.1104C67.0721 22.4565 67.8552 23.7546 67.5779 25.0479L67.5477 25.1729L66.5779 28.7949C66.2206 30.1286 64.8491 30.9199 63.5154 30.5625C62.182 30.2051 61.3906 28.8345 61.7479 27.501L62.7186 23.8789L62.7547 23.7549Z" fill="#C9BFF2"/>
</svg>
