<svg width="128" height="137" viewBox="0 0 128 137" fill="none" xmlns="http://www.w3.org/2000/svg">
<g opacity="0.8">
<path d="M64 0.25C81.6426 0.25 97.6024 3.82663 109.143 9.59668C120.698 15.3743 127.75 23.3092 127.75 32C127.75 40.6909 120.698 48.6267 109.143 54.4043C97.6024 60.1742 81.6424 63.75 64 63.75C46.3576 63.75 30.3976 60.1742 18.8574 54.4043C7.30228 48.6267 0.25 40.6909 0.25 32C0.25001 23.3092 7.30228 15.3743 18.8574 9.59668C30.3976 3.82663 46.3574 0.25 64 0.25Z" stroke="url(#paint0_linear_5020_4290)" stroke-width="0.5"/>
<path d="M64 5.4082C81.6426 5.4082 97.6024 8.98483 109.143 14.7549C120.698 20.5325 127.75 28.4674 127.75 37.1582C127.75 45.8491 120.698 53.7849 109.143 59.5625C97.6024 65.3324 81.6424 68.9082 64 68.9082C46.3576 68.9082 30.3976 65.3324 18.8574 59.5625C7.30228 53.7849 0.25 45.8491 0.25 37.1582C0.25001 28.4674 7.30228 20.5325 18.8574 14.7549C30.3976 8.98483 46.3574 5.4082 64 5.4082Z" stroke="url(#paint1_linear_5020_4290)" stroke-width="0.5"/>
<path d="M64 10.5664C81.6426 10.5664 97.6024 14.143 109.143 19.9131C120.698 25.6907 127.75 33.6256 127.75 42.3164C127.75 51.0073 120.698 58.9431 109.143 64.7207C97.6024 70.4906 81.6424 74.0664 64 74.0664C46.3576 74.0664 30.3976 70.4906 18.8574 64.7207C7.30228 58.9431 0.25 51.0073 0.25 42.3164C0.25001 33.6256 7.30228 25.6907 18.8574 19.9131C30.3976 14.143 46.3574 10.5664 64 10.5664Z" stroke="url(#paint2_linear_5020_4290)" stroke-width="0.5"/>
<path d="M64 15.7246C81.6426 15.7246 97.6024 19.3012 109.143 25.0713C120.698 30.8489 127.75 38.7838 127.75 47.4746C127.75 56.1655 120.698 64.1013 109.143 69.8789C97.6024 75.6488 81.6424 79.2246 64 79.2246C46.3576 79.2246 30.3976 75.6488 18.8574 69.8789C7.30228 64.1013 0.25 56.1655 0.25 47.4746C0.25001 38.7838 7.30228 30.8489 18.8574 25.0713C30.3976 19.3012 46.3574 15.7246 64 15.7246Z" stroke="url(#paint3_linear_5020_4290)" stroke-width="0.5"/>
<path d="M64 20.8828C81.6426 20.8828 97.6024 24.4594 109.143 30.2295C120.698 36.0071 127.75 43.942 127.75 52.6328C127.75 61.3237 120.698 69.2595 109.143 75.0371C97.6024 80.807 81.6424 84.3828 64 84.3828C46.3576 84.3828 30.3976 80.807 18.8574 75.0371C7.30228 69.2595 0.25 61.3237 0.25 52.6328C0.25001 43.942 7.30228 36.0071 18.8574 30.2295C30.3976 24.4594 46.3574 20.8828 64 20.8828Z" stroke="url(#paint4_linear_5020_4290)" stroke-width="0.5"/>
<path d="M64 26.041C81.6426 26.041 97.6024 29.6176 109.143 35.3877C120.698 41.1653 127.75 49.1002 127.75 57.791C127.75 66.4819 120.698 74.4177 109.143 80.1953C97.6024 85.9653 81.6424 89.541 64 89.541C46.3576 89.541 30.3976 85.9653 18.8574 80.1953C7.30228 74.4177 0.25 66.4819 0.25 57.791C0.25001 49.1002 7.30228 41.1653 18.8574 35.3877C30.3976 29.6176 46.3574 26.041 64 26.041Z" stroke="url(#paint5_linear_5020_4290)" stroke-width="0.5"/>
<path d="M64 31.1992C81.6426 31.1992 97.6024 34.7758 109.143 40.5459C120.698 46.3235 127.75 54.2584 127.75 62.9492C127.75 71.6401 120.698 79.5759 109.143 85.3535C97.6024 91.1235 81.6424 94.6992 64 94.6992C46.3576 94.6992 30.3976 91.1235 18.8574 85.3535C7.30228 79.5759 0.25 71.6401 0.25 62.9492C0.25001 54.2584 7.30228 46.3235 18.8574 40.5459C30.3976 34.7758 46.3574 31.1992 64 31.1992Z" stroke="url(#paint6_linear_5020_4290)" stroke-width="0.5"/>
<path d="M64 36.3574C81.6426 36.3574 97.6024 39.9341 109.143 45.7041C120.698 51.4817 127.75 59.4166 127.75 68.1074C127.75 76.7983 120.698 84.7341 109.143 90.5117C97.6024 96.2817 81.6424 99.8574 64 99.8574C46.3576 99.8574 30.3976 96.2817 18.8574 90.5117C7.30228 84.7341 0.25 76.7983 0.25 68.1074C0.25001 59.4166 7.30228 51.4817 18.8574 45.7041C30.3976 39.9341 46.3574 36.3574 64 36.3574Z" stroke="url(#paint7_linear_5020_4290)" stroke-width="0.5"/>
<path d="M64 41.5156C81.6426 41.5156 97.6024 45.0923 109.143 50.8623C120.698 56.6399 127.75 64.5748 127.75 73.2656C127.75 81.9565 120.698 89.8923 109.143 95.6699C97.6024 101.44 81.6424 105.016 64 105.016C46.3576 105.016 30.3976 101.44 18.8574 95.6699C7.30228 89.8923 0.25 81.9565 0.25 73.2656C0.25001 64.5748 7.30228 56.6399 18.8574 50.8623C30.3976 45.0923 46.3574 41.5156 64 41.5156Z" stroke="url(#paint8_linear_5020_4290)" stroke-width="0.5"/>
<path d="M64 46.6738C81.6426 46.6738 97.6024 50.2505 109.143 56.0205C120.698 61.7981 127.75 69.733 127.75 78.4238C127.75 87.1147 120.698 95.0505 109.143 100.828C97.6024 106.598 81.6424 110.174 64 110.174C46.3576 110.174 30.3976 106.598 18.8574 100.828C7.30228 95.0505 0.25 87.1147 0.25 78.4238C0.25001 69.733 7.30228 61.7981 18.8574 56.0205C30.3976 50.2505 46.3574 46.6738 64 46.6738Z" stroke="url(#paint9_linear_5020_4290)" stroke-width="0.5"/>
<path d="M64 51.832C81.6426 51.832 97.6024 55.4087 109.143 61.1787C120.698 66.9563 127.75 74.8912 127.75 83.582C127.75 92.2729 120.698 100.209 109.143 105.986C97.6024 111.756 81.6424 115.332 64 115.332C46.3576 115.332 30.3976 111.756 18.8574 105.986C7.30228 100.209 0.25 92.2729 0.25 83.582C0.25001 74.8912 7.30228 66.9563 18.8574 61.1787C30.3976 55.4087 46.3574 51.832 64 51.832Z" stroke="url(#paint10_linear_5020_4290)" stroke-width="0.5"/>
<path d="M64 56.9902C81.6426 56.9902 97.6024 60.5669 109.143 66.3369C120.698 72.1145 127.75 80.0494 127.75 88.7402C127.75 97.4311 120.698 105.367 109.143 111.145C97.6024 116.914 81.6424 120.49 64 120.49C46.3576 120.49 30.3976 116.914 18.8574 111.145C7.30228 105.367 0.25 97.4311 0.25 88.7402C0.25001 80.0494 7.30228 72.1145 18.8574 66.3369C30.3976 60.5669 46.3574 56.9902 64 56.9902Z" stroke="url(#paint11_linear_5020_4290)" stroke-width="0.5"/>
<path d="M64 62.1484C81.6426 62.1484 97.6024 65.7251 109.143 71.4951C120.698 77.2727 127.75 85.2076 127.75 93.8984C127.75 102.589 120.698 110.525 109.143 116.303C97.6024 122.073 81.6424 125.648 64 125.648C46.3576 125.648 30.3976 122.073 18.8574 116.303C7.30228 110.525 0.25 102.589 0.25 93.8984C0.25001 85.2076 7.30228 77.2727 18.8574 71.4951C30.3976 65.7251 46.3574 62.1484 64 62.1484Z" stroke="url(#paint12_linear_5020_4290)" stroke-width="0.5"/>
<path d="M64 67.3066C81.6426 67.3066 97.6024 70.8833 109.143 76.6533C120.698 82.4309 127.75 90.3658 127.75 99.0566C127.75 107.747 120.698 115.683 109.143 121.461C97.6024 127.231 81.6424 130.807 64 130.807C46.3576 130.807 30.3976 127.231 18.8574 121.461C7.30228 115.683 0.25 107.747 0.25 99.0566C0.25001 90.3658 7.30228 82.4309 18.8574 76.6533C30.3976 70.8833 46.3574 67.3066 64 67.3066Z" stroke="url(#paint13_linear_5020_4290)" stroke-width="0.5"/>
<path d="M64 72.4648C81.6426 72.4648 97.6024 76.0415 109.143 81.8115C120.698 87.5891 127.75 95.524 127.75 104.215C127.75 112.906 120.698 120.842 109.143 126.619C97.6024 132.389 81.6424 135.965 64 135.965C46.3576 135.965 30.3976 132.389 18.8574 126.619C7.30228 120.842 0.25 112.906 0.25 104.215C0.25001 95.524 7.30228 87.5891 18.8574 81.8115C30.3976 76.0415 46.3574 72.4648 64 72.4648Z" stroke="url(#paint14_linear_5020_4290)" stroke-width="0.5"/>
</g>
<defs>
<linearGradient id="paint0_linear_5020_4290" x1="64" y1="0" x2="64" y2="64" gradientUnits="userSpaceOnUse">
<stop stop-color="white"/>
<stop offset="1" stop-color="white" stop-opacity="0.21"/>
</linearGradient>
<linearGradient id="paint1_linear_5020_4290" x1="64" y1="5.1582" x2="64" y2="69.1582" gradientUnits="userSpaceOnUse">
<stop stop-color="white"/>
<stop offset="1" stop-color="white" stop-opacity="0.21"/>
</linearGradient>
<linearGradient id="paint2_linear_5020_4290" x1="64" y1="10.3164" x2="64" y2="74.3164" gradientUnits="userSpaceOnUse">
<stop stop-color="white"/>
<stop offset="1" stop-color="white" stop-opacity="0.21"/>
</linearGradient>
<linearGradient id="paint3_linear_5020_4290" x1="64" y1="15.4746" x2="64" y2="79.4746" gradientUnits="userSpaceOnUse">
<stop stop-color="white"/>
<stop offset="1" stop-color="white" stop-opacity="0.21"/>
</linearGradient>
<linearGradient id="paint4_linear_5020_4290" x1="64" y1="20.6328" x2="64" y2="84.6329" gradientUnits="userSpaceOnUse">
<stop stop-color="white"/>
<stop offset="1" stop-color="white" stop-opacity="0.21"/>
</linearGradient>
<linearGradient id="paint5_linear_5020_4290" x1="64" y1="25.791" x2="64" y2="89.7911" gradientUnits="userSpaceOnUse">
<stop stop-color="white"/>
<stop offset="1" stop-color="white" stop-opacity="0.21"/>
</linearGradient>
<linearGradient id="paint6_linear_5020_4290" x1="64" y1="30.9492" x2="64" y2="94.9493" gradientUnits="userSpaceOnUse">
<stop stop-color="white"/>
<stop offset="1" stop-color="white" stop-opacity="0.21"/>
</linearGradient>
<linearGradient id="paint7_linear_5020_4290" x1="64" y1="36.1074" x2="64" y2="100.107" gradientUnits="userSpaceOnUse">
<stop stop-color="white"/>
<stop offset="1" stop-color="white" stop-opacity="0.21"/>
</linearGradient>
<linearGradient id="paint8_linear_5020_4290" x1="64" y1="41.2656" x2="64" y2="105.266" gradientUnits="userSpaceOnUse">
<stop stop-color="white"/>
<stop offset="1" stop-color="white" stop-opacity="0.21"/>
</linearGradient>
<linearGradient id="paint9_linear_5020_4290" x1="64" y1="46.4238" x2="64" y2="110.424" gradientUnits="userSpaceOnUse">
<stop stop-color="white"/>
<stop offset="1" stop-color="white" stop-opacity="0.21"/>
</linearGradient>
<linearGradient id="paint10_linear_5020_4290" x1="64" y1="51.582" x2="64" y2="115.582" gradientUnits="userSpaceOnUse">
<stop stop-color="white"/>
<stop offset="1" stop-color="white" stop-opacity="0.21"/>
</linearGradient>
<linearGradient id="paint11_linear_5020_4290" x1="64" y1="56.7402" x2="64" y2="120.74" gradientUnits="userSpaceOnUse">
<stop stop-color="white"/>
<stop offset="1" stop-color="white" stop-opacity="0.21"/>
</linearGradient>
<linearGradient id="paint12_linear_5020_4290" x1="64" y1="61.8984" x2="64" y2="125.898" gradientUnits="userSpaceOnUse">
<stop stop-color="white"/>
<stop offset="1" stop-color="white" stop-opacity="0.21"/>
</linearGradient>
<linearGradient id="paint13_linear_5020_4290" x1="64" y1="67.0566" x2="64" y2="131.057" gradientUnits="userSpaceOnUse">
<stop stop-color="white"/>
<stop offset="1" stop-color="white" stop-opacity="0.21"/>
</linearGradient>
<linearGradient id="paint14_linear_5020_4290" x1="64" y1="72.2148" x2="64" y2="136.215" gradientUnits="userSpaceOnUse">
<stop stop-color="white"/>
<stop offset="1" stop-color="white" stop-opacity="0.21"/>
</linearGradient>
</defs>
</svg>
