<svg width="49" height="48" viewBox="0 0 49 48" fill="none" xmlns="http://www.w3.org/2000/svg">
<g clip-path="url(#clip0_10890_4427)">
<path d="M3.5 9.1579C3.5 7.41384 4.9103 6 6.65 6H42.35C44.0897 6 45.5 7.41384 45.5 9.15789V32.8421C45.5 34.5862 44.0897 36 42.35 36H6.65C4.91031 36 3.5 34.5862 3.5 32.8421V9.1579Z" fill="white"/>
<path d="M7.43747 32.0526H41.5625V9.94737H7.43747V32.0526ZM45.5 32.8421L45.4961 33.0049C45.4143 34.6196 44.1222 35.9144 42.5115 35.9961L42.35 36H6.64998C4.96476 36 3.58846 34.6733 3.50394 33.0049L3.5 32.8421V9.15789C3.5 7.41384 4.91029 6 6.64998 6H42.35L42.5115 6.00395C44.176 6.08836 45.5 7.46822 45.5 9.15789V32.8421Z" fill="#C9C0F2"/>
<path d="M45.5 33C45.5 34.6052 44.176 35.9161 42.5115 35.9962L42.35 36H6.64998C4.91029 36 3.5 34.6569 3.5 33V30H45.5V33Z" fill="#7362BB"/>
<path d="M31.5 26C32.0523 26 32.5 26.4477 32.5 27C32.5 27.5523 32.0523 28 31.5 28H17.5L17.3975 27.9951C16.8933 27.9438 16.5 27.5177 16.5 27C16.5 26.4823 16.8933 26.0562 17.3975 26.0049L17.5 26H31.5Z" fill="#9988DF"/>
<path d="M14.5 40C14.5 38.8954 15.3954 38 16.5 38H32.5C33.6046 38 34.5 38.8954 34.5 40C34.5 41.1046 33.6046 42 32.5 42H16.5C15.3954 42 14.5 41.1046 14.5 40Z" fill="#7362BB"/>
</g>
<defs>
<clipPath id="clip0_10890_4427">
<rect width="48" height="48" fill="white" transform="translate(0.5)"/>
</clipPath>
</defs>
</svg>
