<svg width="128" height="128" viewBox="0 0 128 128" fill="none" xmlns="http://www.w3.org/2000/svg">
<path opacity="0.8" fill-rule="evenodd" clip-rule="evenodd" d="M64.8 0.00765228C80.6506 0.311142 94.754 9.61813 103.982 24.0181C117.651 32.7775 126.731 45.9301 127.877 60.8C127.959 61.6466 128 62.5002 128 63.36L128 63.4796C127.999 63.5346 127.999 63.5895 127.998 63.6444L128 63.8223L128 64L128 64.2L128 64.32C128 64.4803 127.997 64.6403 127.992 64.8C127.689 80.6506 118.382 94.754 103.982 103.982C94.754 118.382 80.6506 127.689 64.8 127.992C64.6403 127.997 64.4803 128 64.32 128L64.2 128L64 128C63.8814 128 63.7629 127.999 63.6444 127.998C63.5497 127.999 63.4549 128 63.36 128C62.5002 128 61.6466 127.959 60.8 127.877C45.9301 126.731 32.7775 117.651 24.0181 103.982C9.61812 94.754 0.311144 80.6506 0.00765391 64.8C0.00255748 64.6403 0 64.4803 0 64.32L0.000477934 64.2L0 64C0 63.8814 0.000504174 63.7629 0.0015109 63.6444C0.000504174 63.5497 0 63.4549 0 63.36C0 62.5002 0.0413912 61.6466 0.122968 60.8C1.26919 45.9301 10.3491 32.7775 24.0181 24.0181C32.7775 10.3491 45.9301 1.2692 60.8 0.122971C61.6466 0.0413895 62.5002 0 63.36 0L63.4796 0.000267029C63.5346 0.000511169 63.5895 0.000923157 63.6444 0.00151062L63.8223 0.00037384L64 0L64.2 0.000473022L64.32 0C64.4803 0 64.6403 0.00256348 64.8 0.00765228ZM73.1702 1.84731C84.7526 4.52479 94.9875 12.1806 102.363 23.0138C99.0537 21.0285 95.4965 19.2936 91.7349 17.8444C86.6335 10.1858 80.2653 4.57221 73.1702 1.84731ZM125.148 51.2326C121.835 41.1325 114.683 32.2392 104.986 25.6374C106.664 28.433 108.162 31.4057 109.461 34.5292C116.618 39.1514 122.066 44.8594 125.148 51.2326ZM103.405 24.5954C105.233 27.4642 106.867 30.5381 108.281 33.7865C104.977 31.7596 101.333 29.9572 97.4111 28.4177C95.9599 25.034 94.3076 21.8785 92.4809 18.9931C96.3726 20.5632 100.031 22.4447 103.405 24.5954ZM126.635 57.9778C124.843 49.5174 118.883 41.8353 109.989 35.8363C111.071 38.5922 111.999 41.4595 112.76 44.4208C119.542 48.246 124.405 52.8794 126.635 57.9778ZM108.824 35.0712C109.985 37.8925 110.982 40.8388 111.798 43.8907C108.622 42.1799 105.053 40.6406 101.16 39.3056C100.236 35.8575 99.1245 32.5626 97.8455 29.452C101.831 31.064 105.513 32.9519 108.824 35.0712ZM127.194 63.9121C126.997 57.0715 121.843 50.6327 113.027 45.4958C114.44 51.3538 115.2 57.566 115.2 64C115.2 70.7081 114.374 77.1751 112.843 83.251C120.761 78.6803 125.765 73.0665 126.935 67.0506C127.085 66.0144 127.172 64.9677 127.194 63.9121ZM114.4 64C114.4 70.923 113.515 77.5748 111.882 83.793C110.93 84.3173 109.938 84.827 108.909 85.3211C106.529 86.4634 103.958 87.5162 101.22 88.4672C103.218 80.9295 104.32 72.6659 104.32 64C104.32 55.6031 103.285 47.5839 101.404 40.2368C104.073 41.171 106.582 42.2021 108.909 43.3189C110.007 43.8463 111.063 44.3914 112.074 44.9531C113.584 50.9562 114.4 57.3532 114.4 64ZM125.274 73.2189C122.667 77.3593 118.289 81.1306 112.563 84.3296C112.004 86.4153 111.362 88.4531 110.641 90.4368C117.603 85.5973 122.688 79.706 125.274 73.2189ZM111.593 84.859C110.988 87.0317 110.29 89.1494 109.507 91.205C109.281 91.3542 109.053 91.5023 108.824 91.6493C105.682 93.6601 102.207 95.4621 98.4552 97.0182C99.3968 94.5802 100.237 92.036 100.967 89.4C104.852 88.0784 108.416 86.554 111.593 84.859ZM126.153 73.1702C123.428 80.2653 117.814 86.6335 110.156 91.7349C108.706 95.4965 106.972 99.0537 104.986 102.363C115.819 94.9874 123.475 84.7526 126.153 73.1702ZM109.007 92.4809C107.437 96.3726 105.555 100.031 103.405 103.405C100.031 105.555 96.3726 107.437 92.4809 109.007C94.5809 105.69 96.4503 102.016 98.0487 98.0487C102.016 96.4503 105.69 94.5808 109.007 92.4809ZM73.1702 126.153C84.7526 123.475 94.9875 115.819 102.363 104.986C99.0537 106.972 95.4965 108.706 91.7349 110.156C86.6336 117.814 80.2653 123.428 73.1702 126.153ZM73.2189 125.274C79.706 122.688 85.5973 117.603 90.4368 110.641C88.4531 111.362 86.4153 112.004 84.3296 112.563C81.1306 118.289 77.3593 122.667 73.2189 125.274ZM84.859 111.593C87.0317 110.988 89.1494 110.29 91.205 109.507C91.3542 109.281 91.5023 109.053 91.6493 108.824C93.6601 105.682 95.4621 102.207 97.0182 98.4552C94.5802 99.3968 92.0361 100.237 89.4 100.967C88.0784 104.852 86.554 108.416 84.859 111.593ZM89.7062 100.051C92.386 99.2899 94.9669 98.4141 97.4333 97.4333C98.4141 94.9669 99.2899 92.386 100.051 89.7062C97.4822 90.5482 94.7794 91.3027 91.9609 91.9609C91.3027 94.7794 90.5482 97.4822 89.7062 100.051ZM92.1598 91.0921C95.0049 90.4164 97.7277 89.6418 100.308 88.7781C102.374 81.1744 103.52 72.8009 103.52 64C103.52 55.4695 102.444 47.3406 100.496 39.925C97.905 39.051 95.1693 38.2672 92.3093 37.5835C93.8707 44.7527 94.8162 52.6279 95.005 60.9159C95.1338 62.0332 95.2 63.1691 95.2 64.32C95.2 65.5323 95.1266 66.7278 94.9838 67.9025C94.7457 76.1509 93.7576 83.9781 92.1598 91.0921ZM93.9477 72.8378C93.5123 79.3645 92.6019 85.5686 91.2939 91.2939C84.2236 92.9092 76.4231 93.9181 68.1866 94.1749C80.4784 92.7033 90.5313 84.1593 93.9477 72.8378ZM94.1853 67.84C92.4045 82.3377 79.7634 93.6 64.4 93.6C47.9085 93.6 34.5537 80.623 34.4013 64.5971C34.4008 64.471 34.4004 64.3448 34.4002 64.2186C34.4562 48.1119 47.8482 35.04 64.4 35.04C79.8246 35.04 92.5052 46.3922 94.2061 60.9734C94.2286 61.9762 94.24 62.9853 94.24 64C94.24 65.2895 94.2216 66.5699 94.1853 67.84ZM93.9994 55.9754C90.6337 44.5679 80.541 35.9442 68.1865 34.4651C76.482 34.7237 84.3353 35.7452 91.4457 37.3809C92.7254 43.1567 93.6026 49.4072 93.9994 55.9754ZM60.8599 34.4365C52.4406 34.6329 44.46 35.6147 37.2282 37.2282C35.8834 43.2555 34.9775 49.8028 34.5993 56.6908C37.7679 44.8532 48.1357 35.8586 60.8599 34.4365ZM33.6002 64.2178C33.6001 64.1452 33.6 64.0726 33.6 64C33.6 54.5187 34.5896 45.5189 36.3655 37.4245C32.734 38.267 29.2978 39.2699 26.097 40.4134C24.2297 47.6969 23.2 55.6564 23.2 64C23.2 72.6138 24.2975 80.8182 26.281 88.2921C29.4736 89.4241 32.8984 90.4166 36.5158 91.2502C34.6842 83.1532 33.6435 74.1267 33.6013 64.6031C33.6004 64.5088 33.6 64.4145 33.6 64.32C33.6 64.2859 33.6001 64.2518 33.6002 64.2178ZM34.6466 72.1236C35.0654 78.97 36.0063 85.4702 37.3809 91.4457C44.5723 93.0391 52.4997 94.0084 60.8598 94.2034C48.1982 92.7883 37.8699 83.875 34.6466 72.1236ZM92.1165 36.7156C94.9509 37.382 97.6676 38.146 100.247 38.9986C99.288 35.5042 98.1338 32.1739 96.807 29.0409C94.3838 28.1021 91.8531 27.2638 89.2292 26.5354C90.335 29.7208 91.3034 33.1268 92.1165 36.7156ZM88.9043 25.6169C91.4813 26.3142 93.972 27.1165 96.3635 28.0153C94.9633 24.8453 93.384 21.8869 91.6493 19.1764C91.5023 18.9467 91.3542 18.7188 91.205 18.4928C89.1494 17.7095 87.0317 17.0122 84.859 16.4067C86.346 19.1937 87.7016 22.2788 88.9043 25.6169ZM84.3296 15.4371C86.4153 15.9957 88.4531 16.6378 90.4368 17.3585C85.5973 10.3966 79.706 5.31161 73.2189 2.72642C77.3593 5.3328 81.1306 9.71075 84.3296 15.4371ZM85.3211 19.0913C84.827 18.062 84.3173 17.0705 83.793 16.1182C77.5749 14.4849 70.923 13.6 64 13.6C57.3532 13.6 50.9562 14.4157 44.9531 15.9264C44.3914 16.9371 43.8463 17.9927 43.3189 19.0913C42.4007 21.0043 41.5403 23.0408 40.7442 25.1881C47.9525 23.3879 55.796 22.4 64 22.4C72.4728 22.4 80.561 23.4537 87.9622 25.3676C87.1475 23.1542 86.2649 21.0576 85.3211 19.0913ZM64 12.8C57.566 12.8 51.3538 13.5595 45.4958 14.9726C50.6327 6.15662 57.0715 1.0032 63.9121 0.805885C64.9677 0.828407 66.0144 0.915405 67.0506 1.0647C73.0665 2.23496 78.6803 7.2393 83.251 15.1568C77.1751 13.6256 70.7081 12.8 64 12.8ZM39.8038 25.4284C41.0192 22.081 42.3888 18.9902 43.8907 16.2021C40.8388 17.0181 37.8925 18.0147 35.0712 19.1756C33.2279 22.0559 31.5595 25.2167 30.0956 28.6133C33.1667 27.3833 36.4125 26.3154 39.8038 25.4284ZM44.4208 15.2403C41.4595 16.0007 38.5922 16.929 35.8363 18.0111C41.8353 9.11721 49.5174 3.15672 57.9778 1.36548C52.8794 3.59495 48.246 8.45809 44.4208 15.2403ZM29.0438 29.0438C30.439 25.7066 32.0283 22.5854 33.7865 19.7194C30.5381 21.1328 27.4642 22.7668 24.5954 24.5954C22.7668 27.4642 21.1328 30.5381 19.7194 33.7865C22.5855 32.0282 25.7066 30.439 29.0438 29.0438ZM34.5292 18.5394C31.4057 19.838 28.4329 21.3365 25.6374 23.0138C32.2392 13.3165 41.1325 6.16522 51.2326 2.85167C44.8593 5.93414 39.1514 11.3823 34.5292 18.5394ZM18.5394 34.5292C19.838 31.4057 21.3365 28.4329 23.0138 25.6374C13.3165 32.2392 6.16523 41.1325 2.85168 51.2326C5.93415 44.8593 11.3823 39.1514 18.5394 34.5292ZM19.1756 35.0712C18.0147 37.8925 17.0181 40.8388 16.2021 43.8907C18.9902 42.3888 22.081 41.0191 25.4284 39.8038C26.3154 36.4125 27.3833 33.1667 28.6133 30.0956C25.2167 31.5595 22.0559 33.2279 19.1756 35.0712ZM18.0111 35.8363C16.929 38.5922 16.0007 41.4595 15.2403 44.4208C8.45809 48.246 3.59496 52.8793 1.36549 57.9778C3.15674 49.5173 9.11721 41.8353 18.0111 35.8363ZM19.0914 43.3189C17.9927 43.8463 16.9371 44.3914 15.9264 44.9531C14.4157 50.9562 13.6 57.3532 13.6 64C13.6 70.923 14.4849 77.5748 16.1182 83.793C17.0705 84.3173 18.062 84.827 19.0914 85.3211C21.0576 86.2649 23.1542 87.1475 25.3676 87.9621C23.4537 80.561 22.4 72.4728 22.4 64C22.4 55.796 23.3879 47.9525 25.1881 40.7442C23.0408 41.5403 21.0043 42.4007 19.0914 43.3189ZM12.8 64C12.8 70.7081 13.6256 77.1751 15.1568 83.251C7.23931 78.6803 2.23499 73.0665 1.06472 67.0506C0.915408 66.0144 0.828399 64.9677 0.805884 63.912C1.00323 57.0714 6.15663 50.6326 14.9726 45.4958C13.5595 51.3538 12.8 57.566 12.8 64ZM25.6168 88.9043C22.2788 87.7016 19.1937 86.346 16.4067 84.859C17.0122 87.0317 17.7095 89.1494 18.4928 91.205C18.7188 91.3542 18.9467 91.5023 19.1764 91.6493C21.8869 93.384 24.8452 94.9633 28.0153 96.3634C27.1164 93.972 26.3142 91.4813 25.6168 88.9043ZM15.4371 84.3296C15.9957 86.4153 16.6378 88.4531 17.3585 90.4368C10.3966 85.5973 5.31162 79.706 2.72643 73.2189C5.33281 77.3593 9.71076 81.1306 15.4371 84.3296ZM28.4177 97.4111C25.034 95.9599 21.8785 94.3076 18.9932 92.4809C20.5632 96.3726 22.4447 100.031 24.5954 103.405C27.4642 105.233 30.5381 106.867 33.7865 108.281C31.7595 104.977 29.9572 101.333 28.4177 97.4111ZM17.8444 91.7349C19.2936 95.4965 21.0285 99.0537 23.0138 102.363C12.1806 94.9875 4.5248 84.7526 1.84732 73.1702C4.57221 80.2653 10.1858 86.6336 17.8444 91.7349ZM34.5292 109.461C31.4057 108.162 28.4329 106.664 25.6374 104.986C32.2392 114.683 41.1325 121.835 51.2326 125.148C44.8593 122.066 39.1514 116.618 34.5292 109.461ZM35.0712 108.824C37.8925 109.985 40.8388 110.982 43.8907 111.798C42.1798 108.622 40.6406 105.053 39.3056 101.16C35.8575 100.236 32.5626 99.1245 29.452 97.8455C31.064 101.831 32.9519 105.513 35.0712 108.824ZM35.8363 109.989C38.5922 111.071 41.4595 111.999 44.4208 112.76C48.246 119.542 52.8793 124.405 57.9778 126.635C49.5173 124.843 41.8353 118.883 35.8363 109.989ZM43.3189 108.909C43.8463 110.007 44.3914 111.063 44.9531 112.074C50.9562 113.584 57.3532 114.4 64 114.4C70.923 114.4 77.5749 113.515 83.793 111.882C84.3173 110.93 84.827 109.938 85.3211 108.909C86.4634 106.529 87.5162 103.958 88.4672 101.22C80.9295 103.218 72.6659 104.32 64 104.32C55.6031 104.32 47.5839 103.285 40.2368 101.404C41.171 104.073 42.2021 106.582 43.3189 108.909ZM64 115.2C70.7081 115.2 77.1751 114.374 83.251 112.843C78.6803 120.761 73.0666 125.765 67.0506 126.935C66.0144 127.085 64.9677 127.172 63.912 127.194C57.0714 126.997 50.6326 121.843 45.4958 113.027C51.3538 114.44 57.566 115.2 64 115.2ZM64 103.52C72.8009 103.52 81.1744 102.374 88.7781 100.308C89.6419 97.7277 90.4165 95.0049 91.0921 92.1598C82.8648 94.0077 73.6835 95.04 64 95.04C54.5807 95.04 45.6366 94.0633 37.5835 92.3093C38.2672 95.1693 39.051 97.905 39.925 100.496C47.3406 102.444 55.4695 103.52 64 103.52ZM64 33.6C73.7456 33.6 82.9824 34.6456 91.2502 36.5158C90.4166 32.8984 89.4241 29.4736 88.2921 26.281C80.8182 24.2975 72.6138 23.2 64 23.2C55.6564 23.2 47.6969 24.2297 40.4134 26.097C39.2699 29.2978 38.267 32.734 37.4245 36.3654C45.5189 34.5896 54.5187 33.6 64 33.6ZM36.5591 36.5591C37.3813 32.9553 38.3605 29.5369 39.4781 26.3423C36.0374 27.2657 32.7528 28.3771 29.6558 29.6558C28.3771 32.7528 27.2657 36.0374 26.3423 39.4781C29.5369 38.3604 32.9553 37.3813 36.5591 36.5591ZM36.7156 92.1165C33.1268 91.3034 29.7208 90.335 26.5354 89.2292C27.2638 91.8531 28.102 94.3838 29.0409 96.807C32.1739 98.1338 35.5042 99.2879 38.9985 100.247C38.146 97.6676 37.382 94.9509 36.7156 92.1165Z" fill="url(#paint0_linear_5017_14651)"/>
<defs>
<linearGradient id="paint0_linear_5017_14651" x1="114" y1="101.2" x2="5.99999" y2="10" gradientUnits="userSpaceOnUse">
<stop stop-color="white"/>
<stop offset="0.376612" stop-color="white"/>
<stop offset="1" stop-color="white" stop-opacity="0"/>
</linearGradient>
</defs>
</svg>
