<svg width="49" height="48" viewBox="0 0 49 48" fill="none" xmlns="http://www.w3.org/2000/svg">
<g clip-path="url(#clip0_10890_4463)">
<path d="M7.5 10.1667C7.5 8.41776 8.88385 7 10.5909 7H38.4091C40.1162 7 41.5 8.41776 41.5 10.1667V41.8333C41.5 43.5822 40.1162 45 38.4091 45H10.5909C8.88385 45 7.5 43.5822 7.5 41.8333V10.1667Z" fill="white"/>
<path d="M11.3636 41.0417H37.6364V10.9583H11.3636V41.0417ZM41.5 41.8333C41.5 43.5275 40.2015 44.9111 38.5685 44.996L38.4091 45H10.5909L10.4315 44.996C8.85132 44.9138 7.58412 43.6156 7.50386 41.9966L7.5 41.8333V10.1667C7.5 8.41777 8.88385 7 10.5909 7H38.4091C40.1162 7 41.5 8.41777 41.5 10.1667V41.8333Z" fill="#C9C0F2"/>
<path d="M28.5 31.25C29.0523 31.25 29.5 31.6977 29.5 32.25C29.5 32.8023 29.0523 33.25 28.5 33.25H16.5C15.9477 33.25 15.5 32.8023 15.5 32.25C15.5 31.6977 15.9477 31.25 16.5 31.25H28.5ZM32.5 25.25C33.0523 25.25 33.5 25.6977 33.5 26.25C33.5 26.8023 33.0523 27.25 32.5 27.25H16.5C15.9477 27.25 15.5 26.8023 15.5 26.25C15.5 25.6977 15.9477 25.25 16.5 25.25H32.5ZM32.2725 19C32.9503 19 33.5 19.4477 33.5 20C33.5 20.5523 32.9503 21 32.2725 21H16.7275C16.0497 21 15.5 20.5523 15.5 20C15.5 19.4477 16.0497 19 16.7275 19H32.2725Z" fill="#9988DF"/>
<path d="M24.5 3C26.3638 3 27.93 4.27477 28.374 6H29.5C31.1569 6 32.5 7.34315 32.5 9C32.5 10.6569 31.1569 12 29.5 12H19.5C17.8431 12 16.5 10.6569 16.5 9C16.5 7.34315 17.8431 6 19.5 6H20.626C21.07 4.27477 22.6362 3 24.5 3Z" fill="#7362BB"/>
</g>
<defs>
<clipPath id="clip0_10890_4463">
<rect width="48" height="48" fill="white" transform="translate(0.5)"/>
</clipPath>
</defs>
</svg>
